G04 #@! TF.GenerationSoftware,KiCad,Pcbnew,5.0.0-rc2-dev-unknown-f73b9a5~65~ubuntu16.04.1*
G04 #@! TF.CreationDate,2018-05-13T13:10:50+02:00*
G04 #@! TF.ProjectId,Libreductioner,4C6962726564756374696F6E65722E6B,rev?*
G04 #@! TF.SameCoordinates,Original*
G04 #@! TF.FileFunction,Copper,L2,Bot,Signal*
G04 #@! TF.FilePolarity,Positive*
%FSLAX46Y46*%
G04 Gerber Fmt 4.6, Leading zero omitted, Abs format (unit mm)*
G04 Created by KiCad (PCBNEW 5.0.0-rc2-dev-unknown-f73b9a5~65~ubuntu16.04.1) date Sun May 13 13:10:50 2018*
%MOMM*%
%LPD*%
G01*
G04 APERTURE LIST*
%ADD10R,1.600000X1.600000*%
%ADD11O,1.600000X1.600000*%
%ADD12O,1.700000X1.700000*%
%ADD13R,1.700000X1.700000*%
%ADD14C,1.500000*%
%ADD15R,1.800000X1.800000*%
%ADD16O,1.800000X1.800000*%
%ADD17R,2.400000X2.400000*%
%ADD18C,2.400000*%
%ADD19C,2.000000*%
%ADD20O,2.400000X2.400000*%
%ADD21R,1.500000X1.145000*%
%ADD22R,2.000000X3.800000*%
%ADD23R,2.000000X1.500000*%
%ADD24R,1.800000X3.600000*%
%ADD25O,1.800000X3.600000*%
%ADD26O,3.600000X1.800000*%
%ADD27R,3.600000X1.800000*%
%ADD28R,1.070000X1.800000*%
%ADD29O,1.070000X1.800000*%
%ADD30R,1.145000X1.500000*%
%ADD31R,1.500000X0.500000*%
%ADD32C,0.100000*%
%ADD33C,1.000000*%
%ADD34R,0.600000X0.500000*%
%ADD35C,0.800000*%
%ADD36C,0.250000*%
%ADD37C,1.000000*%
%ADD38C,0.500000*%
%ADD39C,2.000000*%
%ADD40C,0.254000*%
G04 APERTURE END LIST*
D10*
X86487000Y-99187000D03*
D11*
X94107000Y-101727000D03*
X86487000Y-101727000D03*
X94107000Y-99187000D03*
X72237790Y-125109952D03*
X72237790Y-109869952D03*
X107797790Y-125109952D03*
X74777790Y-109869952D03*
X105257790Y-125109952D03*
X77317790Y-109869952D03*
X102717790Y-125109952D03*
X79857790Y-109869952D03*
X100177790Y-125109952D03*
X82397790Y-109869952D03*
X97637790Y-125109952D03*
X84937790Y-109869952D03*
X95097790Y-125109952D03*
X87477790Y-109869952D03*
X92557790Y-125109952D03*
X90017790Y-109869952D03*
X90017790Y-125109952D03*
X92557790Y-109869952D03*
X87477790Y-125109952D03*
X95097790Y-109869952D03*
X84937790Y-125109952D03*
X97637790Y-109869952D03*
X82397790Y-125109952D03*
X100177790Y-109869952D03*
X79857790Y-125109952D03*
X102717790Y-109869952D03*
X77317790Y-125109952D03*
X105257790Y-109869952D03*
X74777790Y-125109952D03*
D10*
X107797790Y-109869952D03*
D12*
X103352790Y-115330952D03*
X105892790Y-115330952D03*
X103352790Y-117870952D03*
X105892790Y-117870952D03*
X103352790Y-120410952D03*
D13*
X105892790Y-120410952D03*
D14*
X73507790Y-115002952D03*
X73507790Y-119902952D03*
D15*
X73025000Y-88392000D03*
D16*
X75565000Y-88392000D03*
X78105000Y-88392000D03*
D17*
X93345000Y-72517000D03*
D18*
X85845000Y-72517000D03*
X85845000Y-88392000D03*
D17*
X93345000Y-88392000D03*
D19*
X100076000Y-130537500D03*
X100076000Y-135037500D03*
X93576000Y-130537500D03*
X93576000Y-135037500D03*
X108435000Y-135037500D03*
X108435000Y-130537500D03*
X114935000Y-135037500D03*
X114935000Y-130537500D03*
D20*
X110236000Y-66421000D03*
D18*
X110236000Y-96901000D03*
X101981000Y-96901000D03*
D20*
X101981000Y-66421000D03*
D10*
X79248000Y-82423000D03*
D11*
X71628000Y-82423000D03*
D13*
X76708000Y-77089000D03*
D12*
X74168000Y-77089000D03*
D20*
X105791000Y-66421000D03*
D18*
X105791000Y-96901000D03*
X114046000Y-96901000D03*
D20*
X114046000Y-66421000D03*
D13*
X116332000Y-106045000D03*
D12*
X116332000Y-103505000D03*
D21*
X83312000Y-104902000D03*
X83312000Y-106987000D03*
X71501000Y-105817500D03*
X71501000Y-103732500D03*
D22*
X80366000Y-104140000D03*
D23*
X74066000Y-104140000D03*
X74066000Y-101840000D03*
X74066000Y-106440000D03*
D24*
X77851000Y-69723000D03*
D25*
X72771000Y-69723000D03*
D26*
X114808000Y-115062000D03*
D27*
X114808000Y-120142000D03*
D28*
X88646000Y-132715000D03*
D29*
X87376000Y-132715000D03*
X86106000Y-132715000D03*
X84836000Y-132715000D03*
D30*
X92202000Y-104013000D03*
X94287000Y-104013000D03*
D21*
X88773000Y-101219000D03*
X88773000Y-103304000D03*
D10*
X107315000Y-102743000D03*
D11*
X99695000Y-100203000D03*
X107315000Y-100203000D03*
X99695000Y-102743000D03*
D31*
X74422000Y-95739000D03*
X74422000Y-96539000D03*
D32*
G36*
X74721009Y-96291407D02*
X74769545Y-96298606D01*
X74817142Y-96310529D01*
X74863342Y-96327059D01*
X74907698Y-96348038D01*
X74949785Y-96373264D01*
X74989197Y-96402494D01*
X75025553Y-96435446D01*
X75058505Y-96471802D01*
X75087735Y-96511214D01*
X75112961Y-96553301D01*
X75133940Y-96597657D01*
X75150470Y-96643857D01*
X75162393Y-96691454D01*
X75169592Y-96739990D01*
X75172000Y-96788999D01*
X75172000Y-96789001D01*
X75169592Y-96838010D01*
X75162393Y-96886546D01*
X75150470Y-96934143D01*
X75133940Y-96980343D01*
X75112961Y-97024699D01*
X75087735Y-97066786D01*
X75058505Y-97106198D01*
X75025553Y-97142554D01*
X74989197Y-97175506D01*
X74949785Y-97204736D01*
X74907698Y-97229962D01*
X74863342Y-97250941D01*
X74817142Y-97267471D01*
X74769545Y-97279394D01*
X74721009Y-97286593D01*
X74672000Y-97289001D01*
X74172000Y-97289001D01*
X74122991Y-97286593D01*
X74074455Y-97279394D01*
X74026858Y-97267471D01*
X73980658Y-97250941D01*
X73936302Y-97229962D01*
X73894215Y-97204736D01*
X73854803Y-97175506D01*
X73818447Y-97142554D01*
X73785495Y-97106198D01*
X73756265Y-97066786D01*
X73731039Y-97024699D01*
X73710060Y-96980343D01*
X73693530Y-96934143D01*
X73681607Y-96886546D01*
X73674408Y-96838010D01*
X73672000Y-96789001D01*
X73672000Y-96788999D01*
X73674408Y-96739990D01*
X73681607Y-96691454D01*
X73693530Y-96643857D01*
X73710060Y-96597657D01*
X73731039Y-96553301D01*
X73756265Y-96511214D01*
X73785495Y-96471802D01*
X73818447Y-96435446D01*
X73854803Y-96402494D01*
X73894215Y-96373264D01*
X73936302Y-96348038D01*
X73980658Y-96327059D01*
X74026858Y-96310529D01*
X74074455Y-96298606D01*
X74122991Y-96291407D01*
X74172000Y-96288999D01*
X74672000Y-96288999D01*
X74721009Y-96291407D01*
X74721009Y-96291407D01*
G37*
D33*
X74422000Y-96789000D03*
D32*
G36*
X74721009Y-94991407D02*
X74769545Y-94998606D01*
X74817142Y-95010529D01*
X74863342Y-95027059D01*
X74907698Y-95048038D01*
X74949785Y-95073264D01*
X74989197Y-95102494D01*
X75025553Y-95135446D01*
X75058505Y-95171802D01*
X75087735Y-95211214D01*
X75112961Y-95253301D01*
X75133940Y-95297657D01*
X75150470Y-95343857D01*
X75162393Y-95391454D01*
X75169592Y-95439990D01*
X75172000Y-95488999D01*
X75172000Y-95489001D01*
X75169592Y-95538010D01*
X75162393Y-95586546D01*
X75150470Y-95634143D01*
X75133940Y-95680343D01*
X75112961Y-95724699D01*
X75087735Y-95766786D01*
X75058505Y-95806198D01*
X75025553Y-95842554D01*
X74989197Y-95875506D01*
X74949785Y-95904736D01*
X74907698Y-95929962D01*
X74863342Y-95950941D01*
X74817142Y-95967471D01*
X74769545Y-95979394D01*
X74721009Y-95986593D01*
X74672000Y-95989001D01*
X74172000Y-95989001D01*
X74122991Y-95986593D01*
X74074455Y-95979394D01*
X74026858Y-95967471D01*
X73980658Y-95950941D01*
X73936302Y-95929962D01*
X73894215Y-95904736D01*
X73854803Y-95875506D01*
X73818447Y-95842554D01*
X73785495Y-95806198D01*
X73756265Y-95766786D01*
X73731039Y-95724699D01*
X73710060Y-95680343D01*
X73693530Y-95634143D01*
X73681607Y-95586546D01*
X73674408Y-95538010D01*
X73672000Y-95489001D01*
X73672000Y-95488999D01*
X73674408Y-95439990D01*
X73681607Y-95391454D01*
X73693530Y-95343857D01*
X73710060Y-95297657D01*
X73731039Y-95253301D01*
X73756265Y-95211214D01*
X73785495Y-95171802D01*
X73818447Y-95135446D01*
X73854803Y-95102494D01*
X73894215Y-95073264D01*
X73936302Y-95048038D01*
X73980658Y-95027059D01*
X74026858Y-95010529D01*
X74074455Y-94998606D01*
X74122991Y-94991407D01*
X74172000Y-94988999D01*
X74672000Y-94988999D01*
X74721009Y-94991407D01*
X74721009Y-94991407D01*
G37*
D33*
X74422000Y-95489000D03*
D34*
X74422000Y-96139000D03*
X103251000Y-101473000D03*
D32*
G36*
X103550009Y-101625407D02*
X103598545Y-101632606D01*
X103646142Y-101644529D01*
X103692342Y-101661059D01*
X103736698Y-101682038D01*
X103778785Y-101707264D01*
X103818197Y-101736494D01*
X103854553Y-101769446D01*
X103887505Y-101805802D01*
X103916735Y-101845214D01*
X103941961Y-101887301D01*
X103962940Y-101931657D01*
X103979470Y-101977857D01*
X103991393Y-102025454D01*
X103998592Y-102073990D01*
X104001000Y-102122999D01*
X104001000Y-102123001D01*
X103998592Y-102172010D01*
X103991393Y-102220546D01*
X103979470Y-102268143D01*
X103962940Y-102314343D01*
X103941961Y-102358699D01*
X103916735Y-102400786D01*
X103887505Y-102440198D01*
X103854553Y-102476554D01*
X103818197Y-102509506D01*
X103778785Y-102538736D01*
X103736698Y-102563962D01*
X103692342Y-102584941D01*
X103646142Y-102601471D01*
X103598545Y-102613394D01*
X103550009Y-102620593D01*
X103501000Y-102623001D01*
X103001000Y-102623001D01*
X102951991Y-102620593D01*
X102903455Y-102613394D01*
X102855858Y-102601471D01*
X102809658Y-102584941D01*
X102765302Y-102563962D01*
X102723215Y-102538736D01*
X102683803Y-102509506D01*
X102647447Y-102476554D01*
X102614495Y-102440198D01*
X102585265Y-102400786D01*
X102560039Y-102358699D01*
X102539060Y-102314343D01*
X102522530Y-102268143D01*
X102510607Y-102220546D01*
X102503408Y-102172010D01*
X102501000Y-102123001D01*
X102501000Y-102122999D01*
X102503408Y-102073990D01*
X102510607Y-102025454D01*
X102522530Y-101977857D01*
X102539060Y-101931657D01*
X102560039Y-101887301D01*
X102585265Y-101845214D01*
X102614495Y-101805802D01*
X102647447Y-101769446D01*
X102683803Y-101736494D01*
X102723215Y-101707264D01*
X102765302Y-101682038D01*
X102809658Y-101661059D01*
X102855858Y-101644529D01*
X102903455Y-101632606D01*
X102951991Y-101625407D01*
X103001000Y-101622999D01*
X103501000Y-101622999D01*
X103550009Y-101625407D01*
X103550009Y-101625407D01*
G37*
D33*
X103251000Y-102123000D03*
D32*
G36*
X103550009Y-100325407D02*
X103598545Y-100332606D01*
X103646142Y-100344529D01*
X103692342Y-100361059D01*
X103736698Y-100382038D01*
X103778785Y-100407264D01*
X103818197Y-100436494D01*
X103854553Y-100469446D01*
X103887505Y-100505802D01*
X103916735Y-100545214D01*
X103941961Y-100587301D01*
X103962940Y-100631657D01*
X103979470Y-100677857D01*
X103991393Y-100725454D01*
X103998592Y-100773990D01*
X104001000Y-100822999D01*
X104001000Y-100823001D01*
X103998592Y-100872010D01*
X103991393Y-100920546D01*
X103979470Y-100968143D01*
X103962940Y-101014343D01*
X103941961Y-101058699D01*
X103916735Y-101100786D01*
X103887505Y-101140198D01*
X103854553Y-101176554D01*
X103818197Y-101209506D01*
X103778785Y-101238736D01*
X103736698Y-101263962D01*
X103692342Y-101284941D01*
X103646142Y-101301471D01*
X103598545Y-101313394D01*
X103550009Y-101320593D01*
X103501000Y-101323001D01*
X103001000Y-101323001D01*
X102951991Y-101320593D01*
X102903455Y-101313394D01*
X102855858Y-101301471D01*
X102809658Y-101284941D01*
X102765302Y-101263962D01*
X102723215Y-101238736D01*
X102683803Y-101209506D01*
X102647447Y-101176554D01*
X102614495Y-101140198D01*
X102585265Y-101100786D01*
X102560039Y-101058699D01*
X102539060Y-101014343D01*
X102522530Y-100968143D01*
X102510607Y-100920546D01*
X102503408Y-100872010D01*
X102501000Y-100823001D01*
X102501000Y-100822999D01*
X102503408Y-100773990D01*
X102510607Y-100725454D01*
X102522530Y-100677857D01*
X102539060Y-100631657D01*
X102560039Y-100587301D01*
X102585265Y-100545214D01*
X102614495Y-100505802D01*
X102647447Y-100469446D01*
X102683803Y-100436494D01*
X102723215Y-100407264D01*
X102765302Y-100382038D01*
X102809658Y-100361059D01*
X102855858Y-100344529D01*
X102903455Y-100332606D01*
X102951991Y-100325407D01*
X103001000Y-100322999D01*
X103501000Y-100322999D01*
X103550009Y-100325407D01*
X103550009Y-100325407D01*
G37*
D33*
X103251000Y-100823000D03*
D31*
X103251000Y-101073000D03*
X103251000Y-101873000D03*
D13*
X69342000Y-134620000D03*
D12*
X71882000Y-134620000D03*
X74422000Y-134620000D03*
X76962000Y-134620000D03*
X79502000Y-134620000D03*
X82042000Y-134620000D03*
D13*
X69215000Y-130810000D03*
D12*
X71755000Y-130810000D03*
D13*
X69469000Y-97917000D03*
D12*
X72009000Y-97917000D03*
D21*
X76047790Y-120110452D03*
X76047790Y-122195452D03*
X76047790Y-112637452D03*
X76047790Y-114722452D03*
D35*
X96875790Y-115838952D03*
X101346000Y-108712000D03*
X89128790Y-121680952D03*
X79576000Y-131064000D03*
X85177955Y-121022797D03*
X103759000Y-127862500D03*
X100685790Y-120283952D03*
X80111790Y-122315952D03*
X103759000Y-129947500D03*
X110934500Y-106050000D03*
X69469000Y-90932000D03*
X69469000Y-86106000D03*
X70866000Y-66421000D03*
X82550000Y-66294000D03*
X95504000Y-66294000D03*
X100203000Y-70739000D03*
X114427000Y-70739000D03*
X115443000Y-92329000D03*
X101219000Y-92456000D03*
X69215000Y-107696000D03*
X76507000Y-94234000D03*
X83907459Y-119062964D03*
X94716784Y-112409958D03*
X94749790Y-121807952D03*
X107569000Y-105664000D03*
X76200000Y-103505000D03*
X74422000Y-96589002D03*
X84219250Y-113881172D03*
X89482000Y-104013000D03*
X83900850Y-114838586D03*
X85191790Y-115076952D03*
X90496805Y-115099443D03*
X91292254Y-115705483D03*
X98272790Y-120410952D03*
X90193894Y-121039664D03*
X99094898Y-119692030D03*
X91160782Y-126746000D03*
X85598000Y-126619000D03*
X91202985Y-119955538D03*
X85699790Y-115965952D03*
X91414788Y-117155494D03*
X101447790Y-118505952D03*
X84810790Y-116727952D03*
X92476100Y-117816617D03*
X93192786Y-118632952D03*
X83108658Y-116261765D03*
X81862000Y-97155000D03*
X94869000Y-92583000D03*
X91821000Y-92583000D03*
X76962000Y-90424000D03*
X74422000Y-94234000D03*
X80772000Y-75639000D03*
X70358000Y-75692000D03*
D36*
X97637790Y-109869952D02*
X97637790Y-115076952D01*
X97637790Y-115076952D02*
X97275789Y-115438953D01*
X97275789Y-115438953D02*
X96875790Y-115838952D01*
X97637790Y-115076952D02*
X97648048Y-115076952D01*
X97648048Y-115076952D02*
X101473000Y-111252000D01*
X101473000Y-108839000D02*
X101346000Y-108712000D01*
X101473000Y-111252000D02*
X101473000Y-108839000D01*
X107289790Y-121298954D02*
X107289790Y-116727952D01*
X107289790Y-116727952D02*
X105892790Y-115330952D01*
X105765790Y-122188952D02*
X106399792Y-122188952D01*
X106399792Y-122188952D02*
X107289790Y-121298954D01*
X103644789Y-124309953D02*
X105765790Y-122188952D01*
X102717790Y-125109952D02*
X103517789Y-124309953D01*
X103517789Y-124309953D02*
X103644789Y-124309953D01*
X89128790Y-121680952D02*
X86323002Y-124486740D01*
X85632174Y-127471004D02*
X82042000Y-131061178D01*
X86323002Y-124486740D02*
X86323002Y-126967004D01*
X82042000Y-131061178D02*
X82042000Y-133417919D01*
X82042000Y-133417919D02*
X82042000Y-134620000D01*
X86323002Y-126967004D02*
X85819002Y-127471004D01*
X85819002Y-127471004D02*
X85632174Y-127471004D01*
D37*
X108435000Y-130537500D02*
X114935000Y-130537500D01*
D38*
X107435001Y-129537501D02*
X108435000Y-130537500D01*
X96160339Y-128712501D02*
X106610001Y-128712501D01*
X92557790Y-125109952D02*
X96160339Y-128712501D01*
X106610001Y-128712501D02*
X107435001Y-129537501D01*
D37*
X93576000Y-130537500D02*
X100076000Y-130537500D01*
D38*
X92576001Y-129537501D02*
X91437501Y-129537501D01*
X93576000Y-130537500D02*
X92576001Y-129537501D01*
X90017790Y-128117790D02*
X90017790Y-125109952D01*
X91437501Y-129537501D02*
X90017790Y-128117790D01*
D36*
X82397790Y-128242210D02*
X79576000Y-131064000D01*
X82397790Y-125109952D02*
X82397790Y-128242210D01*
D38*
X100390338Y-127862500D02*
X97637790Y-125109952D01*
X103759000Y-127862500D02*
X100390338Y-127862500D01*
D36*
X87420235Y-118780517D02*
X85577954Y-120622798D01*
X92378006Y-120606557D02*
X92378006Y-119380253D01*
X92378006Y-119380253D02*
X91778270Y-118780517D01*
X91778270Y-118780517D02*
X87420235Y-118780517D01*
X97637790Y-125109952D02*
X96113790Y-123585952D01*
X96113790Y-123585952D02*
X95357401Y-123585952D01*
X95357401Y-123585952D02*
X92378006Y-120606557D01*
X85577954Y-120622798D02*
X85177955Y-121022797D01*
D37*
X103352790Y-115330952D02*
X102150709Y-115330952D01*
X100285791Y-119883953D02*
X100685790Y-120283952D01*
X102150709Y-115330952D02*
X100285791Y-117195870D01*
X100285791Y-117195870D02*
X100285791Y-119883953D01*
X70586790Y-112282952D02*
X70586790Y-122442952D01*
X76047790Y-112429952D02*
X74422790Y-112429952D01*
X74422790Y-112429952D02*
X74275790Y-112282952D01*
X74275790Y-112282952D02*
X70586790Y-112282952D01*
X76047790Y-122402952D02*
X74422790Y-122402952D01*
X74422790Y-122402952D02*
X74382790Y-122442952D01*
X74382790Y-122442952D02*
X70586790Y-122442952D01*
D38*
X76047790Y-122402952D02*
X80024790Y-122402952D01*
X80024790Y-122402952D02*
X80111790Y-122315952D01*
X76134790Y-122315952D02*
X76047790Y-122402952D01*
D37*
X105257790Y-125109952D02*
X105237790Y-125109952D01*
X70586790Y-122442952D02*
X69850000Y-123179742D01*
X93576000Y-135037500D02*
X100076000Y-135037500D01*
X100076000Y-135037500D02*
X108435000Y-135037500D01*
X108435000Y-135037500D02*
X114935000Y-135037500D01*
X69850000Y-124206000D02*
X69850000Y-128270000D01*
X69850000Y-123179742D02*
X69850000Y-124206000D01*
X70485000Y-136652000D02*
X75819000Y-136652000D01*
X74676000Y-136652000D02*
X75819000Y-136652000D01*
X75819000Y-136652000D02*
X75882011Y-136715011D01*
X91898489Y-136715011D02*
X92576001Y-136037499D01*
X92576001Y-136037499D02*
X93576000Y-135037500D01*
X89662000Y-136715011D02*
X91898489Y-136715011D01*
X105257790Y-125109952D02*
X107655838Y-127508000D01*
X107655838Y-127508000D02*
X112522000Y-127508000D01*
X114808000Y-125222000D02*
X114808000Y-120142000D01*
X112522000Y-127508000D02*
X114808000Y-125222000D01*
X103759000Y-131354500D02*
X100076000Y-135037500D01*
X103759000Y-129947500D02*
X103759000Y-131354500D01*
D39*
X111807990Y-117141990D02*
X111807990Y-116887990D01*
X114808000Y-120142000D02*
X111807990Y-117141990D01*
X111807990Y-116887990D02*
X111506000Y-116586000D01*
X111506000Y-116586000D02*
X111506000Y-113721000D01*
X116332000Y-108895000D02*
X116332000Y-106045000D01*
X111506000Y-113721000D02*
X116332000Y-108895000D01*
D37*
X72123500Y-106440000D02*
X71501000Y-105817500D01*
X74066000Y-106440000D02*
X72123500Y-106440000D01*
X74613000Y-106987000D02*
X83312000Y-106987000D01*
X74066000Y-106440000D02*
X74613000Y-106987000D01*
D39*
X85845000Y-88392000D02*
X85845000Y-72517000D01*
X85845000Y-88392000D02*
X78105000Y-88392000D01*
D38*
X116327000Y-106050000D02*
X116332000Y-106045000D01*
X110934500Y-106050000D02*
X116327000Y-106050000D01*
X87376000Y-132715000D02*
X87376000Y-136524511D01*
X87376000Y-136524511D02*
X87566500Y-136715011D01*
D37*
X87566500Y-136715011D02*
X89662000Y-136715011D01*
X75882011Y-136715011D02*
X87566500Y-136715011D01*
X70586790Y-111480790D02*
X69215000Y-110109000D01*
X70586790Y-112282952D02*
X70586790Y-111480790D01*
X71501000Y-105817500D02*
X71093500Y-105817500D01*
X69215000Y-107696000D02*
X69215000Y-110109000D01*
X71093500Y-105817500D02*
X69215000Y-107696000D01*
X85062000Y-106987000D02*
X85193011Y-107118011D01*
X99377791Y-109069953D02*
X100177790Y-109869952D01*
X97425849Y-107118011D02*
X99377791Y-109069953D01*
X83312000Y-106987000D02*
X85062000Y-106987000D01*
X85193011Y-107118011D02*
X97425849Y-107118011D01*
X69751000Y-105817500D02*
X71501000Y-105817500D01*
X69469000Y-105535500D02*
X69751000Y-105817500D01*
X94287000Y-104013000D02*
X94287000Y-101907000D01*
X94287000Y-101907000D02*
X94107000Y-101727000D01*
X69723000Y-135001000D02*
X69342000Y-134620000D01*
X69723000Y-135890000D02*
X69723000Y-135001000D01*
X68961000Y-135128000D02*
X69723000Y-135890000D01*
X69723000Y-135890000D02*
X70485000Y-136652000D01*
X69342000Y-133731000D02*
X68961000Y-133350000D01*
X68961000Y-133350000D02*
X68961000Y-135128000D01*
X69342000Y-134620000D02*
X69342000Y-133731000D01*
D38*
X69168000Y-132207000D02*
X68961000Y-132207000D01*
X69215000Y-130810000D02*
X69215000Y-132160000D01*
X69215000Y-132160000D02*
X69168000Y-132207000D01*
D37*
X68961000Y-129159000D02*
X68961000Y-132207000D01*
X68961000Y-132207000D02*
X68961000Y-133350000D01*
X69342000Y-130937000D02*
X69215000Y-130810000D01*
X69342000Y-134620000D02*
X69342000Y-130937000D01*
X69215000Y-129159000D02*
X69088000Y-129032000D01*
X69215000Y-130810000D02*
X69215000Y-129159000D01*
X69088000Y-129032000D02*
X68961000Y-129159000D01*
X69850000Y-128270000D02*
X69088000Y-129032000D01*
D38*
X69469000Y-99699500D02*
X69469000Y-90932000D01*
X69469000Y-85540315D02*
X68834000Y-84905315D01*
X69469000Y-86106000D02*
X69469000Y-85540315D01*
X68834000Y-68453000D02*
X70866000Y-66421000D01*
X68834000Y-84905315D02*
X68834000Y-68453000D01*
X82550000Y-66294000D02*
X95504000Y-66294000D01*
X99949000Y-70739000D02*
X100203000Y-70739000D01*
X95504000Y-66294000D02*
X99949000Y-70739000D01*
X114427000Y-91313000D02*
X115443000Y-92329000D01*
X114427000Y-70739000D02*
X114427000Y-91313000D01*
X115443000Y-92894685D02*
X116459000Y-93910685D01*
X115443000Y-92329000D02*
X115443000Y-92894685D01*
X116459000Y-93910685D02*
X116459000Y-100203000D01*
X116459000Y-100203000D02*
X113538000Y-103124000D01*
X114982000Y-106045000D02*
X116332000Y-106045000D01*
X113538000Y-104601000D02*
X114982000Y-106045000D01*
X113538000Y-103124000D02*
X113538000Y-104601000D01*
X101346000Y-92329000D02*
X101219000Y-92456000D01*
X115443000Y-92329000D02*
X101346000Y-92329000D01*
D37*
X69469000Y-99699500D02*
X69469000Y-101727000D01*
X69469000Y-101727000D02*
X69469000Y-97917000D01*
X69469000Y-101727000D02*
X69469000Y-105535500D01*
X78105000Y-91694000D02*
X69469000Y-91694000D01*
X78105000Y-88392000D02*
X78105000Y-91694000D01*
X69469000Y-97917000D02*
X69469000Y-91694000D01*
X69469000Y-91694000D02*
X69469000Y-90932000D01*
X77297000Y-91694000D02*
X78105000Y-91694000D01*
X76507000Y-92484000D02*
X77297000Y-91694000D01*
X76507000Y-94234000D02*
X76507000Y-92484000D01*
D36*
X83907459Y-121461714D02*
X83907459Y-119628649D01*
X95097790Y-125109952D02*
X91927995Y-121940157D01*
X91591870Y-119230528D02*
X89371121Y-119230528D01*
X91927995Y-121940157D02*
X91927995Y-119566653D01*
X89371121Y-119230528D02*
X85523697Y-123077952D01*
X91927995Y-119566653D02*
X91591870Y-119230528D01*
X83907459Y-119628649D02*
X83907459Y-119062964D01*
X85523697Y-123077952D02*
X83907459Y-121461714D01*
D37*
X94749790Y-121807952D02*
X94749790Y-112442964D01*
X94749790Y-112442964D02*
X94716784Y-112409958D01*
X103352790Y-120410952D02*
X100177790Y-123585952D01*
X100177790Y-123585952D02*
X100177790Y-125109952D01*
X74066000Y-104140000D02*
X80366000Y-104140000D01*
X81128000Y-104902000D02*
X80366000Y-104140000D01*
X83312000Y-104902000D02*
X81128000Y-104902000D01*
X96753999Y-123020001D02*
X95541950Y-121807952D01*
X100177790Y-125109952D02*
X98087839Y-123020001D01*
X98087839Y-123020001D02*
X96753999Y-123020001D01*
X95315475Y-121807952D02*
X94749790Y-121807952D01*
X95541950Y-121807952D02*
X95315475Y-121807952D01*
X85062000Y-104902000D02*
X85824000Y-105664000D01*
X83312000Y-104902000D02*
X85062000Y-104902000D01*
X107569000Y-105664000D02*
X104902000Y-105664000D01*
X85824000Y-105664000D02*
X104902000Y-105664000D01*
X75565000Y-104140000D02*
X76200000Y-103505000D01*
X74066000Y-104140000D02*
X75565000Y-104140000D01*
D36*
X87477790Y-109869952D02*
X84219250Y-113128492D01*
X84219250Y-113315487D02*
X84219250Y-113881172D01*
X84219250Y-113128492D02*
X84219250Y-113315487D01*
D37*
X92202000Y-104013000D02*
X89482000Y-104013000D01*
X89482000Y-104013000D02*
X88773000Y-103304000D01*
D36*
X76047790Y-114929952D02*
X83809484Y-114929952D01*
X83809484Y-114929952D02*
X83900850Y-114838586D01*
D38*
X76047790Y-114929952D02*
X73580790Y-114929952D01*
X73580790Y-114929952D02*
X73507790Y-115002952D01*
D36*
X73307790Y-114802952D02*
X73507790Y-115002952D01*
X73380790Y-114822952D02*
X73507790Y-114949952D01*
X83503692Y-115583795D02*
X84684947Y-115583795D01*
X84791791Y-115476951D02*
X85191790Y-115076952D01*
X76047790Y-119902952D02*
X76922790Y-119902952D01*
X83456660Y-115536763D02*
X83503692Y-115583795D01*
X76922790Y-119902952D02*
X81288979Y-115536763D01*
X81288979Y-115536763D02*
X83456660Y-115536763D01*
X84684947Y-115583795D02*
X84791791Y-115476951D01*
D38*
X73507790Y-119902952D02*
X76047790Y-119902952D01*
D36*
X73454790Y-119902952D02*
X73507790Y-119849952D01*
X90496805Y-114533758D02*
X90496805Y-115099443D01*
X92557790Y-109869952D02*
X90496805Y-111930937D01*
X90496805Y-111930937D02*
X90496805Y-114533758D01*
X91292254Y-115139798D02*
X91292254Y-115705483D01*
X95097790Y-109869952D02*
X91292254Y-113675488D01*
X91292254Y-113675488D02*
X91292254Y-115139798D01*
X104305639Y-110669951D02*
X98272790Y-116702800D01*
X98272790Y-116702800D02*
X98272790Y-119845267D01*
X104457791Y-110669951D02*
X104305639Y-110669951D01*
X105257790Y-109869952D02*
X104457791Y-110669951D01*
X98272790Y-119845267D02*
X98272790Y-120410952D01*
X83439000Y-132018816D02*
X88838816Y-126619000D01*
X90193894Y-121605349D02*
X90193894Y-121039664D01*
X83152999Y-135795001D02*
X83439000Y-135509000D01*
X90193894Y-121688852D02*
X90193894Y-121605349D01*
X88838816Y-123043930D02*
X90193894Y-121688852D01*
X78137001Y-135795001D02*
X83152999Y-135795001D01*
X83439000Y-135509000D02*
X83439000Y-132018816D01*
X76962000Y-134620000D02*
X78137001Y-135795001D01*
X88838816Y-126619000D02*
X88838816Y-123043930D01*
X107797790Y-110919952D02*
X107069790Y-111647952D01*
X99094898Y-119126345D02*
X99094898Y-119692030D01*
X107797790Y-109869952D02*
X107797790Y-110919952D01*
X103964049Y-111647952D02*
X99094898Y-116517103D01*
X107069790Y-111647952D02*
X103964049Y-111647952D01*
X99094898Y-116517103D02*
X99094898Y-119126345D01*
D38*
X107607290Y-109679452D02*
X107797790Y-109869952D01*
D36*
X107797790Y-109869952D02*
X107734290Y-109869952D01*
X79502000Y-132715000D02*
X85198001Y-127018999D01*
X85198001Y-127018999D02*
X85598000Y-126619000D01*
X79502000Y-134620000D02*
X79502000Y-132715000D01*
X91160782Y-119997741D02*
X91202985Y-119955538D01*
X91160782Y-126746000D02*
X91160782Y-119997741D01*
X91014789Y-116755495D02*
X91414788Y-117155494D01*
X90225246Y-115965952D02*
X91014789Y-116755495D01*
X85699790Y-115965952D02*
X90225246Y-115965952D01*
X101987791Y-119045953D02*
X101847789Y-118905951D01*
X105892790Y-117870952D02*
X104717789Y-119045953D01*
X101847789Y-118905951D02*
X101447790Y-118505952D01*
X104717789Y-119045953D02*
X101987791Y-119045953D01*
X91910415Y-117816617D02*
X92476100Y-117816617D01*
X85963333Y-117880495D02*
X91846537Y-117880495D01*
X91846537Y-117880495D02*
X91910415Y-117816617D01*
X84810790Y-116727952D02*
X85963333Y-117880495D01*
X85177399Y-118330506D02*
X91964669Y-118330506D01*
X91964669Y-118330506D02*
X92267115Y-118632952D01*
X83108658Y-116261765D02*
X85177399Y-118330506D01*
X92267115Y-118632952D02*
X92627101Y-118632952D01*
X92627101Y-118632952D02*
X93192786Y-118632952D01*
D37*
X88773000Y-98612998D02*
X87315002Y-97155000D01*
X87315002Y-97155000D02*
X81862000Y-97155000D01*
X88773000Y-101219000D02*
X88773000Y-98612998D01*
X71501000Y-103732500D02*
X73393500Y-101840000D01*
X73393500Y-101840000D02*
X74066000Y-101840000D01*
X100781001Y-95701001D02*
X78454999Y-95701001D01*
X78454999Y-95701001D02*
X74066000Y-100090000D01*
X74066000Y-100090000D02*
X74066000Y-101840000D01*
X101981000Y-96901000D02*
X100781001Y-95701001D01*
D38*
X102616000Y-97536000D02*
X101981000Y-96901000D01*
X103251000Y-98171000D02*
X101981000Y-96901000D01*
X103251000Y-101073000D02*
X103251000Y-98171000D01*
X100826370Y-102743000D02*
X101446370Y-102123000D01*
X101446370Y-102123000D02*
X102540998Y-102123000D01*
X99695000Y-102743000D02*
X100826370Y-102743000D01*
X94869000Y-92583000D02*
X91821000Y-92583000D01*
X73025000Y-89792000D02*
X73025000Y-88392000D01*
X73657000Y-90424000D02*
X73025000Y-89792000D01*
X76962000Y-90424000D02*
X73657000Y-90424000D01*
X74422000Y-94234000D02*
X74422000Y-95438999D01*
D36*
X70411000Y-75639000D02*
X70358000Y-75692000D01*
X71808000Y-75639000D02*
X70411000Y-75639000D01*
X80772000Y-75639000D02*
X79772000Y-75639000D01*
X79063000Y-74930000D02*
X72517000Y-74930000D01*
X79772000Y-75639000D02*
X79063000Y-74930000D01*
X72517000Y-74930000D02*
X71808000Y-75639000D01*
D40*
G36*
X100252469Y-65705019D02*
X100110051Y-66421000D01*
X100252469Y-67136981D01*
X100658039Y-67743961D01*
X101265019Y-68149531D01*
X101800273Y-68256000D01*
X102161727Y-68256000D01*
X102696981Y-68149531D01*
X103303961Y-67743961D01*
X103709531Y-67136981D01*
X103851949Y-66421000D01*
X103709531Y-65705019D01*
X103559179Y-65480000D01*
X104212821Y-65480000D01*
X104062469Y-65705019D01*
X103920051Y-66421000D01*
X104062469Y-67136981D01*
X104468039Y-67743961D01*
X105075019Y-68149531D01*
X105610273Y-68256000D01*
X105971727Y-68256000D01*
X106506981Y-68149531D01*
X107113961Y-67743961D01*
X107519531Y-67136981D01*
X107661949Y-66421000D01*
X107519531Y-65705019D01*
X107369179Y-65480000D01*
X108657821Y-65480000D01*
X108507469Y-65705019D01*
X108365051Y-66421000D01*
X108507469Y-67136981D01*
X108913039Y-67743961D01*
X109520019Y-68149531D01*
X110055273Y-68256000D01*
X110416727Y-68256000D01*
X110951981Y-68149531D01*
X111558961Y-67743961D01*
X111964531Y-67136981D01*
X112106949Y-66421000D01*
X111964531Y-65705019D01*
X111814179Y-65480000D01*
X112467821Y-65480000D01*
X112317469Y-65705019D01*
X112175051Y-66421000D01*
X112317469Y-67136981D01*
X112723039Y-67743961D01*
X113330019Y-68149531D01*
X113865273Y-68256000D01*
X114226727Y-68256000D01*
X114761981Y-68149531D01*
X115368961Y-67743961D01*
X115774531Y-67136981D01*
X115916949Y-66421000D01*
X115774531Y-65705019D01*
X115724983Y-65630865D01*
X115998168Y-65725998D01*
X116463365Y-66016686D01*
X116852597Y-66403210D01*
X117146525Y-66866367D01*
X117330538Y-67383134D01*
X117400001Y-67965666D01*
X117400000Y-70173925D01*
X117400001Y-70173930D01*
X117400000Y-80206925D01*
X117400001Y-80206930D01*
X117400001Y-102432621D01*
X116911418Y-102106161D01*
X116478256Y-102020000D01*
X116185744Y-102020000D01*
X115752582Y-102106161D01*
X115261375Y-102434375D01*
X114933161Y-102925582D01*
X114817908Y-103505000D01*
X114933161Y-104084418D01*
X115261375Y-104575625D01*
X115283032Y-104590096D01*
X115122301Y-104656673D01*
X114943673Y-104835302D01*
X114847000Y-105068691D01*
X114847000Y-105759250D01*
X115005750Y-105918000D01*
X116205000Y-105918000D01*
X116205000Y-105898000D01*
X116459000Y-105898000D01*
X116459000Y-105918000D01*
X116479000Y-105918000D01*
X116479000Y-106172000D01*
X116459000Y-106172000D01*
X116459000Y-107371250D01*
X116617750Y-107530000D01*
X117308310Y-107530000D01*
X117400000Y-107492021D01*
X117400000Y-134580307D01*
X117334401Y-135165130D01*
X117154003Y-135683165D01*
X116863315Y-136148364D01*
X116476790Y-136537597D01*
X116013633Y-136831525D01*
X115496865Y-137015538D01*
X114914342Y-137085000D01*
X71159693Y-137085000D01*
X70574870Y-137019401D01*
X70056835Y-136839003D01*
X69591636Y-136548315D01*
X69202403Y-136161790D01*
X69123613Y-136037637D01*
X69215000Y-135946250D01*
X69215000Y-134747000D01*
X69195000Y-134747000D01*
X69195000Y-134493000D01*
X69215000Y-134493000D01*
X69215000Y-133293750D01*
X69469000Y-133293750D01*
X69469000Y-134493000D01*
X69489000Y-134493000D01*
X69489000Y-134747000D01*
X69469000Y-134747000D01*
X69469000Y-135946250D01*
X69627750Y-136105000D01*
X70318310Y-136105000D01*
X70551699Y-136008327D01*
X70730327Y-135829698D01*
X70796904Y-135668967D01*
X70811375Y-135690625D01*
X71302582Y-136018839D01*
X71735744Y-136105000D01*
X72028256Y-136105000D01*
X72461418Y-136018839D01*
X72952625Y-135690625D01*
X73152000Y-135392239D01*
X73351375Y-135690625D01*
X73842582Y-136018839D01*
X74275744Y-136105000D01*
X74568256Y-136105000D01*
X75001418Y-136018839D01*
X75492625Y-135690625D01*
X75692000Y-135392239D01*
X75891375Y-135690625D01*
X76382582Y-136018839D01*
X76815744Y-136105000D01*
X77108256Y-136105000D01*
X77328407Y-136061209D01*
X77546674Y-136279477D01*
X77589072Y-136342930D01*
X77652525Y-136385328D01*
X77652527Y-136385330D01*
X77730935Y-136437720D01*
X77840464Y-136510905D01*
X78062149Y-136555001D01*
X78062153Y-136555001D01*
X78137000Y-136569889D01*
X78211847Y-136555001D01*
X83078152Y-136555001D01*
X83152999Y-136569889D01*
X83227846Y-136555001D01*
X83227851Y-136555001D01*
X83449536Y-136510905D01*
X83700928Y-136342930D01*
X83743329Y-136279472D01*
X83832769Y-136190032D01*
X92603073Y-136190032D01*
X92701736Y-136456887D01*
X93311461Y-136683408D01*
X93961460Y-136659356D01*
X94450264Y-136456887D01*
X94548927Y-136190032D01*
X99103073Y-136190032D01*
X99201736Y-136456887D01*
X99811461Y-136683408D01*
X100461460Y-136659356D01*
X100950264Y-136456887D01*
X101048927Y-136190032D01*
X107462073Y-136190032D01*
X107560736Y-136456887D01*
X108170461Y-136683408D01*
X108820460Y-136659356D01*
X109309264Y-136456887D01*
X109407927Y-136190032D01*
X113962073Y-136190032D01*
X114060736Y-136456887D01*
X114670461Y-136683408D01*
X115320460Y-136659356D01*
X115809264Y-136456887D01*
X115907927Y-136190032D01*
X114935000Y-135217105D01*
X113962073Y-136190032D01*
X109407927Y-136190032D01*
X108435000Y-135217105D01*
X107462073Y-136190032D01*
X101048927Y-136190032D01*
X100076000Y-135217105D01*
X99103073Y-136190032D01*
X94548927Y-136190032D01*
X93576000Y-135217105D01*
X92603073Y-136190032D01*
X83832769Y-136190032D01*
X83923473Y-136099329D01*
X83986929Y-136056929D01*
X84154904Y-135805537D01*
X84199000Y-135583852D01*
X84199000Y-135583848D01*
X84213888Y-135509001D01*
X84199000Y-135434154D01*
X84199000Y-134772961D01*
X91930092Y-134772961D01*
X91954144Y-135422960D01*
X92156613Y-135911764D01*
X92423468Y-136010427D01*
X93396395Y-135037500D01*
X93755605Y-135037500D01*
X94728532Y-136010427D01*
X94995387Y-135911764D01*
X95221908Y-135302039D01*
X95202331Y-134772961D01*
X98430092Y-134772961D01*
X98454144Y-135422960D01*
X98656613Y-135911764D01*
X98923468Y-136010427D01*
X99896395Y-135037500D01*
X100255605Y-135037500D01*
X101228532Y-136010427D01*
X101495387Y-135911764D01*
X101721908Y-135302039D01*
X101702331Y-134772961D01*
X106789092Y-134772961D01*
X106813144Y-135422960D01*
X107015613Y-135911764D01*
X107282468Y-136010427D01*
X108255395Y-135037500D01*
X108614605Y-135037500D01*
X109587532Y-136010427D01*
X109854387Y-135911764D01*
X110080908Y-135302039D01*
X110061331Y-134772961D01*
X113289092Y-134772961D01*
X113313144Y-135422960D01*
X113515613Y-135911764D01*
X113782468Y-136010427D01*
X114755395Y-135037500D01*
X115114605Y-135037500D01*
X116087532Y-136010427D01*
X116354387Y-135911764D01*
X116580908Y-135302039D01*
X116556856Y-134652040D01*
X116354387Y-134163236D01*
X116087532Y-134064573D01*
X115114605Y-135037500D01*
X114755395Y-135037500D01*
X113782468Y-134064573D01*
X113515613Y-134163236D01*
X113289092Y-134772961D01*
X110061331Y-134772961D01*
X110056856Y-134652040D01*
X109854387Y-134163236D01*
X109587532Y-134064573D01*
X108614605Y-135037500D01*
X108255395Y-135037500D01*
X107282468Y-134064573D01*
X107015613Y-134163236D01*
X106789092Y-134772961D01*
X101702331Y-134772961D01*
X101697856Y-134652040D01*
X101495387Y-134163236D01*
X101228532Y-134064573D01*
X100255605Y-135037500D01*
X99896395Y-135037500D01*
X98923468Y-134064573D01*
X98656613Y-134163236D01*
X98430092Y-134772961D01*
X95202331Y-134772961D01*
X95197856Y-134652040D01*
X94995387Y-134163236D01*
X94728532Y-134064573D01*
X93755605Y-135037500D01*
X93396395Y-135037500D01*
X92423468Y-134064573D01*
X92156613Y-134163236D01*
X91930092Y-134772961D01*
X84199000Y-134772961D01*
X84199000Y-134061517D01*
X84379489Y-134182115D01*
X84836000Y-134272921D01*
X85292510Y-134182115D01*
X85471000Y-134062853D01*
X85649489Y-134182115D01*
X86106000Y-134272921D01*
X86562510Y-134182115D01*
X86754150Y-134054066D01*
X87068617Y-134208900D01*
X87249000Y-134083244D01*
X87249000Y-133330969D01*
X87276000Y-133195231D01*
X87276000Y-132234770D01*
X87249000Y-132099032D01*
X87249000Y-131815000D01*
X87463560Y-131815000D01*
X87463560Y-133615000D01*
X87503000Y-133813280D01*
X87503000Y-134083244D01*
X87683383Y-134208900D01*
X87783264Y-134159722D01*
X87863235Y-134213157D01*
X88111000Y-134262440D01*
X89181000Y-134262440D01*
X89428765Y-134213157D01*
X89638809Y-134072809D01*
X89764321Y-133884968D01*
X92603073Y-133884968D01*
X93576000Y-134857895D01*
X94548927Y-133884968D01*
X99103073Y-133884968D01*
X100076000Y-134857895D01*
X101048927Y-133884968D01*
X107462073Y-133884968D01*
X108435000Y-134857895D01*
X109407927Y-133884968D01*
X113962073Y-133884968D01*
X114935000Y-134857895D01*
X115907927Y-133884968D01*
X115809264Y-133618113D01*
X115199539Y-133391592D01*
X114549540Y-133415644D01*
X114060736Y-133618113D01*
X113962073Y-133884968D01*
X109407927Y-133884968D01*
X109309264Y-133618113D01*
X108699539Y-133391592D01*
X108049540Y-133415644D01*
X107560736Y-133618113D01*
X107462073Y-133884968D01*
X101048927Y-133884968D01*
X100950264Y-133618113D01*
X100340539Y-133391592D01*
X99690540Y-133415644D01*
X99201736Y-133618113D01*
X99103073Y-133884968D01*
X94548927Y-133884968D01*
X94450264Y-133618113D01*
X93840539Y-133391592D01*
X93190540Y-133415644D01*
X92701736Y-133618113D01*
X92603073Y-133884968D01*
X89764321Y-133884968D01*
X89779157Y-133862765D01*
X89828440Y-133615000D01*
X89828440Y-131815000D01*
X89779157Y-131567235D01*
X89638809Y-131357191D01*
X89428765Y-131216843D01*
X89181000Y-131167560D01*
X88111000Y-131167560D01*
X87863235Y-131216843D01*
X87783264Y-131270278D01*
X87683383Y-131221100D01*
X87503000Y-131346756D01*
X87503000Y-131616720D01*
X87463560Y-131815000D01*
X87249000Y-131815000D01*
X87249000Y-131346756D01*
X87068617Y-131221100D01*
X86754151Y-131375934D01*
X86562511Y-131247885D01*
X86106000Y-131157079D01*
X85649490Y-131247885D01*
X85471001Y-131367147D01*
X85292511Y-131247885D01*
X85286023Y-131246594D01*
X89132790Y-127399828D01*
X89132790Y-128030629D01*
X89115453Y-128117790D01*
X89132790Y-128204951D01*
X89132790Y-128204954D01*
X89184138Y-128463099D01*
X89379741Y-128755839D01*
X89453637Y-128805215D01*
X90750078Y-130101657D01*
X90799452Y-130175550D01*
X90873345Y-130224924D01*
X90873346Y-130224925D01*
X91092190Y-130371152D01*
X91092191Y-130371153D01*
X91350336Y-130422501D01*
X91350340Y-130422501D01*
X91437501Y-130439838D01*
X91524662Y-130422501D01*
X91941000Y-130422501D01*
X91941000Y-130862722D01*
X92189914Y-131463653D01*
X92649847Y-131923586D01*
X93250778Y-132172500D01*
X93901222Y-132172500D01*
X94502153Y-131923586D01*
X94753239Y-131672500D01*
X98898761Y-131672500D01*
X99149847Y-131923586D01*
X99750778Y-132172500D01*
X100401222Y-132172500D01*
X101002153Y-131923586D01*
X101462086Y-131463653D01*
X101711000Y-130862722D01*
X101711000Y-130212278D01*
X101462086Y-129611347D01*
X101448240Y-129597501D01*
X106243423Y-129597501D01*
X106817046Y-130171125D01*
X106800000Y-130212278D01*
X106800000Y-130862722D01*
X107048914Y-131463653D01*
X107508847Y-131923586D01*
X108109778Y-132172500D01*
X108760222Y-132172500D01*
X109361153Y-131923586D01*
X109612239Y-131672500D01*
X113757761Y-131672500D01*
X114008847Y-131923586D01*
X114609778Y-132172500D01*
X115260222Y-132172500D01*
X115861153Y-131923586D01*
X116321086Y-131463653D01*
X116570000Y-130862722D01*
X116570000Y-130212278D01*
X116321086Y-129611347D01*
X115861153Y-129151414D01*
X115260222Y-128902500D01*
X114609778Y-128902500D01*
X114008847Y-129151414D01*
X113757761Y-129402500D01*
X109612239Y-129402500D01*
X109361153Y-129151414D01*
X108760222Y-128902500D01*
X108109778Y-128902500D01*
X108068625Y-128919546D01*
X107297426Y-128148348D01*
X107248050Y-128074452D01*
X106955311Y-127878849D01*
X106697166Y-127827501D01*
X106697162Y-127827501D01*
X106610001Y-127810164D01*
X106522840Y-127827501D01*
X104794000Y-127827501D01*
X104794000Y-127656626D01*
X104636431Y-127276220D01*
X104345280Y-126985069D01*
X103964874Y-126827500D01*
X103553126Y-126827500D01*
X103190993Y-126977500D01*
X100756917Y-126977500D01*
X100323498Y-126544082D01*
X100737699Y-126461692D01*
X101212367Y-126144529D01*
X101447790Y-125792194D01*
X101683213Y-126144529D01*
X102157881Y-126461692D01*
X102576457Y-126544952D01*
X102859123Y-126544952D01*
X103277699Y-126461692D01*
X103752367Y-126144529D01*
X104008737Y-125760844D01*
X104105401Y-125965086D01*
X104520367Y-126340993D01*
X104908751Y-126501856D01*
X105130790Y-126379867D01*
X105130790Y-125236952D01*
X105110790Y-125236952D01*
X105110790Y-124982952D01*
X105130790Y-124982952D01*
X105130790Y-124962952D01*
X105384790Y-124962952D01*
X105384790Y-124982952D01*
X105404790Y-124982952D01*
X105404790Y-125236952D01*
X105384790Y-125236952D01*
X105384790Y-126379867D01*
X105606829Y-126501856D01*
X105995213Y-126340993D01*
X106410179Y-125965086D01*
X106506843Y-125760844D01*
X106763213Y-126144529D01*
X107237881Y-126461692D01*
X107656457Y-126544952D01*
X107939123Y-126544952D01*
X108357699Y-126461692D01*
X108832367Y-126144529D01*
X109149530Y-125669861D01*
X109260903Y-125109952D01*
X109149530Y-124550043D01*
X108832367Y-124075375D01*
X108357699Y-123758212D01*
X107939123Y-123674952D01*
X107656457Y-123674952D01*
X107237881Y-123758212D01*
X106763213Y-124075375D01*
X106506843Y-124459060D01*
X106410179Y-124254818D01*
X105995213Y-123878911D01*
X105606829Y-123718048D01*
X105384792Y-123840036D01*
X105384792Y-123674952D01*
X105354592Y-123674952D01*
X106080593Y-122948952D01*
X106324945Y-122948952D01*
X106399792Y-122963840D01*
X106474639Y-122948952D01*
X106474644Y-122948952D01*
X106696329Y-122904856D01*
X106947721Y-122736881D01*
X106990123Y-122673422D01*
X107774263Y-121889283D01*
X107837719Y-121846883D01*
X108005694Y-121595491D01*
X108049790Y-121373806D01*
X108049790Y-121373802D01*
X108064678Y-121298955D01*
X108049790Y-121224108D01*
X108049790Y-120427750D01*
X112373000Y-120427750D01*
X112373000Y-121168309D01*
X112469673Y-121401698D01*
X112648301Y-121580327D01*
X112881690Y-121677000D01*
X114522250Y-121677000D01*
X114681000Y-121518250D01*
X114681000Y-120269000D01*
X114935000Y-120269000D01*
X114935000Y-121518250D01*
X115093750Y-121677000D01*
X116734310Y-121677000D01*
X116967699Y-121580327D01*
X117146327Y-121401698D01*
X117243000Y-121168309D01*
X117243000Y-120427750D01*
X117084250Y-120269000D01*
X114935000Y-120269000D01*
X114681000Y-120269000D01*
X112531750Y-120269000D01*
X112373000Y-120427750D01*
X108049790Y-120427750D01*
X108049790Y-119115691D01*
X112373000Y-119115691D01*
X112373000Y-119856250D01*
X112531750Y-120015000D01*
X114681000Y-120015000D01*
X114681000Y-118765750D01*
X114935000Y-118765750D01*
X114935000Y-120015000D01*
X117084250Y-120015000D01*
X117243000Y-119856250D01*
X117243000Y-119115691D01*
X117146327Y-118882302D01*
X116967699Y-118703673D01*
X116734310Y-118607000D01*
X115093750Y-118607000D01*
X114935000Y-118765750D01*
X114681000Y-118765750D01*
X114522250Y-118607000D01*
X112881690Y-118607000D01*
X112648301Y-118703673D01*
X112469673Y-118882302D01*
X112373000Y-119115691D01*
X108049790Y-119115691D01*
X108049790Y-116802798D01*
X108064678Y-116727951D01*
X108049790Y-116653104D01*
X108049790Y-116653100D01*
X108005694Y-116431415D01*
X107917684Y-116299699D01*
X107880119Y-116243478D01*
X107880117Y-116243476D01*
X107837719Y-116180023D01*
X107774266Y-116137625D01*
X107333999Y-115697359D01*
X107406882Y-115330952D01*
X107353385Y-115062000D01*
X112342928Y-115062000D01*
X112462062Y-115660927D01*
X112801327Y-116168673D01*
X113309073Y-116507938D01*
X113756818Y-116597000D01*
X115859182Y-116597000D01*
X116306927Y-116507938D01*
X116814673Y-116168673D01*
X117153938Y-115660927D01*
X117273072Y-115062000D01*
X117153938Y-114463073D01*
X116814673Y-113955327D01*
X116306927Y-113616062D01*
X115859182Y-113527000D01*
X113756818Y-113527000D01*
X113309073Y-113616062D01*
X112801327Y-113955327D01*
X112462062Y-114463073D01*
X112342928Y-115062000D01*
X107353385Y-115062000D01*
X107291629Y-114751534D01*
X106963415Y-114260327D01*
X106472208Y-113932113D01*
X106039046Y-113845952D01*
X105746534Y-113845952D01*
X105313372Y-113932113D01*
X104822165Y-114260327D01*
X104621437Y-114560738D01*
X104234148Y-114135769D01*
X103709682Y-113889466D01*
X103479790Y-114010133D01*
X103479790Y-115203952D01*
X103499790Y-115203952D01*
X103499790Y-115457952D01*
X103479790Y-115457952D01*
X103479790Y-115477952D01*
X103225790Y-115477952D01*
X103225790Y-115457952D01*
X102032635Y-115457952D01*
X101911314Y-115687842D01*
X102081145Y-116097876D01*
X102471432Y-116526135D01*
X102601268Y-116587109D01*
X102282165Y-116800327D01*
X101953951Y-117291534D01*
X101898121Y-117572209D01*
X101653664Y-117470952D01*
X101241916Y-117470952D01*
X100861510Y-117628521D01*
X100570359Y-117919672D01*
X100412790Y-118300078D01*
X100412790Y-118711826D01*
X100570359Y-119092232D01*
X100861510Y-119383383D01*
X101241916Y-119540952D01*
X101404495Y-119540952D01*
X101439862Y-119593882D01*
X101691254Y-119761857D01*
X101912939Y-119805953D01*
X101912943Y-119805953D01*
X101964228Y-119816154D01*
X101953951Y-119831534D01*
X101861303Y-120297307D01*
X99454272Y-122704339D01*
X99408136Y-122735166D01*
X98969452Y-122296483D01*
X98906128Y-122201712D01*
X98530694Y-121950855D01*
X98199622Y-121885001D01*
X98087839Y-121862766D01*
X97976056Y-121885001D01*
X97224131Y-121885001D01*
X96423563Y-121084434D01*
X96360239Y-120989663D01*
X95984805Y-120738806D01*
X95884790Y-120718912D01*
X95884790Y-116151052D01*
X95998359Y-116425232D01*
X96289510Y-116716383D01*
X96669916Y-116873952D01*
X97081664Y-116873952D01*
X97462070Y-116716383D01*
X97503427Y-116675026D01*
X97497902Y-116702800D01*
X97512790Y-116777647D01*
X97512791Y-119707240D01*
X97395359Y-119824672D01*
X97237790Y-120205078D01*
X97237790Y-120616826D01*
X97395359Y-120997232D01*
X97686510Y-121288383D01*
X98066916Y-121445952D01*
X98478664Y-121445952D01*
X98859070Y-121288383D01*
X99150221Y-120997232D01*
X99262142Y-120727030D01*
X99300772Y-120727030D01*
X99681178Y-120569461D01*
X99972329Y-120278310D01*
X100129898Y-119897904D01*
X100129898Y-119486156D01*
X99972329Y-119105750D01*
X99854898Y-118988319D01*
X99854898Y-116831904D01*
X102051711Y-114635092D01*
X101911314Y-114974062D01*
X102032635Y-115203952D01*
X103225790Y-115203952D01*
X103225790Y-114010133D01*
X102995898Y-113889466D01*
X102621519Y-114065284D01*
X104278852Y-112407952D01*
X106994943Y-112407952D01*
X107069790Y-112422840D01*
X107144637Y-112407952D01*
X107144642Y-112407952D01*
X107366327Y-112363856D01*
X107617719Y-112195881D01*
X107660121Y-112132423D01*
X108282265Y-111510280D01*
X108345719Y-111467881D01*
X108388117Y-111404428D01*
X108388119Y-111404426D01*
X108446273Y-111317392D01*
X108597790Y-111317392D01*
X108845555Y-111268109D01*
X109055599Y-111127761D01*
X109195947Y-110917717D01*
X109245230Y-110669952D01*
X109245230Y-109069952D01*
X109195947Y-108822187D01*
X109055599Y-108612143D01*
X108845555Y-108471795D01*
X108597790Y-108422512D01*
X106997790Y-108422512D01*
X106750025Y-108471795D01*
X106539981Y-108612143D01*
X106399633Y-108822187D01*
X106373005Y-108956058D01*
X106292367Y-108835375D01*
X105817699Y-108518212D01*
X105399123Y-108434952D01*
X105116457Y-108434952D01*
X104697881Y-108518212D01*
X104223213Y-108835375D01*
X103987790Y-109187710D01*
X103752367Y-108835375D01*
X103277699Y-108518212D01*
X102859123Y-108434952D01*
X102576457Y-108434952D01*
X102368641Y-108476289D01*
X102223431Y-108125720D01*
X101932280Y-107834569D01*
X101551874Y-107677000D01*
X101140126Y-107677000D01*
X100759720Y-107834569D01*
X100468569Y-108125720D01*
X100311000Y-108506126D01*
X100311000Y-108596625D01*
X100304790Y-108600037D01*
X100304790Y-109742952D01*
X100324790Y-109742952D01*
X100324790Y-109996952D01*
X100304790Y-109996952D01*
X100304790Y-111139867D01*
X100437448Y-111212750D01*
X98397790Y-113252409D01*
X98397790Y-111087995D01*
X98672367Y-110904529D01*
X98928737Y-110520844D01*
X99025401Y-110725086D01*
X99440367Y-111100993D01*
X99828751Y-111261856D01*
X100050790Y-111139867D01*
X100050790Y-109996952D01*
X100030790Y-109996952D01*
X100030790Y-109742952D01*
X100050790Y-109742952D01*
X100050790Y-108600037D01*
X99828751Y-108478048D01*
X99440367Y-108638911D01*
X99025401Y-109014818D01*
X98928737Y-109219060D01*
X98672367Y-108835375D01*
X98197699Y-108518212D01*
X97779123Y-108434952D01*
X97496457Y-108434952D01*
X97077881Y-108518212D01*
X96603213Y-108835375D01*
X96367790Y-109187710D01*
X96132367Y-108835375D01*
X95657699Y-108518212D01*
X95239123Y-108434952D01*
X94956457Y-108434952D01*
X94537881Y-108518212D01*
X94063213Y-108835375D01*
X93827790Y-109187710D01*
X93592367Y-108835375D01*
X93117699Y-108518212D01*
X92699123Y-108434952D01*
X92416457Y-108434952D01*
X91997881Y-108518212D01*
X91523213Y-108835375D01*
X91287790Y-109187710D01*
X91052367Y-108835375D01*
X90577699Y-108518212D01*
X90159123Y-108434952D01*
X89876457Y-108434952D01*
X89457881Y-108518212D01*
X88983213Y-108835375D01*
X88747790Y-109187710D01*
X88512367Y-108835375D01*
X88037699Y-108518212D01*
X87619123Y-108434952D01*
X87336457Y-108434952D01*
X86917881Y-108518212D01*
X86443213Y-108835375D01*
X86207790Y-109187710D01*
X85972367Y-108835375D01*
X85497699Y-108518212D01*
X85079123Y-108434952D01*
X84796457Y-108434952D01*
X84377881Y-108518212D01*
X83903213Y-108835375D01*
X83667790Y-109187710D01*
X83432367Y-108835375D01*
X82957699Y-108518212D01*
X82539123Y-108434952D01*
X82256457Y-108434952D01*
X81837881Y-108518212D01*
X81363213Y-108835375D01*
X81127790Y-109187710D01*
X80892367Y-108835375D01*
X80417699Y-108518212D01*
X79999123Y-108434952D01*
X79716457Y-108434952D01*
X79297881Y-108518212D01*
X78823213Y-108835375D01*
X78587790Y-109187710D01*
X78352367Y-108835375D01*
X77877699Y-108518212D01*
X77459123Y-108434952D01*
X77176457Y-108434952D01*
X76757881Y-108518212D01*
X76283213Y-108835375D01*
X76047790Y-109187710D01*
X75812367Y-108835375D01*
X75337699Y-108518212D01*
X74919123Y-108434952D01*
X74636457Y-108434952D01*
X74217881Y-108518212D01*
X73743213Y-108835375D01*
X73507790Y-109187710D01*
X73272367Y-108835375D01*
X72797699Y-108518212D01*
X72379123Y-108434952D01*
X72096457Y-108434952D01*
X71677881Y-108518212D01*
X71203213Y-108835375D01*
X70886050Y-109310043D01*
X70774677Y-109869952D01*
X70886050Y-110429861D01*
X71203213Y-110904529D01*
X71677881Y-111221692D01*
X72096457Y-111304952D01*
X72379123Y-111304952D01*
X72797699Y-111221692D01*
X73272367Y-110904529D01*
X73507790Y-110552194D01*
X73743213Y-110904529D01*
X74217881Y-111221692D01*
X74636457Y-111304952D01*
X74919123Y-111304952D01*
X75337699Y-111221692D01*
X75812367Y-110904529D01*
X76047790Y-110552194D01*
X76283213Y-110904529D01*
X76757881Y-111221692D01*
X77176457Y-111304952D01*
X77459123Y-111304952D01*
X77877699Y-111221692D01*
X78352367Y-110904529D01*
X78587790Y-110552194D01*
X78823213Y-110904529D01*
X79297881Y-111221692D01*
X79716457Y-111304952D01*
X79999123Y-111304952D01*
X80417699Y-111221692D01*
X80892367Y-110904529D01*
X81127790Y-110552194D01*
X81363213Y-110904529D01*
X81837881Y-111221692D01*
X82256457Y-111304952D01*
X82539123Y-111304952D01*
X82957699Y-111221692D01*
X83432367Y-110904529D01*
X83667790Y-110552194D01*
X83903213Y-110904529D01*
X84377881Y-111221692D01*
X84796457Y-111304952D01*
X84967988Y-111304952D01*
X83734780Y-112538161D01*
X83671321Y-112580563D01*
X83503346Y-112831956D01*
X83459250Y-113053641D01*
X83459250Y-113053645D01*
X83444362Y-113128492D01*
X83454957Y-113181754D01*
X83341819Y-113294892D01*
X83184250Y-113675298D01*
X83184250Y-114087046D01*
X83185547Y-114090178D01*
X83105773Y-114169952D01*
X77445230Y-114169952D01*
X77445230Y-114149952D01*
X77395947Y-113902187D01*
X77255599Y-113692143D01*
X77230437Y-113675330D01*
X77336117Y-113569650D01*
X77432790Y-113336261D01*
X77432790Y-112923202D01*
X77274040Y-112764452D01*
X76174790Y-112764452D01*
X76174790Y-112784452D01*
X75920790Y-112784452D01*
X75920790Y-112764452D01*
X74821540Y-112764452D01*
X74662790Y-112923202D01*
X74662790Y-113336261D01*
X74759463Y-113569650D01*
X74865143Y-113675330D01*
X74839981Y-113692143D01*
X74699633Y-113902187D01*
X74671236Y-114044952D01*
X74508477Y-114044952D01*
X74292330Y-113828805D01*
X73783284Y-113617952D01*
X73232296Y-113617952D01*
X72723250Y-113828805D01*
X72333643Y-114218412D01*
X72122790Y-114727458D01*
X72122790Y-115278446D01*
X72333643Y-115787492D01*
X72723250Y-116177099D01*
X73232296Y-116387952D01*
X73783284Y-116387952D01*
X74292330Y-116177099D01*
X74654477Y-115814952D01*
X74933056Y-115814952D01*
X75050025Y-115893109D01*
X75297790Y-115942392D01*
X76797790Y-115942392D01*
X77045555Y-115893109D01*
X77255599Y-115752761D01*
X77297567Y-115689952D01*
X80060988Y-115689952D01*
X76850037Y-118900904D01*
X76797790Y-118890512D01*
X75297790Y-118890512D01*
X75050025Y-118939795D01*
X74933056Y-119017952D01*
X74581477Y-119017952D01*
X74292330Y-118728805D01*
X73783284Y-118517952D01*
X73232296Y-118517952D01*
X72723250Y-118728805D01*
X72333643Y-119118412D01*
X72122790Y-119627458D01*
X72122790Y-120178446D01*
X72333643Y-120687492D01*
X72723250Y-121077099D01*
X73232296Y-121287952D01*
X73783284Y-121287952D01*
X74292330Y-121077099D01*
X74581477Y-120787952D01*
X74671236Y-120787952D01*
X74699633Y-120930717D01*
X74839981Y-121140761D01*
X74865143Y-121157574D01*
X74759463Y-121263254D01*
X74662790Y-121496643D01*
X74662790Y-121909702D01*
X74821540Y-122068452D01*
X75920790Y-122068452D01*
X75920790Y-122048452D01*
X76174790Y-122048452D01*
X76174790Y-122068452D01*
X77274040Y-122068452D01*
X77432790Y-121909702D01*
X77432790Y-121496643D01*
X77336117Y-121263254D01*
X77230437Y-121157574D01*
X77255599Y-121140761D01*
X77395947Y-120930717D01*
X77445230Y-120682952D01*
X77445230Y-120467912D01*
X77470719Y-120450881D01*
X77513121Y-120387422D01*
X81603781Y-116296763D01*
X82073658Y-116296763D01*
X82073658Y-116467639D01*
X82231227Y-116848045D01*
X82522378Y-117139196D01*
X82902784Y-117296765D01*
X83068857Y-117296765D01*
X83800055Y-118027964D01*
X83701585Y-118027964D01*
X83321179Y-118185533D01*
X83030028Y-118476684D01*
X82872459Y-118857090D01*
X82872459Y-119268838D01*
X83030028Y-119649244D01*
X83147460Y-119766676D01*
X83147459Y-121386867D01*
X83132571Y-121461714D01*
X83147459Y-121536561D01*
X83147459Y-121536565D01*
X83191555Y-121758250D01*
X83359530Y-122009643D01*
X83422989Y-122052045D01*
X84933369Y-123562426D01*
X84975768Y-123625881D01*
X85039223Y-123668280D01*
X85039224Y-123668281D01*
X85049208Y-123674952D01*
X84796457Y-123674952D01*
X84377881Y-123758212D01*
X83903213Y-124075375D01*
X83667790Y-124427710D01*
X83432367Y-124075375D01*
X82957699Y-123758212D01*
X82539123Y-123674952D01*
X82256457Y-123674952D01*
X81837881Y-123758212D01*
X81363213Y-124075375D01*
X81127790Y-124427710D01*
X80892367Y-124075375D01*
X80417699Y-123758212D01*
X79999123Y-123674952D01*
X79716457Y-123674952D01*
X79297881Y-123758212D01*
X78823213Y-124075375D01*
X78587790Y-124427710D01*
X78352367Y-124075375D01*
X77877699Y-123758212D01*
X77459123Y-123674952D01*
X77176457Y-123674952D01*
X76757881Y-123758212D01*
X76283213Y-124075375D01*
X76047790Y-124427710D01*
X75812367Y-124075375D01*
X75337699Y-123758212D01*
X74919123Y-123674952D01*
X74636457Y-123674952D01*
X74217881Y-123758212D01*
X73743213Y-124075375D01*
X73507790Y-124427710D01*
X73272367Y-124075375D01*
X72797699Y-123758212D01*
X72379123Y-123674952D01*
X72096457Y-123674952D01*
X71677881Y-123758212D01*
X71203213Y-124075375D01*
X70886050Y-124550043D01*
X70774677Y-125109952D01*
X70886050Y-125669861D01*
X71203213Y-126144529D01*
X71677881Y-126461692D01*
X72096457Y-126544952D01*
X72379123Y-126544952D01*
X72797699Y-126461692D01*
X73272367Y-126144529D01*
X73507790Y-125792194D01*
X73743213Y-126144529D01*
X74217881Y-126461692D01*
X74636457Y-126544952D01*
X74919123Y-126544952D01*
X75337699Y-126461692D01*
X75812367Y-126144529D01*
X76047790Y-125792194D01*
X76283213Y-126144529D01*
X76757881Y-126461692D01*
X77176457Y-126544952D01*
X77459123Y-126544952D01*
X77877699Y-126461692D01*
X78352367Y-126144529D01*
X78587790Y-125792194D01*
X78823213Y-126144529D01*
X79297881Y-126461692D01*
X79716457Y-126544952D01*
X79999123Y-126544952D01*
X80417699Y-126461692D01*
X80892367Y-126144529D01*
X81127790Y-125792194D01*
X81363213Y-126144529D01*
X81637790Y-126327996D01*
X81637791Y-127927407D01*
X79536199Y-130029000D01*
X79370126Y-130029000D01*
X78989720Y-130186569D01*
X78698569Y-130477720D01*
X78541000Y-130858126D01*
X78541000Y-131269874D01*
X78698569Y-131650280D01*
X78989720Y-131941431D01*
X79138954Y-132003245D01*
X79017528Y-132124671D01*
X78954072Y-132167071D01*
X78911672Y-132230527D01*
X78911671Y-132230528D01*
X78786097Y-132418463D01*
X78727112Y-132715000D01*
X78742001Y-132789852D01*
X78742001Y-133341822D01*
X78431375Y-133549375D01*
X78232000Y-133847761D01*
X78032625Y-133549375D01*
X77541418Y-133221161D01*
X77108256Y-133135000D01*
X76815744Y-133135000D01*
X76382582Y-133221161D01*
X75891375Y-133549375D01*
X75692000Y-133847761D01*
X75492625Y-133549375D01*
X75001418Y-133221161D01*
X74568256Y-133135000D01*
X74275744Y-133135000D01*
X73842582Y-133221161D01*
X73351375Y-133549375D01*
X73152000Y-133847761D01*
X72952625Y-133549375D01*
X72461418Y-133221161D01*
X72028256Y-133135000D01*
X71735744Y-133135000D01*
X71302582Y-133221161D01*
X70811375Y-133549375D01*
X70796904Y-133571033D01*
X70730327Y-133410302D01*
X70551699Y-133231673D01*
X70318310Y-133135000D01*
X69627750Y-133135000D01*
X69469000Y-133293750D01*
X69215000Y-133293750D01*
X69056250Y-133135000D01*
X68655000Y-133135000D01*
X68655000Y-132295000D01*
X68929250Y-132295000D01*
X69088000Y-132136250D01*
X69088000Y-130937000D01*
X69068000Y-130937000D01*
X69068000Y-130683000D01*
X69088000Y-130683000D01*
X69088000Y-129483750D01*
X69342000Y-129483750D01*
X69342000Y-130683000D01*
X69362000Y-130683000D01*
X69362000Y-130937000D01*
X69342000Y-130937000D01*
X69342000Y-132136250D01*
X69500750Y-132295000D01*
X70191310Y-132295000D01*
X70424699Y-132198327D01*
X70603327Y-132019698D01*
X70669904Y-131858967D01*
X70684375Y-131880625D01*
X71175582Y-132208839D01*
X71608744Y-132295000D01*
X71901256Y-132295000D01*
X72334418Y-132208839D01*
X72825625Y-131880625D01*
X73153839Y-131389418D01*
X73269092Y-130810000D01*
X73153839Y-130230582D01*
X72825625Y-129739375D01*
X72334418Y-129411161D01*
X71901256Y-129325000D01*
X71608744Y-129325000D01*
X71175582Y-129411161D01*
X70684375Y-129739375D01*
X70669904Y-129761033D01*
X70603327Y-129600302D01*
X70424699Y-129421673D01*
X70191310Y-129325000D01*
X69500750Y-129325000D01*
X69342000Y-129483750D01*
X69088000Y-129483750D01*
X68929250Y-129325000D01*
X68655000Y-129325000D01*
X68655000Y-122481202D01*
X74662790Y-122481202D01*
X74662790Y-122894261D01*
X74759463Y-123127650D01*
X74938091Y-123306279D01*
X75171480Y-123402952D01*
X75762040Y-123402952D01*
X75920790Y-123244202D01*
X75920790Y-122322452D01*
X76174790Y-122322452D01*
X76174790Y-123244202D01*
X76333540Y-123402952D01*
X76924100Y-123402952D01*
X77157489Y-123306279D01*
X77336117Y-123127650D01*
X77432790Y-122894261D01*
X77432790Y-122481202D01*
X77274040Y-122322452D01*
X76174790Y-122322452D01*
X75920790Y-122322452D01*
X74821540Y-122322452D01*
X74662790Y-122481202D01*
X68655000Y-122481202D01*
X68655000Y-111938643D01*
X74662790Y-111938643D01*
X74662790Y-112351702D01*
X74821540Y-112510452D01*
X75920790Y-112510452D01*
X75920790Y-111588702D01*
X76174790Y-111588702D01*
X76174790Y-112510452D01*
X77274040Y-112510452D01*
X77432790Y-112351702D01*
X77432790Y-111938643D01*
X77336117Y-111705254D01*
X77157489Y-111526625D01*
X76924100Y-111429952D01*
X76333540Y-111429952D01*
X76174790Y-111588702D01*
X75920790Y-111588702D01*
X75762040Y-111429952D01*
X75171480Y-111429952D01*
X74938091Y-111526625D01*
X74759463Y-111705254D01*
X74662790Y-111938643D01*
X68655000Y-111938643D01*
X68655000Y-106103250D01*
X70116000Y-106103250D01*
X70116000Y-106516309D01*
X70212673Y-106749698D01*
X70391301Y-106928327D01*
X70624690Y-107025000D01*
X71215250Y-107025000D01*
X71374000Y-106866250D01*
X71374000Y-105944500D01*
X70274750Y-105944500D01*
X70116000Y-106103250D01*
X68655000Y-106103250D01*
X68655000Y-99402000D01*
X69183250Y-99402000D01*
X69342000Y-99243250D01*
X69342000Y-98044000D01*
X69322000Y-98044000D01*
X69322000Y-97790000D01*
X69342000Y-97790000D01*
X69342000Y-96590750D01*
X69596000Y-96590750D01*
X69596000Y-97790000D01*
X69616000Y-97790000D01*
X69616000Y-98044000D01*
X69596000Y-98044000D01*
X69596000Y-99243250D01*
X69754750Y-99402000D01*
X70445310Y-99402000D01*
X70678699Y-99305327D01*
X70857327Y-99126698D01*
X70923904Y-98965967D01*
X70938375Y-98987625D01*
X71429582Y-99315839D01*
X71862744Y-99402000D01*
X72155256Y-99402000D01*
X72588418Y-99315839D01*
X73079625Y-98987625D01*
X73407839Y-98496418D01*
X73523092Y-97917000D01*
X73475357Y-97677017D01*
X73732894Y-97849097D01*
X74172000Y-97936441D01*
X74614428Y-97936441D01*
X73342482Y-99208387D01*
X73247711Y-99271711D01*
X72999563Y-99643091D01*
X72996854Y-99647146D01*
X72908765Y-100090000D01*
X72931000Y-100201783D01*
X72931000Y-100469413D01*
X72818235Y-100491843D01*
X72608191Y-100632191D01*
X72467843Y-100842235D01*
X72418560Y-101090000D01*
X72418560Y-101209808D01*
X71115809Y-102512560D01*
X70751000Y-102512560D01*
X70503235Y-102561843D01*
X70293191Y-102702191D01*
X70152843Y-102912235D01*
X70103560Y-103160000D01*
X70103560Y-104305000D01*
X70152843Y-104552765D01*
X70293191Y-104762809D01*
X70318353Y-104779622D01*
X70212673Y-104885302D01*
X70116000Y-105118691D01*
X70116000Y-105531750D01*
X70274750Y-105690500D01*
X71374000Y-105690500D01*
X71374000Y-105670500D01*
X71628000Y-105670500D01*
X71628000Y-105690500D01*
X71648000Y-105690500D01*
X71648000Y-105944500D01*
X71628000Y-105944500D01*
X71628000Y-106866250D01*
X71786750Y-107025000D01*
X72377310Y-107025000D01*
X72431000Y-107002761D01*
X72431000Y-107316310D01*
X72527673Y-107549699D01*
X72706302Y-107728327D01*
X72939691Y-107825000D01*
X73780250Y-107825000D01*
X73939000Y-107666250D01*
X73939000Y-106567000D01*
X74193000Y-106567000D01*
X74193000Y-107666250D01*
X74351750Y-107825000D01*
X75192309Y-107825000D01*
X75425698Y-107728327D01*
X75604327Y-107549699D01*
X75701000Y-107316310D01*
X75701000Y-107272750D01*
X81927000Y-107272750D01*
X81927000Y-107685809D01*
X82023673Y-107919198D01*
X82202301Y-108097827D01*
X82435690Y-108194500D01*
X83026250Y-108194500D01*
X83185000Y-108035750D01*
X83185000Y-107114000D01*
X83439000Y-107114000D01*
X83439000Y-108035750D01*
X83597750Y-108194500D01*
X84188310Y-108194500D01*
X84421699Y-108097827D01*
X84600327Y-107919198D01*
X84697000Y-107685809D01*
X84697000Y-107272750D01*
X84538250Y-107114000D01*
X83439000Y-107114000D01*
X83185000Y-107114000D01*
X82085750Y-107114000D01*
X81927000Y-107272750D01*
X75701000Y-107272750D01*
X75701000Y-106725750D01*
X75542250Y-106567000D01*
X74193000Y-106567000D01*
X73939000Y-106567000D01*
X73919000Y-106567000D01*
X73919000Y-106313000D01*
X73939000Y-106313000D01*
X73939000Y-106293000D01*
X74193000Y-106293000D01*
X74193000Y-106313000D01*
X75542250Y-106313000D01*
X75701000Y-106154250D01*
X75701000Y-105563690D01*
X75604327Y-105330301D01*
X75570222Y-105296196D01*
X75676783Y-105275000D01*
X78718560Y-105275000D01*
X78718560Y-106040000D01*
X78767843Y-106287765D01*
X78908191Y-106497809D01*
X79118235Y-106638157D01*
X79366000Y-106687440D01*
X81366000Y-106687440D01*
X81613765Y-106638157D01*
X81823809Y-106497809D01*
X81927000Y-106343374D01*
X81927000Y-106701250D01*
X82085750Y-106860000D01*
X83185000Y-106860000D01*
X83185000Y-106840000D01*
X83439000Y-106840000D01*
X83439000Y-106860000D01*
X84538250Y-106860000D01*
X84697000Y-106701250D01*
X84697000Y-106288191D01*
X84600327Y-106054802D01*
X84582525Y-106037000D01*
X84591869Y-106037000D01*
X84942389Y-106387521D01*
X85005711Y-106482289D01*
X85370076Y-106725750D01*
X85381145Y-106733146D01*
X85824000Y-106821235D01*
X85935783Y-106799000D01*
X107680783Y-106799000D01*
X108011855Y-106733146D01*
X108387289Y-106482289D01*
X108488544Y-106330750D01*
X114847000Y-106330750D01*
X114847000Y-107021309D01*
X114943673Y-107254698D01*
X115122301Y-107433327D01*
X115355690Y-107530000D01*
X116046250Y-107530000D01*
X116205000Y-107371250D01*
X116205000Y-106172000D01*
X115005750Y-106172000D01*
X114847000Y-106330750D01*
X108488544Y-106330750D01*
X108638146Y-106106855D01*
X108726235Y-105664000D01*
X108638146Y-105221145D01*
X108387289Y-104845711D01*
X108011855Y-104594854D01*
X107680783Y-104529000D01*
X95494500Y-104529000D01*
X95494500Y-104298750D01*
X95335750Y-104140000D01*
X94414000Y-104140000D01*
X94414000Y-104160000D01*
X94160000Y-104160000D01*
X94160000Y-104140000D01*
X94140000Y-104140000D01*
X94140000Y-103886000D01*
X94160000Y-103886000D01*
X94160000Y-103866000D01*
X94414000Y-103866000D01*
X94414000Y-103886000D01*
X95335750Y-103886000D01*
X95494500Y-103727250D01*
X95494500Y-103136690D01*
X95397827Y-102903301D01*
X95219198Y-102724673D01*
X95134186Y-102689460D01*
X95338041Y-102464423D01*
X95498904Y-102076039D01*
X95376915Y-101854000D01*
X94234000Y-101854000D01*
X94234000Y-101874000D01*
X93980000Y-101874000D01*
X93980000Y-101854000D01*
X92837085Y-101854000D01*
X92715096Y-102076039D01*
X92875959Y-102464423D01*
X93111569Y-102724515D01*
X93022265Y-102664843D01*
X92774500Y-102615560D01*
X91629500Y-102615560D01*
X91381735Y-102664843D01*
X91171691Y-102805191D01*
X91123041Y-102878000D01*
X90170440Y-102878000D01*
X90170440Y-102731500D01*
X90121157Y-102483735D01*
X89980809Y-102273691D01*
X89962564Y-102261500D01*
X89980809Y-102249309D01*
X90121157Y-102039265D01*
X90170440Y-101791500D01*
X90170440Y-100646500D01*
X90121157Y-100398735D01*
X89980809Y-100188691D01*
X89908000Y-100140041D01*
X89908000Y-99187000D01*
X92643887Y-99187000D01*
X92755260Y-99746909D01*
X93072423Y-100221577D01*
X93456108Y-100477947D01*
X93251866Y-100574611D01*
X92875959Y-100989577D01*
X92715096Y-101377961D01*
X92837085Y-101600000D01*
X93980000Y-101600000D01*
X93980000Y-101580000D01*
X94234000Y-101580000D01*
X94234000Y-101600000D01*
X95376915Y-101600000D01*
X95498904Y-101377961D01*
X95338041Y-100989577D01*
X94962134Y-100574611D01*
X94757892Y-100477947D01*
X95141577Y-100221577D01*
X95458740Y-99746909D01*
X95570113Y-99187000D01*
X95458740Y-98627091D01*
X95141577Y-98152423D01*
X94666909Y-97835260D01*
X94248333Y-97752000D01*
X93965667Y-97752000D01*
X93547091Y-97835260D01*
X93072423Y-98152423D01*
X92755260Y-98627091D01*
X92643887Y-99187000D01*
X89908000Y-99187000D01*
X89908000Y-98724781D01*
X89930235Y-98612998D01*
X89842146Y-98170143D01*
X89654609Y-97889474D01*
X89591289Y-97794709D01*
X89496524Y-97731389D01*
X88601135Y-96836001D01*
X100146000Y-96836001D01*
X100146000Y-97266004D01*
X100425362Y-97940444D01*
X100941556Y-98456638D01*
X101615996Y-98736000D01*
X102346004Y-98736000D01*
X102366001Y-98727717D01*
X102366000Y-99893794D01*
X102189637Y-100011636D01*
X101940904Y-100383893D01*
X101902844Y-100575234D01*
X101902843Y-100575235D01*
X101853560Y-100823000D01*
X101853560Y-101238000D01*
X101533529Y-101238000D01*
X101446369Y-101220663D01*
X101359209Y-101238000D01*
X101359205Y-101238000D01*
X101101060Y-101289348D01*
X101018006Y-101344843D01*
X100882215Y-101435576D01*
X100882214Y-101435577D01*
X100808321Y-101484951D01*
X100758947Y-101558844D01*
X100657517Y-101660274D01*
X100377242Y-101473000D01*
X100729577Y-101237577D01*
X101046740Y-100762909D01*
X101158113Y-100203000D01*
X101046740Y-99643091D01*
X100729577Y-99168423D01*
X100254909Y-98851260D01*
X99836333Y-98768000D01*
X99553667Y-98768000D01*
X99135091Y-98851260D01*
X98660423Y-99168423D01*
X98343260Y-99643091D01*
X98231887Y-100203000D01*
X98343260Y-100762909D01*
X98660423Y-101237577D01*
X99012758Y-101473000D01*
X98660423Y-101708423D01*
X98343260Y-102183091D01*
X98231887Y-102743000D01*
X98343260Y-103302909D01*
X98660423Y-103777577D01*
X99135091Y-104094740D01*
X99553667Y-104178000D01*
X99836333Y-104178000D01*
X100254909Y-104094740D01*
X100729577Y-103777577D01*
X100818926Y-103643856D01*
X100826370Y-103645337D01*
X100913531Y-103628000D01*
X100913535Y-103628000D01*
X101171680Y-103576652D01*
X101464419Y-103381049D01*
X101513795Y-103307154D01*
X101812949Y-103008000D01*
X102299842Y-103008000D01*
X102561894Y-103183097D01*
X103001000Y-103270441D01*
X103501000Y-103270441D01*
X103940106Y-103183097D01*
X104312363Y-102934364D01*
X104561096Y-102562107D01*
X104599156Y-102370766D01*
X104599157Y-102370765D01*
X104648440Y-102123000D01*
X104648440Y-101943000D01*
X105867560Y-101943000D01*
X105867560Y-103543000D01*
X105916843Y-103790765D01*
X106057191Y-104000809D01*
X106267235Y-104141157D01*
X106515000Y-104190440D01*
X108115000Y-104190440D01*
X108362765Y-104141157D01*
X108572809Y-104000809D01*
X108713157Y-103790765D01*
X108762440Y-103543000D01*
X108762440Y-101943000D01*
X108713157Y-101695235D01*
X108572809Y-101485191D01*
X108362765Y-101344843D01*
X108207639Y-101313987D01*
X108546041Y-100940423D01*
X108706904Y-100552039D01*
X108584915Y-100330000D01*
X107442000Y-100330000D01*
X107442000Y-100350000D01*
X107188000Y-100350000D01*
X107188000Y-100330000D01*
X106045085Y-100330000D01*
X105923096Y-100552039D01*
X106083959Y-100940423D01*
X106422361Y-101313987D01*
X106267235Y-101344843D01*
X106057191Y-101485191D01*
X105916843Y-101695235D01*
X105867560Y-101943000D01*
X104648440Y-101943000D01*
X104648440Y-101623000D01*
X104618603Y-101473000D01*
X104648440Y-101323000D01*
X104648440Y-100823000D01*
X104599157Y-100575235D01*
X104599156Y-100575234D01*
X104561096Y-100383893D01*
X104312363Y-100011636D01*
X104136000Y-99893795D01*
X104136000Y-99853961D01*
X105923096Y-99853961D01*
X106045085Y-100076000D01*
X107188000Y-100076000D01*
X107188000Y-98932371D01*
X107442000Y-98932371D01*
X107442000Y-100076000D01*
X108584915Y-100076000D01*
X108706904Y-99853961D01*
X108546041Y-99465577D01*
X108170134Y-99050611D01*
X107664041Y-98811086D01*
X107442000Y-98932371D01*
X107188000Y-98932371D01*
X106965959Y-98811086D01*
X106459866Y-99050611D01*
X106083959Y-99465577D01*
X105923096Y-99853961D01*
X104136000Y-99853961D01*
X104136000Y-98258159D01*
X104153337Y-98170999D01*
X104136000Y-98083839D01*
X104136000Y-98083835D01*
X104084652Y-97825690D01*
X103889049Y-97532951D01*
X103815156Y-97483577D01*
X103752027Y-97420448D01*
X103816000Y-97266004D01*
X103816000Y-96535996D01*
X103956000Y-96535996D01*
X103956000Y-97266004D01*
X104235362Y-97940444D01*
X104751556Y-98456638D01*
X105425996Y-98736000D01*
X106156004Y-98736000D01*
X106830444Y-98456638D01*
X107346638Y-97940444D01*
X107626000Y-97266004D01*
X107626000Y-96535996D01*
X108401000Y-96535996D01*
X108401000Y-97266004D01*
X108680362Y-97940444D01*
X109196556Y-98456638D01*
X109870996Y-98736000D01*
X110601004Y-98736000D01*
X111275444Y-98456638D01*
X111791638Y-97940444D01*
X112071000Y-97266004D01*
X112071000Y-96535996D01*
X112211000Y-96535996D01*
X112211000Y-97266004D01*
X112490362Y-97940444D01*
X113006556Y-98456638D01*
X113680996Y-98736000D01*
X114411004Y-98736000D01*
X115085444Y-98456638D01*
X115601638Y-97940444D01*
X115881000Y-97266004D01*
X115881000Y-96535996D01*
X115601638Y-95861556D01*
X115085444Y-95345362D01*
X114411004Y-95066000D01*
X113680996Y-95066000D01*
X113006556Y-95345362D01*
X112490362Y-95861556D01*
X112211000Y-96535996D01*
X112071000Y-96535996D01*
X111791638Y-95861556D01*
X111275444Y-95345362D01*
X110601004Y-95066000D01*
X109870996Y-95066000D01*
X109196556Y-95345362D01*
X108680362Y-95861556D01*
X108401000Y-96535996D01*
X107626000Y-96535996D01*
X107346638Y-95861556D01*
X106830444Y-95345362D01*
X106156004Y-95066000D01*
X105425996Y-95066000D01*
X104751556Y-95345362D01*
X104235362Y-95861556D01*
X103956000Y-96535996D01*
X103816000Y-96535996D01*
X103536638Y-95861556D01*
X103020444Y-95345362D01*
X102346004Y-95066000D01*
X101751131Y-95066000D01*
X101662614Y-94977483D01*
X101599290Y-94882712D01*
X101223856Y-94631855D01*
X100892784Y-94566001D01*
X100781001Y-94543766D01*
X100669218Y-94566001D01*
X78566782Y-94566001D01*
X78454999Y-94543766D01*
X78343216Y-94566001D01*
X78012144Y-94631855D01*
X77636710Y-94882712D01*
X77573388Y-94977480D01*
X75819440Y-96731428D01*
X75819440Y-96289000D01*
X75789603Y-96139000D01*
X75819440Y-95989000D01*
X75819440Y-95489000D01*
X75770157Y-95241235D01*
X75770156Y-95241234D01*
X75732096Y-95049893D01*
X75483363Y-94677636D01*
X75385579Y-94612299D01*
X75457000Y-94439874D01*
X75457000Y-94028126D01*
X75299431Y-93647720D01*
X75008280Y-93356569D01*
X74627874Y-93199000D01*
X74216126Y-93199000D01*
X73835720Y-93356569D01*
X73544569Y-93647720D01*
X73387000Y-94028126D01*
X73387000Y-94439874D01*
X73458421Y-94612299D01*
X73360637Y-94677636D01*
X73111904Y-95049893D01*
X73073844Y-95241234D01*
X73073843Y-95241235D01*
X73024560Y-95489000D01*
X73024560Y-95989000D01*
X73054397Y-96139000D01*
X73024560Y-96289000D01*
X73024560Y-96789000D01*
X73029281Y-96812737D01*
X72588418Y-96518161D01*
X72155256Y-96432000D01*
X71862744Y-96432000D01*
X71429582Y-96518161D01*
X70938375Y-96846375D01*
X70923904Y-96868033D01*
X70857327Y-96707302D01*
X70678699Y-96528673D01*
X70445310Y-96432000D01*
X69754750Y-96432000D01*
X69596000Y-96590750D01*
X69342000Y-96590750D01*
X69183250Y-96432000D01*
X68655000Y-96432000D01*
X68655000Y-92377126D01*
X90786000Y-92377126D01*
X90786000Y-92788874D01*
X90943569Y-93169280D01*
X91234720Y-93460431D01*
X91615126Y-93618000D01*
X92026874Y-93618000D01*
X92389007Y-93468000D01*
X94300993Y-93468000D01*
X94663126Y-93618000D01*
X95074874Y-93618000D01*
X95455280Y-93460431D01*
X95746431Y-93169280D01*
X95904000Y-92788874D01*
X95904000Y-92377126D01*
X95746431Y-91996720D01*
X95455280Y-91705569D01*
X95074874Y-91548000D01*
X94663126Y-91548000D01*
X94300993Y-91698000D01*
X92389007Y-91698000D01*
X92026874Y-91548000D01*
X91615126Y-91548000D01*
X91234720Y-91705569D01*
X90943569Y-91996720D01*
X90786000Y-92377126D01*
X68655000Y-92377126D01*
X68655000Y-87492000D01*
X71477560Y-87492000D01*
X71477560Y-89292000D01*
X71526843Y-89539765D01*
X71667191Y-89749809D01*
X71877235Y-89890157D01*
X72125000Y-89939440D01*
X72151990Y-89939440D01*
X72191348Y-90137309D01*
X72386951Y-90430049D01*
X72460846Y-90479425D01*
X72969577Y-90988156D01*
X73018951Y-91062049D01*
X73092844Y-91111423D01*
X73092845Y-91111424D01*
X73311690Y-91257652D01*
X73569835Y-91309000D01*
X73569839Y-91309000D01*
X73657000Y-91326337D01*
X73744161Y-91309000D01*
X76393993Y-91309000D01*
X76756126Y-91459000D01*
X77167874Y-91459000D01*
X77548280Y-91301431D01*
X77839431Y-91010280D01*
X77997000Y-90629874D01*
X77997000Y-90218126D01*
X77839431Y-89837720D01*
X77836273Y-89834562D01*
X77978000Y-89762997D01*
X77978000Y-88519000D01*
X78232000Y-88519000D01*
X78232000Y-89762997D01*
X78469742Y-89883046D01*
X78885577Y-89689175D01*
X84727430Y-89689175D01*
X84850565Y-89976788D01*
X85532734Y-90236707D01*
X86262443Y-90215786D01*
X86839435Y-89976788D01*
X86962570Y-89689175D01*
X85845000Y-88571605D01*
X84727430Y-89689175D01*
X78885577Y-89689175D01*
X79012576Y-89629966D01*
X79417240Y-89188417D01*
X79596036Y-88756740D01*
X79475378Y-88519000D01*
X78232000Y-88519000D01*
X77978000Y-88519000D01*
X77958000Y-88519000D01*
X77958000Y-88265000D01*
X77978000Y-88265000D01*
X77978000Y-87021003D01*
X78232000Y-87021003D01*
X78232000Y-88265000D01*
X79475378Y-88265000D01*
X79569404Y-88079734D01*
X84000293Y-88079734D01*
X84021214Y-88809443D01*
X84260212Y-89386435D01*
X84547825Y-89509570D01*
X85665395Y-88392000D01*
X86024605Y-88392000D01*
X87142175Y-89509570D01*
X87429788Y-89386435D01*
X87689707Y-88704266D01*
X87668786Y-87974557D01*
X87429788Y-87397565D01*
X87142175Y-87274430D01*
X86024605Y-88392000D01*
X85665395Y-88392000D01*
X84547825Y-87274430D01*
X84260212Y-87397565D01*
X84000293Y-88079734D01*
X79569404Y-88079734D01*
X79596036Y-88027260D01*
X79417240Y-87595583D01*
X79012576Y-87154034D01*
X78885578Y-87094825D01*
X84727430Y-87094825D01*
X85845000Y-88212395D01*
X86865395Y-87192000D01*
X91497560Y-87192000D01*
X91497560Y-89592000D01*
X91546843Y-89839765D01*
X91687191Y-90049809D01*
X91897235Y-90190157D01*
X92145000Y-90239440D01*
X94545000Y-90239440D01*
X94792765Y-90190157D01*
X95002809Y-90049809D01*
X95143157Y-89839765D01*
X95192440Y-89592000D01*
X95192440Y-87192000D01*
X95143157Y-86944235D01*
X95002809Y-86734191D01*
X94792765Y-86593843D01*
X94545000Y-86544560D01*
X92145000Y-86544560D01*
X91897235Y-86593843D01*
X91687191Y-86734191D01*
X91546843Y-86944235D01*
X91497560Y-87192000D01*
X86865395Y-87192000D01*
X86962570Y-87094825D01*
X86839435Y-86807212D01*
X86157266Y-86547293D01*
X85427557Y-86568214D01*
X84850565Y-86807212D01*
X84727430Y-87094825D01*
X78885578Y-87094825D01*
X78469742Y-86900954D01*
X78232000Y-87021003D01*
X77978000Y-87021003D01*
X77740258Y-86900954D01*
X77197424Y-87154034D01*
X76842624Y-87541174D01*
X76671673Y-87285327D01*
X76163927Y-86946062D01*
X75716182Y-86857000D01*
X75413818Y-86857000D01*
X74966073Y-86946062D01*
X74522129Y-87242696D01*
X74382809Y-87034191D01*
X74172765Y-86893843D01*
X73925000Y-86844560D01*
X72125000Y-86844560D01*
X71877235Y-86893843D01*
X71667191Y-87034191D01*
X71526843Y-87244235D01*
X71477560Y-87492000D01*
X68655000Y-87492000D01*
X68655000Y-82423000D01*
X70164887Y-82423000D01*
X70276260Y-82982909D01*
X70593423Y-83457577D01*
X71068091Y-83774740D01*
X71486667Y-83858000D01*
X71769333Y-83858000D01*
X72187909Y-83774740D01*
X72662577Y-83457577D01*
X72979740Y-82982909D01*
X73091113Y-82423000D01*
X72979740Y-81863091D01*
X72819317Y-81623000D01*
X77800560Y-81623000D01*
X77800560Y-83223000D01*
X77849843Y-83470765D01*
X77990191Y-83680809D01*
X78200235Y-83821157D01*
X78448000Y-83870440D01*
X80048000Y-83870440D01*
X80295765Y-83821157D01*
X80505809Y-83680809D01*
X80646157Y-83470765D01*
X80695440Y-83223000D01*
X80695440Y-81623000D01*
X80646157Y-81375235D01*
X80505809Y-81165191D01*
X80295765Y-81024843D01*
X80048000Y-80975560D01*
X78448000Y-80975560D01*
X78200235Y-81024843D01*
X77990191Y-81165191D01*
X77849843Y-81375235D01*
X77800560Y-81623000D01*
X72819317Y-81623000D01*
X72662577Y-81388423D01*
X72187909Y-81071260D01*
X71769333Y-80988000D01*
X71486667Y-80988000D01*
X71068091Y-81071260D01*
X70593423Y-81388423D01*
X70276260Y-81863091D01*
X70164887Y-82423000D01*
X68655000Y-82423000D01*
X68655000Y-75486126D01*
X69323000Y-75486126D01*
X69323000Y-75897874D01*
X69480569Y-76278280D01*
X69771720Y-76569431D01*
X70152126Y-76727000D01*
X70563874Y-76727000D01*
X70944280Y-76569431D01*
X71114711Y-76399000D01*
X71733153Y-76399000D01*
X71808000Y-76413888D01*
X71882847Y-76399000D01*
X71882852Y-76399000D01*
X72104537Y-76354904D01*
X72355929Y-76186929D01*
X72398331Y-76123471D01*
X72831802Y-75690000D01*
X73589391Y-75690000D01*
X73588582Y-75690161D01*
X73097375Y-76018375D01*
X72769161Y-76509582D01*
X72653908Y-77089000D01*
X72769161Y-77668418D01*
X73097375Y-78159625D01*
X73588582Y-78487839D01*
X74021744Y-78574000D01*
X74314256Y-78574000D01*
X74747418Y-78487839D01*
X75238625Y-78159625D01*
X75250816Y-78141381D01*
X75259843Y-78186765D01*
X75400191Y-78396809D01*
X75610235Y-78537157D01*
X75858000Y-78586440D01*
X77558000Y-78586440D01*
X77805765Y-78537157D01*
X78015809Y-78396809D01*
X78156157Y-78186765D01*
X78205440Y-77939000D01*
X78205440Y-76239000D01*
X78156157Y-75991235D01*
X78015809Y-75781191D01*
X77879333Y-75690000D01*
X78748198Y-75690000D01*
X79181672Y-76123475D01*
X79224071Y-76186929D01*
X79287524Y-76229327D01*
X79287526Y-76229329D01*
X79360787Y-76278280D01*
X79475463Y-76354904D01*
X79697148Y-76399000D01*
X79697152Y-76399000D01*
X79771999Y-76413888D01*
X79846846Y-76399000D01*
X80068289Y-76399000D01*
X80185720Y-76516431D01*
X80566126Y-76674000D01*
X80977874Y-76674000D01*
X81358280Y-76516431D01*
X81649431Y-76225280D01*
X81807000Y-75844874D01*
X81807000Y-75433126D01*
X81649431Y-75052720D01*
X81358280Y-74761569D01*
X80977874Y-74604000D01*
X80566126Y-74604000D01*
X80185720Y-74761569D01*
X80077546Y-74869743D01*
X79653331Y-74445529D01*
X79610929Y-74382071D01*
X79359537Y-74214096D01*
X79137852Y-74170000D01*
X79137847Y-74170000D01*
X79063000Y-74155112D01*
X78988153Y-74170000D01*
X72591846Y-74170000D01*
X72516999Y-74155112D01*
X72442152Y-74170000D01*
X72442148Y-74170000D01*
X72220463Y-74214096D01*
X72220461Y-74214097D01*
X72220462Y-74214097D01*
X72032526Y-74339671D01*
X72032524Y-74339673D01*
X71969071Y-74382071D01*
X71926672Y-74445525D01*
X71493198Y-74879000D01*
X71008711Y-74879000D01*
X70944280Y-74814569D01*
X70563874Y-74657000D01*
X70152126Y-74657000D01*
X69771720Y-74814569D01*
X69480569Y-75105720D01*
X69323000Y-75486126D01*
X68655000Y-75486126D01*
X68655000Y-73814175D01*
X84727430Y-73814175D01*
X84850565Y-74101788D01*
X85532734Y-74361707D01*
X86262443Y-74340786D01*
X86839435Y-74101788D01*
X86962570Y-73814175D01*
X85845000Y-72696605D01*
X84727430Y-73814175D01*
X68655000Y-73814175D01*
X68655000Y-72204734D01*
X84000293Y-72204734D01*
X84021214Y-72934443D01*
X84260212Y-73511435D01*
X84547825Y-73634570D01*
X85665395Y-72517000D01*
X86024605Y-72517000D01*
X87142175Y-73634570D01*
X87429788Y-73511435D01*
X87689707Y-72829266D01*
X87668786Y-72099557D01*
X87429788Y-71522565D01*
X87142175Y-71399430D01*
X86024605Y-72517000D01*
X85665395Y-72517000D01*
X84547825Y-71399430D01*
X84260212Y-71522565D01*
X84000293Y-72204734D01*
X68655000Y-72204734D01*
X68655000Y-70774181D01*
X71236000Y-70774181D01*
X71325062Y-71221926D01*
X71664327Y-71729673D01*
X72172073Y-72068938D01*
X72771000Y-72188072D01*
X73369926Y-72068938D01*
X73877673Y-71729673D01*
X74216938Y-71221927D01*
X74306000Y-70774182D01*
X74306000Y-68671818D01*
X74216938Y-68224073D01*
X74015768Y-67923000D01*
X76303560Y-67923000D01*
X76303560Y-71523000D01*
X76352843Y-71770765D01*
X76493191Y-71980809D01*
X76703235Y-72121157D01*
X76951000Y-72170440D01*
X78751000Y-72170440D01*
X78998765Y-72121157D01*
X79208809Y-71980809D01*
X79349157Y-71770765D01*
X79398440Y-71523000D01*
X79398440Y-71219825D01*
X84727430Y-71219825D01*
X85845000Y-72337395D01*
X86865395Y-71317000D01*
X91497560Y-71317000D01*
X91497560Y-73717000D01*
X91546843Y-73964765D01*
X91687191Y-74174809D01*
X91897235Y-74315157D01*
X92145000Y-74364440D01*
X94545000Y-74364440D01*
X94792765Y-74315157D01*
X95002809Y-74174809D01*
X95143157Y-73964765D01*
X95192440Y-73717000D01*
X95192440Y-71317000D01*
X95143157Y-71069235D01*
X95002809Y-70859191D01*
X94792765Y-70718843D01*
X94545000Y-70669560D01*
X92145000Y-70669560D01*
X91897235Y-70718843D01*
X91687191Y-70859191D01*
X91546843Y-71069235D01*
X91497560Y-71317000D01*
X86865395Y-71317000D01*
X86962570Y-71219825D01*
X86839435Y-70932212D01*
X86157266Y-70672293D01*
X85427557Y-70693214D01*
X84850565Y-70932212D01*
X84727430Y-71219825D01*
X79398440Y-71219825D01*
X79398440Y-67923000D01*
X79349157Y-67675235D01*
X79208809Y-67465191D01*
X78998765Y-67324843D01*
X78751000Y-67275560D01*
X76951000Y-67275560D01*
X76703235Y-67324843D01*
X76493191Y-67465191D01*
X76352843Y-67675235D01*
X76303560Y-67923000D01*
X74015768Y-67923000D01*
X73877673Y-67716327D01*
X73369927Y-67377062D01*
X72771000Y-67257928D01*
X72172074Y-67377062D01*
X71664328Y-67716327D01*
X71325063Y-68224073D01*
X71236001Y-68671818D01*
X71236000Y-70774181D01*
X68655000Y-70774181D01*
X68655000Y-67984693D01*
X68720599Y-67399870D01*
X68900998Y-66881832D01*
X69191686Y-66416635D01*
X69578210Y-66027403D01*
X70041367Y-65733475D01*
X70558134Y-65549462D01*
X71140658Y-65480000D01*
X100402821Y-65480000D01*
X100252469Y-65705019D01*
X100252469Y-65705019D01*
G37*
X100252469Y-65705019D02*
X100110051Y-66421000D01*
X100252469Y-67136981D01*
X100658039Y-67743961D01*
X101265019Y-68149531D01*
X101800273Y-68256000D01*
X102161727Y-68256000D01*
X102696981Y-68149531D01*
X103303961Y-67743961D01*
X103709531Y-67136981D01*
X103851949Y-66421000D01*
X103709531Y-65705019D01*
X103559179Y-65480000D01*
X104212821Y-65480000D01*
X104062469Y-65705019D01*
X103920051Y-66421000D01*
X104062469Y-67136981D01*
X104468039Y-67743961D01*
X105075019Y-68149531D01*
X105610273Y-68256000D01*
X105971727Y-68256000D01*
X106506981Y-68149531D01*
X107113961Y-67743961D01*
X107519531Y-67136981D01*
X107661949Y-66421000D01*
X107519531Y-65705019D01*
X107369179Y-65480000D01*
X108657821Y-65480000D01*
X108507469Y-65705019D01*
X108365051Y-66421000D01*
X108507469Y-67136981D01*
X108913039Y-67743961D01*
X109520019Y-68149531D01*
X110055273Y-68256000D01*
X110416727Y-68256000D01*
X110951981Y-68149531D01*
X111558961Y-67743961D01*
X111964531Y-67136981D01*
X112106949Y-66421000D01*
X111964531Y-65705019D01*
X111814179Y-65480000D01*
X112467821Y-65480000D01*
X112317469Y-65705019D01*
X112175051Y-66421000D01*
X112317469Y-67136981D01*
X112723039Y-67743961D01*
X113330019Y-68149531D01*
X113865273Y-68256000D01*
X114226727Y-68256000D01*
X114761981Y-68149531D01*
X115368961Y-67743961D01*
X115774531Y-67136981D01*
X115916949Y-66421000D01*
X115774531Y-65705019D01*
X115724983Y-65630865D01*
X115998168Y-65725998D01*
X116463365Y-66016686D01*
X116852597Y-66403210D01*
X117146525Y-66866367D01*
X117330538Y-67383134D01*
X117400001Y-67965666D01*
X117400000Y-70173925D01*
X117400001Y-70173930D01*
X117400000Y-80206925D01*
X117400001Y-80206930D01*
X117400001Y-102432621D01*
X116911418Y-102106161D01*
X116478256Y-102020000D01*
X116185744Y-102020000D01*
X115752582Y-102106161D01*
X115261375Y-102434375D01*
X114933161Y-102925582D01*
X114817908Y-103505000D01*
X114933161Y-104084418D01*
X115261375Y-104575625D01*
X115283032Y-104590096D01*
X115122301Y-104656673D01*
X114943673Y-104835302D01*
X114847000Y-105068691D01*
X114847000Y-105759250D01*
X115005750Y-105918000D01*
X116205000Y-105918000D01*
X116205000Y-105898000D01*
X116459000Y-105898000D01*
X116459000Y-105918000D01*
X116479000Y-105918000D01*
X116479000Y-106172000D01*
X116459000Y-106172000D01*
X116459000Y-107371250D01*
X116617750Y-107530000D01*
X117308310Y-107530000D01*
X117400000Y-107492021D01*
X117400000Y-134580307D01*
X117334401Y-135165130D01*
X117154003Y-135683165D01*
X116863315Y-136148364D01*
X116476790Y-136537597D01*
X116013633Y-136831525D01*
X115496865Y-137015538D01*
X114914342Y-137085000D01*
X71159693Y-137085000D01*
X70574870Y-137019401D01*
X70056835Y-136839003D01*
X69591636Y-136548315D01*
X69202403Y-136161790D01*
X69123613Y-136037637D01*
X69215000Y-135946250D01*
X69215000Y-134747000D01*
X69195000Y-134747000D01*
X69195000Y-134493000D01*
X69215000Y-134493000D01*
X69215000Y-133293750D01*
X69469000Y-133293750D01*
X69469000Y-134493000D01*
X69489000Y-134493000D01*
X69489000Y-134747000D01*
X69469000Y-134747000D01*
X69469000Y-135946250D01*
X69627750Y-136105000D01*
X70318310Y-136105000D01*
X70551699Y-136008327D01*
X70730327Y-135829698D01*
X70796904Y-135668967D01*
X70811375Y-135690625D01*
X71302582Y-136018839D01*
X71735744Y-136105000D01*
X72028256Y-136105000D01*
X72461418Y-136018839D01*
X72952625Y-135690625D01*
X73152000Y-135392239D01*
X73351375Y-135690625D01*
X73842582Y-136018839D01*
X74275744Y-136105000D01*
X74568256Y-136105000D01*
X75001418Y-136018839D01*
X75492625Y-135690625D01*
X75692000Y-135392239D01*
X75891375Y-135690625D01*
X76382582Y-136018839D01*
X76815744Y-136105000D01*
X77108256Y-136105000D01*
X77328407Y-136061209D01*
X77546674Y-136279477D01*
X77589072Y-136342930D01*
X77652525Y-136385328D01*
X77652527Y-136385330D01*
X77730935Y-136437720D01*
X77840464Y-136510905D01*
X78062149Y-136555001D01*
X78062153Y-136555001D01*
X78137000Y-136569889D01*
X78211847Y-136555001D01*
X83078152Y-136555001D01*
X83152999Y-136569889D01*
X83227846Y-136555001D01*
X83227851Y-136555001D01*
X83449536Y-136510905D01*
X83700928Y-136342930D01*
X83743329Y-136279472D01*
X83832769Y-136190032D01*
X92603073Y-136190032D01*
X92701736Y-136456887D01*
X93311461Y-136683408D01*
X93961460Y-136659356D01*
X94450264Y-136456887D01*
X94548927Y-136190032D01*
X99103073Y-136190032D01*
X99201736Y-136456887D01*
X99811461Y-136683408D01*
X100461460Y-136659356D01*
X100950264Y-136456887D01*
X101048927Y-136190032D01*
X107462073Y-136190032D01*
X107560736Y-136456887D01*
X108170461Y-136683408D01*
X108820460Y-136659356D01*
X109309264Y-136456887D01*
X109407927Y-136190032D01*
X113962073Y-136190032D01*
X114060736Y-136456887D01*
X114670461Y-136683408D01*
X115320460Y-136659356D01*
X115809264Y-136456887D01*
X115907927Y-136190032D01*
X114935000Y-135217105D01*
X113962073Y-136190032D01*
X109407927Y-136190032D01*
X108435000Y-135217105D01*
X107462073Y-136190032D01*
X101048927Y-136190032D01*
X100076000Y-135217105D01*
X99103073Y-136190032D01*
X94548927Y-136190032D01*
X93576000Y-135217105D01*
X92603073Y-136190032D01*
X83832769Y-136190032D01*
X83923473Y-136099329D01*
X83986929Y-136056929D01*
X84154904Y-135805537D01*
X84199000Y-135583852D01*
X84199000Y-135583848D01*
X84213888Y-135509001D01*
X84199000Y-135434154D01*
X84199000Y-134772961D01*
X91930092Y-134772961D01*
X91954144Y-135422960D01*
X92156613Y-135911764D01*
X92423468Y-136010427D01*
X93396395Y-135037500D01*
X93755605Y-135037500D01*
X94728532Y-136010427D01*
X94995387Y-135911764D01*
X95221908Y-135302039D01*
X95202331Y-134772961D01*
X98430092Y-134772961D01*
X98454144Y-135422960D01*
X98656613Y-135911764D01*
X98923468Y-136010427D01*
X99896395Y-135037500D01*
X100255605Y-135037500D01*
X101228532Y-136010427D01*
X101495387Y-135911764D01*
X101721908Y-135302039D01*
X101702331Y-134772961D01*
X106789092Y-134772961D01*
X106813144Y-135422960D01*
X107015613Y-135911764D01*
X107282468Y-136010427D01*
X108255395Y-135037500D01*
X108614605Y-135037500D01*
X109587532Y-136010427D01*
X109854387Y-135911764D01*
X110080908Y-135302039D01*
X110061331Y-134772961D01*
X113289092Y-134772961D01*
X113313144Y-135422960D01*
X113515613Y-135911764D01*
X113782468Y-136010427D01*
X114755395Y-135037500D01*
X115114605Y-135037500D01*
X116087532Y-136010427D01*
X116354387Y-135911764D01*
X116580908Y-135302039D01*
X116556856Y-134652040D01*
X116354387Y-134163236D01*
X116087532Y-134064573D01*
X115114605Y-135037500D01*
X114755395Y-135037500D01*
X113782468Y-134064573D01*
X113515613Y-134163236D01*
X113289092Y-134772961D01*
X110061331Y-134772961D01*
X110056856Y-134652040D01*
X109854387Y-134163236D01*
X109587532Y-134064573D01*
X108614605Y-135037500D01*
X108255395Y-135037500D01*
X107282468Y-134064573D01*
X107015613Y-134163236D01*
X106789092Y-134772961D01*
X101702331Y-134772961D01*
X101697856Y-134652040D01*
X101495387Y-134163236D01*
X101228532Y-134064573D01*
X100255605Y-135037500D01*
X99896395Y-135037500D01*
X98923468Y-134064573D01*
X98656613Y-134163236D01*
X98430092Y-134772961D01*
X95202331Y-134772961D01*
X95197856Y-134652040D01*
X94995387Y-134163236D01*
X94728532Y-134064573D01*
X93755605Y-135037500D01*
X93396395Y-135037500D01*
X92423468Y-134064573D01*
X92156613Y-134163236D01*
X91930092Y-134772961D01*
X84199000Y-134772961D01*
X84199000Y-134061517D01*
X84379489Y-134182115D01*
X84836000Y-134272921D01*
X85292510Y-134182115D01*
X85471000Y-134062853D01*
X85649489Y-134182115D01*
X86106000Y-134272921D01*
X86562510Y-134182115D01*
X86754150Y-134054066D01*
X87068617Y-134208900D01*
X87249000Y-134083244D01*
X87249000Y-133330969D01*
X87276000Y-133195231D01*
X87276000Y-132234770D01*
X87249000Y-132099032D01*
X87249000Y-131815000D01*
X87463560Y-131815000D01*
X87463560Y-133615000D01*
X87503000Y-133813280D01*
X87503000Y-134083244D01*
X87683383Y-134208900D01*
X87783264Y-134159722D01*
X87863235Y-134213157D01*
X88111000Y-134262440D01*
X89181000Y-134262440D01*
X89428765Y-134213157D01*
X89638809Y-134072809D01*
X89764321Y-133884968D01*
X92603073Y-133884968D01*
X93576000Y-134857895D01*
X94548927Y-133884968D01*
X99103073Y-133884968D01*
X100076000Y-134857895D01*
X101048927Y-133884968D01*
X107462073Y-133884968D01*
X108435000Y-134857895D01*
X109407927Y-133884968D01*
X113962073Y-133884968D01*
X114935000Y-134857895D01*
X115907927Y-133884968D01*
X115809264Y-133618113D01*
X115199539Y-133391592D01*
X114549540Y-133415644D01*
X114060736Y-133618113D01*
X113962073Y-133884968D01*
X109407927Y-133884968D01*
X109309264Y-133618113D01*
X108699539Y-133391592D01*
X108049540Y-133415644D01*
X107560736Y-133618113D01*
X107462073Y-133884968D01*
X101048927Y-133884968D01*
X100950264Y-133618113D01*
X100340539Y-133391592D01*
X99690540Y-133415644D01*
X99201736Y-133618113D01*
X99103073Y-133884968D01*
X94548927Y-133884968D01*
X94450264Y-133618113D01*
X93840539Y-133391592D01*
X93190540Y-133415644D01*
X92701736Y-133618113D01*
X92603073Y-133884968D01*
X89764321Y-133884968D01*
X89779157Y-133862765D01*
X89828440Y-133615000D01*
X89828440Y-131815000D01*
X89779157Y-131567235D01*
X89638809Y-131357191D01*
X89428765Y-131216843D01*
X89181000Y-131167560D01*
X88111000Y-131167560D01*
X87863235Y-131216843D01*
X87783264Y-131270278D01*
X87683383Y-131221100D01*
X87503000Y-131346756D01*
X87503000Y-131616720D01*
X87463560Y-131815000D01*
X87249000Y-131815000D01*
X87249000Y-131346756D01*
X87068617Y-131221100D01*
X86754151Y-131375934D01*
X86562511Y-131247885D01*
X86106000Y-131157079D01*
X85649490Y-131247885D01*
X85471001Y-131367147D01*
X85292511Y-131247885D01*
X85286023Y-131246594D01*
X89132790Y-127399828D01*
X89132790Y-128030629D01*
X89115453Y-128117790D01*
X89132790Y-128204951D01*
X89132790Y-128204954D01*
X89184138Y-128463099D01*
X89379741Y-128755839D01*
X89453637Y-128805215D01*
X90750078Y-130101657D01*
X90799452Y-130175550D01*
X90873345Y-130224924D01*
X90873346Y-130224925D01*
X91092190Y-130371152D01*
X91092191Y-130371153D01*
X91350336Y-130422501D01*
X91350340Y-130422501D01*
X91437501Y-130439838D01*
X91524662Y-130422501D01*
X91941000Y-130422501D01*
X91941000Y-130862722D01*
X92189914Y-131463653D01*
X92649847Y-131923586D01*
X93250778Y-132172500D01*
X93901222Y-132172500D01*
X94502153Y-131923586D01*
X94753239Y-131672500D01*
X98898761Y-131672500D01*
X99149847Y-131923586D01*
X99750778Y-132172500D01*
X100401222Y-132172500D01*
X101002153Y-131923586D01*
X101462086Y-131463653D01*
X101711000Y-130862722D01*
X101711000Y-130212278D01*
X101462086Y-129611347D01*
X101448240Y-129597501D01*
X106243423Y-129597501D01*
X106817046Y-130171125D01*
X106800000Y-130212278D01*
X106800000Y-130862722D01*
X107048914Y-131463653D01*
X107508847Y-131923586D01*
X108109778Y-132172500D01*
X108760222Y-132172500D01*
X109361153Y-131923586D01*
X109612239Y-131672500D01*
X113757761Y-131672500D01*
X114008847Y-131923586D01*
X114609778Y-132172500D01*
X115260222Y-132172500D01*
X115861153Y-131923586D01*
X116321086Y-131463653D01*
X116570000Y-130862722D01*
X116570000Y-130212278D01*
X116321086Y-129611347D01*
X115861153Y-129151414D01*
X115260222Y-128902500D01*
X114609778Y-128902500D01*
X114008847Y-129151414D01*
X113757761Y-129402500D01*
X109612239Y-129402500D01*
X109361153Y-129151414D01*
X108760222Y-128902500D01*
X108109778Y-128902500D01*
X108068625Y-128919546D01*
X107297426Y-128148348D01*
X107248050Y-128074452D01*
X106955311Y-127878849D01*
X106697166Y-127827501D01*
X106697162Y-127827501D01*
X106610001Y-127810164D01*
X106522840Y-127827501D01*
X104794000Y-127827501D01*
X104794000Y-127656626D01*
X104636431Y-127276220D01*
X104345280Y-126985069D01*
X103964874Y-126827500D01*
X103553126Y-126827500D01*
X103190993Y-126977500D01*
X100756917Y-126977500D01*
X100323498Y-126544082D01*
X100737699Y-126461692D01*
X101212367Y-126144529D01*
X101447790Y-125792194D01*
X101683213Y-126144529D01*
X102157881Y-126461692D01*
X102576457Y-126544952D01*
X102859123Y-126544952D01*
X103277699Y-126461692D01*
X103752367Y-126144529D01*
X104008737Y-125760844D01*
X104105401Y-125965086D01*
X104520367Y-126340993D01*
X104908751Y-126501856D01*
X105130790Y-126379867D01*
X105130790Y-125236952D01*
X105110790Y-125236952D01*
X105110790Y-124982952D01*
X105130790Y-124982952D01*
X105130790Y-124962952D01*
X105384790Y-124962952D01*
X105384790Y-124982952D01*
X105404790Y-124982952D01*
X105404790Y-125236952D01*
X105384790Y-125236952D01*
X105384790Y-126379867D01*
X105606829Y-126501856D01*
X105995213Y-126340993D01*
X106410179Y-125965086D01*
X106506843Y-125760844D01*
X106763213Y-126144529D01*
X107237881Y-126461692D01*
X107656457Y-126544952D01*
X107939123Y-126544952D01*
X108357699Y-126461692D01*
X108832367Y-126144529D01*
X109149530Y-125669861D01*
X109260903Y-125109952D01*
X109149530Y-124550043D01*
X108832367Y-124075375D01*
X108357699Y-123758212D01*
X107939123Y-123674952D01*
X107656457Y-123674952D01*
X107237881Y-123758212D01*
X106763213Y-124075375D01*
X106506843Y-124459060D01*
X106410179Y-124254818D01*
X105995213Y-123878911D01*
X105606829Y-123718048D01*
X105384792Y-123840036D01*
X105384792Y-123674952D01*
X105354592Y-123674952D01*
X106080593Y-122948952D01*
X106324945Y-122948952D01*
X106399792Y-122963840D01*
X106474639Y-122948952D01*
X106474644Y-122948952D01*
X106696329Y-122904856D01*
X106947721Y-122736881D01*
X106990123Y-122673422D01*
X107774263Y-121889283D01*
X107837719Y-121846883D01*
X108005694Y-121595491D01*
X108049790Y-121373806D01*
X108049790Y-121373802D01*
X108064678Y-121298955D01*
X108049790Y-121224108D01*
X108049790Y-120427750D01*
X112373000Y-120427750D01*
X112373000Y-121168309D01*
X112469673Y-121401698D01*
X112648301Y-121580327D01*
X112881690Y-121677000D01*
X114522250Y-121677000D01*
X114681000Y-121518250D01*
X114681000Y-120269000D01*
X114935000Y-120269000D01*
X114935000Y-121518250D01*
X115093750Y-121677000D01*
X116734310Y-121677000D01*
X116967699Y-121580327D01*
X117146327Y-121401698D01*
X117243000Y-121168309D01*
X117243000Y-120427750D01*
X117084250Y-120269000D01*
X114935000Y-120269000D01*
X114681000Y-120269000D01*
X112531750Y-120269000D01*
X112373000Y-120427750D01*
X108049790Y-120427750D01*
X108049790Y-119115691D01*
X112373000Y-119115691D01*
X112373000Y-119856250D01*
X112531750Y-120015000D01*
X114681000Y-120015000D01*
X114681000Y-118765750D01*
X114935000Y-118765750D01*
X114935000Y-120015000D01*
X117084250Y-120015000D01*
X117243000Y-119856250D01*
X117243000Y-119115691D01*
X117146327Y-118882302D01*
X116967699Y-118703673D01*
X116734310Y-118607000D01*
X115093750Y-118607000D01*
X114935000Y-118765750D01*
X114681000Y-118765750D01*
X114522250Y-118607000D01*
X112881690Y-118607000D01*
X112648301Y-118703673D01*
X112469673Y-118882302D01*
X112373000Y-119115691D01*
X108049790Y-119115691D01*
X108049790Y-116802798D01*
X108064678Y-116727951D01*
X108049790Y-116653104D01*
X108049790Y-116653100D01*
X108005694Y-116431415D01*
X107917684Y-116299699D01*
X107880119Y-116243478D01*
X107880117Y-116243476D01*
X107837719Y-116180023D01*
X107774266Y-116137625D01*
X107333999Y-115697359D01*
X107406882Y-115330952D01*
X107353385Y-115062000D01*
X112342928Y-115062000D01*
X112462062Y-115660927D01*
X112801327Y-116168673D01*
X113309073Y-116507938D01*
X113756818Y-116597000D01*
X115859182Y-116597000D01*
X116306927Y-116507938D01*
X116814673Y-116168673D01*
X117153938Y-115660927D01*
X117273072Y-115062000D01*
X117153938Y-114463073D01*
X116814673Y-113955327D01*
X116306927Y-113616062D01*
X115859182Y-113527000D01*
X113756818Y-113527000D01*
X113309073Y-113616062D01*
X112801327Y-113955327D01*
X112462062Y-114463073D01*
X112342928Y-115062000D01*
X107353385Y-115062000D01*
X107291629Y-114751534D01*
X106963415Y-114260327D01*
X106472208Y-113932113D01*
X106039046Y-113845952D01*
X105746534Y-113845952D01*
X105313372Y-113932113D01*
X104822165Y-114260327D01*
X104621437Y-114560738D01*
X104234148Y-114135769D01*
X103709682Y-113889466D01*
X103479790Y-114010133D01*
X103479790Y-115203952D01*
X103499790Y-115203952D01*
X103499790Y-115457952D01*
X103479790Y-115457952D01*
X103479790Y-115477952D01*
X103225790Y-115477952D01*
X103225790Y-115457952D01*
X102032635Y-115457952D01*
X101911314Y-115687842D01*
X102081145Y-116097876D01*
X102471432Y-116526135D01*
X102601268Y-116587109D01*
X102282165Y-116800327D01*
X101953951Y-117291534D01*
X101898121Y-117572209D01*
X101653664Y-117470952D01*
X101241916Y-117470952D01*
X100861510Y-117628521D01*
X100570359Y-117919672D01*
X100412790Y-118300078D01*
X100412790Y-118711826D01*
X100570359Y-119092232D01*
X100861510Y-119383383D01*
X101241916Y-119540952D01*
X101404495Y-119540952D01*
X101439862Y-119593882D01*
X101691254Y-119761857D01*
X101912939Y-119805953D01*
X101912943Y-119805953D01*
X101964228Y-119816154D01*
X101953951Y-119831534D01*
X101861303Y-120297307D01*
X99454272Y-122704339D01*
X99408136Y-122735166D01*
X98969452Y-122296483D01*
X98906128Y-122201712D01*
X98530694Y-121950855D01*
X98199622Y-121885001D01*
X98087839Y-121862766D01*
X97976056Y-121885001D01*
X97224131Y-121885001D01*
X96423563Y-121084434D01*
X96360239Y-120989663D01*
X95984805Y-120738806D01*
X95884790Y-120718912D01*
X95884790Y-116151052D01*
X95998359Y-116425232D01*
X96289510Y-116716383D01*
X96669916Y-116873952D01*
X97081664Y-116873952D01*
X97462070Y-116716383D01*
X97503427Y-116675026D01*
X97497902Y-116702800D01*
X97512790Y-116777647D01*
X97512791Y-119707240D01*
X97395359Y-119824672D01*
X97237790Y-120205078D01*
X97237790Y-120616826D01*
X97395359Y-120997232D01*
X97686510Y-121288383D01*
X98066916Y-121445952D01*
X98478664Y-121445952D01*
X98859070Y-121288383D01*
X99150221Y-120997232D01*
X99262142Y-120727030D01*
X99300772Y-120727030D01*
X99681178Y-120569461D01*
X99972329Y-120278310D01*
X100129898Y-119897904D01*
X100129898Y-119486156D01*
X99972329Y-119105750D01*
X99854898Y-118988319D01*
X99854898Y-116831904D01*
X102051711Y-114635092D01*
X101911314Y-114974062D01*
X102032635Y-115203952D01*
X103225790Y-115203952D01*
X103225790Y-114010133D01*
X102995898Y-113889466D01*
X102621519Y-114065284D01*
X104278852Y-112407952D01*
X106994943Y-112407952D01*
X107069790Y-112422840D01*
X107144637Y-112407952D01*
X107144642Y-112407952D01*
X107366327Y-112363856D01*
X107617719Y-112195881D01*
X107660121Y-112132423D01*
X108282265Y-111510280D01*
X108345719Y-111467881D01*
X108388117Y-111404428D01*
X108388119Y-111404426D01*
X108446273Y-111317392D01*
X108597790Y-111317392D01*
X108845555Y-111268109D01*
X109055599Y-111127761D01*
X109195947Y-110917717D01*
X109245230Y-110669952D01*
X109245230Y-109069952D01*
X109195947Y-108822187D01*
X109055599Y-108612143D01*
X108845555Y-108471795D01*
X108597790Y-108422512D01*
X106997790Y-108422512D01*
X106750025Y-108471795D01*
X106539981Y-108612143D01*
X106399633Y-108822187D01*
X106373005Y-108956058D01*
X106292367Y-108835375D01*
X105817699Y-108518212D01*
X105399123Y-108434952D01*
X105116457Y-108434952D01*
X104697881Y-108518212D01*
X104223213Y-108835375D01*
X103987790Y-109187710D01*
X103752367Y-108835375D01*
X103277699Y-108518212D01*
X102859123Y-108434952D01*
X102576457Y-108434952D01*
X102368641Y-108476289D01*
X102223431Y-108125720D01*
X101932280Y-107834569D01*
X101551874Y-107677000D01*
X101140126Y-107677000D01*
X100759720Y-107834569D01*
X100468569Y-108125720D01*
X100311000Y-108506126D01*
X100311000Y-108596625D01*
X100304790Y-108600037D01*
X100304790Y-109742952D01*
X100324790Y-109742952D01*
X100324790Y-109996952D01*
X100304790Y-109996952D01*
X100304790Y-111139867D01*
X100437448Y-111212750D01*
X98397790Y-113252409D01*
X98397790Y-111087995D01*
X98672367Y-110904529D01*
X98928737Y-110520844D01*
X99025401Y-110725086D01*
X99440367Y-111100993D01*
X99828751Y-111261856D01*
X100050790Y-111139867D01*
X100050790Y-109996952D01*
X100030790Y-109996952D01*
X100030790Y-109742952D01*
X100050790Y-109742952D01*
X100050790Y-108600037D01*
X99828751Y-108478048D01*
X99440367Y-108638911D01*
X99025401Y-109014818D01*
X98928737Y-109219060D01*
X98672367Y-108835375D01*
X98197699Y-108518212D01*
X97779123Y-108434952D01*
X97496457Y-108434952D01*
X97077881Y-108518212D01*
X96603213Y-108835375D01*
X96367790Y-109187710D01*
X96132367Y-108835375D01*
X95657699Y-108518212D01*
X95239123Y-108434952D01*
X94956457Y-108434952D01*
X94537881Y-108518212D01*
X94063213Y-108835375D01*
X93827790Y-109187710D01*
X93592367Y-108835375D01*
X93117699Y-108518212D01*
X92699123Y-108434952D01*
X92416457Y-108434952D01*
X91997881Y-108518212D01*
X91523213Y-108835375D01*
X91287790Y-109187710D01*
X91052367Y-108835375D01*
X90577699Y-108518212D01*
X90159123Y-108434952D01*
X89876457Y-108434952D01*
X89457881Y-108518212D01*
X88983213Y-108835375D01*
X88747790Y-109187710D01*
X88512367Y-108835375D01*
X88037699Y-108518212D01*
X87619123Y-108434952D01*
X87336457Y-108434952D01*
X86917881Y-108518212D01*
X86443213Y-108835375D01*
X86207790Y-109187710D01*
X85972367Y-108835375D01*
X85497699Y-108518212D01*
X85079123Y-108434952D01*
X84796457Y-108434952D01*
X84377881Y-108518212D01*
X83903213Y-108835375D01*
X83667790Y-109187710D01*
X83432367Y-108835375D01*
X82957699Y-108518212D01*
X82539123Y-108434952D01*
X82256457Y-108434952D01*
X81837881Y-108518212D01*
X81363213Y-108835375D01*
X81127790Y-109187710D01*
X80892367Y-108835375D01*
X80417699Y-108518212D01*
X79999123Y-108434952D01*
X79716457Y-108434952D01*
X79297881Y-108518212D01*
X78823213Y-108835375D01*
X78587790Y-109187710D01*
X78352367Y-108835375D01*
X77877699Y-108518212D01*
X77459123Y-108434952D01*
X77176457Y-108434952D01*
X76757881Y-108518212D01*
X76283213Y-108835375D01*
X76047790Y-109187710D01*
X75812367Y-108835375D01*
X75337699Y-108518212D01*
X74919123Y-108434952D01*
X74636457Y-108434952D01*
X74217881Y-108518212D01*
X73743213Y-108835375D01*
X73507790Y-109187710D01*
X73272367Y-108835375D01*
X72797699Y-108518212D01*
X72379123Y-108434952D01*
X72096457Y-108434952D01*
X71677881Y-108518212D01*
X71203213Y-108835375D01*
X70886050Y-109310043D01*
X70774677Y-109869952D01*
X70886050Y-110429861D01*
X71203213Y-110904529D01*
X71677881Y-111221692D01*
X72096457Y-111304952D01*
X72379123Y-111304952D01*
X72797699Y-111221692D01*
X73272367Y-110904529D01*
X73507790Y-110552194D01*
X73743213Y-110904529D01*
X74217881Y-111221692D01*
X74636457Y-111304952D01*
X74919123Y-111304952D01*
X75337699Y-111221692D01*
X75812367Y-110904529D01*
X76047790Y-110552194D01*
X76283213Y-110904529D01*
X76757881Y-111221692D01*
X77176457Y-111304952D01*
X77459123Y-111304952D01*
X77877699Y-111221692D01*
X78352367Y-110904529D01*
X78587790Y-110552194D01*
X78823213Y-110904529D01*
X79297881Y-111221692D01*
X79716457Y-111304952D01*
X79999123Y-111304952D01*
X80417699Y-111221692D01*
X80892367Y-110904529D01*
X81127790Y-110552194D01*
X81363213Y-110904529D01*
X81837881Y-111221692D01*
X82256457Y-111304952D01*
X82539123Y-111304952D01*
X82957699Y-111221692D01*
X83432367Y-110904529D01*
X83667790Y-110552194D01*
X83903213Y-110904529D01*
X84377881Y-111221692D01*
X84796457Y-111304952D01*
X84967988Y-111304952D01*
X83734780Y-112538161D01*
X83671321Y-112580563D01*
X83503346Y-112831956D01*
X83459250Y-113053641D01*
X83459250Y-113053645D01*
X83444362Y-113128492D01*
X83454957Y-113181754D01*
X83341819Y-113294892D01*
X83184250Y-113675298D01*
X83184250Y-114087046D01*
X83185547Y-114090178D01*
X83105773Y-114169952D01*
X77445230Y-114169952D01*
X77445230Y-114149952D01*
X77395947Y-113902187D01*
X77255599Y-113692143D01*
X77230437Y-113675330D01*
X77336117Y-113569650D01*
X77432790Y-113336261D01*
X77432790Y-112923202D01*
X77274040Y-112764452D01*
X76174790Y-112764452D01*
X76174790Y-112784452D01*
X75920790Y-112784452D01*
X75920790Y-112764452D01*
X74821540Y-112764452D01*
X74662790Y-112923202D01*
X74662790Y-113336261D01*
X74759463Y-113569650D01*
X74865143Y-113675330D01*
X74839981Y-113692143D01*
X74699633Y-113902187D01*
X74671236Y-114044952D01*
X74508477Y-114044952D01*
X74292330Y-113828805D01*
X73783284Y-113617952D01*
X73232296Y-113617952D01*
X72723250Y-113828805D01*
X72333643Y-114218412D01*
X72122790Y-114727458D01*
X72122790Y-115278446D01*
X72333643Y-115787492D01*
X72723250Y-116177099D01*
X73232296Y-116387952D01*
X73783284Y-116387952D01*
X74292330Y-116177099D01*
X74654477Y-115814952D01*
X74933056Y-115814952D01*
X75050025Y-115893109D01*
X75297790Y-115942392D01*
X76797790Y-115942392D01*
X77045555Y-115893109D01*
X77255599Y-115752761D01*
X77297567Y-115689952D01*
X80060988Y-115689952D01*
X76850037Y-118900904D01*
X76797790Y-118890512D01*
X75297790Y-118890512D01*
X75050025Y-118939795D01*
X74933056Y-119017952D01*
X74581477Y-119017952D01*
X74292330Y-118728805D01*
X73783284Y-118517952D01*
X73232296Y-118517952D01*
X72723250Y-118728805D01*
X72333643Y-119118412D01*
X72122790Y-119627458D01*
X72122790Y-120178446D01*
X72333643Y-120687492D01*
X72723250Y-121077099D01*
X73232296Y-121287952D01*
X73783284Y-121287952D01*
X74292330Y-121077099D01*
X74581477Y-120787952D01*
X74671236Y-120787952D01*
X74699633Y-120930717D01*
X74839981Y-121140761D01*
X74865143Y-121157574D01*
X74759463Y-121263254D01*
X74662790Y-121496643D01*
X74662790Y-121909702D01*
X74821540Y-122068452D01*
X75920790Y-122068452D01*
X75920790Y-122048452D01*
X76174790Y-122048452D01*
X76174790Y-122068452D01*
X77274040Y-122068452D01*
X77432790Y-121909702D01*
X77432790Y-121496643D01*
X77336117Y-121263254D01*
X77230437Y-121157574D01*
X77255599Y-121140761D01*
X77395947Y-120930717D01*
X77445230Y-120682952D01*
X77445230Y-120467912D01*
X77470719Y-120450881D01*
X77513121Y-120387422D01*
X81603781Y-116296763D01*
X82073658Y-116296763D01*
X82073658Y-116467639D01*
X82231227Y-116848045D01*
X82522378Y-117139196D01*
X82902784Y-117296765D01*
X83068857Y-117296765D01*
X83800055Y-118027964D01*
X83701585Y-118027964D01*
X83321179Y-118185533D01*
X83030028Y-118476684D01*
X82872459Y-118857090D01*
X82872459Y-119268838D01*
X83030028Y-119649244D01*
X83147460Y-119766676D01*
X83147459Y-121386867D01*
X83132571Y-121461714D01*
X83147459Y-121536561D01*
X83147459Y-121536565D01*
X83191555Y-121758250D01*
X83359530Y-122009643D01*
X83422989Y-122052045D01*
X84933369Y-123562426D01*
X84975768Y-123625881D01*
X85039223Y-123668280D01*
X85039224Y-123668281D01*
X85049208Y-123674952D01*
X84796457Y-123674952D01*
X84377881Y-123758212D01*
X83903213Y-124075375D01*
X83667790Y-124427710D01*
X83432367Y-124075375D01*
X82957699Y-123758212D01*
X82539123Y-123674952D01*
X82256457Y-123674952D01*
X81837881Y-123758212D01*
X81363213Y-124075375D01*
X81127790Y-124427710D01*
X80892367Y-124075375D01*
X80417699Y-123758212D01*
X79999123Y-123674952D01*
X79716457Y-123674952D01*
X79297881Y-123758212D01*
X78823213Y-124075375D01*
X78587790Y-124427710D01*
X78352367Y-124075375D01*
X77877699Y-123758212D01*
X77459123Y-123674952D01*
X77176457Y-123674952D01*
X76757881Y-123758212D01*
X76283213Y-124075375D01*
X76047790Y-124427710D01*
X75812367Y-124075375D01*
X75337699Y-123758212D01*
X74919123Y-123674952D01*
X74636457Y-123674952D01*
X74217881Y-123758212D01*
X73743213Y-124075375D01*
X73507790Y-124427710D01*
X73272367Y-124075375D01*
X72797699Y-123758212D01*
X72379123Y-123674952D01*
X72096457Y-123674952D01*
X71677881Y-123758212D01*
X71203213Y-124075375D01*
X70886050Y-124550043D01*
X70774677Y-125109952D01*
X70886050Y-125669861D01*
X71203213Y-126144529D01*
X71677881Y-126461692D01*
X72096457Y-126544952D01*
X72379123Y-126544952D01*
X72797699Y-126461692D01*
X73272367Y-126144529D01*
X73507790Y-125792194D01*
X73743213Y-126144529D01*
X74217881Y-126461692D01*
X74636457Y-126544952D01*
X74919123Y-126544952D01*
X75337699Y-126461692D01*
X75812367Y-126144529D01*
X76047790Y-125792194D01*
X76283213Y-126144529D01*
X76757881Y-126461692D01*
X77176457Y-126544952D01*
X77459123Y-126544952D01*
X77877699Y-126461692D01*
X78352367Y-126144529D01*
X78587790Y-125792194D01*
X78823213Y-126144529D01*
X79297881Y-126461692D01*
X79716457Y-126544952D01*
X79999123Y-126544952D01*
X80417699Y-126461692D01*
X80892367Y-126144529D01*
X81127790Y-125792194D01*
X81363213Y-126144529D01*
X81637790Y-126327996D01*
X81637791Y-127927407D01*
X79536199Y-130029000D01*
X79370126Y-130029000D01*
X78989720Y-130186569D01*
X78698569Y-130477720D01*
X78541000Y-130858126D01*
X78541000Y-131269874D01*
X78698569Y-131650280D01*
X78989720Y-131941431D01*
X79138954Y-132003245D01*
X79017528Y-132124671D01*
X78954072Y-132167071D01*
X78911672Y-132230527D01*
X78911671Y-132230528D01*
X78786097Y-132418463D01*
X78727112Y-132715000D01*
X78742001Y-132789852D01*
X78742001Y-133341822D01*
X78431375Y-133549375D01*
X78232000Y-133847761D01*
X78032625Y-133549375D01*
X77541418Y-133221161D01*
X77108256Y-133135000D01*
X76815744Y-133135000D01*
X76382582Y-133221161D01*
X75891375Y-133549375D01*
X75692000Y-133847761D01*
X75492625Y-133549375D01*
X75001418Y-133221161D01*
X74568256Y-133135000D01*
X74275744Y-133135000D01*
X73842582Y-133221161D01*
X73351375Y-133549375D01*
X73152000Y-133847761D01*
X72952625Y-133549375D01*
X72461418Y-133221161D01*
X72028256Y-133135000D01*
X71735744Y-133135000D01*
X71302582Y-133221161D01*
X70811375Y-133549375D01*
X70796904Y-133571033D01*
X70730327Y-133410302D01*
X70551699Y-133231673D01*
X70318310Y-133135000D01*
X69627750Y-133135000D01*
X69469000Y-133293750D01*
X69215000Y-133293750D01*
X69056250Y-133135000D01*
X68655000Y-133135000D01*
X68655000Y-132295000D01*
X68929250Y-132295000D01*
X69088000Y-132136250D01*
X69088000Y-130937000D01*
X69068000Y-130937000D01*
X69068000Y-130683000D01*
X69088000Y-130683000D01*
X69088000Y-129483750D01*
X69342000Y-129483750D01*
X69342000Y-130683000D01*
X69362000Y-130683000D01*
X69362000Y-130937000D01*
X69342000Y-130937000D01*
X69342000Y-132136250D01*
X69500750Y-132295000D01*
X70191310Y-132295000D01*
X70424699Y-132198327D01*
X70603327Y-132019698D01*
X70669904Y-131858967D01*
X70684375Y-131880625D01*
X71175582Y-132208839D01*
X71608744Y-132295000D01*
X71901256Y-132295000D01*
X72334418Y-132208839D01*
X72825625Y-131880625D01*
X73153839Y-131389418D01*
X73269092Y-130810000D01*
X73153839Y-130230582D01*
X72825625Y-129739375D01*
X72334418Y-129411161D01*
X71901256Y-129325000D01*
X71608744Y-129325000D01*
X71175582Y-129411161D01*
X70684375Y-129739375D01*
X70669904Y-129761033D01*
X70603327Y-129600302D01*
X70424699Y-129421673D01*
X70191310Y-129325000D01*
X69500750Y-129325000D01*
X69342000Y-129483750D01*
X69088000Y-129483750D01*
X68929250Y-129325000D01*
X68655000Y-129325000D01*
X68655000Y-122481202D01*
X74662790Y-122481202D01*
X74662790Y-122894261D01*
X74759463Y-123127650D01*
X74938091Y-123306279D01*
X75171480Y-123402952D01*
X75762040Y-123402952D01*
X75920790Y-123244202D01*
X75920790Y-122322452D01*
X76174790Y-122322452D01*
X76174790Y-123244202D01*
X76333540Y-123402952D01*
X76924100Y-123402952D01*
X77157489Y-123306279D01*
X77336117Y-123127650D01*
X77432790Y-122894261D01*
X77432790Y-122481202D01*
X77274040Y-122322452D01*
X76174790Y-122322452D01*
X75920790Y-122322452D01*
X74821540Y-122322452D01*
X74662790Y-122481202D01*
X68655000Y-122481202D01*
X68655000Y-111938643D01*
X74662790Y-111938643D01*
X74662790Y-112351702D01*
X74821540Y-112510452D01*
X75920790Y-112510452D01*
X75920790Y-111588702D01*
X76174790Y-111588702D01*
X76174790Y-112510452D01*
X77274040Y-112510452D01*
X77432790Y-112351702D01*
X77432790Y-111938643D01*
X77336117Y-111705254D01*
X77157489Y-111526625D01*
X76924100Y-111429952D01*
X76333540Y-111429952D01*
X76174790Y-111588702D01*
X75920790Y-111588702D01*
X75762040Y-111429952D01*
X75171480Y-111429952D01*
X74938091Y-111526625D01*
X74759463Y-111705254D01*
X74662790Y-111938643D01*
X68655000Y-111938643D01*
X68655000Y-106103250D01*
X70116000Y-106103250D01*
X70116000Y-106516309D01*
X70212673Y-106749698D01*
X70391301Y-106928327D01*
X70624690Y-107025000D01*
X71215250Y-107025000D01*
X71374000Y-106866250D01*
X71374000Y-105944500D01*
X70274750Y-105944500D01*
X70116000Y-106103250D01*
X68655000Y-106103250D01*
X68655000Y-99402000D01*
X69183250Y-99402000D01*
X69342000Y-99243250D01*
X69342000Y-98044000D01*
X69322000Y-98044000D01*
X69322000Y-97790000D01*
X69342000Y-97790000D01*
X69342000Y-96590750D01*
X69596000Y-96590750D01*
X69596000Y-97790000D01*
X69616000Y-97790000D01*
X69616000Y-98044000D01*
X69596000Y-98044000D01*
X69596000Y-99243250D01*
X69754750Y-99402000D01*
X70445310Y-99402000D01*
X70678699Y-99305327D01*
X70857327Y-99126698D01*
X70923904Y-98965967D01*
X70938375Y-98987625D01*
X71429582Y-99315839D01*
X71862744Y-99402000D01*
X72155256Y-99402000D01*
X72588418Y-99315839D01*
X73079625Y-98987625D01*
X73407839Y-98496418D01*
X73523092Y-97917000D01*
X73475357Y-97677017D01*
X73732894Y-97849097D01*
X74172000Y-97936441D01*
X74614428Y-97936441D01*
X73342482Y-99208387D01*
X73247711Y-99271711D01*
X72999563Y-99643091D01*
X72996854Y-99647146D01*
X72908765Y-100090000D01*
X72931000Y-100201783D01*
X72931000Y-100469413D01*
X72818235Y-100491843D01*
X72608191Y-100632191D01*
X72467843Y-100842235D01*
X72418560Y-101090000D01*
X72418560Y-101209808D01*
X71115809Y-102512560D01*
X70751000Y-102512560D01*
X70503235Y-102561843D01*
X70293191Y-102702191D01*
X70152843Y-102912235D01*
X70103560Y-103160000D01*
X70103560Y-104305000D01*
X70152843Y-104552765D01*
X70293191Y-104762809D01*
X70318353Y-104779622D01*
X70212673Y-104885302D01*
X70116000Y-105118691D01*
X70116000Y-105531750D01*
X70274750Y-105690500D01*
X71374000Y-105690500D01*
X71374000Y-105670500D01*
X71628000Y-105670500D01*
X71628000Y-105690500D01*
X71648000Y-105690500D01*
X71648000Y-105944500D01*
X71628000Y-105944500D01*
X71628000Y-106866250D01*
X71786750Y-107025000D01*
X72377310Y-107025000D01*
X72431000Y-107002761D01*
X72431000Y-107316310D01*
X72527673Y-107549699D01*
X72706302Y-107728327D01*
X72939691Y-107825000D01*
X73780250Y-107825000D01*
X73939000Y-107666250D01*
X73939000Y-106567000D01*
X74193000Y-106567000D01*
X74193000Y-107666250D01*
X74351750Y-107825000D01*
X75192309Y-107825000D01*
X75425698Y-107728327D01*
X75604327Y-107549699D01*
X75701000Y-107316310D01*
X75701000Y-107272750D01*
X81927000Y-107272750D01*
X81927000Y-107685809D01*
X82023673Y-107919198D01*
X82202301Y-108097827D01*
X82435690Y-108194500D01*
X83026250Y-108194500D01*
X83185000Y-108035750D01*
X83185000Y-107114000D01*
X83439000Y-107114000D01*
X83439000Y-108035750D01*
X83597750Y-108194500D01*
X84188310Y-108194500D01*
X84421699Y-108097827D01*
X84600327Y-107919198D01*
X84697000Y-107685809D01*
X84697000Y-107272750D01*
X84538250Y-107114000D01*
X83439000Y-107114000D01*
X83185000Y-107114000D01*
X82085750Y-107114000D01*
X81927000Y-107272750D01*
X75701000Y-107272750D01*
X75701000Y-106725750D01*
X75542250Y-106567000D01*
X74193000Y-106567000D01*
X73939000Y-106567000D01*
X73919000Y-106567000D01*
X73919000Y-106313000D01*
X73939000Y-106313000D01*
X73939000Y-106293000D01*
X74193000Y-106293000D01*
X74193000Y-106313000D01*
X75542250Y-106313000D01*
X75701000Y-106154250D01*
X75701000Y-105563690D01*
X75604327Y-105330301D01*
X75570222Y-105296196D01*
X75676783Y-105275000D01*
X78718560Y-105275000D01*
X78718560Y-106040000D01*
X78767843Y-106287765D01*
X78908191Y-106497809D01*
X79118235Y-106638157D01*
X79366000Y-106687440D01*
X81366000Y-106687440D01*
X81613765Y-106638157D01*
X81823809Y-106497809D01*
X81927000Y-106343374D01*
X81927000Y-106701250D01*
X82085750Y-106860000D01*
X83185000Y-106860000D01*
X83185000Y-106840000D01*
X83439000Y-106840000D01*
X83439000Y-106860000D01*
X84538250Y-106860000D01*
X84697000Y-106701250D01*
X84697000Y-106288191D01*
X84600327Y-106054802D01*
X84582525Y-106037000D01*
X84591869Y-106037000D01*
X84942389Y-106387521D01*
X85005711Y-106482289D01*
X85370076Y-106725750D01*
X85381145Y-106733146D01*
X85824000Y-106821235D01*
X85935783Y-106799000D01*
X107680783Y-106799000D01*
X108011855Y-106733146D01*
X108387289Y-106482289D01*
X108488544Y-106330750D01*
X114847000Y-106330750D01*
X114847000Y-107021309D01*
X114943673Y-107254698D01*
X115122301Y-107433327D01*
X115355690Y-107530000D01*
X116046250Y-107530000D01*
X116205000Y-107371250D01*
X116205000Y-106172000D01*
X115005750Y-106172000D01*
X114847000Y-106330750D01*
X108488544Y-106330750D01*
X108638146Y-106106855D01*
X108726235Y-105664000D01*
X108638146Y-105221145D01*
X108387289Y-104845711D01*
X108011855Y-104594854D01*
X107680783Y-104529000D01*
X95494500Y-104529000D01*
X95494500Y-104298750D01*
X95335750Y-104140000D01*
X94414000Y-104140000D01*
X94414000Y-104160000D01*
X94160000Y-104160000D01*
X94160000Y-104140000D01*
X94140000Y-104140000D01*
X94140000Y-103886000D01*
X94160000Y-103886000D01*
X94160000Y-103866000D01*
X94414000Y-103866000D01*
X94414000Y-103886000D01*
X95335750Y-103886000D01*
X95494500Y-103727250D01*
X95494500Y-103136690D01*
X95397827Y-102903301D01*
X95219198Y-102724673D01*
X95134186Y-102689460D01*
X95338041Y-102464423D01*
X95498904Y-102076039D01*
X95376915Y-101854000D01*
X94234000Y-101854000D01*
X94234000Y-101874000D01*
X93980000Y-101874000D01*
X93980000Y-101854000D01*
X92837085Y-101854000D01*
X92715096Y-102076039D01*
X92875959Y-102464423D01*
X93111569Y-102724515D01*
X93022265Y-102664843D01*
X92774500Y-102615560D01*
X91629500Y-102615560D01*
X91381735Y-102664843D01*
X91171691Y-102805191D01*
X91123041Y-102878000D01*
X90170440Y-102878000D01*
X90170440Y-102731500D01*
X90121157Y-102483735D01*
X89980809Y-102273691D01*
X89962564Y-102261500D01*
X89980809Y-102249309D01*
X90121157Y-102039265D01*
X90170440Y-101791500D01*
X90170440Y-100646500D01*
X90121157Y-100398735D01*
X89980809Y-100188691D01*
X89908000Y-100140041D01*
X89908000Y-99187000D01*
X92643887Y-99187000D01*
X92755260Y-99746909D01*
X93072423Y-100221577D01*
X93456108Y-100477947D01*
X93251866Y-100574611D01*
X92875959Y-100989577D01*
X92715096Y-101377961D01*
X92837085Y-101600000D01*
X93980000Y-101600000D01*
X93980000Y-101580000D01*
X94234000Y-101580000D01*
X94234000Y-101600000D01*
X95376915Y-101600000D01*
X95498904Y-101377961D01*
X95338041Y-100989577D01*
X94962134Y-100574611D01*
X94757892Y-100477947D01*
X95141577Y-100221577D01*
X95458740Y-99746909D01*
X95570113Y-99187000D01*
X95458740Y-98627091D01*
X95141577Y-98152423D01*
X94666909Y-97835260D01*
X94248333Y-97752000D01*
X93965667Y-97752000D01*
X93547091Y-97835260D01*
X93072423Y-98152423D01*
X92755260Y-98627091D01*
X92643887Y-99187000D01*
X89908000Y-99187000D01*
X89908000Y-98724781D01*
X89930235Y-98612998D01*
X89842146Y-98170143D01*
X89654609Y-97889474D01*
X89591289Y-97794709D01*
X89496524Y-97731389D01*
X88601135Y-96836001D01*
X100146000Y-96836001D01*
X100146000Y-97266004D01*
X100425362Y-97940444D01*
X100941556Y-98456638D01*
X101615996Y-98736000D01*
X102346004Y-98736000D01*
X102366001Y-98727717D01*
X102366000Y-99893794D01*
X102189637Y-100011636D01*
X101940904Y-100383893D01*
X101902844Y-100575234D01*
X101902843Y-100575235D01*
X101853560Y-100823000D01*
X101853560Y-101238000D01*
X101533529Y-101238000D01*
X101446369Y-101220663D01*
X101359209Y-101238000D01*
X101359205Y-101238000D01*
X101101060Y-101289348D01*
X101018006Y-101344843D01*
X100882215Y-101435576D01*
X100882214Y-101435577D01*
X100808321Y-101484951D01*
X100758947Y-101558844D01*
X100657517Y-101660274D01*
X100377242Y-101473000D01*
X100729577Y-101237577D01*
X101046740Y-100762909D01*
X101158113Y-100203000D01*
X101046740Y-99643091D01*
X100729577Y-99168423D01*
X100254909Y-98851260D01*
X99836333Y-98768000D01*
X99553667Y-98768000D01*
X99135091Y-98851260D01*
X98660423Y-99168423D01*
X98343260Y-99643091D01*
X98231887Y-100203000D01*
X98343260Y-100762909D01*
X98660423Y-101237577D01*
X99012758Y-101473000D01*
X98660423Y-101708423D01*
X98343260Y-102183091D01*
X98231887Y-102743000D01*
X98343260Y-103302909D01*
X98660423Y-103777577D01*
X99135091Y-104094740D01*
X99553667Y-104178000D01*
X99836333Y-104178000D01*
X100254909Y-104094740D01*
X100729577Y-103777577D01*
X100818926Y-103643856D01*
X100826370Y-103645337D01*
X100913531Y-103628000D01*
X100913535Y-103628000D01*
X101171680Y-103576652D01*
X101464419Y-103381049D01*
X101513795Y-103307154D01*
X101812949Y-103008000D01*
X102299842Y-103008000D01*
X102561894Y-103183097D01*
X103001000Y-103270441D01*
X103501000Y-103270441D01*
X103940106Y-103183097D01*
X104312363Y-102934364D01*
X104561096Y-102562107D01*
X104599156Y-102370766D01*
X104599157Y-102370765D01*
X104648440Y-102123000D01*
X104648440Y-101943000D01*
X105867560Y-101943000D01*
X105867560Y-103543000D01*
X105916843Y-103790765D01*
X106057191Y-104000809D01*
X106267235Y-104141157D01*
X106515000Y-104190440D01*
X108115000Y-104190440D01*
X108362765Y-104141157D01*
X108572809Y-104000809D01*
X108713157Y-103790765D01*
X108762440Y-103543000D01*
X108762440Y-101943000D01*
X108713157Y-101695235D01*
X108572809Y-101485191D01*
X108362765Y-101344843D01*
X108207639Y-101313987D01*
X108546041Y-100940423D01*
X108706904Y-100552039D01*
X108584915Y-100330000D01*
X107442000Y-100330000D01*
X107442000Y-100350000D01*
X107188000Y-100350000D01*
X107188000Y-100330000D01*
X106045085Y-100330000D01*
X105923096Y-100552039D01*
X106083959Y-100940423D01*
X106422361Y-101313987D01*
X106267235Y-101344843D01*
X106057191Y-101485191D01*
X105916843Y-101695235D01*
X105867560Y-101943000D01*
X104648440Y-101943000D01*
X104648440Y-101623000D01*
X104618603Y-101473000D01*
X104648440Y-101323000D01*
X104648440Y-100823000D01*
X104599157Y-100575235D01*
X104599156Y-100575234D01*
X104561096Y-100383893D01*
X104312363Y-100011636D01*
X104136000Y-99893795D01*
X104136000Y-99853961D01*
X105923096Y-99853961D01*
X106045085Y-100076000D01*
X107188000Y-100076000D01*
X107188000Y-98932371D01*
X107442000Y-98932371D01*
X107442000Y-100076000D01*
X108584915Y-100076000D01*
X108706904Y-99853961D01*
X108546041Y-99465577D01*
X108170134Y-99050611D01*
X107664041Y-98811086D01*
X107442000Y-98932371D01*
X107188000Y-98932371D01*
X106965959Y-98811086D01*
X106459866Y-99050611D01*
X106083959Y-99465577D01*
X105923096Y-99853961D01*
X104136000Y-99853961D01*
X104136000Y-98258159D01*
X104153337Y-98170999D01*
X104136000Y-98083839D01*
X104136000Y-98083835D01*
X104084652Y-97825690D01*
X103889049Y-97532951D01*
X103815156Y-97483577D01*
X103752027Y-97420448D01*
X103816000Y-97266004D01*
X103816000Y-96535996D01*
X103956000Y-96535996D01*
X103956000Y-97266004D01*
X104235362Y-97940444D01*
X104751556Y-98456638D01*
X105425996Y-98736000D01*
X106156004Y-98736000D01*
X106830444Y-98456638D01*
X107346638Y-97940444D01*
X107626000Y-97266004D01*
X107626000Y-96535996D01*
X108401000Y-96535996D01*
X108401000Y-97266004D01*
X108680362Y-97940444D01*
X109196556Y-98456638D01*
X109870996Y-98736000D01*
X110601004Y-98736000D01*
X111275444Y-98456638D01*
X111791638Y-97940444D01*
X112071000Y-97266004D01*
X112071000Y-96535996D01*
X112211000Y-96535996D01*
X112211000Y-97266004D01*
X112490362Y-97940444D01*
X113006556Y-98456638D01*
X113680996Y-98736000D01*
X114411004Y-98736000D01*
X115085444Y-98456638D01*
X115601638Y-97940444D01*
X115881000Y-97266004D01*
X115881000Y-96535996D01*
X115601638Y-95861556D01*
X115085444Y-95345362D01*
X114411004Y-95066000D01*
X113680996Y-95066000D01*
X113006556Y-95345362D01*
X112490362Y-95861556D01*
X112211000Y-96535996D01*
X112071000Y-96535996D01*
X111791638Y-95861556D01*
X111275444Y-95345362D01*
X110601004Y-95066000D01*
X109870996Y-95066000D01*
X109196556Y-95345362D01*
X108680362Y-95861556D01*
X108401000Y-96535996D01*
X107626000Y-96535996D01*
X107346638Y-95861556D01*
X106830444Y-95345362D01*
X106156004Y-95066000D01*
X105425996Y-95066000D01*
X104751556Y-95345362D01*
X104235362Y-95861556D01*
X103956000Y-96535996D01*
X103816000Y-96535996D01*
X103536638Y-95861556D01*
X103020444Y-95345362D01*
X102346004Y-95066000D01*
X101751131Y-95066000D01*
X101662614Y-94977483D01*
X101599290Y-94882712D01*
X101223856Y-94631855D01*
X100892784Y-94566001D01*
X100781001Y-94543766D01*
X100669218Y-94566001D01*
X78566782Y-94566001D01*
X78454999Y-94543766D01*
X78343216Y-94566001D01*
X78012144Y-94631855D01*
X77636710Y-94882712D01*
X77573388Y-94977480D01*
X75819440Y-96731428D01*
X75819440Y-96289000D01*
X75789603Y-96139000D01*
X75819440Y-95989000D01*
X75819440Y-95489000D01*
X75770157Y-95241235D01*
X75770156Y-95241234D01*
X75732096Y-95049893D01*
X75483363Y-94677636D01*
X75385579Y-94612299D01*
X75457000Y-94439874D01*
X75457000Y-94028126D01*
X75299431Y-93647720D01*
X75008280Y-93356569D01*
X74627874Y-93199000D01*
X74216126Y-93199000D01*
X73835720Y-93356569D01*
X73544569Y-93647720D01*
X73387000Y-94028126D01*
X73387000Y-94439874D01*
X73458421Y-94612299D01*
X73360637Y-94677636D01*
X73111904Y-95049893D01*
X73073844Y-95241234D01*
X73073843Y-95241235D01*
X73024560Y-95489000D01*
X73024560Y-95989000D01*
X73054397Y-96139000D01*
X73024560Y-96289000D01*
X73024560Y-96789000D01*
X73029281Y-96812737D01*
X72588418Y-96518161D01*
X72155256Y-96432000D01*
X71862744Y-96432000D01*
X71429582Y-96518161D01*
X70938375Y-96846375D01*
X70923904Y-96868033D01*
X70857327Y-96707302D01*
X70678699Y-96528673D01*
X70445310Y-96432000D01*
X69754750Y-96432000D01*
X69596000Y-96590750D01*
X69342000Y-96590750D01*
X69183250Y-96432000D01*
X68655000Y-96432000D01*
X68655000Y-92377126D01*
X90786000Y-92377126D01*
X90786000Y-92788874D01*
X90943569Y-93169280D01*
X91234720Y-93460431D01*
X91615126Y-93618000D01*
X92026874Y-93618000D01*
X92389007Y-93468000D01*
X94300993Y-93468000D01*
X94663126Y-93618000D01*
X95074874Y-93618000D01*
X95455280Y-93460431D01*
X95746431Y-93169280D01*
X95904000Y-92788874D01*
X95904000Y-92377126D01*
X95746431Y-91996720D01*
X95455280Y-91705569D01*
X95074874Y-91548000D01*
X94663126Y-91548000D01*
X94300993Y-91698000D01*
X92389007Y-91698000D01*
X92026874Y-91548000D01*
X91615126Y-91548000D01*
X91234720Y-91705569D01*
X90943569Y-91996720D01*
X90786000Y-92377126D01*
X68655000Y-92377126D01*
X68655000Y-87492000D01*
X71477560Y-87492000D01*
X71477560Y-89292000D01*
X71526843Y-89539765D01*
X71667191Y-89749809D01*
X71877235Y-89890157D01*
X72125000Y-89939440D01*
X72151990Y-89939440D01*
X72191348Y-90137309D01*
X72386951Y-90430049D01*
X72460846Y-90479425D01*
X72969577Y-90988156D01*
X73018951Y-91062049D01*
X73092844Y-91111423D01*
X73092845Y-91111424D01*
X73311690Y-91257652D01*
X73569835Y-91309000D01*
X73569839Y-91309000D01*
X73657000Y-91326337D01*
X73744161Y-91309000D01*
X76393993Y-91309000D01*
X76756126Y-91459000D01*
X77167874Y-91459000D01*
X77548280Y-91301431D01*
X77839431Y-91010280D01*
X77997000Y-90629874D01*
X77997000Y-90218126D01*
X77839431Y-89837720D01*
X77836273Y-89834562D01*
X77978000Y-89762997D01*
X77978000Y-88519000D01*
X78232000Y-88519000D01*
X78232000Y-89762997D01*
X78469742Y-89883046D01*
X78885577Y-89689175D01*
X84727430Y-89689175D01*
X84850565Y-89976788D01*
X85532734Y-90236707D01*
X86262443Y-90215786D01*
X86839435Y-89976788D01*
X86962570Y-89689175D01*
X85845000Y-88571605D01*
X84727430Y-89689175D01*
X78885577Y-89689175D01*
X79012576Y-89629966D01*
X79417240Y-89188417D01*
X79596036Y-88756740D01*
X79475378Y-88519000D01*
X78232000Y-88519000D01*
X77978000Y-88519000D01*
X77958000Y-88519000D01*
X77958000Y-88265000D01*
X77978000Y-88265000D01*
X77978000Y-87021003D01*
X78232000Y-87021003D01*
X78232000Y-88265000D01*
X79475378Y-88265000D01*
X79569404Y-88079734D01*
X84000293Y-88079734D01*
X84021214Y-88809443D01*
X84260212Y-89386435D01*
X84547825Y-89509570D01*
X85665395Y-88392000D01*
X86024605Y-88392000D01*
X87142175Y-89509570D01*
X87429788Y-89386435D01*
X87689707Y-88704266D01*
X87668786Y-87974557D01*
X87429788Y-87397565D01*
X87142175Y-87274430D01*
X86024605Y-88392000D01*
X85665395Y-88392000D01*
X84547825Y-87274430D01*
X84260212Y-87397565D01*
X84000293Y-88079734D01*
X79569404Y-88079734D01*
X79596036Y-88027260D01*
X79417240Y-87595583D01*
X79012576Y-87154034D01*
X78885578Y-87094825D01*
X84727430Y-87094825D01*
X85845000Y-88212395D01*
X86865395Y-87192000D01*
X91497560Y-87192000D01*
X91497560Y-89592000D01*
X91546843Y-89839765D01*
X91687191Y-90049809D01*
X91897235Y-90190157D01*
X92145000Y-90239440D01*
X94545000Y-90239440D01*
X94792765Y-90190157D01*
X95002809Y-90049809D01*
X95143157Y-89839765D01*
X95192440Y-89592000D01*
X95192440Y-87192000D01*
X95143157Y-86944235D01*
X95002809Y-86734191D01*
X94792765Y-86593843D01*
X94545000Y-86544560D01*
X92145000Y-86544560D01*
X91897235Y-86593843D01*
X91687191Y-86734191D01*
X91546843Y-86944235D01*
X91497560Y-87192000D01*
X86865395Y-87192000D01*
X86962570Y-87094825D01*
X86839435Y-86807212D01*
X86157266Y-86547293D01*
X85427557Y-86568214D01*
X84850565Y-86807212D01*
X84727430Y-87094825D01*
X78885578Y-87094825D01*
X78469742Y-86900954D01*
X78232000Y-87021003D01*
X77978000Y-87021003D01*
X77740258Y-86900954D01*
X77197424Y-87154034D01*
X76842624Y-87541174D01*
X76671673Y-87285327D01*
X76163927Y-86946062D01*
X75716182Y-86857000D01*
X75413818Y-86857000D01*
X74966073Y-86946062D01*
X74522129Y-87242696D01*
X74382809Y-87034191D01*
X74172765Y-86893843D01*
X73925000Y-86844560D01*
X72125000Y-86844560D01*
X71877235Y-86893843D01*
X71667191Y-87034191D01*
X71526843Y-87244235D01*
X71477560Y-87492000D01*
X68655000Y-87492000D01*
X68655000Y-82423000D01*
X70164887Y-82423000D01*
X70276260Y-82982909D01*
X70593423Y-83457577D01*
X71068091Y-83774740D01*
X71486667Y-83858000D01*
X71769333Y-83858000D01*
X72187909Y-83774740D01*
X72662577Y-83457577D01*
X72979740Y-82982909D01*
X73091113Y-82423000D01*
X72979740Y-81863091D01*
X72819317Y-81623000D01*
X77800560Y-81623000D01*
X77800560Y-83223000D01*
X77849843Y-83470765D01*
X77990191Y-83680809D01*
X78200235Y-83821157D01*
X78448000Y-83870440D01*
X80048000Y-83870440D01*
X80295765Y-83821157D01*
X80505809Y-83680809D01*
X80646157Y-83470765D01*
X80695440Y-83223000D01*
X80695440Y-81623000D01*
X80646157Y-81375235D01*
X80505809Y-81165191D01*
X80295765Y-81024843D01*
X80048000Y-80975560D01*
X78448000Y-80975560D01*
X78200235Y-81024843D01*
X77990191Y-81165191D01*
X77849843Y-81375235D01*
X77800560Y-81623000D01*
X72819317Y-81623000D01*
X72662577Y-81388423D01*
X72187909Y-81071260D01*
X71769333Y-80988000D01*
X71486667Y-80988000D01*
X71068091Y-81071260D01*
X70593423Y-81388423D01*
X70276260Y-81863091D01*
X70164887Y-82423000D01*
X68655000Y-82423000D01*
X68655000Y-75486126D01*
X69323000Y-75486126D01*
X69323000Y-75897874D01*
X69480569Y-76278280D01*
X69771720Y-76569431D01*
X70152126Y-76727000D01*
X70563874Y-76727000D01*
X70944280Y-76569431D01*
X71114711Y-76399000D01*
X71733153Y-76399000D01*
X71808000Y-76413888D01*
X71882847Y-76399000D01*
X71882852Y-76399000D01*
X72104537Y-76354904D01*
X72355929Y-76186929D01*
X72398331Y-76123471D01*
X72831802Y-75690000D01*
X73589391Y-75690000D01*
X73588582Y-75690161D01*
X73097375Y-76018375D01*
X72769161Y-76509582D01*
X72653908Y-77089000D01*
X72769161Y-77668418D01*
X73097375Y-78159625D01*
X73588582Y-78487839D01*
X74021744Y-78574000D01*
X74314256Y-78574000D01*
X74747418Y-78487839D01*
X75238625Y-78159625D01*
X75250816Y-78141381D01*
X75259843Y-78186765D01*
X75400191Y-78396809D01*
X75610235Y-78537157D01*
X75858000Y-78586440D01*
X77558000Y-78586440D01*
X77805765Y-78537157D01*
X78015809Y-78396809D01*
X78156157Y-78186765D01*
X78205440Y-77939000D01*
X78205440Y-76239000D01*
X78156157Y-75991235D01*
X78015809Y-75781191D01*
X77879333Y-75690000D01*
X78748198Y-75690000D01*
X79181672Y-76123475D01*
X79224071Y-76186929D01*
X79287524Y-76229327D01*
X79287526Y-76229329D01*
X79360787Y-76278280D01*
X79475463Y-76354904D01*
X79697148Y-76399000D01*
X79697152Y-76399000D01*
X79771999Y-76413888D01*
X79846846Y-76399000D01*
X80068289Y-76399000D01*
X80185720Y-76516431D01*
X80566126Y-76674000D01*
X80977874Y-76674000D01*
X81358280Y-76516431D01*
X81649431Y-76225280D01*
X81807000Y-75844874D01*
X81807000Y-75433126D01*
X81649431Y-75052720D01*
X81358280Y-74761569D01*
X80977874Y-74604000D01*
X80566126Y-74604000D01*
X80185720Y-74761569D01*
X80077546Y-74869743D01*
X79653331Y-74445529D01*
X79610929Y-74382071D01*
X79359537Y-74214096D01*
X79137852Y-74170000D01*
X79137847Y-74170000D01*
X79063000Y-74155112D01*
X78988153Y-74170000D01*
X72591846Y-74170000D01*
X72516999Y-74155112D01*
X72442152Y-74170000D01*
X72442148Y-74170000D01*
X72220463Y-74214096D01*
X72220461Y-74214097D01*
X72220462Y-74214097D01*
X72032526Y-74339671D01*
X72032524Y-74339673D01*
X71969071Y-74382071D01*
X71926672Y-74445525D01*
X71493198Y-74879000D01*
X71008711Y-74879000D01*
X70944280Y-74814569D01*
X70563874Y-74657000D01*
X70152126Y-74657000D01*
X69771720Y-74814569D01*
X69480569Y-75105720D01*
X69323000Y-75486126D01*
X68655000Y-75486126D01*
X68655000Y-73814175D01*
X84727430Y-73814175D01*
X84850565Y-74101788D01*
X85532734Y-74361707D01*
X86262443Y-74340786D01*
X86839435Y-74101788D01*
X86962570Y-73814175D01*
X85845000Y-72696605D01*
X84727430Y-73814175D01*
X68655000Y-73814175D01*
X68655000Y-72204734D01*
X84000293Y-72204734D01*
X84021214Y-72934443D01*
X84260212Y-73511435D01*
X84547825Y-73634570D01*
X85665395Y-72517000D01*
X86024605Y-72517000D01*
X87142175Y-73634570D01*
X87429788Y-73511435D01*
X87689707Y-72829266D01*
X87668786Y-72099557D01*
X87429788Y-71522565D01*
X87142175Y-71399430D01*
X86024605Y-72517000D01*
X85665395Y-72517000D01*
X84547825Y-71399430D01*
X84260212Y-71522565D01*
X84000293Y-72204734D01*
X68655000Y-72204734D01*
X68655000Y-70774181D01*
X71236000Y-70774181D01*
X71325062Y-71221926D01*
X71664327Y-71729673D01*
X72172073Y-72068938D01*
X72771000Y-72188072D01*
X73369926Y-72068938D01*
X73877673Y-71729673D01*
X74216938Y-71221927D01*
X74306000Y-70774182D01*
X74306000Y-68671818D01*
X74216938Y-68224073D01*
X74015768Y-67923000D01*
X76303560Y-67923000D01*
X76303560Y-71523000D01*
X76352843Y-71770765D01*
X76493191Y-71980809D01*
X76703235Y-72121157D01*
X76951000Y-72170440D01*
X78751000Y-72170440D01*
X78998765Y-72121157D01*
X79208809Y-71980809D01*
X79349157Y-71770765D01*
X79398440Y-71523000D01*
X79398440Y-71219825D01*
X84727430Y-71219825D01*
X85845000Y-72337395D01*
X86865395Y-71317000D01*
X91497560Y-71317000D01*
X91497560Y-73717000D01*
X91546843Y-73964765D01*
X91687191Y-74174809D01*
X91897235Y-74315157D01*
X92145000Y-74364440D01*
X94545000Y-74364440D01*
X94792765Y-74315157D01*
X95002809Y-74174809D01*
X95143157Y-73964765D01*
X95192440Y-73717000D01*
X95192440Y-71317000D01*
X95143157Y-71069235D01*
X95002809Y-70859191D01*
X94792765Y-70718843D01*
X94545000Y-70669560D01*
X92145000Y-70669560D01*
X91897235Y-70718843D01*
X91687191Y-70859191D01*
X91546843Y-71069235D01*
X91497560Y-71317000D01*
X86865395Y-71317000D01*
X86962570Y-71219825D01*
X86839435Y-70932212D01*
X86157266Y-70672293D01*
X85427557Y-70693214D01*
X84850565Y-70932212D01*
X84727430Y-71219825D01*
X79398440Y-71219825D01*
X79398440Y-67923000D01*
X79349157Y-67675235D01*
X79208809Y-67465191D01*
X78998765Y-67324843D01*
X78751000Y-67275560D01*
X76951000Y-67275560D01*
X76703235Y-67324843D01*
X76493191Y-67465191D01*
X76352843Y-67675235D01*
X76303560Y-67923000D01*
X74015768Y-67923000D01*
X73877673Y-67716327D01*
X73369927Y-67377062D01*
X72771000Y-67257928D01*
X72172074Y-67377062D01*
X71664328Y-67716327D01*
X71325063Y-68224073D01*
X71236001Y-68671818D01*
X71236000Y-70774181D01*
X68655000Y-70774181D01*
X68655000Y-67984693D01*
X68720599Y-67399870D01*
X68900998Y-66881832D01*
X69191686Y-66416635D01*
X69578210Y-66027403D01*
X70041367Y-65733475D01*
X70558134Y-65549462D01*
X71140658Y-65480000D01*
X100402821Y-65480000D01*
X100252469Y-65705019D01*
M02*
