M48
;DRILL file {KiCad 5.0.0-rc2-dev-unknown-f73b9a5~65~ubuntu16.04.1} date Sun May 13 13:10:56 2018
;FORMAT={-:-/ absolute / inch / decimal}
FMAT,2
INCH,TZ
T1C0.0157
T2C0.0315
T3C0.0354
T4C0.0394
T5C0.0433
T6C0.0472
%
G90
G05
M72
T1
X2.725Y-4.24
X2.735Y-3.39
X2.735Y-3.58
X2.77Y-2.98
X2.79Y-2.615
X2.93Y-3.71
X2.93Y-3.8027
X3.Y-4.075
X3.0121Y-3.71
X3.03Y-3.56
X3.1329Y-5.16
X3.154Y-4.8156
X3.18Y-2.9779
X3.2229Y-3.825
X3.25Y-2.61
X3.272Y-4.5772
X3.3032Y-4.5212
X3.3034Y-4.6875
X3.3157Y-4.4835
X3.339Y-4.5956
X3.3535Y-4.7647
X3.354Y-4.5306
X3.37Y-4.985
X3.374Y-4.5656
X3.509Y-4.7906
X3.5229Y-4.095
X3.5509Y-4.7653
X3.5629Y-4.5315
X3.589Y-4.99
X3.5907Y-4.7227
X3.5942Y-4.5553
X3.599Y-4.6124
X3.615Y-3.645
X3.6408Y-4.6384
X3.669Y-4.6706
X3.729Y-4.4256
X3.7303Y-4.7956
X3.735Y-3.645
X3.76Y-2.61
X3.814Y-4.5606
X3.869Y-4.7406
X3.9014Y-4.7123
X3.945Y-2.785
X3.964Y-4.7356
X3.985Y-3.64
X3.99Y-4.28
X3.994Y-4.6656
X4.085Y-5.034
X4.085Y-5.116
X4.235Y-4.16
X4.3675Y-4.1752
X4.505Y-2.785
X4.545Y-3.635
T2
X3.405Y-3.905
X3.405Y-4.005
X3.705Y-3.905
X3.705Y-4.005
X3.925Y-3.945
X3.925Y-4.045
X4.225Y-3.945
X4.225Y-4.045
X2.82Y-3.245
X3.12Y-3.245
X2.894Y-4.5277
X2.894Y-4.7206
X2.844Y-4.3256
X2.844Y-4.9256
X2.944Y-4.3256
X2.944Y-4.9256
X3.044Y-4.3256
X3.044Y-4.9256
X3.144Y-4.3256
X3.144Y-4.9256
X3.244Y-4.3256
X3.244Y-4.9256
X3.344Y-4.3256
X3.344Y-4.9256
X3.444Y-4.3256
X3.444Y-4.9256
X3.544Y-4.3256
X3.544Y-4.9256
X3.644Y-4.3256
X3.644Y-4.9256
X3.744Y-4.3256
X3.744Y-4.9256
X3.844Y-4.3256
X3.844Y-4.9256
X3.944Y-4.3256
X3.944Y-4.9256
X4.044Y-4.3256
X4.044Y-4.9256
X4.144Y-4.3256
X4.144Y-4.9256
X4.244Y-4.3256
X4.244Y-4.9256
T3
X3.34Y-5.225
X3.39Y-5.225
X3.44Y-5.225
X3.49Y-5.225
T4
X2.73Y-5.3
X2.83Y-5.3
X2.93Y-5.3
X3.03Y-5.3
X3.13Y-5.3
X3.23Y-5.3
X4.069Y-4.5406
X4.069Y-4.6406
X4.069Y-4.7406
X4.169Y-4.5406
X4.169Y-4.6406
X4.169Y-4.7406
X4.58Y-4.075
X4.58Y-4.175
X2.92Y-3.035
X3.02Y-3.035
X2.725Y-5.15
X2.825Y-5.15
X2.735Y-3.855
X2.835Y-3.855
X2.875Y-3.48
X2.975Y-3.48
X3.075Y-3.48
T5
X3.6841Y-5.1393
X3.6841Y-5.3164
X3.94Y-5.1393
X3.94Y-5.3164
X4.2691Y-5.1393
X4.2691Y-5.3164
X4.525Y-5.1393
X4.525Y-5.3164
T6
X2.865Y-2.745
X3.065Y-2.745
X4.165Y-3.815
X4.015Y-2.615
X4.015Y-3.815
X4.52Y-4.53
X4.52Y-4.73
X4.34Y-2.615
X4.34Y-3.815
X3.3797Y-3.48
X3.675Y-3.48
X3.3797Y-2.855
X3.675Y-2.855
X4.165Y-2.615
X4.49Y-2.615
X4.49Y-3.815
T0
M30
