G04 #@! TF.GenerationSoftware,KiCad,Pcbnew,5.0.0-rc2-dev-unknown-f73b9a5~65~ubuntu16.04.1*
G04 #@! TF.CreationDate,2018-05-13T13:10:50+02:00*
G04 #@! TF.ProjectId,Libreductioner,4C6962726564756374696F6E65722E6B,rev?*
G04 #@! TF.SameCoordinates,Original*
G04 #@! TF.FileFunction,Legend,Bot*
G04 #@! TF.FilePolarity,Positive*
%FSLAX46Y46*%
G04 Gerber Fmt 4.6, Leading zero omitted, Abs format (unit mm)*
G04 Created by KiCad (PCBNEW 5.0.0-rc2-dev-unknown-f73b9a5~65~ubuntu16.04.1) date Sun May 13 13:10:50 2018*
%MOMM*%
%LPD*%
G01*
G04 APERTURE LIST*
%ADD10C,0.300000*%
%ADD11C,0.120000*%
%ADD12C,0.150000*%
G04 APERTURE END LIST*
D10*
X92999285Y-77884571D02*
X93499285Y-77170285D01*
X93856428Y-77884571D02*
X93856428Y-76384571D01*
X93285000Y-76384571D01*
X93142142Y-76456000D01*
X93070714Y-76527428D01*
X92999285Y-76670285D01*
X92999285Y-76884571D01*
X93070714Y-77027428D01*
X93142142Y-77098857D01*
X93285000Y-77170285D01*
X93856428Y-77170285D01*
X91785000Y-77813142D02*
X91927857Y-77884571D01*
X92213571Y-77884571D01*
X92356428Y-77813142D01*
X92427857Y-77670285D01*
X92427857Y-77098857D01*
X92356428Y-76956000D01*
X92213571Y-76884571D01*
X91927857Y-76884571D01*
X91785000Y-76956000D01*
X91713571Y-77098857D01*
X91713571Y-77241714D01*
X92427857Y-77384571D01*
X91213571Y-76884571D02*
X90856428Y-77884571D01*
X90499285Y-76884571D01*
X89927857Y-77741714D02*
X89856428Y-77813142D01*
X89927857Y-77884571D01*
X89999285Y-77813142D01*
X89927857Y-77741714D01*
X89927857Y-77884571D01*
X87285000Y-77884571D02*
X88142142Y-77884571D01*
X87713571Y-77884571D02*
X87713571Y-76384571D01*
X87856428Y-76598857D01*
X87999285Y-76741714D01*
X88142142Y-76813142D01*
X86642142Y-77741714D02*
X86570714Y-77813142D01*
X86642142Y-77884571D01*
X86713571Y-77813142D01*
X86642142Y-77741714D01*
X86642142Y-77884571D01*
X85642142Y-76384571D02*
X85499285Y-76384571D01*
X85356428Y-76456000D01*
X85285000Y-76527428D01*
X85213571Y-76670285D01*
X85142142Y-76956000D01*
X85142142Y-77313142D01*
X85213571Y-77598857D01*
X85285000Y-77741714D01*
X85356428Y-77813142D01*
X85499285Y-77884571D01*
X85642142Y-77884571D01*
X85785000Y-77813142D01*
X85856428Y-77741714D01*
X85927857Y-77598857D01*
X85999285Y-77313142D01*
X85999285Y-76956000D01*
X85927857Y-76670285D01*
X85856428Y-76527428D01*
X85785000Y-76456000D01*
X85642142Y-76384571D01*
X94820714Y-80434571D02*
X95677857Y-80434571D01*
X95249285Y-80434571D02*
X95249285Y-78934571D01*
X95392142Y-79148857D01*
X95535000Y-79291714D01*
X95677857Y-79363142D01*
X94320714Y-78934571D02*
X93392142Y-78934571D01*
X93892142Y-79506000D01*
X93677857Y-79506000D01*
X93535000Y-79577428D01*
X93463571Y-79648857D01*
X93392142Y-79791714D01*
X93392142Y-80148857D01*
X93463571Y-80291714D01*
X93535000Y-80363142D01*
X93677857Y-80434571D01*
X94106428Y-80434571D01*
X94249285Y-80363142D01*
X94320714Y-80291714D01*
X92749285Y-80291714D02*
X92677857Y-80363142D01*
X92749285Y-80434571D01*
X92820714Y-80363142D01*
X92749285Y-80291714D01*
X92749285Y-80434571D01*
X91749285Y-78934571D02*
X91606428Y-78934571D01*
X91463571Y-79006000D01*
X91392142Y-79077428D01*
X91320714Y-79220285D01*
X91249285Y-79506000D01*
X91249285Y-79863142D01*
X91320714Y-80148857D01*
X91392142Y-80291714D01*
X91463571Y-80363142D01*
X91606428Y-80434571D01*
X91749285Y-80434571D01*
X91892142Y-80363142D01*
X91963571Y-80291714D01*
X92035000Y-80148857D01*
X92106428Y-79863142D01*
X92106428Y-79506000D01*
X92035000Y-79220285D01*
X91963571Y-79077428D01*
X91892142Y-79006000D01*
X91749285Y-78934571D01*
X89892142Y-78934571D02*
X90606428Y-78934571D01*
X90677857Y-79648857D01*
X90606428Y-79577428D01*
X90463571Y-79506000D01*
X90106428Y-79506000D01*
X89963571Y-79577428D01*
X89892142Y-79648857D01*
X89820714Y-79791714D01*
X89820714Y-80148857D01*
X89892142Y-80291714D01*
X89963571Y-80363142D01*
X90106428Y-80434571D01*
X90463571Y-80434571D01*
X90606428Y-80363142D01*
X90677857Y-80291714D01*
X89177857Y-80291714D02*
X89106428Y-80363142D01*
X89177857Y-80434571D01*
X89249285Y-80363142D01*
X89177857Y-80291714D01*
X89177857Y-80434571D01*
X88535000Y-79077428D02*
X88463571Y-79006000D01*
X88320714Y-78934571D01*
X87963571Y-78934571D01*
X87820714Y-79006000D01*
X87749285Y-79077428D01*
X87677857Y-79220285D01*
X87677857Y-79363142D01*
X87749285Y-79577428D01*
X88606428Y-80434571D01*
X87677857Y-80434571D01*
X86749285Y-78934571D02*
X86606428Y-78934571D01*
X86463571Y-79006000D01*
X86392142Y-79077428D01*
X86320714Y-79220285D01*
X86249285Y-79506000D01*
X86249285Y-79863142D01*
X86320714Y-80148857D01*
X86392142Y-80291714D01*
X86463571Y-80363142D01*
X86606428Y-80434571D01*
X86749285Y-80434571D01*
X86892142Y-80363142D01*
X86963571Y-80291714D01*
X87035000Y-80148857D01*
X87106428Y-79863142D01*
X87106428Y-79506000D01*
X87035000Y-79220285D01*
X86963571Y-79077428D01*
X86892142Y-79006000D01*
X86749285Y-78934571D01*
X84820714Y-80434571D02*
X85677857Y-80434571D01*
X85249285Y-80434571D02*
X85249285Y-78934571D01*
X85392142Y-79148857D01*
X85535000Y-79291714D01*
X85677857Y-79363142D01*
X83963571Y-79577428D02*
X84106428Y-79506000D01*
X84177857Y-79434571D01*
X84249285Y-79291714D01*
X84249285Y-79220285D01*
X84177857Y-79077428D01*
X84106428Y-79006000D01*
X83963571Y-78934571D01*
X83677857Y-78934571D01*
X83535000Y-79006000D01*
X83463571Y-79077428D01*
X83392142Y-79220285D01*
X83392142Y-79291714D01*
X83463571Y-79434571D01*
X83535000Y-79506000D01*
X83677857Y-79577428D01*
X83963571Y-79577428D01*
X84106428Y-79648857D01*
X84177857Y-79720285D01*
X84249285Y-79863142D01*
X84249285Y-80148857D01*
X84177857Y-80291714D01*
X84106428Y-80363142D01*
X83963571Y-80434571D01*
X83677857Y-80434571D01*
X83535000Y-80363142D01*
X83463571Y-80291714D01*
X83392142Y-80148857D01*
X83392142Y-79863142D01*
X83463571Y-79720285D01*
X83535000Y-79648857D01*
X83677857Y-79577428D01*
X96856428Y-82556000D02*
X96142142Y-82556000D01*
X96999285Y-82984571D02*
X96499285Y-81484571D01*
X95999285Y-82984571D01*
X95499285Y-81984571D02*
X95499285Y-82984571D01*
X95499285Y-82127428D02*
X95427857Y-82056000D01*
X95285000Y-81984571D01*
X95070714Y-81984571D01*
X94927857Y-82056000D01*
X94856428Y-82198857D01*
X94856428Y-82984571D01*
X93499285Y-82984571D02*
X93499285Y-81484571D01*
X93499285Y-82913142D02*
X93642142Y-82984571D01*
X93927857Y-82984571D01*
X94070714Y-82913142D01*
X94142142Y-82841714D01*
X94213571Y-82698857D01*
X94213571Y-82270285D01*
X94142142Y-82127428D01*
X94070714Y-82056000D01*
X93927857Y-81984571D01*
X93642142Y-81984571D01*
X93499285Y-82056000D01*
X92785000Y-82984571D02*
X92785000Y-81984571D01*
X92785000Y-82270285D02*
X92713571Y-82127428D01*
X92642142Y-82056000D01*
X92499285Y-81984571D01*
X92356428Y-81984571D01*
X91285000Y-82913142D02*
X91427857Y-82984571D01*
X91713571Y-82984571D01*
X91856428Y-82913142D01*
X91927857Y-82770285D01*
X91927857Y-82198857D01*
X91856428Y-82056000D01*
X91713571Y-81984571D01*
X91427857Y-81984571D01*
X91285000Y-82056000D01*
X91213571Y-82198857D01*
X91213571Y-82341714D01*
X91927857Y-82484571D01*
X89927857Y-82984571D02*
X89927857Y-82198857D01*
X89999285Y-82056000D01*
X90142142Y-81984571D01*
X90427857Y-81984571D01*
X90570714Y-82056000D01*
X89927857Y-82913142D02*
X90070714Y-82984571D01*
X90427857Y-82984571D01*
X90570714Y-82913142D01*
X90642142Y-82770285D01*
X90642142Y-82627428D01*
X90570714Y-82484571D01*
X90427857Y-82413142D01*
X90070714Y-82413142D01*
X89927857Y-82341714D01*
X89285000Y-82913142D02*
X89142142Y-82984571D01*
X88856428Y-82984571D01*
X88713571Y-82913142D01*
X88642142Y-82770285D01*
X88642142Y-82698857D01*
X88713571Y-82556000D01*
X88856428Y-82484571D01*
X89070714Y-82484571D01*
X89213571Y-82413142D01*
X89285000Y-82270285D01*
X89285000Y-82198857D01*
X89213571Y-82056000D01*
X89070714Y-81984571D01*
X88856428Y-81984571D01*
X88713571Y-82056000D01*
X86356428Y-82198857D02*
X86142142Y-82270285D01*
X86070714Y-82341714D01*
X85999285Y-82484571D01*
X85999285Y-82698857D01*
X86070714Y-82841714D01*
X86142142Y-82913142D01*
X86285000Y-82984571D01*
X86856428Y-82984571D01*
X86856428Y-81484571D01*
X86356428Y-81484571D01*
X86213571Y-81556000D01*
X86142142Y-81627428D01*
X86070714Y-81770285D01*
X86070714Y-81913142D01*
X86142142Y-82056000D01*
X86213571Y-82127428D01*
X86356428Y-82198857D01*
X86856428Y-82198857D01*
X84713571Y-81984571D02*
X84713571Y-82984571D01*
X85356428Y-81984571D02*
X85356428Y-82770285D01*
X85285000Y-82913142D01*
X85142142Y-82984571D01*
X84927857Y-82984571D01*
X84785000Y-82913142D01*
X84713571Y-82841714D01*
X84213571Y-81984571D02*
X83642142Y-81984571D01*
X83999285Y-81484571D02*
X83999285Y-82770285D01*
X83927857Y-82913142D01*
X83785000Y-82984571D01*
X83642142Y-82984571D01*
X83356428Y-81984571D02*
X82785000Y-81984571D01*
X83142142Y-81484571D02*
X83142142Y-82770285D01*
X83070714Y-82913142D01*
X82927857Y-82984571D01*
X82785000Y-82984571D01*
X82285000Y-82984571D02*
X82285000Y-81984571D01*
X82285000Y-81484571D02*
X82356428Y-81556000D01*
X82285000Y-81627428D01*
X82213571Y-81556000D01*
X82285000Y-81484571D01*
X82285000Y-81627428D01*
D11*
X105791000Y-67861000D02*
X105791000Y-69041000D01*
X105791000Y-95461000D02*
X105791000Y-94281000D01*
X109111000Y-69041000D02*
X109111000Y-94281000D01*
X102471000Y-69041000D02*
X109111000Y-69041000D01*
X102471000Y-94281000D02*
X102471000Y-69041000D01*
X109111000Y-94281000D02*
X102471000Y-94281000D01*
X117366000Y-94281000D02*
X110726000Y-94281000D01*
X110726000Y-94281000D02*
X110726000Y-69041000D01*
X110726000Y-69041000D02*
X117366000Y-69041000D01*
X117366000Y-69041000D02*
X117366000Y-94281000D01*
X114046000Y-95461000D02*
X114046000Y-94281000D01*
X114046000Y-67861000D02*
X114046000Y-69041000D01*
X82602000Y-105794500D02*
X82602000Y-106094500D01*
X84022000Y-105794500D02*
X84022000Y-106094500D01*
X72211000Y-104625000D02*
X72211000Y-104925000D01*
X70791000Y-104625000D02*
X70791000Y-104925000D01*
X79126000Y-100730000D02*
X79126000Y-101990000D01*
X79126000Y-107550000D02*
X79126000Y-106290000D01*
X75366000Y-100730000D02*
X79126000Y-100730000D01*
X73116000Y-107550000D02*
X79126000Y-107550000D01*
X93094500Y-104723000D02*
X93394500Y-104723000D01*
X93094500Y-103303000D02*
X93394500Y-103303000D01*
X88063000Y-102411500D02*
X88063000Y-102111500D01*
X89483000Y-102411500D02*
X89483000Y-102111500D01*
X75422000Y-96839000D02*
X75422000Y-95439000D01*
X74722000Y-94739000D02*
X74122000Y-94739000D01*
X73422000Y-95439000D02*
X73422000Y-96839000D01*
X74122000Y-97539000D02*
X74722000Y-97539000D01*
X74722000Y-97539000D02*
G75*
G03X75422000Y-96839000I0J700000D01*
G01*
X73422000Y-96839000D02*
G75*
G03X74122000Y-97539000I700000J0D01*
G01*
X74122000Y-94739000D02*
G75*
G03X73422000Y-95439000I0J-700000D01*
G01*
X75422000Y-95439000D02*
G75*
G03X74722000Y-94739000I-700000J0D01*
G01*
X102251000Y-102173000D02*
G75*
G03X102951000Y-102873000I700000J0D01*
G01*
X103551000Y-102873000D02*
G75*
G03X104251000Y-102173000I0J700000D01*
G01*
X104251000Y-100773000D02*
G75*
G03X103551000Y-100073000I-700000J0D01*
G01*
X102951000Y-100073000D02*
G75*
G03X102251000Y-100773000I0J-700000D01*
G01*
X103551000Y-100073000D02*
X102951000Y-100073000D01*
X104251000Y-102173000D02*
X104251000Y-100773000D01*
X102951000Y-102873000D02*
X103551000Y-102873000D01*
X102251000Y-100773000D02*
X102251000Y-102173000D01*
X75337790Y-121302952D02*
X75337790Y-121002952D01*
X76757790Y-121302952D02*
X76757790Y-121002952D01*
X75337790Y-113529952D02*
X75337790Y-113829952D01*
X76757790Y-113529952D02*
X76757790Y-113829952D01*
D12*
X110563380Y-81494333D02*
X110087190Y-81161000D01*
X110563380Y-80922904D02*
X109563380Y-80922904D01*
X109563380Y-81303857D01*
X109611000Y-81399095D01*
X109658619Y-81446714D01*
X109753857Y-81494333D01*
X109896714Y-81494333D01*
X109991952Y-81446714D01*
X110039571Y-81399095D01*
X110087190Y-81303857D01*
X110087190Y-80922904D01*
X109563380Y-81827666D02*
X109563380Y-82446714D01*
X109944333Y-82113380D01*
X109944333Y-82256238D01*
X109991952Y-82351476D01*
X110039571Y-82399095D01*
X110134809Y-82446714D01*
X110372904Y-82446714D01*
X110468142Y-82399095D01*
X110515761Y-82351476D01*
X110563380Y-82256238D01*
X110563380Y-81970523D01*
X110515761Y-81875285D01*
X110468142Y-81827666D01*
X116911380Y-81494333D02*
X116435190Y-81161000D01*
X116911380Y-80922904D02*
X115911380Y-80922904D01*
X115911380Y-81303857D01*
X115959000Y-81399095D01*
X116006619Y-81446714D01*
X116101857Y-81494333D01*
X116244714Y-81494333D01*
X116339952Y-81446714D01*
X116387571Y-81399095D01*
X116435190Y-81303857D01*
X116435190Y-80922904D01*
X116244714Y-82351476D02*
X116911380Y-82351476D01*
X115863761Y-82113380D02*
X116578047Y-81875285D01*
X116578047Y-82494333D01*
X85614380Y-104825452D02*
X85614380Y-104254023D01*
X85614380Y-104539738D02*
X84614380Y-104539738D01*
X84757238Y-104444500D01*
X84852476Y-104349261D01*
X84900095Y-104254023D01*
X84614380Y-105444500D02*
X84614380Y-105539738D01*
X84662000Y-105634976D01*
X84709619Y-105682595D01*
X84804857Y-105730214D01*
X84995333Y-105777833D01*
X85233428Y-105777833D01*
X85423904Y-105730214D01*
X85519142Y-105682595D01*
X85566761Y-105634976D01*
X85614380Y-105539738D01*
X85614380Y-105444500D01*
X85566761Y-105349261D01*
X85519142Y-105301642D01*
X85423904Y-105254023D01*
X85233428Y-105206404D01*
X84995333Y-105206404D01*
X84804857Y-105254023D01*
X84709619Y-105301642D01*
X84662000Y-105349261D01*
X84614380Y-105444500D01*
X84614380Y-106396880D02*
X84614380Y-106492119D01*
X84662000Y-106587357D01*
X84709619Y-106634976D01*
X84804857Y-106682595D01*
X84995333Y-106730214D01*
X85233428Y-106730214D01*
X85423904Y-106682595D01*
X85519142Y-106634976D01*
X85566761Y-106587357D01*
X85614380Y-106492119D01*
X85614380Y-106396880D01*
X85566761Y-106301642D01*
X85519142Y-106254023D01*
X85423904Y-106206404D01*
X85233428Y-106158785D01*
X84995333Y-106158785D01*
X84804857Y-106206404D01*
X84709619Y-106254023D01*
X84662000Y-106301642D01*
X84614380Y-106396880D01*
X84947714Y-107158785D02*
X85614380Y-107158785D01*
X85042952Y-107158785D02*
X84995333Y-107206404D01*
X84947714Y-107301642D01*
X84947714Y-107444500D01*
X84995333Y-107539738D01*
X85090571Y-107587357D01*
X85614380Y-107587357D01*
X70175380Y-103655952D02*
X70175380Y-103084523D01*
X70175380Y-103370238D02*
X69175380Y-103370238D01*
X69318238Y-103275000D01*
X69413476Y-103179761D01*
X69461095Y-103084523D01*
X69175380Y-104275000D02*
X69175380Y-104370238D01*
X69223000Y-104465476D01*
X69270619Y-104513095D01*
X69365857Y-104560714D01*
X69556333Y-104608333D01*
X69794428Y-104608333D01*
X69984904Y-104560714D01*
X70080142Y-104513095D01*
X70127761Y-104465476D01*
X70175380Y-104370238D01*
X70175380Y-104275000D01*
X70127761Y-104179761D01*
X70080142Y-104132142D01*
X69984904Y-104084523D01*
X69794428Y-104036904D01*
X69556333Y-104036904D01*
X69365857Y-104084523D01*
X69270619Y-104132142D01*
X69223000Y-104179761D01*
X69175380Y-104275000D01*
X69175380Y-105227380D02*
X69175380Y-105322619D01*
X69223000Y-105417857D01*
X69270619Y-105465476D01*
X69365857Y-105513095D01*
X69556333Y-105560714D01*
X69794428Y-105560714D01*
X69984904Y-105513095D01*
X70080142Y-105465476D01*
X70127761Y-105417857D01*
X70175380Y-105322619D01*
X70175380Y-105227380D01*
X70127761Y-105132142D01*
X70080142Y-105084523D01*
X69984904Y-105036904D01*
X69794428Y-104989285D01*
X69556333Y-104989285D01*
X69365857Y-105036904D01*
X69270619Y-105084523D01*
X69223000Y-105132142D01*
X69175380Y-105227380D01*
X69508714Y-105989285D02*
X70175380Y-105989285D01*
X69603952Y-105989285D02*
X69556333Y-106036904D01*
X69508714Y-106132142D01*
X69508714Y-106275000D01*
X69556333Y-106370238D01*
X69651571Y-106417857D01*
X70175380Y-106417857D01*
X81192190Y-100092380D02*
X81668380Y-100092380D01*
X81668380Y-99092380D01*
X80858857Y-100092380D02*
X80858857Y-99092380D01*
X80525523Y-99806666D01*
X80192190Y-99092380D01*
X80192190Y-100092380D01*
X79192190Y-100092380D02*
X79763619Y-100092380D01*
X79477904Y-100092380D02*
X79477904Y-99092380D01*
X79573142Y-99235238D01*
X79668380Y-99330476D01*
X79763619Y-99378095D01*
X78239809Y-100092380D02*
X78811238Y-100092380D01*
X78525523Y-100092380D02*
X78525523Y-99092380D01*
X78620761Y-99235238D01*
X78716000Y-99330476D01*
X78811238Y-99378095D01*
X77287428Y-100092380D02*
X77858857Y-100092380D01*
X77573142Y-100092380D02*
X77573142Y-99092380D01*
X77668380Y-99235238D01*
X77763619Y-99330476D01*
X77858857Y-99378095D01*
X76954095Y-99092380D02*
X76287428Y-99092380D01*
X76716000Y-100092380D01*
X75906476Y-99711428D02*
X75144571Y-99711428D01*
X74192190Y-99092380D02*
X74668380Y-99092380D01*
X74716000Y-99568571D01*
X74668380Y-99520952D01*
X74573142Y-99473333D01*
X74335047Y-99473333D01*
X74239809Y-99520952D01*
X74192190Y-99568571D01*
X74144571Y-99663809D01*
X74144571Y-99901904D01*
X74192190Y-99997142D01*
X74239809Y-100044761D01*
X74335047Y-100092380D01*
X74573142Y-100092380D01*
X74668380Y-100044761D01*
X74716000Y-99997142D01*
X73716000Y-99997142D02*
X73668380Y-100044761D01*
X73716000Y-100092380D01*
X73763619Y-100044761D01*
X73716000Y-99997142D01*
X73716000Y-100092380D01*
X73049333Y-99092380D02*
X72954095Y-99092380D01*
X72858857Y-99140000D01*
X72811238Y-99187619D01*
X72763619Y-99282857D01*
X72716000Y-99473333D01*
X72716000Y-99711428D01*
X72763619Y-99901904D01*
X72811238Y-99997142D01*
X72858857Y-100044761D01*
X72954095Y-100092380D01*
X73049333Y-100092380D01*
X73144571Y-100044761D01*
X73192190Y-99997142D01*
X73239809Y-99901904D01*
X73287428Y-99711428D01*
X73287428Y-99473333D01*
X73239809Y-99282857D01*
X73192190Y-99187619D01*
X73144571Y-99140000D01*
X73049333Y-99092380D01*
X93887357Y-106315380D02*
X94220690Y-105839190D01*
X94458785Y-106315380D02*
X94458785Y-105315380D01*
X94077833Y-105315380D01*
X93982595Y-105363000D01*
X93934976Y-105410619D01*
X93887357Y-105505857D01*
X93887357Y-105648714D01*
X93934976Y-105743952D01*
X93982595Y-105791571D01*
X94077833Y-105839190D01*
X94458785Y-105839190D01*
X92934976Y-106315380D02*
X93506404Y-106315380D01*
X93220690Y-106315380D02*
X93220690Y-105315380D01*
X93315928Y-105458238D01*
X93411166Y-105553476D01*
X93506404Y-105601095D01*
X92554023Y-105410619D02*
X92506404Y-105363000D01*
X92411166Y-105315380D01*
X92173071Y-105315380D01*
X92077833Y-105363000D01*
X92030214Y-105410619D01*
X91982595Y-105505857D01*
X91982595Y-105601095D01*
X92030214Y-105743952D01*
X92601642Y-106315380D01*
X91982595Y-106315380D01*
X91075380Y-101618642D02*
X90599190Y-101285309D01*
X91075380Y-101047214D02*
X90075380Y-101047214D01*
X90075380Y-101428166D01*
X90123000Y-101523404D01*
X90170619Y-101571023D01*
X90265857Y-101618642D01*
X90408714Y-101618642D01*
X90503952Y-101571023D01*
X90551571Y-101523404D01*
X90599190Y-101428166D01*
X90599190Y-101047214D01*
X91075380Y-102571023D02*
X91075380Y-101999595D01*
X91075380Y-102285309D02*
X90075380Y-102285309D01*
X90218238Y-102190071D01*
X90313476Y-102094833D01*
X90361095Y-101999595D01*
X90075380Y-102904357D02*
X90075380Y-103523404D01*
X90456333Y-103190071D01*
X90456333Y-103332928D01*
X90503952Y-103428166D01*
X90551571Y-103475785D01*
X90646809Y-103523404D01*
X90884904Y-103523404D01*
X90980142Y-103475785D01*
X91027761Y-103428166D01*
X91075380Y-103332928D01*
X91075380Y-103047214D01*
X91027761Y-102951976D01*
X90980142Y-102904357D01*
X75674380Y-95305666D02*
X76388666Y-95305666D01*
X76531523Y-95258047D01*
X76626761Y-95162809D01*
X76674380Y-95019952D01*
X76674380Y-94924714D01*
X76674380Y-95781857D02*
X75674380Y-95781857D01*
X75674380Y-96162809D01*
X75722000Y-96258047D01*
X75769619Y-96305666D01*
X75864857Y-96353285D01*
X76007714Y-96353285D01*
X76102952Y-96305666D01*
X76150571Y-96258047D01*
X76198190Y-96162809D01*
X76198190Y-95781857D01*
X76674380Y-97305666D02*
X76674380Y-96734238D01*
X76674380Y-97019952D02*
X75674380Y-97019952D01*
X75817238Y-96924714D01*
X75912476Y-96829476D01*
X75960095Y-96734238D01*
X100903380Y-100639666D02*
X101617666Y-100639666D01*
X101760523Y-100592047D01*
X101855761Y-100496809D01*
X101903380Y-100353952D01*
X101903380Y-100258714D01*
X101903380Y-101115857D02*
X100903380Y-101115857D01*
X100903380Y-101496809D01*
X100951000Y-101592047D01*
X100998619Y-101639666D01*
X101093857Y-101687285D01*
X101236714Y-101687285D01*
X101331952Y-101639666D01*
X101379571Y-101592047D01*
X101427190Y-101496809D01*
X101427190Y-101115857D01*
X100998619Y-102068238D02*
X100951000Y-102115857D01*
X100903380Y-102211095D01*
X100903380Y-102449190D01*
X100951000Y-102544428D01*
X100998619Y-102592047D01*
X101093857Y-102639666D01*
X101189095Y-102639666D01*
X101331952Y-102592047D01*
X101903380Y-102020619D01*
X101903380Y-102639666D01*
X77398619Y-119943714D02*
X77351000Y-119991333D01*
X77303380Y-120086571D01*
X77303380Y-120324666D01*
X77351000Y-120419904D01*
X77398619Y-120467523D01*
X77493857Y-120515142D01*
X77589095Y-120515142D01*
X77731952Y-120467523D01*
X78303380Y-119896095D01*
X78303380Y-120515142D01*
X77398619Y-120896095D02*
X77351000Y-120943714D01*
X77303380Y-121038952D01*
X77303380Y-121277047D01*
X77351000Y-121372285D01*
X77398619Y-121419904D01*
X77493857Y-121467523D01*
X77589095Y-121467523D01*
X77731952Y-121419904D01*
X78303380Y-120848476D01*
X78303380Y-121467523D01*
X77636714Y-121896095D02*
X78303380Y-121896095D01*
X77731952Y-121896095D02*
X77684333Y-121943714D01*
X77636714Y-122038952D01*
X77636714Y-122181809D01*
X77684333Y-122277047D01*
X77779571Y-122324666D01*
X78303380Y-122324666D01*
X77445409Y-112465666D02*
X77397790Y-112513285D01*
X77350170Y-112608523D01*
X77350170Y-112846618D01*
X77397790Y-112941856D01*
X77445409Y-112989475D01*
X77540647Y-113037094D01*
X77635885Y-113037094D01*
X77778742Y-112989475D01*
X78350170Y-112418047D01*
X78350170Y-113037094D01*
X77445409Y-113418047D02*
X77397790Y-113465666D01*
X77350170Y-113560904D01*
X77350170Y-113798999D01*
X77397790Y-113894237D01*
X77445409Y-113941856D01*
X77540647Y-113989475D01*
X77635885Y-113989475D01*
X77778742Y-113941856D01*
X78350170Y-113370428D01*
X78350170Y-113989475D01*
X77683504Y-114418047D02*
X78350170Y-114418047D01*
X77778742Y-114418047D02*
X77731123Y-114465666D01*
X77683504Y-114560904D01*
X77683504Y-114703761D01*
X77731123Y-114798999D01*
X77826361Y-114846618D01*
X78350170Y-114846618D01*
M02*
