G04 #@! TF.GenerationSoftware,KiCad,Pcbnew,5.0.0-rc2-dev-unknown-f73b9a5~65~ubuntu16.04.1*
G04 #@! TF.CreationDate,2018-05-13T13:10:50+02:00*
G04 #@! TF.ProjectId,Libreductioner,4C6962726564756374696F6E65722E6B,rev?*
G04 #@! TF.SameCoordinates,Original*
G04 #@! TF.FileFunction,Copper,L1,Top,Signal*
G04 #@! TF.FilePolarity,Positive*
%FSLAX46Y46*%
G04 Gerber Fmt 4.6, Leading zero omitted, Abs format (unit mm)*
G04 Created by KiCad (PCBNEW 5.0.0-rc2-dev-unknown-f73b9a5~65~ubuntu16.04.1) date Sun May 13 13:10:50 2018*
%MOMM*%
%LPD*%
G01*
G04 APERTURE LIST*
%ADD10R,1.600000X1.600000*%
%ADD11O,1.600000X1.600000*%
%ADD12O,1.700000X1.700000*%
%ADD13R,1.700000X1.700000*%
%ADD14C,1.500000*%
%ADD15R,1.800000X1.800000*%
%ADD16O,1.800000X1.800000*%
%ADD17R,2.400000X2.400000*%
%ADD18C,2.400000*%
%ADD19C,2.000000*%
%ADD20O,2.400000X2.400000*%
%ADD21R,1.145000X1.500000*%
%ADD22R,1.800000X3.600000*%
%ADD23O,1.800000X3.600000*%
%ADD24O,3.600000X1.800000*%
%ADD25R,3.600000X1.800000*%
%ADD26R,1.500000X1.145000*%
%ADD27R,1.500000X0.970000*%
%ADD28R,1.070000X1.800000*%
%ADD29O,1.070000X1.800000*%
%ADD30C,1.145000*%
%ADD31C,0.100000*%
%ADD32C,0.550000*%
%ADD33C,0.800000*%
%ADD34C,0.500000*%
%ADD35C,0.250000*%
%ADD36C,1.000000*%
%ADD37C,2.000000*%
%ADD38C,0.254000*%
G04 APERTURE END LIST*
D10*
X86487000Y-99187000D03*
D11*
X94107000Y-101727000D03*
X86487000Y-101727000D03*
X94107000Y-99187000D03*
X72237790Y-125109952D03*
X72237790Y-109869952D03*
X107797790Y-125109952D03*
X74777790Y-109869952D03*
X105257790Y-125109952D03*
X77317790Y-109869952D03*
X102717790Y-125109952D03*
X79857790Y-109869952D03*
X100177790Y-125109952D03*
X82397790Y-109869952D03*
X97637790Y-125109952D03*
X84937790Y-109869952D03*
X95097790Y-125109952D03*
X87477790Y-109869952D03*
X92557790Y-125109952D03*
X90017790Y-109869952D03*
X90017790Y-125109952D03*
X92557790Y-109869952D03*
X87477790Y-125109952D03*
X95097790Y-109869952D03*
X84937790Y-125109952D03*
X97637790Y-109869952D03*
X82397790Y-125109952D03*
X100177790Y-109869952D03*
X79857790Y-125109952D03*
X102717790Y-109869952D03*
X77317790Y-125109952D03*
X105257790Y-109869952D03*
X74777790Y-125109952D03*
D10*
X107797790Y-109869952D03*
D12*
X103352790Y-115330952D03*
X105892790Y-115330952D03*
X103352790Y-117870952D03*
X105892790Y-117870952D03*
X103352790Y-120410952D03*
D13*
X105892790Y-120410952D03*
D14*
X73507790Y-115002952D03*
X73507790Y-119902952D03*
D15*
X73025000Y-88392000D03*
D16*
X75565000Y-88392000D03*
X78105000Y-88392000D03*
D17*
X93345000Y-72517000D03*
D18*
X85845000Y-72517000D03*
X85845000Y-88392000D03*
D17*
X93345000Y-88392000D03*
D19*
X100076000Y-130537500D03*
X100076000Y-135037500D03*
X93576000Y-130537500D03*
X93576000Y-135037500D03*
X108435000Y-135037500D03*
X108435000Y-130537500D03*
X114935000Y-135037500D03*
X114935000Y-130537500D03*
D20*
X110236000Y-66421000D03*
D18*
X110236000Y-96901000D03*
X101981000Y-96901000D03*
D20*
X101981000Y-66421000D03*
D10*
X79248000Y-82423000D03*
D11*
X71628000Y-82423000D03*
D13*
X76708000Y-77089000D03*
D12*
X74168000Y-77089000D03*
D20*
X105791000Y-66421000D03*
D18*
X105791000Y-96901000D03*
X114046000Y-96901000D03*
D20*
X114046000Y-66421000D03*
D13*
X116332000Y-106045000D03*
D12*
X116332000Y-103505000D03*
D21*
X81862000Y-97155000D03*
X83947000Y-97155000D03*
X74422000Y-94234000D03*
X76507000Y-94234000D03*
X94442290Y-121807952D03*
X92357290Y-121807952D03*
D22*
X77851000Y-69723000D03*
D23*
X72771000Y-69723000D03*
D24*
X114808000Y-115062000D03*
D25*
X114808000Y-120142000D03*
D26*
X113538000Y-127788500D03*
X113538000Y-125703500D03*
X103759000Y-127862500D03*
X103759000Y-129947500D03*
D27*
X70358000Y-77602000D03*
X70358000Y-75692000D03*
D26*
X80772000Y-75639000D03*
X80772000Y-77724000D03*
D27*
X110934500Y-106050000D03*
X110934500Y-104140000D03*
D26*
X110934500Y-100150000D03*
X110934500Y-102235000D03*
D28*
X88646000Y-132715000D03*
D29*
X87376000Y-132715000D03*
X86106000Y-132715000D03*
X84836000Y-132715000D03*
D10*
X107315000Y-102743000D03*
D11*
X99695000Y-100203000D03*
X107315000Y-100203000D03*
X99695000Y-102743000D03*
D13*
X69342000Y-134620000D03*
D12*
X71882000Y-134620000D03*
X74422000Y-134620000D03*
X76962000Y-134620000D03*
X79502000Y-134620000D03*
X82042000Y-134620000D03*
D21*
X76835000Y-130937000D03*
X74750000Y-130937000D03*
X79576000Y-131064000D03*
X81661000Y-131064000D03*
D13*
X69215000Y-130810000D03*
D12*
X71755000Y-130810000D03*
D13*
X69469000Y-97917000D03*
D12*
X72009000Y-97917000D03*
D30*
X90169631Y-112561793D03*
D31*
G36*
X89234482Y-112687304D02*
X90295142Y-111626644D01*
X91104780Y-112436282D01*
X90044120Y-113496942D01*
X89234482Y-112687304D01*
X89234482Y-112687304D01*
G37*
D30*
X91643949Y-114036111D03*
D31*
G36*
X90708800Y-114161622D02*
X91769460Y-113100962D01*
X92579098Y-113910600D01*
X91518438Y-114971260D01*
X90708800Y-114161622D01*
X90708800Y-114161622D01*
G37*
D21*
X79904290Y-122315952D03*
X77819290Y-122315952D03*
D32*
X89922893Y-116464647D03*
D31*
G36*
X90294124Y-115704507D02*
X90683033Y-116093416D01*
X89551662Y-117224787D01*
X89162753Y-116835878D01*
X90294124Y-115704507D01*
X90294124Y-115704507D01*
G37*
D32*
X89357207Y-115898962D03*
D31*
G36*
X89728438Y-115138822D02*
X90117347Y-115527731D01*
X88985976Y-116659102D01*
X88597067Y-116270193D01*
X89728438Y-115138822D01*
X89728438Y-115138822D01*
G37*
D32*
X88791522Y-115333276D03*
D31*
G36*
X89162753Y-114573136D02*
X89551662Y-114962045D01*
X88420291Y-116093416D01*
X88031382Y-115704507D01*
X89162753Y-114573136D01*
X89162753Y-114573136D01*
G37*
D32*
X88225837Y-114767591D03*
D31*
G36*
X88597068Y-114007451D02*
X88985977Y-114396360D01*
X87854606Y-115527731D01*
X87465697Y-115138822D01*
X88597068Y-114007451D01*
X88597068Y-114007451D01*
G37*
D32*
X87660151Y-114201905D03*
D31*
G36*
X88031382Y-113441765D02*
X88420291Y-113830674D01*
X87288920Y-114962045D01*
X86900011Y-114573136D01*
X88031382Y-113441765D01*
X88031382Y-113441765D01*
G37*
D32*
X87094466Y-113636220D03*
D31*
G36*
X87465697Y-112876080D02*
X87854606Y-113264989D01*
X86723235Y-114396360D01*
X86334326Y-114007451D01*
X87465697Y-112876080D01*
X87465697Y-112876080D01*
G37*
D32*
X86528780Y-113070535D03*
D31*
G36*
X86900011Y-112310395D02*
X87288920Y-112699304D01*
X86157549Y-113830675D01*
X85768640Y-113441766D01*
X86900011Y-112310395D01*
X86900011Y-112310395D01*
G37*
D32*
X85963095Y-112504849D03*
D31*
G36*
X86334326Y-111744709D02*
X86723235Y-112133618D01*
X85591864Y-113264989D01*
X85202955Y-112876080D01*
X86334326Y-111744709D01*
X86334326Y-111744709D01*
G37*
D32*
X83912485Y-112504849D03*
D31*
G36*
X83152345Y-112133618D02*
X83541254Y-111744709D01*
X84672625Y-112876080D01*
X84283716Y-113264989D01*
X83152345Y-112133618D01*
X83152345Y-112133618D01*
G37*
D32*
X83346800Y-113070535D03*
D31*
G36*
X82586660Y-112699304D02*
X82975569Y-112310395D01*
X84106940Y-113441766D01*
X83718031Y-113830675D01*
X82586660Y-112699304D01*
X82586660Y-112699304D01*
G37*
D32*
X82781114Y-113636220D03*
D31*
G36*
X82020974Y-113264989D02*
X82409883Y-112876080D01*
X83541254Y-114007451D01*
X83152345Y-114396360D01*
X82020974Y-113264989D01*
X82020974Y-113264989D01*
G37*
D32*
X82215429Y-114201905D03*
D31*
G36*
X81455289Y-113830674D02*
X81844198Y-113441765D01*
X82975569Y-114573136D01*
X82586660Y-114962045D01*
X81455289Y-113830674D01*
X81455289Y-113830674D01*
G37*
D32*
X81649743Y-114767591D03*
D31*
G36*
X80889603Y-114396360D02*
X81278512Y-114007451D01*
X82409883Y-115138822D01*
X82020974Y-115527731D01*
X80889603Y-114396360D01*
X80889603Y-114396360D01*
G37*
D32*
X81084058Y-115333276D03*
D31*
G36*
X80323918Y-114962045D02*
X80712827Y-114573136D01*
X81844198Y-115704507D01*
X81455289Y-116093416D01*
X80323918Y-114962045D01*
X80323918Y-114962045D01*
G37*
D32*
X80518373Y-115898962D03*
D31*
G36*
X79758233Y-115527731D02*
X80147142Y-115138822D01*
X81278513Y-116270193D01*
X80889604Y-116659102D01*
X79758233Y-115527731D01*
X79758233Y-115527731D01*
G37*
D32*
X79952687Y-116464647D03*
D31*
G36*
X79192547Y-116093416D02*
X79581456Y-115704507D01*
X80712827Y-116835878D01*
X80323918Y-117224787D01*
X79192547Y-116093416D01*
X79192547Y-116093416D01*
G37*
D32*
X79952687Y-118515257D03*
D31*
G36*
X80323918Y-117755117D02*
X80712827Y-118144026D01*
X79581456Y-119275397D01*
X79192547Y-118886488D01*
X80323918Y-117755117D01*
X80323918Y-117755117D01*
G37*
D32*
X80518373Y-119080942D03*
D31*
G36*
X80889604Y-118320802D02*
X81278513Y-118709711D01*
X80147142Y-119841082D01*
X79758233Y-119452173D01*
X80889604Y-118320802D01*
X80889604Y-118320802D01*
G37*
D32*
X81084058Y-119646628D03*
D31*
G36*
X81455289Y-118886488D02*
X81844198Y-119275397D01*
X80712827Y-120406768D01*
X80323918Y-120017859D01*
X81455289Y-118886488D01*
X81455289Y-118886488D01*
G37*
D32*
X81649743Y-120212313D03*
D31*
G36*
X82020974Y-119452173D02*
X82409883Y-119841082D01*
X81278512Y-120972453D01*
X80889603Y-120583544D01*
X82020974Y-119452173D01*
X82020974Y-119452173D01*
G37*
D32*
X82215429Y-120777999D03*
D31*
G36*
X82586660Y-120017859D02*
X82975569Y-120406768D01*
X81844198Y-121538139D01*
X81455289Y-121149230D01*
X82586660Y-120017859D01*
X82586660Y-120017859D01*
G37*
D32*
X82781114Y-121343684D03*
D31*
G36*
X83152345Y-120583544D02*
X83541254Y-120972453D01*
X82409883Y-122103824D01*
X82020974Y-121714915D01*
X83152345Y-120583544D01*
X83152345Y-120583544D01*
G37*
D32*
X83346800Y-121909369D03*
D31*
G36*
X83718031Y-121149229D02*
X84106940Y-121538138D01*
X82975569Y-122669509D01*
X82586660Y-122280600D01*
X83718031Y-121149229D01*
X83718031Y-121149229D01*
G37*
D32*
X83912485Y-122475055D03*
D31*
G36*
X84283716Y-121714915D02*
X84672625Y-122103824D01*
X83541254Y-123235195D01*
X83152345Y-122846286D01*
X84283716Y-121714915D01*
X84283716Y-121714915D01*
G37*
D32*
X85963095Y-122475055D03*
D31*
G36*
X85202955Y-122103824D02*
X85591864Y-121714915D01*
X86723235Y-122846286D01*
X86334326Y-123235195D01*
X85202955Y-122103824D01*
X85202955Y-122103824D01*
G37*
D32*
X86528780Y-121909369D03*
D31*
G36*
X85768640Y-121538138D02*
X86157549Y-121149229D01*
X87288920Y-122280600D01*
X86900011Y-122669509D01*
X85768640Y-121538138D01*
X85768640Y-121538138D01*
G37*
D32*
X87094466Y-121343684D03*
D31*
G36*
X86334326Y-120972453D02*
X86723235Y-120583544D01*
X87854606Y-121714915D01*
X87465697Y-122103824D01*
X86334326Y-120972453D01*
X86334326Y-120972453D01*
G37*
D32*
X87660151Y-120777999D03*
D31*
G36*
X86900011Y-120406768D02*
X87288920Y-120017859D01*
X88420291Y-121149230D01*
X88031382Y-121538139D01*
X86900011Y-120406768D01*
X86900011Y-120406768D01*
G37*
D32*
X88225837Y-120212313D03*
D31*
G36*
X87465697Y-119841082D02*
X87854606Y-119452173D01*
X88985977Y-120583544D01*
X88597068Y-120972453D01*
X87465697Y-119841082D01*
X87465697Y-119841082D01*
G37*
D32*
X88791522Y-119646628D03*
D31*
G36*
X88031382Y-119275397D02*
X88420291Y-118886488D01*
X89551662Y-120017859D01*
X89162753Y-120406768D01*
X88031382Y-119275397D01*
X88031382Y-119275397D01*
G37*
D32*
X89357207Y-119080942D03*
D31*
G36*
X88597067Y-118709711D02*
X88985976Y-118320802D01*
X90117347Y-119452173D01*
X89728438Y-119841082D01*
X88597067Y-118709711D01*
X88597067Y-118709711D01*
G37*
D32*
X89922893Y-118515257D03*
D31*
G36*
X89162753Y-118144026D02*
X89551662Y-117755117D01*
X90683033Y-118886488D01*
X90294124Y-119275397D01*
X89162753Y-118144026D01*
X89162753Y-118144026D01*
G37*
D33*
X96875790Y-115838952D03*
X101346000Y-108712000D03*
X89128790Y-121680952D03*
X79576000Y-131064000D03*
X85177955Y-121022797D03*
X103759000Y-127862500D03*
X100685790Y-120283952D03*
X80111790Y-122315952D03*
X103759000Y-129947500D03*
X110934500Y-106050000D03*
X69469000Y-90932000D03*
X69469000Y-86106000D03*
X70866000Y-66421000D03*
X82550000Y-66294000D03*
X95504000Y-66294000D03*
X100203000Y-70739000D03*
X114427000Y-70739000D03*
X115443000Y-92329000D03*
X101219000Y-92456000D03*
X69215000Y-107696000D03*
X76507000Y-94234000D03*
X83907459Y-119062964D03*
X94716784Y-112409958D03*
X94749790Y-121807952D03*
X107569000Y-105664000D03*
X76200000Y-103505000D03*
X74422000Y-96589002D03*
X84219250Y-113881172D03*
X89482000Y-104013000D03*
X83900850Y-114838586D03*
X85191790Y-115076952D03*
X90496805Y-115099443D03*
X91292254Y-115705483D03*
X98272790Y-120410952D03*
X90193894Y-121039664D03*
X99094898Y-119692030D03*
X91160782Y-126746000D03*
X85598000Y-126619000D03*
X91202985Y-119955538D03*
X85699790Y-115965952D03*
X91414788Y-117155494D03*
X101447790Y-118505952D03*
X84810790Y-116727952D03*
X92476100Y-117816617D03*
X93192786Y-118632952D03*
X83108658Y-116261765D03*
X81862000Y-97155000D03*
X94869000Y-92583000D03*
X91821000Y-92583000D03*
X76962000Y-90424000D03*
X74422000Y-94234000D03*
X80772000Y-75639000D03*
X70358000Y-75692000D03*
D34*
X101745999Y-108312001D02*
X107315000Y-102743000D01*
X101346000Y-108712000D02*
X101745999Y-108312001D01*
D35*
X96284258Y-116430484D02*
X96475791Y-116238951D01*
X91020256Y-116430484D02*
X96284258Y-116430484D01*
X89922893Y-117527847D02*
X91020256Y-116430484D01*
X89922893Y-118515257D02*
X89922893Y-117527847D01*
X96475791Y-116238951D02*
X96875790Y-115838952D01*
X88225837Y-120212313D02*
X89186476Y-121172952D01*
X89128790Y-121680952D02*
X89186476Y-121623266D01*
X89186476Y-121623266D02*
X89186476Y-121172952D01*
D34*
X102717790Y-109869952D02*
X105892790Y-113044952D01*
X105892790Y-113044952D02*
X105892790Y-115330952D01*
D35*
X96240790Y-120537952D02*
X96897836Y-121194998D01*
X98802836Y-121194998D02*
X101917791Y-124309953D01*
X92938790Y-120537952D02*
X96240790Y-120537952D01*
X96897836Y-121194998D02*
X98802836Y-121194998D01*
X101917791Y-124309953D02*
X102717790Y-125109952D01*
X91668790Y-121807952D02*
X92938790Y-120537952D01*
X89186476Y-121172952D02*
X89821476Y-121807952D01*
X89821476Y-121807952D02*
X90297000Y-121807952D01*
X90297000Y-121807952D02*
X92357290Y-121807952D01*
X90297000Y-121807952D02*
X91668790Y-121807952D01*
X92557790Y-125109952D02*
X89853791Y-122405953D01*
X88296546Y-121414394D02*
X87660151Y-120777999D01*
X88403789Y-121521637D02*
X88296546Y-121414394D01*
X88403789Y-122028953D02*
X88403789Y-121521637D01*
X88780789Y-122405953D02*
X88403789Y-122028953D01*
X89853791Y-122405953D02*
X88780789Y-122405953D01*
X87953778Y-122202996D02*
X87730861Y-121980079D01*
X87730861Y-121980079D02*
X87094466Y-121343684D01*
X90017790Y-125109952D02*
X87953778Y-123045940D01*
X87953778Y-123045940D02*
X87953778Y-122202996D01*
X90017790Y-125109952D02*
X90017790Y-124982952D01*
X87477790Y-125109952D02*
X87477790Y-122823952D01*
X87477790Y-122823952D02*
X86563207Y-121909369D01*
X86563207Y-121909369D02*
X86528780Y-121909369D01*
X87477790Y-125109952D02*
X87096790Y-125109952D01*
X84937790Y-125109952D02*
X84937790Y-123500360D01*
X84937790Y-123500360D02*
X85963095Y-122475055D01*
X82397790Y-125109952D02*
X82397790Y-123989750D01*
X82397790Y-123989750D02*
X83912485Y-122475055D01*
X82397790Y-125109952D02*
X81762790Y-125109952D01*
D34*
X76962000Y-131064000D02*
X76835000Y-130937000D01*
X79576000Y-131064000D02*
X76962000Y-131064000D01*
D35*
X79857790Y-125109952D02*
X80146217Y-125109952D01*
X80146217Y-125109952D02*
X83346800Y-121909369D01*
X79857790Y-125109952D02*
X79349790Y-125109952D01*
X83417509Y-120707289D02*
X84862447Y-120707289D01*
X82781114Y-121343684D02*
X83417509Y-120707289D01*
X84862447Y-120707289D02*
X85177955Y-121022797D01*
D36*
X103833000Y-127788500D02*
X103759000Y-127862500D01*
X113538000Y-127788500D02*
X103833000Y-127788500D01*
X105257790Y-125109952D02*
X100685790Y-120537952D01*
X100685790Y-120537952D02*
X100685790Y-120283952D01*
X102204673Y-114182835D02*
X103352790Y-115330952D01*
D34*
X83080463Y-119912965D02*
X84315460Y-119912965D01*
X84315460Y-119912965D02*
X88155127Y-116073298D01*
X88155127Y-116073298D02*
X88155127Y-115969671D01*
X82215429Y-120777999D02*
X83080463Y-119912965D01*
X88155127Y-115969671D02*
X88791522Y-115333276D01*
D36*
X100177790Y-109869952D02*
X100177790Y-112155952D01*
X100177790Y-112155952D02*
X103352790Y-115330952D01*
D34*
X80111790Y-122315952D02*
X80677476Y-122315952D01*
X80677476Y-122315952D02*
X82215429Y-120777999D01*
X80111790Y-122315952D02*
X79986790Y-122315952D01*
D35*
X82215429Y-120777999D02*
X82498255Y-120777999D01*
X80111790Y-122315952D02*
X80236790Y-122315952D01*
D34*
X108446370Y-100203000D02*
X107315000Y-100203000D01*
X110934500Y-106050000D02*
X109684500Y-106050000D01*
X109081370Y-105446870D02*
X109081370Y-100838000D01*
X109684500Y-106050000D02*
X109081370Y-105446870D01*
X109081370Y-100838000D02*
X108446370Y-100203000D01*
D36*
X100177790Y-108738582D02*
X100177790Y-109869952D01*
X100177790Y-106042786D02*
X100177790Y-108738582D01*
X95862004Y-101727000D02*
X100177790Y-106042786D01*
X94107000Y-101727000D02*
X95862004Y-101727000D01*
D34*
X82733500Y-131064000D02*
X83185000Y-131515500D01*
X81661000Y-131064000D02*
X82733500Y-131064000D01*
X83185000Y-131515500D02*
X83185000Y-133731000D01*
X83185000Y-133731000D02*
X84201000Y-134747000D01*
X84201000Y-134747000D02*
X86995000Y-134747000D01*
X87376000Y-134366000D02*
X87376000Y-132715000D01*
X86995000Y-134747000D02*
X87376000Y-134366000D01*
X69469000Y-90932000D02*
X69469000Y-86106000D01*
X82423000Y-66421000D02*
X82550000Y-66294000D01*
X70866000Y-66421000D02*
X82423000Y-66421000D01*
X100203000Y-70739000D02*
X114427000Y-70739000D01*
X69215000Y-91186000D02*
X69469000Y-90932000D01*
X69215000Y-98171000D02*
X69469000Y-97917000D01*
X69215000Y-99187000D02*
X69215000Y-98171000D01*
X69215000Y-107696000D02*
X69215000Y-99187000D01*
X69215000Y-99187000D02*
X69215000Y-91186000D01*
X87660151Y-114201905D02*
X88451056Y-113411000D01*
X88451056Y-113411000D02*
X89027000Y-113411000D01*
X89027000Y-113411000D02*
X89662000Y-114046000D01*
X89662000Y-114462798D02*
X88791522Y-115333276D01*
X89662000Y-114046000D02*
X89662000Y-114462798D01*
X91643949Y-114036111D02*
X90088687Y-114036111D01*
X90088687Y-114036111D02*
X89662000Y-114462798D01*
D36*
X91790673Y-114182835D02*
X102204673Y-114182835D01*
D35*
X81649743Y-120212313D02*
X81013348Y-120848708D01*
X81013348Y-120848708D02*
X79204034Y-120848708D01*
X79204034Y-120848708D02*
X77736790Y-122315952D01*
X77736790Y-122315952D02*
X77611790Y-122315952D01*
X77317790Y-125109952D02*
X77317790Y-122609952D01*
X77317790Y-122609952D02*
X77611790Y-122315952D01*
X77317790Y-125109952D02*
X77317790Y-124544266D01*
X77317790Y-125109952D02*
X77317790Y-124982952D01*
X81720453Y-119010233D02*
X83854728Y-119010233D01*
X83854728Y-119010233D02*
X83907459Y-119062964D01*
X81084058Y-119646628D02*
X81720453Y-119010233D01*
D36*
X94749790Y-121807952D02*
X94849790Y-121807952D01*
D34*
X84837790Y-118212954D02*
X81386361Y-118212954D01*
X81154768Y-118444547D02*
X80518373Y-119080942D01*
X86900476Y-116150268D02*
X84837790Y-118212954D01*
X81386361Y-118212954D02*
X81154768Y-118444547D01*
X86900476Y-116092952D02*
X86900476Y-116150268D01*
X87094466Y-113636220D02*
X88315617Y-112415069D01*
X88315617Y-112415069D02*
X90022907Y-112415069D01*
X86900476Y-116092952D02*
X86900476Y-115769638D01*
X86900476Y-115769638D02*
X86207790Y-115076952D01*
X88225837Y-114767591D02*
X86900476Y-116092952D01*
X86207790Y-115076952D02*
X86542893Y-115412055D01*
X86542893Y-115412055D02*
X87581373Y-115412055D01*
X87581373Y-115412055D02*
X87589442Y-115403986D01*
X87589442Y-115403986D02*
X88225837Y-114767591D01*
X86207790Y-114522896D02*
X86207790Y-115076952D01*
X87094466Y-113636220D02*
X86207790Y-114522896D01*
D36*
X104202789Y-121260951D02*
X103352790Y-120410952D01*
X109855000Y-107950000D02*
X109855000Y-111506000D01*
X109855000Y-111506000D02*
X108585000Y-112776000D01*
X108585000Y-112776000D02*
X108585000Y-122555000D01*
X108585000Y-122555000D02*
X105076836Y-122555000D01*
X105076836Y-122555000D02*
X104202789Y-121680953D01*
X104202789Y-121680953D02*
X104202789Y-121260951D01*
X109855000Y-107950000D02*
X108077000Y-106172000D01*
X108077000Y-106172000D02*
X107569000Y-105664000D01*
X97282000Y-130810000D02*
X97282000Y-129413000D01*
X95123000Y-132969000D02*
X97282000Y-130810000D01*
X92414501Y-132969000D02*
X95123000Y-132969000D01*
X88646000Y-136737501D02*
X92414501Y-132969000D01*
X97282000Y-129413000D02*
X100177790Y-126517210D01*
X75337420Y-136737501D02*
X88646000Y-136737501D01*
X74422000Y-135822081D02*
X75337420Y-136737501D01*
X100177790Y-126517210D02*
X100177790Y-125109952D01*
X74422000Y-134620000D02*
X74422000Y-135822081D01*
X76200000Y-102108000D02*
X72009000Y-97917000D01*
X76200000Y-103505000D02*
X76200000Y-102108000D01*
D34*
X88315617Y-112415069D02*
X88371931Y-112415069D01*
X88168893Y-112561793D02*
X87094466Y-113636220D01*
X90169631Y-112561793D02*
X88168893Y-112561793D01*
D36*
X90169631Y-112561793D02*
X90971424Y-111760000D01*
X94066826Y-111760000D02*
X94716784Y-112409958D01*
X90971424Y-111760000D02*
X94066826Y-111760000D01*
D35*
X77317790Y-109869952D02*
X77317790Y-111567008D01*
X77317790Y-111567008D02*
X81084058Y-115333276D01*
X77317790Y-109869952D02*
X77063790Y-109869952D01*
D34*
X70600002Y-107569000D02*
X75016838Y-107569000D01*
X68961000Y-128397000D02*
X68961000Y-109208002D01*
X75016838Y-107569000D02*
X77317790Y-109869952D01*
X68961000Y-109208002D02*
X70600002Y-107569000D01*
X84836000Y-131315000D02*
X82553000Y-129032000D01*
X84836000Y-132715000D02*
X84836000Y-131315000D01*
X69596000Y-129032000D02*
X68961000Y-128397000D01*
X82553000Y-129032000D02*
X69596000Y-129032000D01*
D35*
X79857790Y-109869952D02*
X79857790Y-112975638D01*
X79857790Y-112975638D02*
X81649743Y-114767591D01*
D34*
X79857790Y-108738582D02*
X79883000Y-108713372D01*
X79857790Y-109869952D02*
X79857790Y-108738582D01*
X77654998Y-99879998D02*
X79883000Y-102108000D01*
X77654998Y-99822000D02*
X77654998Y-99879998D01*
X77654998Y-99822000D02*
X74422000Y-96589002D01*
X79883000Y-108713372D02*
X79883000Y-102108000D01*
D35*
X82397790Y-109869952D02*
X82397790Y-110377952D01*
X82397790Y-110377952D02*
X80619790Y-112155952D01*
X80619790Y-112155952D02*
X80619790Y-112606266D01*
X80619790Y-112606266D02*
X82215429Y-114201905D01*
X84937790Y-109869952D02*
X84429790Y-109869952D01*
X84429790Y-109869952D02*
X81889790Y-112409952D01*
X81889790Y-112409952D02*
X81889790Y-112744896D01*
X81889790Y-112744896D02*
X82781114Y-113636220D01*
X83346800Y-113070535D02*
X84157437Y-113881172D01*
X84157437Y-113881172D02*
X84219250Y-113881172D01*
X83912485Y-112504849D02*
X84080893Y-112504849D01*
X84080893Y-112504849D02*
X85191790Y-111393952D01*
X85191790Y-111393952D02*
X88493790Y-111393952D01*
X88493790Y-111393952D02*
X90017790Y-109869952D01*
D36*
X90017790Y-109869952D02*
X90017790Y-104548790D01*
X90017790Y-104548790D02*
X89482000Y-104013000D01*
D35*
X84357154Y-114838586D02*
X83900850Y-114838586D01*
X85141778Y-113326166D02*
X85141778Y-114053962D01*
X85141778Y-114053962D02*
X84357154Y-114838586D01*
X85963095Y-112504849D02*
X85141778Y-113326166D01*
X85191790Y-115076952D02*
X85591789Y-114676953D01*
X85591789Y-114676953D02*
X85591789Y-114007526D01*
X85591789Y-114007526D02*
X85892385Y-113706930D01*
X85892385Y-113706930D02*
X86528780Y-113070535D01*
D36*
X92557790Y-100736210D02*
X92557790Y-109869952D01*
X94107000Y-99187000D02*
X92557790Y-100736210D01*
D35*
X89357207Y-115898962D02*
X90156726Y-115099443D01*
X90156726Y-115099443D02*
X90496805Y-115099443D01*
X91173292Y-115824445D02*
X91292254Y-115705483D01*
X91169485Y-115828252D02*
X91173292Y-115824445D01*
X90559288Y-115828252D02*
X91169485Y-115828252D01*
X89922893Y-116464647D02*
X90559288Y-115828252D01*
X90184558Y-121039664D02*
X90193894Y-121039664D01*
X88791522Y-119646628D02*
X90184558Y-121039664D01*
X91154812Y-121039664D02*
X92183523Y-120010953D01*
X92183523Y-120010953D02*
X97872791Y-120010953D01*
X90193894Y-121039664D02*
X91154812Y-121039664D01*
X97872791Y-120010953D02*
X98272790Y-120410952D01*
X91160782Y-126746000D02*
X85725000Y-126746000D01*
X85725000Y-126746000D02*
X85598000Y-126619000D01*
X90637300Y-119955538D02*
X91202985Y-119955538D01*
X98351839Y-119514656D02*
X91643867Y-119514656D01*
X91643867Y-119514656D02*
X91602984Y-119555539D01*
X91602984Y-119555539D02*
X91202985Y-119955538D01*
X90231803Y-119955538D02*
X90637300Y-119955538D01*
X98529213Y-119692030D02*
X98351839Y-119514656D01*
X99094898Y-119692030D02*
X98529213Y-119692030D01*
X89357207Y-119080942D02*
X90231803Y-119955538D01*
X81762064Y-116535357D02*
X82760657Y-115536764D01*
X83885847Y-115965952D02*
X85134105Y-115965952D01*
X82760657Y-115536764D02*
X83456659Y-115536764D01*
X85134105Y-115965952D02*
X85699790Y-115965952D01*
X81154768Y-116535357D02*
X81762064Y-116535357D01*
X83456659Y-115536764D02*
X83885847Y-115965952D01*
X80518373Y-115898962D02*
X81154768Y-116535357D01*
X74777790Y-109869952D02*
X74777790Y-110158379D01*
X74777790Y-110158379D02*
X80518373Y-115898962D01*
D34*
X69723000Y-109435967D02*
X70827967Y-108331000D01*
X69723000Y-127635000D02*
X69723000Y-109435967D01*
X70827967Y-108331000D02*
X73238838Y-108331000D01*
X73238838Y-108331000D02*
X74777790Y-109869952D01*
X86106000Y-131315000D02*
X83061000Y-128270000D01*
X86106000Y-132715000D02*
X86106000Y-131315000D01*
X70358000Y-128270000D02*
X69723000Y-127635000D01*
X83061000Y-128270000D02*
X70358000Y-128270000D01*
D35*
X92824102Y-117091615D02*
X92044352Y-117091615D01*
X101388709Y-117108952D02*
X92841439Y-117108952D01*
X103352790Y-117870952D02*
X102150709Y-117870952D01*
X102150709Y-117870952D02*
X101388709Y-117108952D01*
X92044352Y-117091615D02*
X91980473Y-117155494D01*
X91980473Y-117155494D02*
X91414788Y-117155494D01*
X92841439Y-117108952D02*
X92824102Y-117091615D01*
X83032790Y-117362952D02*
X83667790Y-116727952D01*
X83667790Y-116727952D02*
X84810790Y-116727952D01*
X79952687Y-118515257D02*
X80235514Y-118515257D01*
X81112827Y-117637944D02*
X82757798Y-117637944D01*
X80235514Y-118515257D02*
X81112827Y-117637944D01*
X82757798Y-117637944D02*
X83032790Y-117362952D01*
X72237790Y-124855952D02*
X78460790Y-118632952D01*
X72237790Y-125109952D02*
X72237790Y-124855952D01*
X78578485Y-118515257D02*
X78460790Y-118632952D01*
X78578485Y-118515257D02*
X79952687Y-118515257D01*
X72237790Y-125109952D02*
X72237790Y-124982952D01*
X101447790Y-118505952D02*
X100758455Y-117816617D01*
X93041785Y-117816617D02*
X92476100Y-117816617D01*
X100758455Y-117816617D02*
X93041785Y-117816617D01*
X99749559Y-119300951D02*
X99081560Y-118632952D01*
X93758471Y-118632952D02*
X93192786Y-118632952D01*
X105741789Y-119159951D02*
X101993793Y-119159951D01*
X99081560Y-118632952D02*
X93758471Y-118632952D01*
X101852793Y-119300951D02*
X99749559Y-119300951D01*
X105892790Y-120410952D02*
X105892790Y-119310952D01*
X101993793Y-119159951D02*
X101852793Y-119300951D01*
X105892790Y-119310952D02*
X105741789Y-119159951D01*
X79952687Y-116464647D02*
X80589082Y-117101042D01*
X80589082Y-117101042D02*
X82269381Y-117101042D01*
X82708659Y-116661764D02*
X83108658Y-116261765D01*
X82269381Y-117101042D02*
X82708659Y-116661764D01*
X72237790Y-109869952D02*
X72237790Y-110123952D01*
X72237790Y-110123952D02*
X75031790Y-112917952D01*
X75031790Y-112917952D02*
X76405992Y-112917952D01*
X76405992Y-112917952D02*
X79952687Y-116464647D01*
D34*
X70474742Y-126934989D02*
X70474742Y-111633000D01*
X71437791Y-110669951D02*
X72237790Y-109869952D01*
X70474742Y-111633000D02*
X71437791Y-110669951D01*
X88646000Y-131315000D02*
X84839000Y-127508000D01*
X88646000Y-132715000D02*
X88646000Y-131315000D01*
X71047753Y-127508000D02*
X70474742Y-126934989D01*
X84839000Y-127508000D02*
X71047753Y-127508000D01*
D37*
X72771000Y-75692000D02*
X74168000Y-77089000D01*
X72771000Y-69723000D02*
X72771000Y-75692000D01*
X75565000Y-86360000D02*
X71628000Y-82423000D01*
X75565000Y-88392000D02*
X75565000Y-86360000D01*
D36*
X75565000Y-90858000D02*
X76581000Y-91874000D01*
X81862000Y-97155000D02*
X81862000Y-95405000D01*
X81862000Y-95405000D02*
X78331000Y-91874000D01*
X78331000Y-91874000D02*
X76581000Y-91874000D01*
X75565000Y-88392000D02*
X75565000Y-90858000D01*
D37*
X74168000Y-79883000D02*
X71628000Y-82423000D01*
X74168000Y-77089000D02*
X74168000Y-79883000D01*
D35*
X70871000Y-77089000D02*
X70358000Y-77602000D01*
X74168000Y-77089000D02*
X70871000Y-77089000D01*
D37*
X114808000Y-115062000D02*
X114808000Y-110363000D01*
X114808000Y-110363000D02*
X113665000Y-109220000D01*
X115129919Y-103505000D02*
X116332000Y-103505000D01*
X113665000Y-104969919D02*
X115129919Y-103505000D01*
X113665000Y-109220000D02*
X113665000Y-104969919D01*
X101981000Y-96901000D02*
X105791000Y-96901000D01*
X105791000Y-96901000D02*
X110236000Y-96901000D01*
X110236000Y-96901000D02*
X114046000Y-96901000D01*
D34*
X112977000Y-100150000D02*
X116332000Y-103505000D01*
X110934500Y-100150000D02*
X112977000Y-100150000D01*
D36*
X113538000Y-124131000D02*
X111506000Y-122099000D01*
X113538000Y-125703500D02*
X113538000Y-124131000D01*
X113908000Y-115062000D02*
X114808000Y-115062000D01*
X111506000Y-117464000D02*
X113908000Y-115062000D01*
X111506000Y-122099000D02*
X111506000Y-117464000D01*
D37*
X116332000Y-99187000D02*
X114046000Y-96901000D01*
X116332000Y-103505000D02*
X116332000Y-99187000D01*
D36*
X86487000Y-99187000D02*
X85979000Y-99187000D01*
X85979000Y-99187000D02*
X83947000Y-97155000D01*
D37*
X77851000Y-75946000D02*
X76708000Y-77089000D01*
X114046000Y-66421000D02*
X110236000Y-66421000D01*
X110236000Y-66421000D02*
X105791000Y-66421000D01*
X105791000Y-66421000D02*
X101981000Y-66421000D01*
X99441000Y-66421000D02*
X93345000Y-72517000D01*
X101981000Y-66421000D02*
X99441000Y-66421000D01*
X93091000Y-82423000D02*
X93345000Y-82169000D01*
X79248000Y-82423000D02*
X93091000Y-82423000D01*
X93345000Y-82169000D02*
X93345000Y-88392000D01*
X93345000Y-72517000D02*
X93345000Y-82169000D01*
D34*
X77851000Y-73152000D02*
X77851000Y-73279000D01*
D37*
X77851000Y-73279000D02*
X77851000Y-75946000D01*
X77851000Y-69723000D02*
X77851000Y-73152000D01*
X77851000Y-69723000D02*
X77851000Y-73279000D01*
X79248000Y-82423000D02*
X79248000Y-79629000D01*
X77851000Y-73152000D02*
X77851000Y-78232000D01*
X77851000Y-78232000D02*
X79248000Y-79629000D01*
X79248000Y-79629000D02*
X76708000Y-77089000D01*
D36*
X93345000Y-88392000D02*
X93345000Y-94488000D01*
X87618370Y-101727000D02*
X93345000Y-96000370D01*
X86487000Y-101727000D02*
X87618370Y-101727000D01*
X93345000Y-96000370D02*
X93345000Y-94488000D01*
D34*
X79248000Y-79070500D02*
X79248000Y-79629000D01*
X80594500Y-77724000D02*
X79248000Y-79070500D01*
X80772000Y-77724000D02*
X80594500Y-77724000D01*
X110934500Y-104140000D02*
X110934500Y-102235000D01*
X99695000Y-97409000D02*
X94869000Y-92583000D01*
X99695000Y-100203000D02*
X99695000Y-97409000D01*
X91821000Y-92583000D02*
X91255315Y-92583000D01*
X91255315Y-92583000D02*
X81407000Y-92583000D01*
X79248000Y-90424000D02*
X76962000Y-90424000D01*
X81407000Y-92583000D02*
X79248000Y-90424000D01*
X73349500Y-94234000D02*
X73025000Y-93909500D01*
X74422000Y-94234000D02*
X73349500Y-94234000D01*
X73003000Y-91313000D02*
X73025000Y-91313000D01*
X73025000Y-93909500D02*
X73025000Y-91313000D01*
X73025000Y-91313000D02*
X73025000Y-88392000D01*
X71882000Y-130937000D02*
X71755000Y-130810000D01*
X74750000Y-130937000D02*
X71882000Y-130937000D01*
D38*
G36*
X116459000Y-105918000D02*
X116479000Y-105918000D01*
X116479000Y-106172000D01*
X116459000Y-106172000D01*
X116459000Y-107371250D01*
X116617750Y-107530000D01*
X117308310Y-107530000D01*
X117400000Y-107492021D01*
X117400000Y-134580307D01*
X117334401Y-135165130D01*
X117154003Y-135683165D01*
X116863315Y-136148364D01*
X116476790Y-136537597D01*
X116013633Y-136831525D01*
X115496865Y-137015538D01*
X114914342Y-137085000D01*
X89903632Y-137085000D01*
X90798600Y-136190032D01*
X92603073Y-136190032D01*
X92701736Y-136456887D01*
X93311461Y-136683408D01*
X93961460Y-136659356D01*
X94450264Y-136456887D01*
X94548927Y-136190032D01*
X99103073Y-136190032D01*
X99201736Y-136456887D01*
X99811461Y-136683408D01*
X100461460Y-136659356D01*
X100950264Y-136456887D01*
X101048927Y-136190032D01*
X107462073Y-136190032D01*
X107560736Y-136456887D01*
X108170461Y-136683408D01*
X108820460Y-136659356D01*
X109309264Y-136456887D01*
X109407927Y-136190032D01*
X113962073Y-136190032D01*
X114060736Y-136456887D01*
X114670461Y-136683408D01*
X115320460Y-136659356D01*
X115809264Y-136456887D01*
X115907927Y-136190032D01*
X114935000Y-135217105D01*
X113962073Y-136190032D01*
X109407927Y-136190032D01*
X108435000Y-135217105D01*
X107462073Y-136190032D01*
X101048927Y-136190032D01*
X100076000Y-135217105D01*
X99103073Y-136190032D01*
X94548927Y-136190032D01*
X93576000Y-135217105D01*
X92603073Y-136190032D01*
X90798600Y-136190032D01*
X91940282Y-135048350D01*
X91954144Y-135422960D01*
X92156613Y-135911764D01*
X92423468Y-136010427D01*
X93396395Y-135037500D01*
X93382253Y-135023358D01*
X93561858Y-134843753D01*
X93576000Y-134857895D01*
X93590143Y-134843753D01*
X93769748Y-135023358D01*
X93755605Y-135037500D01*
X94728532Y-136010427D01*
X94995387Y-135911764D01*
X95221908Y-135302039D01*
X95202331Y-134772961D01*
X98430092Y-134772961D01*
X98454144Y-135422960D01*
X98656613Y-135911764D01*
X98923468Y-136010427D01*
X99896395Y-135037500D01*
X100255605Y-135037500D01*
X101228532Y-136010427D01*
X101495387Y-135911764D01*
X101721908Y-135302039D01*
X101702331Y-134772961D01*
X106789092Y-134772961D01*
X106813144Y-135422960D01*
X107015613Y-135911764D01*
X107282468Y-136010427D01*
X108255395Y-135037500D01*
X108614605Y-135037500D01*
X109587532Y-136010427D01*
X109854387Y-135911764D01*
X110080908Y-135302039D01*
X110061331Y-134772961D01*
X113289092Y-134772961D01*
X113313144Y-135422960D01*
X113515613Y-135911764D01*
X113782468Y-136010427D01*
X114755395Y-135037500D01*
X115114605Y-135037500D01*
X116087532Y-136010427D01*
X116354387Y-135911764D01*
X116580908Y-135302039D01*
X116556856Y-134652040D01*
X116354387Y-134163236D01*
X116087532Y-134064573D01*
X115114605Y-135037500D01*
X114755395Y-135037500D01*
X113782468Y-134064573D01*
X113515613Y-134163236D01*
X113289092Y-134772961D01*
X110061331Y-134772961D01*
X110056856Y-134652040D01*
X109854387Y-134163236D01*
X109587532Y-134064573D01*
X108614605Y-135037500D01*
X108255395Y-135037500D01*
X107282468Y-134064573D01*
X107015613Y-134163236D01*
X106789092Y-134772961D01*
X101702331Y-134772961D01*
X101697856Y-134652040D01*
X101495387Y-134163236D01*
X101228532Y-134064573D01*
X100255605Y-135037500D01*
X99896395Y-135037500D01*
X98923468Y-134064573D01*
X98656613Y-134163236D01*
X98430092Y-134772961D01*
X95202331Y-134772961D01*
X95197856Y-134652040D01*
X94995387Y-134163236D01*
X94835171Y-134104000D01*
X95011217Y-134104000D01*
X95123000Y-134126235D01*
X95234783Y-134104000D01*
X95565855Y-134038146D01*
X95795102Y-133884968D01*
X99103073Y-133884968D01*
X100076000Y-134857895D01*
X101048927Y-133884968D01*
X107462073Y-133884968D01*
X108435000Y-134857895D01*
X109407927Y-133884968D01*
X113962073Y-133884968D01*
X114935000Y-134857895D01*
X115907927Y-133884968D01*
X115809264Y-133618113D01*
X115199539Y-133391592D01*
X114549540Y-133415644D01*
X114060736Y-133618113D01*
X113962073Y-133884968D01*
X109407927Y-133884968D01*
X109309264Y-133618113D01*
X108699539Y-133391592D01*
X108049540Y-133415644D01*
X107560736Y-133618113D01*
X107462073Y-133884968D01*
X101048927Y-133884968D01*
X100950264Y-133618113D01*
X100340539Y-133391592D01*
X99690540Y-133415644D01*
X99201736Y-133618113D01*
X99103073Y-133884968D01*
X95795102Y-133884968D01*
X95941289Y-133787289D01*
X96004613Y-133692518D01*
X98005521Y-131691611D01*
X98100289Y-131628289D01*
X98351146Y-131252855D01*
X98370549Y-131155309D01*
X98439235Y-130810001D01*
X98417000Y-130698218D01*
X98417000Y-130212278D01*
X98441000Y-130212278D01*
X98441000Y-130862722D01*
X98689914Y-131463653D01*
X99149847Y-131923586D01*
X99750778Y-132172500D01*
X100401222Y-132172500D01*
X101002153Y-131923586D01*
X101462086Y-131463653D01*
X101711000Y-130862722D01*
X101711000Y-130233250D01*
X102374000Y-130233250D01*
X102374000Y-130646309D01*
X102470673Y-130879698D01*
X102649301Y-131058327D01*
X102882690Y-131155000D01*
X103473250Y-131155000D01*
X103632000Y-130996250D01*
X103632000Y-130074500D01*
X103886000Y-130074500D01*
X103886000Y-130996250D01*
X104044750Y-131155000D01*
X104635310Y-131155000D01*
X104868699Y-131058327D01*
X105047327Y-130879698D01*
X105144000Y-130646309D01*
X105144000Y-130233250D01*
X104985250Y-130074500D01*
X103886000Y-130074500D01*
X103632000Y-130074500D01*
X102532750Y-130074500D01*
X102374000Y-130233250D01*
X101711000Y-130233250D01*
X101711000Y-130212278D01*
X101462086Y-129611347D01*
X101002153Y-129151414D01*
X100401222Y-128902500D01*
X99750778Y-128902500D01*
X99149847Y-129151414D01*
X98689914Y-129611347D01*
X98441000Y-130212278D01*
X98417000Y-130212278D01*
X98417000Y-129883131D01*
X100901314Y-127398819D01*
X100996079Y-127335499D01*
X101246936Y-126960065D01*
X101312790Y-126628993D01*
X101312790Y-126628992D01*
X101335025Y-126517211D01*
X101312790Y-126405429D01*
X101312790Y-125994235D01*
X101447790Y-125792194D01*
X101683213Y-126144529D01*
X102157881Y-126461692D01*
X102576457Y-126544952D01*
X102859123Y-126544952D01*
X103277699Y-126461692D01*
X103752367Y-126144529D01*
X104008737Y-125760844D01*
X104105401Y-125965086D01*
X104520367Y-126340993D01*
X104908751Y-126501856D01*
X105130790Y-126379867D01*
X105130790Y-125236952D01*
X105110790Y-125236952D01*
X105110790Y-124982952D01*
X105130790Y-124982952D01*
X105130790Y-124962952D01*
X105384790Y-124962952D01*
X105384790Y-124982952D01*
X105404790Y-124982952D01*
X105404790Y-125236952D01*
X105384790Y-125236952D01*
X105384790Y-126379867D01*
X105606829Y-126501856D01*
X105995213Y-126340993D01*
X106410179Y-125965086D01*
X106506843Y-125760844D01*
X106763213Y-126144529D01*
X107237881Y-126461692D01*
X107656457Y-126544952D01*
X107939123Y-126544952D01*
X108357699Y-126461692D01*
X108832367Y-126144529D01*
X109149530Y-125669861D01*
X109260903Y-125109952D01*
X109149530Y-124550043D01*
X108832367Y-124075375D01*
X108357699Y-123758212D01*
X108014774Y-123690000D01*
X108473217Y-123690000D01*
X108585000Y-123712235D01*
X108696783Y-123690000D01*
X108826947Y-123664109D01*
X109027855Y-123624146D01*
X109403289Y-123373289D01*
X109654146Y-122997855D01*
X109669851Y-122918899D01*
X109742235Y-122555000D01*
X109720000Y-122443217D01*
X109720000Y-113246131D01*
X110578521Y-112387611D01*
X110673289Y-112324289D01*
X110924146Y-111948855D01*
X110958326Y-111777020D01*
X111012235Y-111506001D01*
X110990000Y-111394218D01*
X110990000Y-108061783D01*
X111012235Y-107950000D01*
X110924146Y-107507145D01*
X110678796Y-107139954D01*
X110807500Y-107011250D01*
X110807500Y-106177000D01*
X110787500Y-106177000D01*
X110787500Y-105923000D01*
X110807500Y-105923000D01*
X110807500Y-105903000D01*
X111061500Y-105903000D01*
X111061500Y-105923000D01*
X111081500Y-105923000D01*
X111081500Y-106177000D01*
X111061500Y-106177000D01*
X111061500Y-107011250D01*
X111220250Y-107170000D01*
X111810810Y-107170000D01*
X112030001Y-107079208D01*
X112030000Y-109058970D01*
X111997969Y-109220000D01*
X112030000Y-109381030D01*
X112124864Y-109857944D01*
X112486231Y-110398769D01*
X112622750Y-110489988D01*
X113173001Y-111040239D01*
X113173000Y-113706983D01*
X112801327Y-113955327D01*
X112462062Y-114463073D01*
X112352875Y-115011993D01*
X110782480Y-116582389D01*
X110687712Y-116645711D01*
X110555632Y-116843383D01*
X110436854Y-117021146D01*
X110348765Y-117464000D01*
X110371001Y-117575788D01*
X110371000Y-121987217D01*
X110348765Y-122099000D01*
X110407413Y-122393842D01*
X110436854Y-122541854D01*
X110687711Y-122917289D01*
X110782482Y-122980613D01*
X112403000Y-124601132D01*
X112403000Y-124624541D01*
X112330191Y-124673191D01*
X112189843Y-124883235D01*
X112140560Y-125131000D01*
X112140560Y-126276000D01*
X112189843Y-126523765D01*
X112276530Y-126653500D01*
X104564000Y-126653500D01*
X104509000Y-126642560D01*
X103889784Y-126642560D01*
X103833000Y-126631265D01*
X103776216Y-126642560D01*
X103009000Y-126642560D01*
X102761235Y-126691843D01*
X102551191Y-126832191D01*
X102410843Y-127042235D01*
X102361560Y-127290000D01*
X102361560Y-128435000D01*
X102410843Y-128682765D01*
X102551191Y-128892809D01*
X102576353Y-128909622D01*
X102470673Y-129015302D01*
X102374000Y-129248691D01*
X102374000Y-129661750D01*
X102532750Y-129820500D01*
X103632000Y-129820500D01*
X103632000Y-129800500D01*
X103886000Y-129800500D01*
X103886000Y-129820500D01*
X104985250Y-129820500D01*
X105144000Y-129661750D01*
X105144000Y-129248691D01*
X105047327Y-129015302D01*
X104955526Y-128923500D01*
X108059080Y-128923500D01*
X107508847Y-129151414D01*
X107048914Y-129611347D01*
X106800000Y-130212278D01*
X106800000Y-130862722D01*
X107048914Y-131463653D01*
X107508847Y-131923586D01*
X108109778Y-132172500D01*
X108760222Y-132172500D01*
X109361153Y-131923586D01*
X109821086Y-131463653D01*
X110070000Y-130862722D01*
X110070000Y-130212278D01*
X109821086Y-129611347D01*
X109361153Y-129151414D01*
X108810920Y-128923500D01*
X112486871Y-128923500D01*
X112540235Y-128959157D01*
X112788000Y-129008440D01*
X114288000Y-129008440D01*
X114415006Y-128983177D01*
X114008847Y-129151414D01*
X113548914Y-129611347D01*
X113300000Y-130212278D01*
X113300000Y-130862722D01*
X113548914Y-131463653D01*
X114008847Y-131923586D01*
X114609778Y-132172500D01*
X115260222Y-132172500D01*
X115861153Y-131923586D01*
X116321086Y-131463653D01*
X116570000Y-130862722D01*
X116570000Y-130212278D01*
X116321086Y-129611347D01*
X115861153Y-129151414D01*
X115260222Y-128902500D01*
X114620558Y-128902500D01*
X114745809Y-128818809D01*
X114886157Y-128608765D01*
X114935440Y-128361000D01*
X114935440Y-127216000D01*
X114886157Y-126968235D01*
X114745809Y-126758191D01*
X114727564Y-126746000D01*
X114745809Y-126733809D01*
X114886157Y-126523765D01*
X114935440Y-126276000D01*
X114935440Y-125131000D01*
X114886157Y-124883235D01*
X114745809Y-124673191D01*
X114673000Y-124624541D01*
X114673000Y-124242783D01*
X114695235Y-124131000D01*
X114607146Y-123688145D01*
X114564383Y-123624146D01*
X114356289Y-123312711D01*
X114261521Y-123249389D01*
X112641000Y-121628869D01*
X112641000Y-121573026D01*
X112648301Y-121580327D01*
X112881690Y-121677000D01*
X114522250Y-121677000D01*
X114681000Y-121518250D01*
X114681000Y-120269000D01*
X114935000Y-120269000D01*
X114935000Y-121518250D01*
X115093750Y-121677000D01*
X116734310Y-121677000D01*
X116967699Y-121580327D01*
X117146327Y-121401698D01*
X117243000Y-121168309D01*
X117243000Y-120427750D01*
X117084250Y-120269000D01*
X114935000Y-120269000D01*
X114681000Y-120269000D01*
X114661000Y-120269000D01*
X114661000Y-120015000D01*
X114681000Y-120015000D01*
X114681000Y-118765750D01*
X114935000Y-118765750D01*
X114935000Y-120015000D01*
X117084250Y-120015000D01*
X117243000Y-119856250D01*
X117243000Y-119115691D01*
X117146327Y-118882302D01*
X116967699Y-118703673D01*
X116734310Y-118607000D01*
X115093750Y-118607000D01*
X114935000Y-118765750D01*
X114681000Y-118765750D01*
X114522250Y-118607000D01*
X112881690Y-118607000D01*
X112648301Y-118703673D01*
X112641000Y-118710974D01*
X112641000Y-117934131D01*
X113978132Y-116597000D01*
X114162368Y-116597000D01*
X114170055Y-116602136D01*
X114808000Y-116729031D01*
X115445944Y-116602136D01*
X115453631Y-116597000D01*
X115859182Y-116597000D01*
X116306927Y-116507938D01*
X116814673Y-116168673D01*
X117153938Y-115660927D01*
X117273072Y-115062000D01*
X117153938Y-114463073D01*
X116814673Y-113955327D01*
X116443000Y-113706983D01*
X116443000Y-110524029D01*
X116475031Y-110362999D01*
X116435943Y-110166490D01*
X116348136Y-109725055D01*
X115986769Y-109184231D01*
X115850252Y-109093013D01*
X115300000Y-108542762D01*
X115300000Y-107506932D01*
X115355690Y-107530000D01*
X116046250Y-107530000D01*
X116205000Y-107371250D01*
X116205000Y-106172000D01*
X116185000Y-106172000D01*
X116185000Y-105918000D01*
X116205000Y-105918000D01*
X116205000Y-105898000D01*
X116459000Y-105898000D01*
X116459000Y-105918000D01*
X116459000Y-105918000D01*
G37*
X116459000Y-105918000D02*
X116479000Y-105918000D01*
X116479000Y-106172000D01*
X116459000Y-106172000D01*
X116459000Y-107371250D01*
X116617750Y-107530000D01*
X117308310Y-107530000D01*
X117400000Y-107492021D01*
X117400000Y-134580307D01*
X117334401Y-135165130D01*
X117154003Y-135683165D01*
X116863315Y-136148364D01*
X116476790Y-136537597D01*
X116013633Y-136831525D01*
X115496865Y-137015538D01*
X114914342Y-137085000D01*
X89903632Y-137085000D01*
X90798600Y-136190032D01*
X92603073Y-136190032D01*
X92701736Y-136456887D01*
X93311461Y-136683408D01*
X93961460Y-136659356D01*
X94450264Y-136456887D01*
X94548927Y-136190032D01*
X99103073Y-136190032D01*
X99201736Y-136456887D01*
X99811461Y-136683408D01*
X100461460Y-136659356D01*
X100950264Y-136456887D01*
X101048927Y-136190032D01*
X107462073Y-136190032D01*
X107560736Y-136456887D01*
X108170461Y-136683408D01*
X108820460Y-136659356D01*
X109309264Y-136456887D01*
X109407927Y-136190032D01*
X113962073Y-136190032D01*
X114060736Y-136456887D01*
X114670461Y-136683408D01*
X115320460Y-136659356D01*
X115809264Y-136456887D01*
X115907927Y-136190032D01*
X114935000Y-135217105D01*
X113962073Y-136190032D01*
X109407927Y-136190032D01*
X108435000Y-135217105D01*
X107462073Y-136190032D01*
X101048927Y-136190032D01*
X100076000Y-135217105D01*
X99103073Y-136190032D01*
X94548927Y-136190032D01*
X93576000Y-135217105D01*
X92603073Y-136190032D01*
X90798600Y-136190032D01*
X91940282Y-135048350D01*
X91954144Y-135422960D01*
X92156613Y-135911764D01*
X92423468Y-136010427D01*
X93396395Y-135037500D01*
X93382253Y-135023358D01*
X93561858Y-134843753D01*
X93576000Y-134857895D01*
X93590143Y-134843753D01*
X93769748Y-135023358D01*
X93755605Y-135037500D01*
X94728532Y-136010427D01*
X94995387Y-135911764D01*
X95221908Y-135302039D01*
X95202331Y-134772961D01*
X98430092Y-134772961D01*
X98454144Y-135422960D01*
X98656613Y-135911764D01*
X98923468Y-136010427D01*
X99896395Y-135037500D01*
X100255605Y-135037500D01*
X101228532Y-136010427D01*
X101495387Y-135911764D01*
X101721908Y-135302039D01*
X101702331Y-134772961D01*
X106789092Y-134772961D01*
X106813144Y-135422960D01*
X107015613Y-135911764D01*
X107282468Y-136010427D01*
X108255395Y-135037500D01*
X108614605Y-135037500D01*
X109587532Y-136010427D01*
X109854387Y-135911764D01*
X110080908Y-135302039D01*
X110061331Y-134772961D01*
X113289092Y-134772961D01*
X113313144Y-135422960D01*
X113515613Y-135911764D01*
X113782468Y-136010427D01*
X114755395Y-135037500D01*
X115114605Y-135037500D01*
X116087532Y-136010427D01*
X116354387Y-135911764D01*
X116580908Y-135302039D01*
X116556856Y-134652040D01*
X116354387Y-134163236D01*
X116087532Y-134064573D01*
X115114605Y-135037500D01*
X114755395Y-135037500D01*
X113782468Y-134064573D01*
X113515613Y-134163236D01*
X113289092Y-134772961D01*
X110061331Y-134772961D01*
X110056856Y-134652040D01*
X109854387Y-134163236D01*
X109587532Y-134064573D01*
X108614605Y-135037500D01*
X108255395Y-135037500D01*
X107282468Y-134064573D01*
X107015613Y-134163236D01*
X106789092Y-134772961D01*
X101702331Y-134772961D01*
X101697856Y-134652040D01*
X101495387Y-134163236D01*
X101228532Y-134064573D01*
X100255605Y-135037500D01*
X99896395Y-135037500D01*
X98923468Y-134064573D01*
X98656613Y-134163236D01*
X98430092Y-134772961D01*
X95202331Y-134772961D01*
X95197856Y-134652040D01*
X94995387Y-134163236D01*
X94835171Y-134104000D01*
X95011217Y-134104000D01*
X95123000Y-134126235D01*
X95234783Y-134104000D01*
X95565855Y-134038146D01*
X95795102Y-133884968D01*
X99103073Y-133884968D01*
X100076000Y-134857895D01*
X101048927Y-133884968D01*
X107462073Y-133884968D01*
X108435000Y-134857895D01*
X109407927Y-133884968D01*
X113962073Y-133884968D01*
X114935000Y-134857895D01*
X115907927Y-133884968D01*
X115809264Y-133618113D01*
X115199539Y-133391592D01*
X114549540Y-133415644D01*
X114060736Y-133618113D01*
X113962073Y-133884968D01*
X109407927Y-133884968D01*
X109309264Y-133618113D01*
X108699539Y-133391592D01*
X108049540Y-133415644D01*
X107560736Y-133618113D01*
X107462073Y-133884968D01*
X101048927Y-133884968D01*
X100950264Y-133618113D01*
X100340539Y-133391592D01*
X99690540Y-133415644D01*
X99201736Y-133618113D01*
X99103073Y-133884968D01*
X95795102Y-133884968D01*
X95941289Y-133787289D01*
X96004613Y-133692518D01*
X98005521Y-131691611D01*
X98100289Y-131628289D01*
X98351146Y-131252855D01*
X98370549Y-131155309D01*
X98439235Y-130810001D01*
X98417000Y-130698218D01*
X98417000Y-130212278D01*
X98441000Y-130212278D01*
X98441000Y-130862722D01*
X98689914Y-131463653D01*
X99149847Y-131923586D01*
X99750778Y-132172500D01*
X100401222Y-132172500D01*
X101002153Y-131923586D01*
X101462086Y-131463653D01*
X101711000Y-130862722D01*
X101711000Y-130233250D01*
X102374000Y-130233250D01*
X102374000Y-130646309D01*
X102470673Y-130879698D01*
X102649301Y-131058327D01*
X102882690Y-131155000D01*
X103473250Y-131155000D01*
X103632000Y-130996250D01*
X103632000Y-130074500D01*
X103886000Y-130074500D01*
X103886000Y-130996250D01*
X104044750Y-131155000D01*
X104635310Y-131155000D01*
X104868699Y-131058327D01*
X105047327Y-130879698D01*
X105144000Y-130646309D01*
X105144000Y-130233250D01*
X104985250Y-130074500D01*
X103886000Y-130074500D01*
X103632000Y-130074500D01*
X102532750Y-130074500D01*
X102374000Y-130233250D01*
X101711000Y-130233250D01*
X101711000Y-130212278D01*
X101462086Y-129611347D01*
X101002153Y-129151414D01*
X100401222Y-128902500D01*
X99750778Y-128902500D01*
X99149847Y-129151414D01*
X98689914Y-129611347D01*
X98441000Y-130212278D01*
X98417000Y-130212278D01*
X98417000Y-129883131D01*
X100901314Y-127398819D01*
X100996079Y-127335499D01*
X101246936Y-126960065D01*
X101312790Y-126628993D01*
X101312790Y-126628992D01*
X101335025Y-126517211D01*
X101312790Y-126405429D01*
X101312790Y-125994235D01*
X101447790Y-125792194D01*
X101683213Y-126144529D01*
X102157881Y-126461692D01*
X102576457Y-126544952D01*
X102859123Y-126544952D01*
X103277699Y-126461692D01*
X103752367Y-126144529D01*
X104008737Y-125760844D01*
X104105401Y-125965086D01*
X104520367Y-126340993D01*
X104908751Y-126501856D01*
X105130790Y-126379867D01*
X105130790Y-125236952D01*
X105110790Y-125236952D01*
X105110790Y-124982952D01*
X105130790Y-124982952D01*
X105130790Y-124962952D01*
X105384790Y-124962952D01*
X105384790Y-124982952D01*
X105404790Y-124982952D01*
X105404790Y-125236952D01*
X105384790Y-125236952D01*
X105384790Y-126379867D01*
X105606829Y-126501856D01*
X105995213Y-126340993D01*
X106410179Y-125965086D01*
X106506843Y-125760844D01*
X106763213Y-126144529D01*
X107237881Y-126461692D01*
X107656457Y-126544952D01*
X107939123Y-126544952D01*
X108357699Y-126461692D01*
X108832367Y-126144529D01*
X109149530Y-125669861D01*
X109260903Y-125109952D01*
X109149530Y-124550043D01*
X108832367Y-124075375D01*
X108357699Y-123758212D01*
X108014774Y-123690000D01*
X108473217Y-123690000D01*
X108585000Y-123712235D01*
X108696783Y-123690000D01*
X108826947Y-123664109D01*
X109027855Y-123624146D01*
X109403289Y-123373289D01*
X109654146Y-122997855D01*
X109669851Y-122918899D01*
X109742235Y-122555000D01*
X109720000Y-122443217D01*
X109720000Y-113246131D01*
X110578521Y-112387611D01*
X110673289Y-112324289D01*
X110924146Y-111948855D01*
X110958326Y-111777020D01*
X111012235Y-111506001D01*
X110990000Y-111394218D01*
X110990000Y-108061783D01*
X111012235Y-107950000D01*
X110924146Y-107507145D01*
X110678796Y-107139954D01*
X110807500Y-107011250D01*
X110807500Y-106177000D01*
X110787500Y-106177000D01*
X110787500Y-105923000D01*
X110807500Y-105923000D01*
X110807500Y-105903000D01*
X111061500Y-105903000D01*
X111061500Y-105923000D01*
X111081500Y-105923000D01*
X111081500Y-106177000D01*
X111061500Y-106177000D01*
X111061500Y-107011250D01*
X111220250Y-107170000D01*
X111810810Y-107170000D01*
X112030001Y-107079208D01*
X112030000Y-109058970D01*
X111997969Y-109220000D01*
X112030000Y-109381030D01*
X112124864Y-109857944D01*
X112486231Y-110398769D01*
X112622750Y-110489988D01*
X113173001Y-111040239D01*
X113173000Y-113706983D01*
X112801327Y-113955327D01*
X112462062Y-114463073D01*
X112352875Y-115011993D01*
X110782480Y-116582389D01*
X110687712Y-116645711D01*
X110555632Y-116843383D01*
X110436854Y-117021146D01*
X110348765Y-117464000D01*
X110371001Y-117575788D01*
X110371000Y-121987217D01*
X110348765Y-122099000D01*
X110407413Y-122393842D01*
X110436854Y-122541854D01*
X110687711Y-122917289D01*
X110782482Y-122980613D01*
X112403000Y-124601132D01*
X112403000Y-124624541D01*
X112330191Y-124673191D01*
X112189843Y-124883235D01*
X112140560Y-125131000D01*
X112140560Y-126276000D01*
X112189843Y-126523765D01*
X112276530Y-126653500D01*
X104564000Y-126653500D01*
X104509000Y-126642560D01*
X103889784Y-126642560D01*
X103833000Y-126631265D01*
X103776216Y-126642560D01*
X103009000Y-126642560D01*
X102761235Y-126691843D01*
X102551191Y-126832191D01*
X102410843Y-127042235D01*
X102361560Y-127290000D01*
X102361560Y-128435000D01*
X102410843Y-128682765D01*
X102551191Y-128892809D01*
X102576353Y-128909622D01*
X102470673Y-129015302D01*
X102374000Y-129248691D01*
X102374000Y-129661750D01*
X102532750Y-129820500D01*
X103632000Y-129820500D01*
X103632000Y-129800500D01*
X103886000Y-129800500D01*
X103886000Y-129820500D01*
X104985250Y-129820500D01*
X105144000Y-129661750D01*
X105144000Y-129248691D01*
X105047327Y-129015302D01*
X104955526Y-128923500D01*
X108059080Y-128923500D01*
X107508847Y-129151414D01*
X107048914Y-129611347D01*
X106800000Y-130212278D01*
X106800000Y-130862722D01*
X107048914Y-131463653D01*
X107508847Y-131923586D01*
X108109778Y-132172500D01*
X108760222Y-132172500D01*
X109361153Y-131923586D01*
X109821086Y-131463653D01*
X110070000Y-130862722D01*
X110070000Y-130212278D01*
X109821086Y-129611347D01*
X109361153Y-129151414D01*
X108810920Y-128923500D01*
X112486871Y-128923500D01*
X112540235Y-128959157D01*
X112788000Y-129008440D01*
X114288000Y-129008440D01*
X114415006Y-128983177D01*
X114008847Y-129151414D01*
X113548914Y-129611347D01*
X113300000Y-130212278D01*
X113300000Y-130862722D01*
X113548914Y-131463653D01*
X114008847Y-131923586D01*
X114609778Y-132172500D01*
X115260222Y-132172500D01*
X115861153Y-131923586D01*
X116321086Y-131463653D01*
X116570000Y-130862722D01*
X116570000Y-130212278D01*
X116321086Y-129611347D01*
X115861153Y-129151414D01*
X115260222Y-128902500D01*
X114620558Y-128902500D01*
X114745809Y-128818809D01*
X114886157Y-128608765D01*
X114935440Y-128361000D01*
X114935440Y-127216000D01*
X114886157Y-126968235D01*
X114745809Y-126758191D01*
X114727564Y-126746000D01*
X114745809Y-126733809D01*
X114886157Y-126523765D01*
X114935440Y-126276000D01*
X114935440Y-125131000D01*
X114886157Y-124883235D01*
X114745809Y-124673191D01*
X114673000Y-124624541D01*
X114673000Y-124242783D01*
X114695235Y-124131000D01*
X114607146Y-123688145D01*
X114564383Y-123624146D01*
X114356289Y-123312711D01*
X114261521Y-123249389D01*
X112641000Y-121628869D01*
X112641000Y-121573026D01*
X112648301Y-121580327D01*
X112881690Y-121677000D01*
X114522250Y-121677000D01*
X114681000Y-121518250D01*
X114681000Y-120269000D01*
X114935000Y-120269000D01*
X114935000Y-121518250D01*
X115093750Y-121677000D01*
X116734310Y-121677000D01*
X116967699Y-121580327D01*
X117146327Y-121401698D01*
X117243000Y-121168309D01*
X117243000Y-120427750D01*
X117084250Y-120269000D01*
X114935000Y-120269000D01*
X114681000Y-120269000D01*
X114661000Y-120269000D01*
X114661000Y-120015000D01*
X114681000Y-120015000D01*
X114681000Y-118765750D01*
X114935000Y-118765750D01*
X114935000Y-120015000D01*
X117084250Y-120015000D01*
X117243000Y-119856250D01*
X117243000Y-119115691D01*
X117146327Y-118882302D01*
X116967699Y-118703673D01*
X116734310Y-118607000D01*
X115093750Y-118607000D01*
X114935000Y-118765750D01*
X114681000Y-118765750D01*
X114522250Y-118607000D01*
X112881690Y-118607000D01*
X112648301Y-118703673D01*
X112641000Y-118710974D01*
X112641000Y-117934131D01*
X113978132Y-116597000D01*
X114162368Y-116597000D01*
X114170055Y-116602136D01*
X114808000Y-116729031D01*
X115445944Y-116602136D01*
X115453631Y-116597000D01*
X115859182Y-116597000D01*
X116306927Y-116507938D01*
X116814673Y-116168673D01*
X117153938Y-115660927D01*
X117273072Y-115062000D01*
X117153938Y-114463073D01*
X116814673Y-113955327D01*
X116443000Y-113706983D01*
X116443000Y-110524029D01*
X116475031Y-110362999D01*
X116435943Y-110166490D01*
X116348136Y-109725055D01*
X115986769Y-109184231D01*
X115850252Y-109093013D01*
X115300000Y-108542762D01*
X115300000Y-107506932D01*
X115355690Y-107530000D01*
X116046250Y-107530000D01*
X116205000Y-107371250D01*
X116205000Y-106172000D01*
X116185000Y-106172000D01*
X116185000Y-105918000D01*
X116205000Y-105918000D01*
X116205000Y-105898000D01*
X116459000Y-105898000D01*
X116459000Y-105918000D01*
G36*
X99042790Y-125994235D02*
X99042790Y-126047077D01*
X96558480Y-128531389D01*
X96463712Y-128594711D01*
X96212854Y-128970145D01*
X96212854Y-128970146D01*
X96124765Y-129413000D01*
X96147000Y-129524783D01*
X96147000Y-130339868D01*
X94652869Y-131834000D01*
X94591739Y-131834000D01*
X94962086Y-131463653D01*
X95211000Y-130862722D01*
X95211000Y-130212278D01*
X94962086Y-129611347D01*
X94502153Y-129151414D01*
X93901222Y-128902500D01*
X93250778Y-128902500D01*
X92649847Y-129151414D01*
X92189914Y-129611347D01*
X91941000Y-130212278D01*
X91941000Y-130862722D01*
X92189914Y-131463653D01*
X92560261Y-131834000D01*
X92526283Y-131834000D01*
X92414500Y-131811765D01*
X92068317Y-131880625D01*
X91971646Y-131899854D01*
X91596212Y-132150711D01*
X91532890Y-132245479D01*
X88175869Y-135602501D01*
X83171508Y-135602501D01*
X83440839Y-135199418D01*
X83556092Y-134620000D01*
X83440839Y-134040582D01*
X83112625Y-133549375D01*
X82621418Y-133221161D01*
X82188256Y-133135000D01*
X81895744Y-133135000D01*
X81462582Y-133221161D01*
X80971375Y-133549375D01*
X80772000Y-133847761D01*
X80572625Y-133549375D01*
X80081418Y-133221161D01*
X79648256Y-133135000D01*
X79355744Y-133135000D01*
X78922582Y-133221161D01*
X78431375Y-133549375D01*
X78232000Y-133847761D01*
X78032625Y-133549375D01*
X77541418Y-133221161D01*
X77108256Y-133135000D01*
X76815744Y-133135000D01*
X76382582Y-133221161D01*
X75891375Y-133549375D01*
X75692000Y-133847761D01*
X75492625Y-133549375D01*
X75001418Y-133221161D01*
X74568256Y-133135000D01*
X74275744Y-133135000D01*
X73842582Y-133221161D01*
X73351375Y-133549375D01*
X73152000Y-133847761D01*
X72952625Y-133549375D01*
X72461418Y-133221161D01*
X72028256Y-133135000D01*
X71735744Y-133135000D01*
X71302582Y-133221161D01*
X70811375Y-133549375D01*
X70796904Y-133571033D01*
X70730327Y-133410302D01*
X70551699Y-133231673D01*
X70318310Y-133135000D01*
X69627750Y-133135000D01*
X69469000Y-133293750D01*
X69469000Y-134493000D01*
X69489000Y-134493000D01*
X69489000Y-134747000D01*
X69469000Y-134747000D01*
X69469000Y-135946250D01*
X69627750Y-136105000D01*
X70318310Y-136105000D01*
X70551699Y-136008327D01*
X70730327Y-135829698D01*
X70796904Y-135668967D01*
X70811375Y-135690625D01*
X71302582Y-136018839D01*
X71735744Y-136105000D01*
X72028256Y-136105000D01*
X72461418Y-136018839D01*
X72952625Y-135690625D01*
X73152000Y-135392239D01*
X73287000Y-135594281D01*
X73287000Y-135710298D01*
X73264765Y-135822081D01*
X73287000Y-135933864D01*
X73352854Y-136264936D01*
X73603712Y-136640370D01*
X73698479Y-136703692D01*
X74079787Y-137085000D01*
X71159693Y-137085000D01*
X70574870Y-137019401D01*
X70056835Y-136839003D01*
X69591636Y-136548315D01*
X69202403Y-136161790D01*
X69123613Y-136037637D01*
X69215000Y-135946250D01*
X69215000Y-134747000D01*
X69195000Y-134747000D01*
X69195000Y-134493000D01*
X69215000Y-134493000D01*
X69215000Y-133293750D01*
X69056250Y-133135000D01*
X68655000Y-133135000D01*
X68655000Y-132295000D01*
X68929250Y-132295000D01*
X69088000Y-132136250D01*
X69088000Y-130937000D01*
X69068000Y-130937000D01*
X69068000Y-130683000D01*
X69088000Y-130683000D01*
X69088000Y-130663000D01*
X69342000Y-130663000D01*
X69342000Y-130683000D01*
X69362000Y-130683000D01*
X69362000Y-130937000D01*
X69342000Y-130937000D01*
X69342000Y-132136250D01*
X69500750Y-132295000D01*
X70191310Y-132295000D01*
X70424699Y-132198327D01*
X70603327Y-132019698D01*
X70669904Y-131858967D01*
X70684375Y-131880625D01*
X71175582Y-132208839D01*
X71608744Y-132295000D01*
X71901256Y-132295000D01*
X72334418Y-132208839D01*
X72825625Y-131880625D01*
X72864797Y-131822000D01*
X73556913Y-131822000D01*
X73579343Y-131934765D01*
X73719691Y-132144809D01*
X73929735Y-132285157D01*
X74177500Y-132334440D01*
X75322500Y-132334440D01*
X75570265Y-132285157D01*
X75780309Y-132144809D01*
X75792500Y-132126564D01*
X75804691Y-132144809D01*
X76014735Y-132285157D01*
X76262500Y-132334440D01*
X77407500Y-132334440D01*
X77655265Y-132285157D01*
X77865309Y-132144809D01*
X77996145Y-131949000D01*
X78382913Y-131949000D01*
X78405343Y-132061765D01*
X78545691Y-132271809D01*
X78755735Y-132412157D01*
X79003500Y-132461440D01*
X80148500Y-132461440D01*
X80396265Y-132412157D01*
X80606309Y-132271809D01*
X80623122Y-132246647D01*
X80728802Y-132352327D01*
X80962191Y-132449000D01*
X81375250Y-132449000D01*
X81534000Y-132290250D01*
X81534000Y-131191000D01*
X81788000Y-131191000D01*
X81788000Y-132290250D01*
X81946750Y-132449000D01*
X82359809Y-132449000D01*
X82593198Y-132352327D01*
X82771827Y-132173699D01*
X82868500Y-131940310D01*
X82868500Y-131349750D01*
X82709750Y-131191000D01*
X81788000Y-131191000D01*
X81534000Y-131191000D01*
X81514000Y-131191000D01*
X81514000Y-130937000D01*
X81534000Y-130937000D01*
X81534000Y-130917000D01*
X81788000Y-130917000D01*
X81788000Y-130937000D01*
X82709750Y-130937000D01*
X82868500Y-130778250D01*
X82868500Y-130599078D01*
X83905728Y-131636307D01*
X83733885Y-131893489D01*
X83666000Y-132234769D01*
X83666000Y-133195230D01*
X83733885Y-133536510D01*
X83992477Y-133923523D01*
X84379489Y-134182115D01*
X84836000Y-134272921D01*
X85292510Y-134182115D01*
X85471000Y-134062853D01*
X85649489Y-134182115D01*
X86106000Y-134272921D01*
X86562510Y-134182115D01*
X86754150Y-134054066D01*
X87068617Y-134208900D01*
X87249000Y-134083244D01*
X87249000Y-133330969D01*
X87276000Y-133195231D01*
X87276000Y-132568000D01*
X87463560Y-132568000D01*
X87463560Y-133615000D01*
X87503000Y-133813280D01*
X87503000Y-134083244D01*
X87683383Y-134208900D01*
X87783264Y-134159722D01*
X87863235Y-134213157D01*
X88111000Y-134262440D01*
X89181000Y-134262440D01*
X89428765Y-134213157D01*
X89638809Y-134072809D01*
X89779157Y-133862765D01*
X89828440Y-133615000D01*
X89828440Y-131815000D01*
X89779157Y-131567235D01*
X89638809Y-131357191D01*
X89544148Y-131293940D01*
X89531000Y-131227838D01*
X89531000Y-131227835D01*
X89479652Y-130969690D01*
X89457809Y-130937000D01*
X89333424Y-130750845D01*
X89333423Y-130750844D01*
X89284049Y-130676951D01*
X89210156Y-130627577D01*
X86109842Y-127527264D01*
X86161178Y-127506000D01*
X90457071Y-127506000D01*
X90574502Y-127623431D01*
X90954908Y-127781000D01*
X91366656Y-127781000D01*
X91747062Y-127623431D01*
X92038213Y-127332280D01*
X92195782Y-126951874D01*
X92195782Y-126540126D01*
X92178146Y-126497549D01*
X92416457Y-126544952D01*
X92699123Y-126544952D01*
X93117699Y-126461692D01*
X93592367Y-126144529D01*
X93827790Y-125792194D01*
X94063213Y-126144529D01*
X94537881Y-126461692D01*
X94956457Y-126544952D01*
X95239123Y-126544952D01*
X95657699Y-126461692D01*
X96132367Y-126144529D01*
X96367790Y-125792194D01*
X96603213Y-126144529D01*
X97077881Y-126461692D01*
X97496457Y-126544952D01*
X97779123Y-126544952D01*
X98197699Y-126461692D01*
X98672367Y-126144529D01*
X98907790Y-125792194D01*
X99042790Y-125994235D01*
X99042790Y-125994235D01*
G37*
X99042790Y-125994235D02*
X99042790Y-126047077D01*
X96558480Y-128531389D01*
X96463712Y-128594711D01*
X96212854Y-128970145D01*
X96212854Y-128970146D01*
X96124765Y-129413000D01*
X96147000Y-129524783D01*
X96147000Y-130339868D01*
X94652869Y-131834000D01*
X94591739Y-131834000D01*
X94962086Y-131463653D01*
X95211000Y-130862722D01*
X95211000Y-130212278D01*
X94962086Y-129611347D01*
X94502153Y-129151414D01*
X93901222Y-128902500D01*
X93250778Y-128902500D01*
X92649847Y-129151414D01*
X92189914Y-129611347D01*
X91941000Y-130212278D01*
X91941000Y-130862722D01*
X92189914Y-131463653D01*
X92560261Y-131834000D01*
X92526283Y-131834000D01*
X92414500Y-131811765D01*
X92068317Y-131880625D01*
X91971646Y-131899854D01*
X91596212Y-132150711D01*
X91532890Y-132245479D01*
X88175869Y-135602501D01*
X83171508Y-135602501D01*
X83440839Y-135199418D01*
X83556092Y-134620000D01*
X83440839Y-134040582D01*
X83112625Y-133549375D01*
X82621418Y-133221161D01*
X82188256Y-133135000D01*
X81895744Y-133135000D01*
X81462582Y-133221161D01*
X80971375Y-133549375D01*
X80772000Y-133847761D01*
X80572625Y-133549375D01*
X80081418Y-133221161D01*
X79648256Y-133135000D01*
X79355744Y-133135000D01*
X78922582Y-133221161D01*
X78431375Y-133549375D01*
X78232000Y-133847761D01*
X78032625Y-133549375D01*
X77541418Y-133221161D01*
X77108256Y-133135000D01*
X76815744Y-133135000D01*
X76382582Y-133221161D01*
X75891375Y-133549375D01*
X75692000Y-133847761D01*
X75492625Y-133549375D01*
X75001418Y-133221161D01*
X74568256Y-133135000D01*
X74275744Y-133135000D01*
X73842582Y-133221161D01*
X73351375Y-133549375D01*
X73152000Y-133847761D01*
X72952625Y-133549375D01*
X72461418Y-133221161D01*
X72028256Y-133135000D01*
X71735744Y-133135000D01*
X71302582Y-133221161D01*
X70811375Y-133549375D01*
X70796904Y-133571033D01*
X70730327Y-133410302D01*
X70551699Y-133231673D01*
X70318310Y-133135000D01*
X69627750Y-133135000D01*
X69469000Y-133293750D01*
X69469000Y-134493000D01*
X69489000Y-134493000D01*
X69489000Y-134747000D01*
X69469000Y-134747000D01*
X69469000Y-135946250D01*
X69627750Y-136105000D01*
X70318310Y-136105000D01*
X70551699Y-136008327D01*
X70730327Y-135829698D01*
X70796904Y-135668967D01*
X70811375Y-135690625D01*
X71302582Y-136018839D01*
X71735744Y-136105000D01*
X72028256Y-136105000D01*
X72461418Y-136018839D01*
X72952625Y-135690625D01*
X73152000Y-135392239D01*
X73287000Y-135594281D01*
X73287000Y-135710298D01*
X73264765Y-135822081D01*
X73287000Y-135933864D01*
X73352854Y-136264936D01*
X73603712Y-136640370D01*
X73698479Y-136703692D01*
X74079787Y-137085000D01*
X71159693Y-137085000D01*
X70574870Y-137019401D01*
X70056835Y-136839003D01*
X69591636Y-136548315D01*
X69202403Y-136161790D01*
X69123613Y-136037637D01*
X69215000Y-135946250D01*
X69215000Y-134747000D01*
X69195000Y-134747000D01*
X69195000Y-134493000D01*
X69215000Y-134493000D01*
X69215000Y-133293750D01*
X69056250Y-133135000D01*
X68655000Y-133135000D01*
X68655000Y-132295000D01*
X68929250Y-132295000D01*
X69088000Y-132136250D01*
X69088000Y-130937000D01*
X69068000Y-130937000D01*
X69068000Y-130683000D01*
X69088000Y-130683000D01*
X69088000Y-130663000D01*
X69342000Y-130663000D01*
X69342000Y-130683000D01*
X69362000Y-130683000D01*
X69362000Y-130937000D01*
X69342000Y-130937000D01*
X69342000Y-132136250D01*
X69500750Y-132295000D01*
X70191310Y-132295000D01*
X70424699Y-132198327D01*
X70603327Y-132019698D01*
X70669904Y-131858967D01*
X70684375Y-131880625D01*
X71175582Y-132208839D01*
X71608744Y-132295000D01*
X71901256Y-132295000D01*
X72334418Y-132208839D01*
X72825625Y-131880625D01*
X72864797Y-131822000D01*
X73556913Y-131822000D01*
X73579343Y-131934765D01*
X73719691Y-132144809D01*
X73929735Y-132285157D01*
X74177500Y-132334440D01*
X75322500Y-132334440D01*
X75570265Y-132285157D01*
X75780309Y-132144809D01*
X75792500Y-132126564D01*
X75804691Y-132144809D01*
X76014735Y-132285157D01*
X76262500Y-132334440D01*
X77407500Y-132334440D01*
X77655265Y-132285157D01*
X77865309Y-132144809D01*
X77996145Y-131949000D01*
X78382913Y-131949000D01*
X78405343Y-132061765D01*
X78545691Y-132271809D01*
X78755735Y-132412157D01*
X79003500Y-132461440D01*
X80148500Y-132461440D01*
X80396265Y-132412157D01*
X80606309Y-132271809D01*
X80623122Y-132246647D01*
X80728802Y-132352327D01*
X80962191Y-132449000D01*
X81375250Y-132449000D01*
X81534000Y-132290250D01*
X81534000Y-131191000D01*
X81788000Y-131191000D01*
X81788000Y-132290250D01*
X81946750Y-132449000D01*
X82359809Y-132449000D01*
X82593198Y-132352327D01*
X82771827Y-132173699D01*
X82868500Y-131940310D01*
X82868500Y-131349750D01*
X82709750Y-131191000D01*
X81788000Y-131191000D01*
X81534000Y-131191000D01*
X81514000Y-131191000D01*
X81514000Y-130937000D01*
X81534000Y-130937000D01*
X81534000Y-130917000D01*
X81788000Y-130917000D01*
X81788000Y-130937000D01*
X82709750Y-130937000D01*
X82868500Y-130778250D01*
X82868500Y-130599078D01*
X83905728Y-131636307D01*
X83733885Y-131893489D01*
X83666000Y-132234769D01*
X83666000Y-133195230D01*
X83733885Y-133536510D01*
X83992477Y-133923523D01*
X84379489Y-134182115D01*
X84836000Y-134272921D01*
X85292510Y-134182115D01*
X85471000Y-134062853D01*
X85649489Y-134182115D01*
X86106000Y-134272921D01*
X86562510Y-134182115D01*
X86754150Y-134054066D01*
X87068617Y-134208900D01*
X87249000Y-134083244D01*
X87249000Y-133330969D01*
X87276000Y-133195231D01*
X87276000Y-132568000D01*
X87463560Y-132568000D01*
X87463560Y-133615000D01*
X87503000Y-133813280D01*
X87503000Y-134083244D01*
X87683383Y-134208900D01*
X87783264Y-134159722D01*
X87863235Y-134213157D01*
X88111000Y-134262440D01*
X89181000Y-134262440D01*
X89428765Y-134213157D01*
X89638809Y-134072809D01*
X89779157Y-133862765D01*
X89828440Y-133615000D01*
X89828440Y-131815000D01*
X89779157Y-131567235D01*
X89638809Y-131357191D01*
X89544148Y-131293940D01*
X89531000Y-131227838D01*
X89531000Y-131227835D01*
X89479652Y-130969690D01*
X89457809Y-130937000D01*
X89333424Y-130750845D01*
X89333423Y-130750844D01*
X89284049Y-130676951D01*
X89210156Y-130627577D01*
X86109842Y-127527264D01*
X86161178Y-127506000D01*
X90457071Y-127506000D01*
X90574502Y-127623431D01*
X90954908Y-127781000D01*
X91366656Y-127781000D01*
X91747062Y-127623431D01*
X92038213Y-127332280D01*
X92195782Y-126951874D01*
X92195782Y-126540126D01*
X92178146Y-126497549D01*
X92416457Y-126544952D01*
X92699123Y-126544952D01*
X93117699Y-126461692D01*
X93592367Y-126144529D01*
X93827790Y-125792194D01*
X94063213Y-126144529D01*
X94537881Y-126461692D01*
X94956457Y-126544952D01*
X95239123Y-126544952D01*
X95657699Y-126461692D01*
X96132367Y-126144529D01*
X96367790Y-125792194D01*
X96603213Y-126144529D01*
X97077881Y-126461692D01*
X97496457Y-126544952D01*
X97779123Y-126544952D01*
X98197699Y-126461692D01*
X98672367Y-126144529D01*
X98907790Y-125792194D01*
X99042790Y-125994235D01*
G36*
X101852793Y-120075839D02*
X101907521Y-120064953D01*
X101838698Y-120410952D01*
X101953951Y-120990370D01*
X102282165Y-121481577D01*
X102773372Y-121809791D01*
X103083450Y-121871469D01*
X103112878Y-122019415D01*
X103133643Y-122123807D01*
X103384500Y-122499242D01*
X103479270Y-122562566D01*
X104195225Y-123278521D01*
X104258547Y-123373289D01*
X104588939Y-123594050D01*
X104633981Y-123624146D01*
X105076835Y-123712235D01*
X105130788Y-123701503D01*
X105130788Y-123840036D01*
X104908751Y-123718048D01*
X104520367Y-123878911D01*
X104105401Y-124254818D01*
X104008737Y-124459060D01*
X103752367Y-124075375D01*
X103277699Y-123758212D01*
X102859123Y-123674952D01*
X102576457Y-123674952D01*
X102393904Y-123711264D01*
X99393167Y-120710528D01*
X99381774Y-120693478D01*
X99681178Y-120569461D01*
X99972329Y-120278310D01*
X100062362Y-120060951D01*
X101777946Y-120060951D01*
X101852793Y-120075839D01*
X101852793Y-120075839D01*
G37*
X101852793Y-120075839D02*
X101907521Y-120064953D01*
X101838698Y-120410952D01*
X101953951Y-120990370D01*
X102282165Y-121481577D01*
X102773372Y-121809791D01*
X103083450Y-121871469D01*
X103112878Y-122019415D01*
X103133643Y-122123807D01*
X103384500Y-122499242D01*
X103479270Y-122562566D01*
X104195225Y-123278521D01*
X104258547Y-123373289D01*
X104588939Y-123594050D01*
X104633981Y-123624146D01*
X105076835Y-123712235D01*
X105130788Y-123701503D01*
X105130788Y-123840036D01*
X104908751Y-123718048D01*
X104520367Y-123878911D01*
X104105401Y-124254818D01*
X104008737Y-124459060D01*
X103752367Y-124075375D01*
X103277699Y-123758212D01*
X102859123Y-123674952D01*
X102576457Y-123674952D01*
X102393904Y-123711264D01*
X99393167Y-120710528D01*
X99381774Y-120693478D01*
X99681178Y-120569461D01*
X99972329Y-120278310D01*
X100062362Y-120060951D01*
X101777946Y-120060951D01*
X101852793Y-120075839D01*
G36*
X81278512Y-121619893D02*
X81397128Y-121596299D01*
X81373534Y-121714915D01*
X81402787Y-121861981D01*
X81402787Y-121994753D01*
X81484500Y-122076466D01*
X81504337Y-122084683D01*
X81563165Y-122172724D01*
X81785904Y-122395463D01*
X81111790Y-123069578D01*
X81111790Y-122601702D01*
X80953040Y-122442952D01*
X80031290Y-122442952D01*
X80031290Y-122462952D01*
X79777290Y-122462952D01*
X79777290Y-122442952D01*
X79757290Y-122442952D01*
X79757290Y-122188952D01*
X79777290Y-122188952D01*
X79777290Y-122168952D01*
X80031290Y-122168952D01*
X80031290Y-122188952D01*
X80953040Y-122188952D01*
X81111790Y-122030202D01*
X81111790Y-121604016D01*
X81155240Y-121595373D01*
X81278512Y-121619893D01*
X81278512Y-121619893D01*
G37*
X81278512Y-121619893D02*
X81397128Y-121596299D01*
X81373534Y-121714915D01*
X81402787Y-121861981D01*
X81402787Y-121994753D01*
X81484500Y-122076466D01*
X81504337Y-122084683D01*
X81563165Y-122172724D01*
X81785904Y-122395463D01*
X81111790Y-123069578D01*
X81111790Y-122601702D01*
X80953040Y-122442952D01*
X80031290Y-122442952D01*
X80031290Y-122462952D01*
X79777290Y-122462952D01*
X79777290Y-122442952D01*
X79757290Y-122442952D01*
X79757290Y-122188952D01*
X79777290Y-122188952D01*
X79777290Y-122168952D01*
X80031290Y-122168952D01*
X80031290Y-122188952D01*
X80953040Y-122188952D01*
X81111790Y-122030202D01*
X81111790Y-121604016D01*
X81155240Y-121595373D01*
X81278512Y-121619893D01*
G36*
X80727000Y-95875132D02*
X80727000Y-96103871D01*
X80691343Y-96157235D01*
X80642060Y-96405000D01*
X80642060Y-97905000D01*
X80691343Y-98152765D01*
X80831691Y-98362809D01*
X81041735Y-98503157D01*
X81289500Y-98552440D01*
X82434500Y-98552440D01*
X82682265Y-98503157D01*
X82892309Y-98362809D01*
X82904500Y-98344564D01*
X82916691Y-98362809D01*
X83126735Y-98503157D01*
X83374500Y-98552440D01*
X83739309Y-98552440D01*
X85039560Y-99852692D01*
X85039560Y-99987000D01*
X85088843Y-100234765D01*
X85229191Y-100444809D01*
X85439235Y-100585157D01*
X85573106Y-100611785D01*
X85452423Y-100692423D01*
X85135260Y-101167091D01*
X85023887Y-101727000D01*
X85135260Y-102286909D01*
X85452423Y-102761577D01*
X85927091Y-103078740D01*
X86345667Y-103162000D01*
X86628333Y-103162000D01*
X87046909Y-103078740D01*
X87371283Y-102862000D01*
X87506587Y-102862000D01*
X87618370Y-102884235D01*
X87730153Y-102862000D01*
X88061225Y-102796146D01*
X88436659Y-102545289D01*
X88499983Y-102450518D01*
X94068522Y-96881980D01*
X94163289Y-96818659D01*
X94414146Y-96443225D01*
X94480000Y-96112153D01*
X94480000Y-96112152D01*
X94502235Y-96000370D01*
X94480000Y-95888587D01*
X94480000Y-93542147D01*
X94644853Y-93610431D01*
X98810001Y-97775580D01*
X98810000Y-99068479D01*
X98660423Y-99168423D01*
X98343260Y-99643091D01*
X98231887Y-100203000D01*
X98343260Y-100762909D01*
X98660423Y-101237577D01*
X99012758Y-101473000D01*
X98660423Y-101708423D01*
X98343260Y-102183091D01*
X98231887Y-102743000D01*
X98343260Y-103302909D01*
X98660423Y-103777577D01*
X99135091Y-104094740D01*
X99553667Y-104178000D01*
X99836333Y-104178000D01*
X100254909Y-104094740D01*
X100729577Y-103777577D01*
X101046740Y-103302909D01*
X101158113Y-102743000D01*
X101046740Y-102183091D01*
X100729577Y-101708423D01*
X100377242Y-101473000D01*
X100729577Y-101237577D01*
X101046740Y-100762909D01*
X101158113Y-100203000D01*
X101088685Y-99853961D01*
X105923096Y-99853961D01*
X106045085Y-100076000D01*
X107188000Y-100076000D01*
X107188000Y-98932371D01*
X107442000Y-98932371D01*
X107442000Y-100076000D01*
X108584915Y-100076000D01*
X108706904Y-99853961D01*
X108546041Y-99465577D01*
X108170134Y-99050611D01*
X107664041Y-98811086D01*
X107442000Y-98932371D01*
X107188000Y-98932371D01*
X106965959Y-98811086D01*
X106459866Y-99050611D01*
X106083959Y-99465577D01*
X105923096Y-99853961D01*
X101088685Y-99853961D01*
X101046740Y-99643091D01*
X100729577Y-99168423D01*
X100580000Y-99068479D01*
X100580000Y-98095082D01*
X100941556Y-98456638D01*
X101615996Y-98736000D01*
X102346004Y-98736000D01*
X102828847Y-98536000D01*
X104943153Y-98536000D01*
X105425996Y-98736000D01*
X106156004Y-98736000D01*
X106638847Y-98536000D01*
X109388153Y-98536000D01*
X109870996Y-98736000D01*
X110601004Y-98736000D01*
X111083847Y-98536000D01*
X113198153Y-98536000D01*
X113489400Y-98656638D01*
X114697001Y-99864240D01*
X114697001Y-100618422D01*
X113664425Y-99585847D01*
X113615049Y-99511951D01*
X113322310Y-99316348D01*
X113064165Y-99265000D01*
X113064161Y-99265000D01*
X112977000Y-99247663D01*
X112889839Y-99265000D01*
X112239402Y-99265000D01*
X112142309Y-99119691D01*
X111932265Y-98979343D01*
X111684500Y-98930060D01*
X110184500Y-98930060D01*
X109936735Y-98979343D01*
X109726691Y-99119691D01*
X109586343Y-99329735D01*
X109537060Y-99577500D01*
X109537060Y-100722500D01*
X109586343Y-100970265D01*
X109726691Y-101180309D01*
X109744936Y-101192500D01*
X109726691Y-101204691D01*
X109586343Y-101414735D01*
X109537060Y-101662500D01*
X109537060Y-102807500D01*
X109586343Y-103055265D01*
X109703933Y-103231250D01*
X109586343Y-103407235D01*
X109537060Y-103655000D01*
X109537060Y-104625000D01*
X109586343Y-104872765D01*
X109726691Y-105082809D01*
X109751853Y-105099622D01*
X109646173Y-105205302D01*
X109549500Y-105438691D01*
X109549500Y-105764250D01*
X109708248Y-105922998D01*
X109549500Y-105922998D01*
X109549500Y-106039368D01*
X108958610Y-105448479D01*
X108958608Y-105448476D01*
X108292523Y-104782392D01*
X108011854Y-104594854D01*
X107569000Y-104506765D01*
X107126146Y-104594854D01*
X106750712Y-104845712D01*
X106499854Y-105221146D01*
X106411765Y-105664000D01*
X106499854Y-106106854D01*
X106687392Y-106387523D01*
X107353476Y-107053608D01*
X107353479Y-107053610D01*
X108720000Y-108420132D01*
X108720000Y-108446821D01*
X108597790Y-108422512D01*
X106997790Y-108422512D01*
X106750025Y-108471795D01*
X106539981Y-108612143D01*
X106399633Y-108822187D01*
X106373005Y-108956058D01*
X106292367Y-108835375D01*
X105817699Y-108518212D01*
X105399123Y-108434952D01*
X105116457Y-108434952D01*
X104697881Y-108518212D01*
X104223213Y-108835375D01*
X103987790Y-109187710D01*
X103752367Y-108835375D01*
X103277699Y-108518212D01*
X102872054Y-108437524D01*
X107119139Y-104190440D01*
X108115000Y-104190440D01*
X108362765Y-104141157D01*
X108572809Y-104000809D01*
X108713157Y-103790765D01*
X108762440Y-103543000D01*
X108762440Y-101943000D01*
X108713157Y-101695235D01*
X108572809Y-101485191D01*
X108362765Y-101344843D01*
X108207639Y-101313987D01*
X108546041Y-100940423D01*
X108706904Y-100552039D01*
X108584915Y-100330000D01*
X107442000Y-100330000D01*
X107442000Y-100350000D01*
X107188000Y-100350000D01*
X107188000Y-100330000D01*
X106045085Y-100330000D01*
X105923096Y-100552039D01*
X106083959Y-100940423D01*
X106422361Y-101313987D01*
X106267235Y-101344843D01*
X106057191Y-101485191D01*
X105916843Y-101695235D01*
X105867560Y-101943000D01*
X105867560Y-102938861D01*
X101181845Y-107624577D01*
X101121853Y-107684569D01*
X100759720Y-107834569D01*
X100468569Y-108125720D01*
X100311000Y-108506126D01*
X100311000Y-108596625D01*
X100304790Y-108600037D01*
X100304790Y-109742952D01*
X100324790Y-109742952D01*
X100324790Y-109996952D01*
X100304790Y-109996952D01*
X100304790Y-111139867D01*
X100526829Y-111261856D01*
X100915213Y-111100993D01*
X101330179Y-110725086D01*
X101426843Y-110520844D01*
X101683213Y-110904529D01*
X102157881Y-111221692D01*
X102576457Y-111304952D01*
X102859123Y-111304952D01*
X102894229Y-111297969D01*
X105007790Y-113411531D01*
X105007790Y-114136296D01*
X104822165Y-114260327D01*
X104621437Y-114560738D01*
X104234148Y-114135769D01*
X103709682Y-113889466D01*
X103479790Y-114010133D01*
X103479790Y-115203952D01*
X103499790Y-115203952D01*
X103499790Y-115457952D01*
X103479790Y-115457952D01*
X103479790Y-115477952D01*
X103225790Y-115477952D01*
X103225790Y-115457952D01*
X102032635Y-115457952D01*
X101911314Y-115687842D01*
X102081145Y-116097876D01*
X102471432Y-116526135D01*
X102601268Y-116587109D01*
X102282165Y-116800327D01*
X102231184Y-116876626D01*
X101979040Y-116624482D01*
X101936638Y-116561023D01*
X101685246Y-116393048D01*
X101463561Y-116348952D01*
X101463556Y-116348952D01*
X101388709Y-116334064D01*
X101313862Y-116348952D01*
X97784817Y-116348952D01*
X97910790Y-116044826D01*
X97910790Y-115633078D01*
X97753221Y-115252672D01*
X97474611Y-114974062D01*
X101911314Y-114974062D01*
X102032635Y-115203952D01*
X103225790Y-115203952D01*
X103225790Y-114010133D01*
X102995898Y-113889466D01*
X102471432Y-114135769D01*
X102081145Y-114564028D01*
X101911314Y-114974062D01*
X97474611Y-114974062D01*
X97462070Y-114961521D01*
X97081664Y-114803952D01*
X96669916Y-114803952D01*
X96289510Y-114961521D01*
X95998359Y-115252672D01*
X95840790Y-115633078D01*
X95840790Y-115670484D01*
X92327254Y-115670484D01*
X92327254Y-115499609D01*
X92198633Y-115189090D01*
X92295725Y-115091998D01*
X92295725Y-114867492D01*
X91643949Y-114215716D01*
X91629807Y-114229859D01*
X91450202Y-114050254D01*
X91464344Y-114036111D01*
X91823554Y-114036111D01*
X92475330Y-114687887D01*
X92699836Y-114687887D01*
X93117425Y-114270298D01*
X93214098Y-114036909D01*
X93214097Y-113784290D01*
X93117424Y-113550901D01*
X92825348Y-113258824D01*
X92600841Y-113258824D01*
X91823554Y-114036111D01*
X91464344Y-114036111D01*
X91450202Y-114021969D01*
X91629807Y-113842364D01*
X91643949Y-113856506D01*
X92421236Y-113079219D01*
X92421236Y-112895000D01*
X93596695Y-112895000D01*
X93993261Y-113291566D01*
X94273929Y-113479103D01*
X94716783Y-113567193D01*
X95159638Y-113479103D01*
X95535072Y-113228246D01*
X95785929Y-112852812D01*
X95874019Y-112409957D01*
X95785929Y-111967103D01*
X95598392Y-111686435D01*
X95216909Y-111304952D01*
X95239123Y-111304952D01*
X95657699Y-111221692D01*
X96132367Y-110904529D01*
X96367790Y-110552194D01*
X96603213Y-110904529D01*
X97077881Y-111221692D01*
X97496457Y-111304952D01*
X97779123Y-111304952D01*
X98197699Y-111221692D01*
X98672367Y-110904529D01*
X98928737Y-110520844D01*
X99025401Y-110725086D01*
X99440367Y-111100993D01*
X99828751Y-111261856D01*
X100050790Y-111139867D01*
X100050790Y-109996952D01*
X100030790Y-109996952D01*
X100030790Y-109742952D01*
X100050790Y-109742952D01*
X100050790Y-108600037D01*
X99828751Y-108478048D01*
X99440367Y-108638911D01*
X99025401Y-109014818D01*
X98928737Y-109219060D01*
X98672367Y-108835375D01*
X98197699Y-108518212D01*
X97779123Y-108434952D01*
X97496457Y-108434952D01*
X97077881Y-108518212D01*
X96603213Y-108835375D01*
X96367790Y-109187710D01*
X96132367Y-108835375D01*
X95657699Y-108518212D01*
X95239123Y-108434952D01*
X94956457Y-108434952D01*
X94537881Y-108518212D01*
X94063213Y-108835375D01*
X93827790Y-109187710D01*
X93692790Y-108985669D01*
X93692790Y-103088071D01*
X93757959Y-103118914D01*
X93980000Y-102997629D01*
X93980000Y-101854000D01*
X94234000Y-101854000D01*
X94234000Y-102997629D01*
X94456041Y-103118914D01*
X94962134Y-102879389D01*
X95338041Y-102464423D01*
X95498904Y-102076039D01*
X95376915Y-101854000D01*
X94234000Y-101854000D01*
X93980000Y-101854000D01*
X93960000Y-101854000D01*
X93960000Y-101600000D01*
X93980000Y-101600000D01*
X93980000Y-101580000D01*
X94234000Y-101580000D01*
X94234000Y-101600000D01*
X95376915Y-101600000D01*
X95498904Y-101377961D01*
X95338041Y-100989577D01*
X94962134Y-100574611D01*
X94757892Y-100477947D01*
X95141577Y-100221577D01*
X95458740Y-99746909D01*
X95570113Y-99187000D01*
X95458740Y-98627091D01*
X95141577Y-98152423D01*
X94666909Y-97835260D01*
X94248333Y-97752000D01*
X93965667Y-97752000D01*
X93547091Y-97835260D01*
X93072423Y-98152423D01*
X92755260Y-98627091D01*
X92679151Y-99009718D01*
X91834272Y-99854597D01*
X91739501Y-99917921D01*
X91549018Y-100203000D01*
X91488644Y-100293356D01*
X91400555Y-100736210D01*
X91422790Y-100847993D01*
X91422791Y-108985667D01*
X91287790Y-109187710D01*
X91152790Y-108985669D01*
X91152790Y-104660571D01*
X91175025Y-104548789D01*
X91133226Y-104338652D01*
X91086936Y-104105935D01*
X90836079Y-103730501D01*
X90741310Y-103667179D01*
X90205523Y-103131392D01*
X89924854Y-102943854D01*
X89482000Y-102855765D01*
X89039146Y-102943854D01*
X88663712Y-103194712D01*
X88412854Y-103570146D01*
X88324765Y-104013000D01*
X88412854Y-104455854D01*
X88600392Y-104736523D01*
X88882791Y-105018922D01*
X88882790Y-108985668D01*
X88747790Y-109187710D01*
X88512367Y-108835375D01*
X88037699Y-108518212D01*
X87619123Y-108434952D01*
X87336457Y-108434952D01*
X86917881Y-108518212D01*
X86443213Y-108835375D01*
X86207790Y-109187710D01*
X85972367Y-108835375D01*
X85497699Y-108518212D01*
X85079123Y-108434952D01*
X84796457Y-108434952D01*
X84377881Y-108518212D01*
X83903213Y-108835375D01*
X83667790Y-109187710D01*
X83432367Y-108835375D01*
X82957699Y-108518212D01*
X82539123Y-108434952D01*
X82256457Y-108434952D01*
X81837881Y-108518212D01*
X81363213Y-108835375D01*
X81127790Y-109187710D01*
X80892367Y-108835375D01*
X80776473Y-108757937D01*
X80785337Y-108713373D01*
X80768000Y-108626213D01*
X80768000Y-102195161D01*
X80785337Y-102108000D01*
X80768000Y-102020839D01*
X80768000Y-102020835D01*
X80716652Y-101762690D01*
X80649707Y-101662500D01*
X80570424Y-101543845D01*
X80570423Y-101543844D01*
X80521049Y-101469951D01*
X80447156Y-101420577D01*
X78459214Y-99432636D01*
X78342422Y-99257845D01*
X78342421Y-99257844D01*
X78293047Y-99183951D01*
X78219154Y-99134577D01*
X75449431Y-96364855D01*
X75299431Y-96002722D01*
X75008280Y-95711571D01*
X74814826Y-95631440D01*
X74994500Y-95631440D01*
X75242265Y-95582157D01*
X75452309Y-95441809D01*
X75469122Y-95416647D01*
X75574802Y-95522327D01*
X75808191Y-95619000D01*
X76221250Y-95619000D01*
X76380000Y-95460250D01*
X76380000Y-94361000D01*
X76634000Y-94361000D01*
X76634000Y-95460250D01*
X76792750Y-95619000D01*
X77205809Y-95619000D01*
X77439198Y-95522327D01*
X77617827Y-95343699D01*
X77714500Y-95110310D01*
X77714500Y-94519750D01*
X77555750Y-94361000D01*
X76634000Y-94361000D01*
X76380000Y-94361000D01*
X76360000Y-94361000D01*
X76360000Y-94107000D01*
X76380000Y-94107000D01*
X76380000Y-94087000D01*
X76634000Y-94087000D01*
X76634000Y-94107000D01*
X77555750Y-94107000D01*
X77714500Y-93948250D01*
X77714500Y-93357690D01*
X77617827Y-93124301D01*
X77502525Y-93009000D01*
X77860869Y-93009000D01*
X80727000Y-95875132D01*
X80727000Y-95875132D01*
G37*
X80727000Y-95875132D02*
X80727000Y-96103871D01*
X80691343Y-96157235D01*
X80642060Y-96405000D01*
X80642060Y-97905000D01*
X80691343Y-98152765D01*
X80831691Y-98362809D01*
X81041735Y-98503157D01*
X81289500Y-98552440D01*
X82434500Y-98552440D01*
X82682265Y-98503157D01*
X82892309Y-98362809D01*
X82904500Y-98344564D01*
X82916691Y-98362809D01*
X83126735Y-98503157D01*
X83374500Y-98552440D01*
X83739309Y-98552440D01*
X85039560Y-99852692D01*
X85039560Y-99987000D01*
X85088843Y-100234765D01*
X85229191Y-100444809D01*
X85439235Y-100585157D01*
X85573106Y-100611785D01*
X85452423Y-100692423D01*
X85135260Y-101167091D01*
X85023887Y-101727000D01*
X85135260Y-102286909D01*
X85452423Y-102761577D01*
X85927091Y-103078740D01*
X86345667Y-103162000D01*
X86628333Y-103162000D01*
X87046909Y-103078740D01*
X87371283Y-102862000D01*
X87506587Y-102862000D01*
X87618370Y-102884235D01*
X87730153Y-102862000D01*
X88061225Y-102796146D01*
X88436659Y-102545289D01*
X88499983Y-102450518D01*
X94068522Y-96881980D01*
X94163289Y-96818659D01*
X94414146Y-96443225D01*
X94480000Y-96112153D01*
X94480000Y-96112152D01*
X94502235Y-96000370D01*
X94480000Y-95888587D01*
X94480000Y-93542147D01*
X94644853Y-93610431D01*
X98810001Y-97775580D01*
X98810000Y-99068479D01*
X98660423Y-99168423D01*
X98343260Y-99643091D01*
X98231887Y-100203000D01*
X98343260Y-100762909D01*
X98660423Y-101237577D01*
X99012758Y-101473000D01*
X98660423Y-101708423D01*
X98343260Y-102183091D01*
X98231887Y-102743000D01*
X98343260Y-103302909D01*
X98660423Y-103777577D01*
X99135091Y-104094740D01*
X99553667Y-104178000D01*
X99836333Y-104178000D01*
X100254909Y-104094740D01*
X100729577Y-103777577D01*
X101046740Y-103302909D01*
X101158113Y-102743000D01*
X101046740Y-102183091D01*
X100729577Y-101708423D01*
X100377242Y-101473000D01*
X100729577Y-101237577D01*
X101046740Y-100762909D01*
X101158113Y-100203000D01*
X101088685Y-99853961D01*
X105923096Y-99853961D01*
X106045085Y-100076000D01*
X107188000Y-100076000D01*
X107188000Y-98932371D01*
X107442000Y-98932371D01*
X107442000Y-100076000D01*
X108584915Y-100076000D01*
X108706904Y-99853961D01*
X108546041Y-99465577D01*
X108170134Y-99050611D01*
X107664041Y-98811086D01*
X107442000Y-98932371D01*
X107188000Y-98932371D01*
X106965959Y-98811086D01*
X106459866Y-99050611D01*
X106083959Y-99465577D01*
X105923096Y-99853961D01*
X101088685Y-99853961D01*
X101046740Y-99643091D01*
X100729577Y-99168423D01*
X100580000Y-99068479D01*
X100580000Y-98095082D01*
X100941556Y-98456638D01*
X101615996Y-98736000D01*
X102346004Y-98736000D01*
X102828847Y-98536000D01*
X104943153Y-98536000D01*
X105425996Y-98736000D01*
X106156004Y-98736000D01*
X106638847Y-98536000D01*
X109388153Y-98536000D01*
X109870996Y-98736000D01*
X110601004Y-98736000D01*
X111083847Y-98536000D01*
X113198153Y-98536000D01*
X113489400Y-98656638D01*
X114697001Y-99864240D01*
X114697001Y-100618422D01*
X113664425Y-99585847D01*
X113615049Y-99511951D01*
X113322310Y-99316348D01*
X113064165Y-99265000D01*
X113064161Y-99265000D01*
X112977000Y-99247663D01*
X112889839Y-99265000D01*
X112239402Y-99265000D01*
X112142309Y-99119691D01*
X111932265Y-98979343D01*
X111684500Y-98930060D01*
X110184500Y-98930060D01*
X109936735Y-98979343D01*
X109726691Y-99119691D01*
X109586343Y-99329735D01*
X109537060Y-99577500D01*
X109537060Y-100722500D01*
X109586343Y-100970265D01*
X109726691Y-101180309D01*
X109744936Y-101192500D01*
X109726691Y-101204691D01*
X109586343Y-101414735D01*
X109537060Y-101662500D01*
X109537060Y-102807500D01*
X109586343Y-103055265D01*
X109703933Y-103231250D01*
X109586343Y-103407235D01*
X109537060Y-103655000D01*
X109537060Y-104625000D01*
X109586343Y-104872765D01*
X109726691Y-105082809D01*
X109751853Y-105099622D01*
X109646173Y-105205302D01*
X109549500Y-105438691D01*
X109549500Y-105764250D01*
X109708248Y-105922998D01*
X109549500Y-105922998D01*
X109549500Y-106039368D01*
X108958610Y-105448479D01*
X108958608Y-105448476D01*
X108292523Y-104782392D01*
X108011854Y-104594854D01*
X107569000Y-104506765D01*
X107126146Y-104594854D01*
X106750712Y-104845712D01*
X106499854Y-105221146D01*
X106411765Y-105664000D01*
X106499854Y-106106854D01*
X106687392Y-106387523D01*
X107353476Y-107053608D01*
X107353479Y-107053610D01*
X108720000Y-108420132D01*
X108720000Y-108446821D01*
X108597790Y-108422512D01*
X106997790Y-108422512D01*
X106750025Y-108471795D01*
X106539981Y-108612143D01*
X106399633Y-108822187D01*
X106373005Y-108956058D01*
X106292367Y-108835375D01*
X105817699Y-108518212D01*
X105399123Y-108434952D01*
X105116457Y-108434952D01*
X104697881Y-108518212D01*
X104223213Y-108835375D01*
X103987790Y-109187710D01*
X103752367Y-108835375D01*
X103277699Y-108518212D01*
X102872054Y-108437524D01*
X107119139Y-104190440D01*
X108115000Y-104190440D01*
X108362765Y-104141157D01*
X108572809Y-104000809D01*
X108713157Y-103790765D01*
X108762440Y-103543000D01*
X108762440Y-101943000D01*
X108713157Y-101695235D01*
X108572809Y-101485191D01*
X108362765Y-101344843D01*
X108207639Y-101313987D01*
X108546041Y-100940423D01*
X108706904Y-100552039D01*
X108584915Y-100330000D01*
X107442000Y-100330000D01*
X107442000Y-100350000D01*
X107188000Y-100350000D01*
X107188000Y-100330000D01*
X106045085Y-100330000D01*
X105923096Y-100552039D01*
X106083959Y-100940423D01*
X106422361Y-101313987D01*
X106267235Y-101344843D01*
X106057191Y-101485191D01*
X105916843Y-101695235D01*
X105867560Y-101943000D01*
X105867560Y-102938861D01*
X101181845Y-107624577D01*
X101121853Y-107684569D01*
X100759720Y-107834569D01*
X100468569Y-108125720D01*
X100311000Y-108506126D01*
X100311000Y-108596625D01*
X100304790Y-108600037D01*
X100304790Y-109742952D01*
X100324790Y-109742952D01*
X100324790Y-109996952D01*
X100304790Y-109996952D01*
X100304790Y-111139867D01*
X100526829Y-111261856D01*
X100915213Y-111100993D01*
X101330179Y-110725086D01*
X101426843Y-110520844D01*
X101683213Y-110904529D01*
X102157881Y-111221692D01*
X102576457Y-111304952D01*
X102859123Y-111304952D01*
X102894229Y-111297969D01*
X105007790Y-113411531D01*
X105007790Y-114136296D01*
X104822165Y-114260327D01*
X104621437Y-114560738D01*
X104234148Y-114135769D01*
X103709682Y-113889466D01*
X103479790Y-114010133D01*
X103479790Y-115203952D01*
X103499790Y-115203952D01*
X103499790Y-115457952D01*
X103479790Y-115457952D01*
X103479790Y-115477952D01*
X103225790Y-115477952D01*
X103225790Y-115457952D01*
X102032635Y-115457952D01*
X101911314Y-115687842D01*
X102081145Y-116097876D01*
X102471432Y-116526135D01*
X102601268Y-116587109D01*
X102282165Y-116800327D01*
X102231184Y-116876626D01*
X101979040Y-116624482D01*
X101936638Y-116561023D01*
X101685246Y-116393048D01*
X101463561Y-116348952D01*
X101463556Y-116348952D01*
X101388709Y-116334064D01*
X101313862Y-116348952D01*
X97784817Y-116348952D01*
X97910790Y-116044826D01*
X97910790Y-115633078D01*
X97753221Y-115252672D01*
X97474611Y-114974062D01*
X101911314Y-114974062D01*
X102032635Y-115203952D01*
X103225790Y-115203952D01*
X103225790Y-114010133D01*
X102995898Y-113889466D01*
X102471432Y-114135769D01*
X102081145Y-114564028D01*
X101911314Y-114974062D01*
X97474611Y-114974062D01*
X97462070Y-114961521D01*
X97081664Y-114803952D01*
X96669916Y-114803952D01*
X96289510Y-114961521D01*
X95998359Y-115252672D01*
X95840790Y-115633078D01*
X95840790Y-115670484D01*
X92327254Y-115670484D01*
X92327254Y-115499609D01*
X92198633Y-115189090D01*
X92295725Y-115091998D01*
X92295725Y-114867492D01*
X91643949Y-114215716D01*
X91629807Y-114229859D01*
X91450202Y-114050254D01*
X91464344Y-114036111D01*
X91823554Y-114036111D01*
X92475330Y-114687887D01*
X92699836Y-114687887D01*
X93117425Y-114270298D01*
X93214098Y-114036909D01*
X93214097Y-113784290D01*
X93117424Y-113550901D01*
X92825348Y-113258824D01*
X92600841Y-113258824D01*
X91823554Y-114036111D01*
X91464344Y-114036111D01*
X91450202Y-114021969D01*
X91629807Y-113842364D01*
X91643949Y-113856506D01*
X92421236Y-113079219D01*
X92421236Y-112895000D01*
X93596695Y-112895000D01*
X93993261Y-113291566D01*
X94273929Y-113479103D01*
X94716783Y-113567193D01*
X95159638Y-113479103D01*
X95535072Y-113228246D01*
X95785929Y-112852812D01*
X95874019Y-112409957D01*
X95785929Y-111967103D01*
X95598392Y-111686435D01*
X95216909Y-111304952D01*
X95239123Y-111304952D01*
X95657699Y-111221692D01*
X96132367Y-110904529D01*
X96367790Y-110552194D01*
X96603213Y-110904529D01*
X97077881Y-111221692D01*
X97496457Y-111304952D01*
X97779123Y-111304952D01*
X98197699Y-111221692D01*
X98672367Y-110904529D01*
X98928737Y-110520844D01*
X99025401Y-110725086D01*
X99440367Y-111100993D01*
X99828751Y-111261856D01*
X100050790Y-111139867D01*
X100050790Y-109996952D01*
X100030790Y-109996952D01*
X100030790Y-109742952D01*
X100050790Y-109742952D01*
X100050790Y-108600037D01*
X99828751Y-108478048D01*
X99440367Y-108638911D01*
X99025401Y-109014818D01*
X98928737Y-109219060D01*
X98672367Y-108835375D01*
X98197699Y-108518212D01*
X97779123Y-108434952D01*
X97496457Y-108434952D01*
X97077881Y-108518212D01*
X96603213Y-108835375D01*
X96367790Y-109187710D01*
X96132367Y-108835375D01*
X95657699Y-108518212D01*
X95239123Y-108434952D01*
X94956457Y-108434952D01*
X94537881Y-108518212D01*
X94063213Y-108835375D01*
X93827790Y-109187710D01*
X93692790Y-108985669D01*
X93692790Y-103088071D01*
X93757959Y-103118914D01*
X93980000Y-102997629D01*
X93980000Y-101854000D01*
X94234000Y-101854000D01*
X94234000Y-102997629D01*
X94456041Y-103118914D01*
X94962134Y-102879389D01*
X95338041Y-102464423D01*
X95498904Y-102076039D01*
X95376915Y-101854000D01*
X94234000Y-101854000D01*
X93980000Y-101854000D01*
X93960000Y-101854000D01*
X93960000Y-101600000D01*
X93980000Y-101600000D01*
X93980000Y-101580000D01*
X94234000Y-101580000D01*
X94234000Y-101600000D01*
X95376915Y-101600000D01*
X95498904Y-101377961D01*
X95338041Y-100989577D01*
X94962134Y-100574611D01*
X94757892Y-100477947D01*
X95141577Y-100221577D01*
X95458740Y-99746909D01*
X95570113Y-99187000D01*
X95458740Y-98627091D01*
X95141577Y-98152423D01*
X94666909Y-97835260D01*
X94248333Y-97752000D01*
X93965667Y-97752000D01*
X93547091Y-97835260D01*
X93072423Y-98152423D01*
X92755260Y-98627091D01*
X92679151Y-99009718D01*
X91834272Y-99854597D01*
X91739501Y-99917921D01*
X91549018Y-100203000D01*
X91488644Y-100293356D01*
X91400555Y-100736210D01*
X91422790Y-100847993D01*
X91422791Y-108985667D01*
X91287790Y-109187710D01*
X91152790Y-108985669D01*
X91152790Y-104660571D01*
X91175025Y-104548789D01*
X91133226Y-104338652D01*
X91086936Y-104105935D01*
X90836079Y-103730501D01*
X90741310Y-103667179D01*
X90205523Y-103131392D01*
X89924854Y-102943854D01*
X89482000Y-102855765D01*
X89039146Y-102943854D01*
X88663712Y-103194712D01*
X88412854Y-103570146D01*
X88324765Y-104013000D01*
X88412854Y-104455854D01*
X88600392Y-104736523D01*
X88882791Y-105018922D01*
X88882790Y-108985668D01*
X88747790Y-109187710D01*
X88512367Y-108835375D01*
X88037699Y-108518212D01*
X87619123Y-108434952D01*
X87336457Y-108434952D01*
X86917881Y-108518212D01*
X86443213Y-108835375D01*
X86207790Y-109187710D01*
X85972367Y-108835375D01*
X85497699Y-108518212D01*
X85079123Y-108434952D01*
X84796457Y-108434952D01*
X84377881Y-108518212D01*
X83903213Y-108835375D01*
X83667790Y-109187710D01*
X83432367Y-108835375D01*
X82957699Y-108518212D01*
X82539123Y-108434952D01*
X82256457Y-108434952D01*
X81837881Y-108518212D01*
X81363213Y-108835375D01*
X81127790Y-109187710D01*
X80892367Y-108835375D01*
X80776473Y-108757937D01*
X80785337Y-108713373D01*
X80768000Y-108626213D01*
X80768000Y-102195161D01*
X80785337Y-102108000D01*
X80768000Y-102020839D01*
X80768000Y-102020835D01*
X80716652Y-101762690D01*
X80649707Y-101662500D01*
X80570424Y-101543845D01*
X80570423Y-101543844D01*
X80521049Y-101469951D01*
X80447156Y-101420577D01*
X78459214Y-99432636D01*
X78342422Y-99257845D01*
X78342421Y-99257844D01*
X78293047Y-99183951D01*
X78219154Y-99134577D01*
X75449431Y-96364855D01*
X75299431Y-96002722D01*
X75008280Y-95711571D01*
X74814826Y-95631440D01*
X74994500Y-95631440D01*
X75242265Y-95582157D01*
X75452309Y-95441809D01*
X75469122Y-95416647D01*
X75574802Y-95522327D01*
X75808191Y-95619000D01*
X76221250Y-95619000D01*
X76380000Y-95460250D01*
X76380000Y-94361000D01*
X76634000Y-94361000D01*
X76634000Y-95460250D01*
X76792750Y-95619000D01*
X77205809Y-95619000D01*
X77439198Y-95522327D01*
X77617827Y-95343699D01*
X77714500Y-95110310D01*
X77714500Y-94519750D01*
X77555750Y-94361000D01*
X76634000Y-94361000D01*
X76380000Y-94361000D01*
X76360000Y-94361000D01*
X76360000Y-94107000D01*
X76380000Y-94107000D01*
X76380000Y-94087000D01*
X76634000Y-94087000D01*
X76634000Y-94107000D01*
X77555750Y-94107000D01*
X77714500Y-93948250D01*
X77714500Y-93357690D01*
X77617827Y-93124301D01*
X77502525Y-93009000D01*
X77860869Y-93009000D01*
X80727000Y-95875132D01*
G36*
X89586311Y-113954751D02*
X89796355Y-114095099D01*
X90044120Y-114144382D01*
X90073800Y-114138478D01*
X90073800Y-114154381D01*
X89910525Y-114222012D01*
X89619483Y-114513054D01*
X89609823Y-114514976D01*
X89633417Y-114396360D01*
X89604164Y-114249294D01*
X89604164Y-114116522D01*
X89675407Y-114187764D01*
X89522451Y-114034809D01*
X89502614Y-114026592D01*
X89443786Y-113938551D01*
X89054877Y-113549642D01*
X88966835Y-113490814D01*
X88958618Y-113470976D01*
X88934435Y-113446793D01*
X89078353Y-113446793D01*
X89586311Y-113954751D01*
X89586311Y-113954751D01*
G37*
X89586311Y-113954751D02*
X89796355Y-114095099D01*
X90044120Y-114144382D01*
X90073800Y-114138478D01*
X90073800Y-114154381D01*
X89910525Y-114222012D01*
X89619483Y-114513054D01*
X89609823Y-114514976D01*
X89633417Y-114396360D01*
X89604164Y-114249294D01*
X89604164Y-114116522D01*
X89675407Y-114187764D01*
X89522451Y-114034809D01*
X89502614Y-114026592D01*
X89443786Y-113938551D01*
X89054877Y-113549642D01*
X88966835Y-113490814D01*
X88958618Y-113470976D01*
X88934435Y-113446793D01*
X89078353Y-113446793D01*
X89586311Y-113954751D01*
G36*
X92880202Y-70669560D02*
X92145000Y-70669560D01*
X91897235Y-70718843D01*
X91687191Y-70859191D01*
X91546843Y-71069235D01*
X91497560Y-71317000D01*
X91497560Y-73717000D01*
X91546843Y-73964765D01*
X91687191Y-74174809D01*
X91710000Y-74190050D01*
X91710001Y-80788000D01*
X80883000Y-80788000D01*
X80883000Y-79790025D01*
X80915030Y-79628999D01*
X80883000Y-79467973D01*
X80883000Y-79467969D01*
X80788136Y-78991055D01*
X80756655Y-78943940D01*
X81522000Y-78943940D01*
X81769765Y-78894657D01*
X81979809Y-78754309D01*
X82120157Y-78544265D01*
X82169440Y-78296500D01*
X82169440Y-77151500D01*
X82120157Y-76903735D01*
X81979809Y-76693691D01*
X81961564Y-76681500D01*
X81979809Y-76669309D01*
X82120157Y-76459265D01*
X82169440Y-76211500D01*
X82169440Y-75066500D01*
X82120157Y-74818735D01*
X81979809Y-74608691D01*
X81769765Y-74468343D01*
X81522000Y-74419060D01*
X80022000Y-74419060D01*
X79774235Y-74468343D01*
X79564191Y-74608691D01*
X79486000Y-74725711D01*
X79486000Y-73814175D01*
X84727430Y-73814175D01*
X84850565Y-74101788D01*
X85532734Y-74361707D01*
X86262443Y-74340786D01*
X86839435Y-74101788D01*
X86962570Y-73814175D01*
X85845000Y-72696605D01*
X84727430Y-73814175D01*
X79486000Y-73814175D01*
X79486000Y-72204734D01*
X84000293Y-72204734D01*
X84021214Y-72934443D01*
X84260212Y-73511435D01*
X84547825Y-73634570D01*
X85665395Y-72517000D01*
X86024605Y-72517000D01*
X87142175Y-73634570D01*
X87429788Y-73511435D01*
X87689707Y-72829266D01*
X87668786Y-72099557D01*
X87429788Y-71522565D01*
X87142175Y-71399430D01*
X86024605Y-72517000D01*
X85665395Y-72517000D01*
X84547825Y-71399430D01*
X84260212Y-71522565D01*
X84000293Y-72204734D01*
X79486000Y-72204734D01*
X79486000Y-71219825D01*
X84727430Y-71219825D01*
X85845000Y-72337395D01*
X86962570Y-71219825D01*
X86839435Y-70932212D01*
X86157266Y-70672293D01*
X85427557Y-70693214D01*
X84850565Y-70932212D01*
X84727430Y-71219825D01*
X79486000Y-71219825D01*
X79486000Y-69561969D01*
X79398440Y-69121775D01*
X79398440Y-67923000D01*
X79349157Y-67675235D01*
X79208809Y-67465191D01*
X78998765Y-67324843D01*
X78751000Y-67275560D01*
X76951000Y-67275560D01*
X76703235Y-67324843D01*
X76493191Y-67465191D01*
X76352843Y-67675235D01*
X76303560Y-67923000D01*
X76303560Y-69121776D01*
X76216000Y-69561970D01*
X76216001Y-72990966D01*
X76216000Y-72990970D01*
X76216000Y-75268761D01*
X75893202Y-75591560D01*
X75858000Y-75591560D01*
X75610235Y-75640843D01*
X75400191Y-75781191D01*
X75324093Y-75895079D01*
X75210253Y-75819014D01*
X74406000Y-75014762D01*
X74406000Y-69561969D01*
X74311136Y-69085055D01*
X74306000Y-69077368D01*
X74306000Y-68671818D01*
X74216938Y-68224073D01*
X73877673Y-67716327D01*
X73369927Y-67377062D01*
X72771000Y-67257928D01*
X72172074Y-67377062D01*
X71664328Y-67716327D01*
X71325063Y-68224073D01*
X71236001Y-68671818D01*
X71236001Y-69077368D01*
X71230864Y-69085056D01*
X71136000Y-69561970D01*
X71136001Y-74565130D01*
X71108000Y-74559560D01*
X69608000Y-74559560D01*
X69360235Y-74608843D01*
X69150191Y-74749191D01*
X69009843Y-74959235D01*
X68960560Y-75207000D01*
X68960560Y-76177000D01*
X69009843Y-76424765D01*
X69150191Y-76634809D01*
X69168436Y-76647000D01*
X69150191Y-76659191D01*
X69009843Y-76869235D01*
X68960560Y-77117000D01*
X68960560Y-78087000D01*
X69009843Y-78334765D01*
X69150191Y-78544809D01*
X69360235Y-78685157D01*
X69608000Y-78734440D01*
X71108000Y-78734440D01*
X71355765Y-78685157D01*
X71565809Y-78544809D01*
X71706157Y-78334765D01*
X71755440Y-78087000D01*
X71755440Y-77849000D01*
X72533000Y-77849000D01*
X72533001Y-79205760D01*
X70585745Y-81153016D01*
X70449232Y-81244232D01*
X70358016Y-81380746D01*
X70358015Y-81380747D01*
X70087865Y-81785055D01*
X69960969Y-82423000D01*
X70087865Y-83060945D01*
X70449232Y-83601768D01*
X70585746Y-83692984D01*
X73737321Y-86844560D01*
X72125000Y-86844560D01*
X71877235Y-86893843D01*
X71667191Y-87034191D01*
X71526843Y-87244235D01*
X71477560Y-87492000D01*
X71477560Y-89292000D01*
X71526843Y-89539765D01*
X71667191Y-89749809D01*
X71877235Y-89890157D01*
X72125000Y-89939440D01*
X72140000Y-89939440D01*
X72140000Y-91115233D01*
X72100662Y-91313000D01*
X72140001Y-91510771D01*
X72140000Y-93822339D01*
X72122663Y-93909500D01*
X72140000Y-93996661D01*
X72140000Y-93996664D01*
X72191348Y-94254809D01*
X72386951Y-94547549D01*
X72460847Y-94596925D01*
X72662075Y-94798153D01*
X72711451Y-94872049D01*
X73004190Y-95067652D01*
X73227536Y-95112078D01*
X73251343Y-95231765D01*
X73391691Y-95441809D01*
X73601735Y-95582157D01*
X73849500Y-95631440D01*
X74029174Y-95631440D01*
X73835720Y-95711571D01*
X73544569Y-96002722D01*
X73387000Y-96383128D01*
X73387000Y-96794876D01*
X73544569Y-97175282D01*
X73835720Y-97466433D01*
X74197853Y-97616433D01*
X76850784Y-100269365D01*
X77016949Y-100518047D01*
X77090844Y-100567422D01*
X78998001Y-102474580D01*
X78998000Y-108524680D01*
X78955453Y-108738582D01*
X78956934Y-108746026D01*
X78823213Y-108835375D01*
X78587790Y-109187710D01*
X78352367Y-108835375D01*
X77877699Y-108518212D01*
X77459123Y-108434952D01*
X77176457Y-108434952D01*
X77141352Y-108441935D01*
X75704263Y-107004847D01*
X75654887Y-106930951D01*
X75362148Y-106735348D01*
X75104003Y-106684000D01*
X75103999Y-106684000D01*
X75016838Y-106666663D01*
X74929677Y-106684000D01*
X70687163Y-106684000D01*
X70600002Y-106666663D01*
X70512841Y-106684000D01*
X70512837Y-106684000D01*
X70254692Y-106735348D01*
X70035847Y-106881576D01*
X70035846Y-106881577D01*
X69961953Y-106930951D01*
X69912579Y-107004844D01*
X68655000Y-108262424D01*
X68655000Y-99402000D01*
X69183250Y-99402000D01*
X69342000Y-99243250D01*
X69342000Y-98044000D01*
X69322000Y-98044000D01*
X69322000Y-97790000D01*
X69342000Y-97790000D01*
X69342000Y-96590750D01*
X69596000Y-96590750D01*
X69596000Y-97790000D01*
X69616000Y-97790000D01*
X69616000Y-98044000D01*
X69596000Y-98044000D01*
X69596000Y-99243250D01*
X69754750Y-99402000D01*
X70445310Y-99402000D01*
X70678699Y-99305327D01*
X70857327Y-99126698D01*
X70923904Y-98965967D01*
X70938375Y-98987625D01*
X71429582Y-99315839D01*
X71862744Y-99402000D01*
X71888869Y-99402000D01*
X75065000Y-102578132D01*
X75065000Y-103616782D01*
X75130854Y-103947854D01*
X75381711Y-104323289D01*
X75757145Y-104574146D01*
X76200000Y-104662235D01*
X76642854Y-104574146D01*
X77018289Y-104323289D01*
X77269146Y-103947855D01*
X77335000Y-103616783D01*
X77335000Y-102219782D01*
X77357235Y-102107999D01*
X77269146Y-101665145D01*
X77222219Y-101594914D01*
X77018289Y-101289711D01*
X76923521Y-101226389D01*
X73500487Y-97803356D01*
X73407839Y-97337582D01*
X73079625Y-96846375D01*
X72588418Y-96518161D01*
X72155256Y-96432000D01*
X71862744Y-96432000D01*
X71429582Y-96518161D01*
X70938375Y-96846375D01*
X70923904Y-96868033D01*
X70857327Y-96707302D01*
X70678699Y-96528673D01*
X70445310Y-96432000D01*
X69754750Y-96432000D01*
X69596000Y-96590750D01*
X69342000Y-96590750D01*
X69183250Y-96432000D01*
X68655000Y-96432000D01*
X68655000Y-67984693D01*
X68720599Y-67399870D01*
X68900998Y-66881832D01*
X69191686Y-66416635D01*
X69578210Y-66027403D01*
X70041367Y-65733475D01*
X70558134Y-65549462D01*
X71140658Y-65480000D01*
X98069761Y-65480000D01*
X92880202Y-70669560D01*
X92880202Y-70669560D01*
G37*
X92880202Y-70669560D02*
X92145000Y-70669560D01*
X91897235Y-70718843D01*
X91687191Y-70859191D01*
X91546843Y-71069235D01*
X91497560Y-71317000D01*
X91497560Y-73717000D01*
X91546843Y-73964765D01*
X91687191Y-74174809D01*
X91710000Y-74190050D01*
X91710001Y-80788000D01*
X80883000Y-80788000D01*
X80883000Y-79790025D01*
X80915030Y-79628999D01*
X80883000Y-79467973D01*
X80883000Y-79467969D01*
X80788136Y-78991055D01*
X80756655Y-78943940D01*
X81522000Y-78943940D01*
X81769765Y-78894657D01*
X81979809Y-78754309D01*
X82120157Y-78544265D01*
X82169440Y-78296500D01*
X82169440Y-77151500D01*
X82120157Y-76903735D01*
X81979809Y-76693691D01*
X81961564Y-76681500D01*
X81979809Y-76669309D01*
X82120157Y-76459265D01*
X82169440Y-76211500D01*
X82169440Y-75066500D01*
X82120157Y-74818735D01*
X81979809Y-74608691D01*
X81769765Y-74468343D01*
X81522000Y-74419060D01*
X80022000Y-74419060D01*
X79774235Y-74468343D01*
X79564191Y-74608691D01*
X79486000Y-74725711D01*
X79486000Y-73814175D01*
X84727430Y-73814175D01*
X84850565Y-74101788D01*
X85532734Y-74361707D01*
X86262443Y-74340786D01*
X86839435Y-74101788D01*
X86962570Y-73814175D01*
X85845000Y-72696605D01*
X84727430Y-73814175D01*
X79486000Y-73814175D01*
X79486000Y-72204734D01*
X84000293Y-72204734D01*
X84021214Y-72934443D01*
X84260212Y-73511435D01*
X84547825Y-73634570D01*
X85665395Y-72517000D01*
X86024605Y-72517000D01*
X87142175Y-73634570D01*
X87429788Y-73511435D01*
X87689707Y-72829266D01*
X87668786Y-72099557D01*
X87429788Y-71522565D01*
X87142175Y-71399430D01*
X86024605Y-72517000D01*
X85665395Y-72517000D01*
X84547825Y-71399430D01*
X84260212Y-71522565D01*
X84000293Y-72204734D01*
X79486000Y-72204734D01*
X79486000Y-71219825D01*
X84727430Y-71219825D01*
X85845000Y-72337395D01*
X86962570Y-71219825D01*
X86839435Y-70932212D01*
X86157266Y-70672293D01*
X85427557Y-70693214D01*
X84850565Y-70932212D01*
X84727430Y-71219825D01*
X79486000Y-71219825D01*
X79486000Y-69561969D01*
X79398440Y-69121775D01*
X79398440Y-67923000D01*
X79349157Y-67675235D01*
X79208809Y-67465191D01*
X78998765Y-67324843D01*
X78751000Y-67275560D01*
X76951000Y-67275560D01*
X76703235Y-67324843D01*
X76493191Y-67465191D01*
X76352843Y-67675235D01*
X76303560Y-67923000D01*
X76303560Y-69121776D01*
X76216000Y-69561970D01*
X76216001Y-72990966D01*
X76216000Y-72990970D01*
X76216000Y-75268761D01*
X75893202Y-75591560D01*
X75858000Y-75591560D01*
X75610235Y-75640843D01*
X75400191Y-75781191D01*
X75324093Y-75895079D01*
X75210253Y-75819014D01*
X74406000Y-75014762D01*
X74406000Y-69561969D01*
X74311136Y-69085055D01*
X74306000Y-69077368D01*
X74306000Y-68671818D01*
X74216938Y-68224073D01*
X73877673Y-67716327D01*
X73369927Y-67377062D01*
X72771000Y-67257928D01*
X72172074Y-67377062D01*
X71664328Y-67716327D01*
X71325063Y-68224073D01*
X71236001Y-68671818D01*
X71236001Y-69077368D01*
X71230864Y-69085056D01*
X71136000Y-69561970D01*
X71136001Y-74565130D01*
X71108000Y-74559560D01*
X69608000Y-74559560D01*
X69360235Y-74608843D01*
X69150191Y-74749191D01*
X69009843Y-74959235D01*
X68960560Y-75207000D01*
X68960560Y-76177000D01*
X69009843Y-76424765D01*
X69150191Y-76634809D01*
X69168436Y-76647000D01*
X69150191Y-76659191D01*
X69009843Y-76869235D01*
X68960560Y-77117000D01*
X68960560Y-78087000D01*
X69009843Y-78334765D01*
X69150191Y-78544809D01*
X69360235Y-78685157D01*
X69608000Y-78734440D01*
X71108000Y-78734440D01*
X71355765Y-78685157D01*
X71565809Y-78544809D01*
X71706157Y-78334765D01*
X71755440Y-78087000D01*
X71755440Y-77849000D01*
X72533000Y-77849000D01*
X72533001Y-79205760D01*
X70585745Y-81153016D01*
X70449232Y-81244232D01*
X70358016Y-81380746D01*
X70358015Y-81380747D01*
X70087865Y-81785055D01*
X69960969Y-82423000D01*
X70087865Y-83060945D01*
X70449232Y-83601768D01*
X70585746Y-83692984D01*
X73737321Y-86844560D01*
X72125000Y-86844560D01*
X71877235Y-86893843D01*
X71667191Y-87034191D01*
X71526843Y-87244235D01*
X71477560Y-87492000D01*
X71477560Y-89292000D01*
X71526843Y-89539765D01*
X71667191Y-89749809D01*
X71877235Y-89890157D01*
X72125000Y-89939440D01*
X72140000Y-89939440D01*
X72140000Y-91115233D01*
X72100662Y-91313000D01*
X72140001Y-91510771D01*
X72140000Y-93822339D01*
X72122663Y-93909500D01*
X72140000Y-93996661D01*
X72140000Y-93996664D01*
X72191348Y-94254809D01*
X72386951Y-94547549D01*
X72460847Y-94596925D01*
X72662075Y-94798153D01*
X72711451Y-94872049D01*
X73004190Y-95067652D01*
X73227536Y-95112078D01*
X73251343Y-95231765D01*
X73391691Y-95441809D01*
X73601735Y-95582157D01*
X73849500Y-95631440D01*
X74029174Y-95631440D01*
X73835720Y-95711571D01*
X73544569Y-96002722D01*
X73387000Y-96383128D01*
X73387000Y-96794876D01*
X73544569Y-97175282D01*
X73835720Y-97466433D01*
X74197853Y-97616433D01*
X76850784Y-100269365D01*
X77016949Y-100518047D01*
X77090844Y-100567422D01*
X78998001Y-102474580D01*
X78998000Y-108524680D01*
X78955453Y-108738582D01*
X78956934Y-108746026D01*
X78823213Y-108835375D01*
X78587790Y-109187710D01*
X78352367Y-108835375D01*
X77877699Y-108518212D01*
X77459123Y-108434952D01*
X77176457Y-108434952D01*
X77141352Y-108441935D01*
X75704263Y-107004847D01*
X75654887Y-106930951D01*
X75362148Y-106735348D01*
X75104003Y-106684000D01*
X75103999Y-106684000D01*
X75016838Y-106666663D01*
X74929677Y-106684000D01*
X70687163Y-106684000D01*
X70600002Y-106666663D01*
X70512841Y-106684000D01*
X70512837Y-106684000D01*
X70254692Y-106735348D01*
X70035847Y-106881576D01*
X70035846Y-106881577D01*
X69961953Y-106930951D01*
X69912579Y-107004844D01*
X68655000Y-108262424D01*
X68655000Y-99402000D01*
X69183250Y-99402000D01*
X69342000Y-99243250D01*
X69342000Y-98044000D01*
X69322000Y-98044000D01*
X69322000Y-97790000D01*
X69342000Y-97790000D01*
X69342000Y-96590750D01*
X69596000Y-96590750D01*
X69596000Y-97790000D01*
X69616000Y-97790000D01*
X69616000Y-98044000D01*
X69596000Y-98044000D01*
X69596000Y-99243250D01*
X69754750Y-99402000D01*
X70445310Y-99402000D01*
X70678699Y-99305327D01*
X70857327Y-99126698D01*
X70923904Y-98965967D01*
X70938375Y-98987625D01*
X71429582Y-99315839D01*
X71862744Y-99402000D01*
X71888869Y-99402000D01*
X75065000Y-102578132D01*
X75065000Y-103616782D01*
X75130854Y-103947854D01*
X75381711Y-104323289D01*
X75757145Y-104574146D01*
X76200000Y-104662235D01*
X76642854Y-104574146D01*
X77018289Y-104323289D01*
X77269146Y-103947855D01*
X77335000Y-103616783D01*
X77335000Y-102219782D01*
X77357235Y-102107999D01*
X77269146Y-101665145D01*
X77222219Y-101594914D01*
X77018289Y-101289711D01*
X76923521Y-101226389D01*
X73500487Y-97803356D01*
X73407839Y-97337582D01*
X73079625Y-96846375D01*
X72588418Y-96518161D01*
X72155256Y-96432000D01*
X71862744Y-96432000D01*
X71429582Y-96518161D01*
X70938375Y-96846375D01*
X70923904Y-96868033D01*
X70857327Y-96707302D01*
X70678699Y-96528673D01*
X70445310Y-96432000D01*
X69754750Y-96432000D01*
X69596000Y-96590750D01*
X69342000Y-96590750D01*
X69183250Y-96432000D01*
X68655000Y-96432000D01*
X68655000Y-67984693D01*
X68720599Y-67399870D01*
X68900998Y-66881832D01*
X69191686Y-66416635D01*
X69578210Y-66027403D01*
X70041367Y-65733475D01*
X70558134Y-65549462D01*
X71140658Y-65480000D01*
X98069761Y-65480000D01*
X92880202Y-70669560D01*
G36*
X115998168Y-65725998D02*
X116463365Y-66016686D01*
X116852597Y-66403210D01*
X117146525Y-66866367D01*
X117330538Y-67383134D01*
X117400001Y-67965666D01*
X117400000Y-70173925D01*
X117400001Y-70173930D01*
X117400000Y-80206925D01*
X117400001Y-80206930D01*
X117400001Y-97934218D01*
X117374253Y-97917014D01*
X115801638Y-96344400D01*
X115601638Y-95861556D01*
X115085444Y-95345362D01*
X114411004Y-95066000D01*
X113680996Y-95066000D01*
X113198153Y-95266000D01*
X111083847Y-95266000D01*
X110601004Y-95066000D01*
X109870996Y-95066000D01*
X109388153Y-95266000D01*
X106638847Y-95266000D01*
X106156004Y-95066000D01*
X105425996Y-95066000D01*
X104943153Y-95266000D01*
X102828847Y-95266000D01*
X102346004Y-95066000D01*
X101615996Y-95066000D01*
X100941556Y-95345362D01*
X100425362Y-95861556D01*
X100146000Y-96535996D01*
X100146000Y-96608421D01*
X95896431Y-92358853D01*
X95746431Y-91996720D01*
X95455280Y-91705569D01*
X95074874Y-91548000D01*
X94663126Y-91548000D01*
X94480000Y-91623853D01*
X94480000Y-90239440D01*
X94545000Y-90239440D01*
X94792765Y-90190157D01*
X95002809Y-90049809D01*
X95143157Y-89839765D01*
X95192440Y-89592000D01*
X95192440Y-87192000D01*
X95143157Y-86944235D01*
X95002809Y-86734191D01*
X94980000Y-86718950D01*
X94980000Y-82330027D01*
X95012030Y-82169001D01*
X94980000Y-82007975D01*
X94980000Y-74190050D01*
X95002809Y-74174809D01*
X95143157Y-73964765D01*
X95192440Y-73717000D01*
X95192440Y-72981798D01*
X100118239Y-68056000D01*
X101125040Y-68056000D01*
X101265019Y-68149531D01*
X101800273Y-68256000D01*
X102161727Y-68256000D01*
X102696981Y-68149531D01*
X102836960Y-68056000D01*
X104935040Y-68056000D01*
X105075019Y-68149531D01*
X105610273Y-68256000D01*
X105971727Y-68256000D01*
X106506981Y-68149531D01*
X106646960Y-68056000D01*
X109380040Y-68056000D01*
X109520019Y-68149531D01*
X110055273Y-68256000D01*
X110416727Y-68256000D01*
X110951981Y-68149531D01*
X111091960Y-68056000D01*
X113190040Y-68056000D01*
X113330019Y-68149531D01*
X113865273Y-68256000D01*
X114226727Y-68256000D01*
X114761981Y-68149531D01*
X115368961Y-67743961D01*
X115774531Y-67136981D01*
X115916949Y-66421000D01*
X115774531Y-65705019D01*
X115724983Y-65630865D01*
X115998168Y-65725998D01*
X115998168Y-65725998D01*
G37*
X115998168Y-65725998D02*
X116463365Y-66016686D01*
X116852597Y-66403210D01*
X117146525Y-66866367D01*
X117330538Y-67383134D01*
X117400001Y-67965666D01*
X117400000Y-70173925D01*
X117400001Y-70173930D01*
X117400000Y-80206925D01*
X117400001Y-80206930D01*
X117400001Y-97934218D01*
X117374253Y-97917014D01*
X115801638Y-96344400D01*
X115601638Y-95861556D01*
X115085444Y-95345362D01*
X114411004Y-95066000D01*
X113680996Y-95066000D01*
X113198153Y-95266000D01*
X111083847Y-95266000D01*
X110601004Y-95066000D01*
X109870996Y-95066000D01*
X109388153Y-95266000D01*
X106638847Y-95266000D01*
X106156004Y-95066000D01*
X105425996Y-95066000D01*
X104943153Y-95266000D01*
X102828847Y-95266000D01*
X102346004Y-95066000D01*
X101615996Y-95066000D01*
X100941556Y-95345362D01*
X100425362Y-95861556D01*
X100146000Y-96535996D01*
X100146000Y-96608421D01*
X95896431Y-92358853D01*
X95746431Y-91996720D01*
X95455280Y-91705569D01*
X95074874Y-91548000D01*
X94663126Y-91548000D01*
X94480000Y-91623853D01*
X94480000Y-90239440D01*
X94545000Y-90239440D01*
X94792765Y-90190157D01*
X95002809Y-90049809D01*
X95143157Y-89839765D01*
X95192440Y-89592000D01*
X95192440Y-87192000D01*
X95143157Y-86944235D01*
X95002809Y-86734191D01*
X94980000Y-86718950D01*
X94980000Y-82330027D01*
X95012030Y-82169001D01*
X94980000Y-82007975D01*
X94980000Y-74190050D01*
X95002809Y-74174809D01*
X95143157Y-73964765D01*
X95192440Y-73717000D01*
X95192440Y-72981798D01*
X100118239Y-68056000D01*
X101125040Y-68056000D01*
X101265019Y-68149531D01*
X101800273Y-68256000D01*
X102161727Y-68256000D01*
X102696981Y-68149531D01*
X102836960Y-68056000D01*
X104935040Y-68056000D01*
X105075019Y-68149531D01*
X105610273Y-68256000D01*
X105971727Y-68256000D01*
X106506981Y-68149531D01*
X106646960Y-68056000D01*
X109380040Y-68056000D01*
X109520019Y-68149531D01*
X110055273Y-68256000D01*
X110416727Y-68256000D01*
X110951981Y-68149531D01*
X111091960Y-68056000D01*
X113190040Y-68056000D01*
X113330019Y-68149531D01*
X113865273Y-68256000D01*
X114226727Y-68256000D01*
X114761981Y-68149531D01*
X115368961Y-67743961D01*
X115774531Y-67136981D01*
X115916949Y-66421000D01*
X115774531Y-65705019D01*
X115724983Y-65630865D01*
X115998168Y-65725998D01*
G36*
X75858000Y-78586440D02*
X75893202Y-78586440D01*
X76581015Y-79274253D01*
X76672232Y-79410769D01*
X76808747Y-79501985D01*
X77513686Y-80206925D01*
X77613001Y-80306239D01*
X77613000Y-82261969D01*
X77580969Y-82423000D01*
X77707864Y-83060945D01*
X77800560Y-83199674D01*
X77800560Y-83223000D01*
X77849843Y-83470765D01*
X77990191Y-83680809D01*
X78200235Y-83821157D01*
X78448000Y-83870440D01*
X78471326Y-83870440D01*
X78610055Y-83963136D01*
X79248000Y-84090031D01*
X79409031Y-84058000D01*
X91710000Y-84058000D01*
X91710001Y-86718950D01*
X91687191Y-86734191D01*
X91546843Y-86944235D01*
X91497560Y-87192000D01*
X91497560Y-89592000D01*
X91546843Y-89839765D01*
X91687191Y-90049809D01*
X91897235Y-90190157D01*
X92145000Y-90239440D01*
X92210000Y-90239440D01*
X92210001Y-91623853D01*
X92026874Y-91548000D01*
X91615126Y-91548000D01*
X91252993Y-91698000D01*
X81773579Y-91698000D01*
X79935425Y-89859847D01*
X79886049Y-89785951D01*
X79741215Y-89689175D01*
X84727430Y-89689175D01*
X84850565Y-89976788D01*
X85532734Y-90236707D01*
X86262443Y-90215786D01*
X86839435Y-89976788D01*
X86962570Y-89689175D01*
X85845000Y-88571605D01*
X84727430Y-89689175D01*
X79741215Y-89689175D01*
X79593310Y-89590348D01*
X79335165Y-89539000D01*
X79335161Y-89539000D01*
X79248000Y-89521663D01*
X79160839Y-89539000D01*
X79095943Y-89539000D01*
X79417240Y-89188417D01*
X79596036Y-88756740D01*
X79475378Y-88519000D01*
X78232000Y-88519000D01*
X78232000Y-88539000D01*
X77978000Y-88539000D01*
X77978000Y-88519000D01*
X77958000Y-88519000D01*
X77958000Y-88265000D01*
X77978000Y-88265000D01*
X77978000Y-87021003D01*
X78232000Y-87021003D01*
X78232000Y-88265000D01*
X79475378Y-88265000D01*
X79569404Y-88079734D01*
X84000293Y-88079734D01*
X84021214Y-88809443D01*
X84260212Y-89386435D01*
X84547825Y-89509570D01*
X85665395Y-88392000D01*
X86024605Y-88392000D01*
X87142175Y-89509570D01*
X87429788Y-89386435D01*
X87689707Y-88704266D01*
X87668786Y-87974557D01*
X87429788Y-87397565D01*
X87142175Y-87274430D01*
X86024605Y-88392000D01*
X85665395Y-88392000D01*
X84547825Y-87274430D01*
X84260212Y-87397565D01*
X84000293Y-88079734D01*
X79569404Y-88079734D01*
X79596036Y-88027260D01*
X79417240Y-87595583D01*
X79012576Y-87154034D01*
X78885578Y-87094825D01*
X84727430Y-87094825D01*
X85845000Y-88212395D01*
X86962570Y-87094825D01*
X86839435Y-86807212D01*
X86157266Y-86547293D01*
X85427557Y-86568214D01*
X84850565Y-86807212D01*
X84727430Y-87094825D01*
X78885578Y-87094825D01*
X78469742Y-86900954D01*
X78232000Y-87021003D01*
X77978000Y-87021003D01*
X77740258Y-86900954D01*
X77200000Y-87152833D01*
X77200000Y-86521030D01*
X77232031Y-86360000D01*
X77200000Y-86198969D01*
X77105136Y-85722055D01*
X76743769Y-85181231D01*
X76607253Y-85090014D01*
X73940238Y-82423000D01*
X75210253Y-81152986D01*
X75346769Y-81061769D01*
X75708136Y-80520945D01*
X75803000Y-80044031D01*
X75803000Y-80044027D01*
X75835030Y-79883001D01*
X75803000Y-79721975D01*
X75803000Y-78575500D01*
X75858000Y-78586440D01*
X75858000Y-78586440D01*
G37*
X75858000Y-78586440D02*
X75893202Y-78586440D01*
X76581015Y-79274253D01*
X76672232Y-79410769D01*
X76808747Y-79501985D01*
X77513686Y-80206925D01*
X77613001Y-80306239D01*
X77613000Y-82261969D01*
X77580969Y-82423000D01*
X77707864Y-83060945D01*
X77800560Y-83199674D01*
X77800560Y-83223000D01*
X77849843Y-83470765D01*
X77990191Y-83680809D01*
X78200235Y-83821157D01*
X78448000Y-83870440D01*
X78471326Y-83870440D01*
X78610055Y-83963136D01*
X79248000Y-84090031D01*
X79409031Y-84058000D01*
X91710000Y-84058000D01*
X91710001Y-86718950D01*
X91687191Y-86734191D01*
X91546843Y-86944235D01*
X91497560Y-87192000D01*
X91497560Y-89592000D01*
X91546843Y-89839765D01*
X91687191Y-90049809D01*
X91897235Y-90190157D01*
X92145000Y-90239440D01*
X92210000Y-90239440D01*
X92210001Y-91623853D01*
X92026874Y-91548000D01*
X91615126Y-91548000D01*
X91252993Y-91698000D01*
X81773579Y-91698000D01*
X79935425Y-89859847D01*
X79886049Y-89785951D01*
X79741215Y-89689175D01*
X84727430Y-89689175D01*
X84850565Y-89976788D01*
X85532734Y-90236707D01*
X86262443Y-90215786D01*
X86839435Y-89976788D01*
X86962570Y-89689175D01*
X85845000Y-88571605D01*
X84727430Y-89689175D01*
X79741215Y-89689175D01*
X79593310Y-89590348D01*
X79335165Y-89539000D01*
X79335161Y-89539000D01*
X79248000Y-89521663D01*
X79160839Y-89539000D01*
X79095943Y-89539000D01*
X79417240Y-89188417D01*
X79596036Y-88756740D01*
X79475378Y-88519000D01*
X78232000Y-88519000D01*
X78232000Y-88539000D01*
X77978000Y-88539000D01*
X77978000Y-88519000D01*
X77958000Y-88519000D01*
X77958000Y-88265000D01*
X77978000Y-88265000D01*
X77978000Y-87021003D01*
X78232000Y-87021003D01*
X78232000Y-88265000D01*
X79475378Y-88265000D01*
X79569404Y-88079734D01*
X84000293Y-88079734D01*
X84021214Y-88809443D01*
X84260212Y-89386435D01*
X84547825Y-89509570D01*
X85665395Y-88392000D01*
X86024605Y-88392000D01*
X87142175Y-89509570D01*
X87429788Y-89386435D01*
X87689707Y-88704266D01*
X87668786Y-87974557D01*
X87429788Y-87397565D01*
X87142175Y-87274430D01*
X86024605Y-88392000D01*
X85665395Y-88392000D01*
X84547825Y-87274430D01*
X84260212Y-87397565D01*
X84000293Y-88079734D01*
X79569404Y-88079734D01*
X79596036Y-88027260D01*
X79417240Y-87595583D01*
X79012576Y-87154034D01*
X78885578Y-87094825D01*
X84727430Y-87094825D01*
X85845000Y-88212395D01*
X86962570Y-87094825D01*
X86839435Y-86807212D01*
X86157266Y-86547293D01*
X85427557Y-86568214D01*
X84850565Y-86807212D01*
X84727430Y-87094825D01*
X78885578Y-87094825D01*
X78469742Y-86900954D01*
X78232000Y-87021003D01*
X77978000Y-87021003D01*
X77740258Y-86900954D01*
X77200000Y-87152833D01*
X77200000Y-86521030D01*
X77232031Y-86360000D01*
X77200000Y-86198969D01*
X77105136Y-85722055D01*
X76743769Y-85181231D01*
X76607253Y-85090014D01*
X73940238Y-82423000D01*
X75210253Y-81152986D01*
X75346769Y-81061769D01*
X75708136Y-80520945D01*
X75803000Y-80044031D01*
X75803000Y-80044027D01*
X75835030Y-79883001D01*
X75803000Y-79721975D01*
X75803000Y-78575500D01*
X75858000Y-78586440D01*
M02*
