G04 #@! TF.GenerationSoftware,KiCad,Pcbnew,5.0.0-rc2-dev-unknown-f73b9a5~65~ubuntu16.04.1*
G04 #@! TF.CreationDate,2018-05-13T13:10:50+02:00*
G04 #@! TF.ProjectId,Libreductioner,4C6962726564756374696F6E65722E6B,rev?*
G04 #@! TF.SameCoordinates,Original*
G04 #@! TF.FileFunction,Legend,Top*
G04 #@! TF.FilePolarity,Positive*
%FSLAX46Y46*%
G04 Gerber Fmt 4.6, Leading zero omitted, Abs format (unit mm)*
G04 Created by KiCad (PCBNEW 5.0.0-rc2-dev-unknown-f73b9a5~65~ubuntu16.04.1) date Sun May 13 13:10:50 2018*
%MOMM*%
%LPD*%
G01*
G04 APERTURE LIST*
%ADD10C,0.200000*%
%ADD11C,0.100000*%
%ADD12C,0.300000*%
%ADD13C,0.400000*%
%ADD14C,0.120000*%
%ADD15C,0.150000*%
G04 APERTURE END LIST*
D10*
X68567095Y-128341380D02*
X68567095Y-127341380D01*
X69043285Y-128341380D02*
X69043285Y-127341380D01*
X69614714Y-128341380D01*
X69614714Y-127341380D01*
D11*
X71715380Y-95821476D02*
X71715380Y-96297666D01*
X72191571Y-96345285D01*
X72143952Y-96297666D01*
X72096333Y-96202428D01*
X72096333Y-95964333D01*
X72143952Y-95869095D01*
X72191571Y-95821476D01*
X72286809Y-95773857D01*
X72524904Y-95773857D01*
X72620142Y-95821476D01*
X72667761Y-95869095D01*
X72715380Y-95964333D01*
X72715380Y-96202428D01*
X72667761Y-96297666D01*
X72620142Y-96345285D01*
X71715380Y-95488142D02*
X72715380Y-95154809D01*
X71715380Y-94821476D01*
X68969000Y-95757904D02*
X68921380Y-95853142D01*
X68921380Y-95996000D01*
X68969000Y-96138857D01*
X69064238Y-96234095D01*
X69159476Y-96281714D01*
X69349952Y-96329333D01*
X69492809Y-96329333D01*
X69683285Y-96281714D01*
X69778523Y-96234095D01*
X69873761Y-96138857D01*
X69921380Y-95996000D01*
X69921380Y-95900761D01*
X69873761Y-95757904D01*
X69826142Y-95710285D01*
X69492809Y-95710285D01*
X69492809Y-95900761D01*
X69921380Y-95281714D02*
X68921380Y-95281714D01*
X69921380Y-94710285D01*
X68921380Y-94710285D01*
X69921380Y-94234095D02*
X68921380Y-94234095D01*
X68921380Y-93996000D01*
X68969000Y-93853142D01*
X69064238Y-93757904D01*
X69159476Y-93710285D01*
X69349952Y-93662666D01*
X69492809Y-93662666D01*
X69683285Y-93710285D01*
X69778523Y-93757904D01*
X69873761Y-93853142D01*
X69921380Y-93996000D01*
X69921380Y-94234095D01*
X69840000Y-79625000D02*
X69806666Y-79658333D01*
X69706666Y-79691666D01*
X69640000Y-79691666D01*
X69540000Y-79658333D01*
X69473333Y-79591666D01*
X69440000Y-79525000D01*
X69406666Y-79391666D01*
X69406666Y-79291666D01*
X69440000Y-79158333D01*
X69473333Y-79091666D01*
X69540000Y-79025000D01*
X69640000Y-78991666D01*
X69706666Y-78991666D01*
X69806666Y-79025000D01*
X69840000Y-79058333D01*
X70240000Y-79691666D02*
X70173333Y-79658333D01*
X70140000Y-79625000D01*
X70106666Y-79558333D01*
X70106666Y-79358333D01*
X70140000Y-79291666D01*
X70173333Y-79258333D01*
X70240000Y-79225000D01*
X70340000Y-79225000D01*
X70406666Y-79258333D01*
X70440000Y-79291666D01*
X70473333Y-79358333D01*
X70473333Y-79558333D01*
X70440000Y-79625000D01*
X70406666Y-79658333D01*
X70340000Y-79691666D01*
X70240000Y-79691666D01*
X70773333Y-79225000D02*
X70773333Y-79691666D01*
X70773333Y-79291666D02*
X70806666Y-79258333D01*
X70873333Y-79225000D01*
X70973333Y-79225000D01*
X71040000Y-79258333D01*
X71073333Y-79325000D01*
X71073333Y-79691666D01*
X71306666Y-79225000D02*
X71573333Y-79225000D01*
X71406666Y-78991666D02*
X71406666Y-79591666D01*
X71440000Y-79658333D01*
X71506666Y-79691666D01*
X71573333Y-79691666D01*
X71806666Y-79691666D02*
X71806666Y-79225000D01*
X71806666Y-79358333D02*
X71840000Y-79291666D01*
X71873333Y-79258333D01*
X71940000Y-79225000D01*
X72006666Y-79225000D01*
X72340000Y-79691666D02*
X72273333Y-79658333D01*
X72240000Y-79625000D01*
X72206666Y-79558333D01*
X72206666Y-79358333D01*
X72240000Y-79291666D01*
X72273333Y-79258333D01*
X72340000Y-79225000D01*
X72440000Y-79225000D01*
X72506666Y-79258333D01*
X72540000Y-79291666D01*
X72573333Y-79358333D01*
X72573333Y-79558333D01*
X72540000Y-79625000D01*
X72506666Y-79658333D01*
X72440000Y-79691666D01*
X72340000Y-79691666D01*
X72973333Y-79691666D02*
X72906666Y-79658333D01*
X72873333Y-79591666D01*
X72873333Y-78991666D01*
X74106666Y-79691666D02*
X73773333Y-79691666D01*
X73773333Y-78991666D01*
X74340000Y-79325000D02*
X74573333Y-79325000D01*
X74673333Y-79691666D02*
X74340000Y-79691666D01*
X74340000Y-78991666D01*
X74673333Y-78991666D01*
X74973333Y-79691666D02*
X74973333Y-78991666D01*
X75140000Y-78991666D01*
X75240000Y-79025000D01*
X75306666Y-79091666D01*
X75340000Y-79158333D01*
X75373333Y-79291666D01*
X75373333Y-79391666D01*
X75340000Y-79525000D01*
X75306666Y-79591666D01*
X75240000Y-79658333D01*
X75140000Y-79691666D01*
X74973333Y-79691666D01*
X112255333Y-104063000D02*
X112788666Y-104063000D01*
X112522000Y-104329666D02*
X112522000Y-103796333D01*
X71615333Y-75742000D02*
X72148666Y-75742000D01*
X71882000Y-76008666D02*
X71882000Y-75475333D01*
D10*
X68567095Y-128722428D02*
X69329000Y-128722428D01*
X72090904Y-128722428D02*
X72852809Y-128722428D01*
X72471857Y-129103380D02*
X72471857Y-128341476D01*
D11*
X74969619Y-136588523D02*
X74969619Y-136112333D01*
X74493428Y-136064714D01*
X74541047Y-136112333D01*
X74588666Y-136207571D01*
X74588666Y-136445666D01*
X74541047Y-136540904D01*
X74493428Y-136588523D01*
X74398190Y-136636142D01*
X74160095Y-136636142D01*
X74064857Y-136588523D01*
X74017238Y-136540904D01*
X73969619Y-136445666D01*
X73969619Y-136207571D01*
X74017238Y-136112333D01*
X74064857Y-136064714D01*
X74969619Y-136921857D02*
X73969619Y-137255190D01*
X74969619Y-137588523D01*
X81494380Y-137358380D02*
X81161047Y-136882190D01*
X80922952Y-137358380D02*
X80922952Y-136358380D01*
X81303904Y-136358380D01*
X81399142Y-136406000D01*
X81446761Y-136453619D01*
X81494380Y-136548857D01*
X81494380Y-136691714D01*
X81446761Y-136786952D01*
X81399142Y-136834571D01*
X81303904Y-136882190D01*
X80922952Y-136882190D01*
X81875333Y-137310761D02*
X82018190Y-137358380D01*
X82256285Y-137358380D01*
X82351523Y-137310761D01*
X82399142Y-137263142D01*
X82446761Y-137167904D01*
X82446761Y-137072666D01*
X82399142Y-136977428D01*
X82351523Y-136929809D01*
X82256285Y-136882190D01*
X82065809Y-136834571D01*
X81970571Y-136786952D01*
X81922952Y-136739333D01*
X81875333Y-136644095D01*
X81875333Y-136548857D01*
X81922952Y-136453619D01*
X81970571Y-136406000D01*
X82065809Y-136358380D01*
X82303904Y-136358380D01*
X82446761Y-136406000D01*
X82732476Y-136358380D02*
X83303904Y-136358380D01*
X83018190Y-137358380D02*
X83018190Y-136358380D01*
D10*
X90754905Y-98044000D02*
G75*
G03X90754905Y-98044000I-457905J0D01*
G01*
X103962905Y-104013000D02*
G75*
G03X103962905Y-104013000I-457905J0D01*
G01*
D11*
X74296476Y-97643904D02*
X74296476Y-96843904D01*
X74601238Y-96843904D01*
X74677428Y-96882000D01*
X74715523Y-96920095D01*
X74753619Y-96996285D01*
X74753619Y-97110571D01*
X74715523Y-97186761D01*
X74677428Y-97224857D01*
X74601238Y-97262952D01*
X74296476Y-97262952D01*
X75439333Y-97110571D02*
X75439333Y-97643904D01*
X75096476Y-97110571D02*
X75096476Y-97529619D01*
X75134571Y-97605809D01*
X75210761Y-97643904D01*
X75325047Y-97643904D01*
X75401238Y-97605809D01*
X75439333Y-97567714D01*
X75934571Y-97643904D02*
X75858380Y-97605809D01*
X75820285Y-97529619D01*
X75820285Y-96843904D01*
X76353619Y-97643904D02*
X76277428Y-97605809D01*
X76239333Y-97529619D01*
X76239333Y-96843904D01*
X77001238Y-97643904D02*
X77001238Y-96843904D01*
X77001238Y-97605809D02*
X76925047Y-97643904D01*
X76772666Y-97643904D01*
X76696476Y-97605809D01*
X76658380Y-97567714D01*
X76620285Y-97491523D01*
X76620285Y-97262952D01*
X76658380Y-97186761D01*
X76696476Y-97148666D01*
X76772666Y-97110571D01*
X76925047Y-97110571D01*
X77001238Y-97148666D01*
X77496476Y-97643904D02*
X77420285Y-97605809D01*
X77382190Y-97567714D01*
X77344095Y-97491523D01*
X77344095Y-97262952D01*
X77382190Y-97186761D01*
X77420285Y-97148666D01*
X77496476Y-97110571D01*
X77610761Y-97110571D01*
X77686952Y-97148666D01*
X77725047Y-97186761D01*
X77763142Y-97262952D01*
X77763142Y-97491523D01*
X77725047Y-97567714D01*
X77686952Y-97605809D01*
X77610761Y-97643904D01*
X77496476Y-97643904D01*
X78029809Y-97110571D02*
X78182190Y-97643904D01*
X78334571Y-97262952D01*
X78486952Y-97643904D01*
X78639333Y-97110571D01*
X78944095Y-97110571D02*
X78944095Y-97643904D01*
X78944095Y-97186761D02*
X78982190Y-97148666D01*
X79058380Y-97110571D01*
X79172666Y-97110571D01*
X79248857Y-97148666D01*
X79286952Y-97224857D01*
X79286952Y-97643904D01*
D10*
X109672380Y-106362333D02*
X108672380Y-106362333D01*
X108672380Y-105981380D01*
X108720000Y-105886142D01*
X108767619Y-105838523D01*
X108862857Y-105790904D01*
X109005714Y-105790904D01*
X109100952Y-105838523D01*
X109148571Y-105886142D01*
X109196190Y-105981380D01*
X109196190Y-106362333D01*
X108672380Y-105457571D02*
X109672380Y-105219476D01*
X108958095Y-105029000D01*
X109672380Y-104838523D01*
X108672380Y-104600428D01*
X109672380Y-103648047D02*
X109196190Y-103981380D01*
X109672380Y-104219476D02*
X108672380Y-104219476D01*
X108672380Y-103838523D01*
X108720000Y-103743285D01*
X108767619Y-103695666D01*
X108862857Y-103648047D01*
X109005714Y-103648047D01*
X109100952Y-103695666D01*
X109148571Y-103743285D01*
X109196190Y-103838523D01*
X109196190Y-104219476D01*
X101981000Y-122428000D02*
X101981000Y-122555000D01*
X101981000Y-122555000D02*
X101981000Y-122428000D01*
X107188000Y-122555000D02*
X101981000Y-122555000D01*
X107188000Y-122428000D02*
X107188000Y-122555000D01*
X101981000Y-122428000D02*
X107188000Y-122428000D01*
D11*
X99568095Y-114816000D02*
X99472857Y-114768380D01*
X99330000Y-114768380D01*
X99187142Y-114816000D01*
X99091904Y-114911238D01*
X99044285Y-115006476D01*
X98996666Y-115196952D01*
X98996666Y-115339809D01*
X99044285Y-115530285D01*
X99091904Y-115625523D01*
X99187142Y-115720761D01*
X99330000Y-115768380D01*
X99425238Y-115768380D01*
X99568095Y-115720761D01*
X99615714Y-115673142D01*
X99615714Y-115339809D01*
X99425238Y-115339809D01*
X100044285Y-115768380D02*
X100044285Y-114768380D01*
X100615714Y-115768380D01*
X100615714Y-114768380D01*
X101091904Y-115768380D02*
X101091904Y-114768380D01*
X101330000Y-114768380D01*
X101472857Y-114816000D01*
X101568095Y-114911238D01*
X101615714Y-115006476D01*
X101663333Y-115196952D01*
X101663333Y-115339809D01*
X101615714Y-115530285D01*
X101568095Y-115625523D01*
X101472857Y-115720761D01*
X101330000Y-115768380D01*
X101091904Y-115768380D01*
X98631571Y-117800380D02*
X98631571Y-116800380D01*
X98964904Y-117514666D01*
X99298238Y-116800380D01*
X99298238Y-117800380D01*
X99964904Y-116800380D02*
X100155380Y-116800380D01*
X100250619Y-116848000D01*
X100345857Y-116943238D01*
X100393476Y-117133714D01*
X100393476Y-117467047D01*
X100345857Y-117657523D01*
X100250619Y-117752761D01*
X100155380Y-117800380D01*
X99964904Y-117800380D01*
X99869666Y-117752761D01*
X99774428Y-117657523D01*
X99726809Y-117467047D01*
X99726809Y-117133714D01*
X99774428Y-116943238D01*
X99869666Y-116848000D01*
X99964904Y-116800380D01*
X100774428Y-117752761D02*
X100917285Y-117800380D01*
X101155380Y-117800380D01*
X101250619Y-117752761D01*
X101298238Y-117705142D01*
X101345857Y-117609904D01*
X101345857Y-117514666D01*
X101298238Y-117419428D01*
X101250619Y-117371809D01*
X101155380Y-117324190D01*
X100964904Y-117276571D01*
X100869666Y-117228952D01*
X100822047Y-117181333D01*
X100774428Y-117086095D01*
X100774428Y-116990857D01*
X100822047Y-116895619D01*
X100869666Y-116848000D01*
X100964904Y-116800380D01*
X101203000Y-116800380D01*
X101345857Y-116848000D01*
X101774428Y-117800380D02*
X101774428Y-116800380D01*
X99250666Y-120864380D02*
X99584000Y-121864380D01*
X99917333Y-120864380D01*
X100822095Y-121769142D02*
X100774476Y-121816761D01*
X100631619Y-121864380D01*
X100536380Y-121864380D01*
X100393523Y-121816761D01*
X100298285Y-121721523D01*
X100250666Y-121626285D01*
X100203047Y-121435809D01*
X100203047Y-121292952D01*
X100250666Y-121102476D01*
X100298285Y-121007238D01*
X100393523Y-120912000D01*
X100536380Y-120864380D01*
X100631619Y-120864380D01*
X100774476Y-120912000D01*
X100822095Y-120959619D01*
X101822095Y-121769142D02*
X101774476Y-121816761D01*
X101631619Y-121864380D01*
X101536380Y-121864380D01*
X101393523Y-121816761D01*
X101298285Y-121721523D01*
X101250666Y-121626285D01*
X101203047Y-121435809D01*
X101203047Y-121292952D01*
X101250666Y-121102476D01*
X101298285Y-121007238D01*
X101393523Y-120912000D01*
X101536380Y-120864380D01*
X101631619Y-120864380D01*
X101774476Y-120912000D01*
X101822095Y-120959619D01*
X107394571Y-120975380D02*
X107394571Y-119975380D01*
X107727904Y-120689666D01*
X108061238Y-119975380D01*
X108061238Y-120975380D01*
X108537428Y-120975380D02*
X108537428Y-119975380D01*
X108966000Y-120927761D02*
X109108857Y-120975380D01*
X109346952Y-120975380D01*
X109442190Y-120927761D01*
X109489809Y-120880142D01*
X109537428Y-120784904D01*
X109537428Y-120689666D01*
X109489809Y-120594428D01*
X109442190Y-120546809D01*
X109346952Y-120499190D01*
X109156476Y-120451571D01*
X109061238Y-120403952D01*
X109013619Y-120356333D01*
X108966000Y-120261095D01*
X108966000Y-120165857D01*
X109013619Y-120070619D01*
X109061238Y-120023000D01*
X109156476Y-119975380D01*
X109394571Y-119975380D01*
X109537428Y-120023000D01*
X110156476Y-119975380D02*
X110346952Y-119975380D01*
X110442190Y-120023000D01*
X110537428Y-120118238D01*
X110585047Y-120308714D01*
X110585047Y-120642047D01*
X110537428Y-120832523D01*
X110442190Y-120927761D01*
X110346952Y-120975380D01*
X110156476Y-120975380D01*
X110061238Y-120927761D01*
X109966000Y-120832523D01*
X109918380Y-120642047D01*
X109918380Y-120308714D01*
X109966000Y-120118238D01*
X110061238Y-120023000D01*
X110156476Y-119975380D01*
X107426285Y-118260761D02*
X107569142Y-118308380D01*
X107807238Y-118308380D01*
X107902476Y-118260761D01*
X107950095Y-118213142D01*
X107997714Y-118117904D01*
X107997714Y-118022666D01*
X107950095Y-117927428D01*
X107902476Y-117879809D01*
X107807238Y-117832190D01*
X107616761Y-117784571D01*
X107521523Y-117736952D01*
X107473904Y-117689333D01*
X107426285Y-117594095D01*
X107426285Y-117498857D01*
X107473904Y-117403619D01*
X107521523Y-117356000D01*
X107616761Y-117308380D01*
X107854857Y-117308380D01*
X107997714Y-117356000D01*
X108997714Y-118213142D02*
X108950095Y-118260761D01*
X108807238Y-118308380D01*
X108712000Y-118308380D01*
X108569142Y-118260761D01*
X108473904Y-118165523D01*
X108426285Y-118070285D01*
X108378666Y-117879809D01*
X108378666Y-117736952D01*
X108426285Y-117546476D01*
X108473904Y-117451238D01*
X108569142Y-117356000D01*
X108712000Y-117308380D01*
X108807238Y-117308380D01*
X108950095Y-117356000D01*
X108997714Y-117403619D01*
X109426285Y-118308380D02*
X109426285Y-117308380D01*
X109997714Y-118308380D02*
X109569142Y-117736952D01*
X109997714Y-117308380D02*
X109426285Y-117879809D01*
X108037380Y-115768380D02*
X107704047Y-115292190D01*
X107465952Y-115768380D02*
X107465952Y-114768380D01*
X107846904Y-114768380D01*
X107942142Y-114816000D01*
X107989761Y-114863619D01*
X108037380Y-114958857D01*
X108037380Y-115101714D01*
X107989761Y-115196952D01*
X107942142Y-115244571D01*
X107846904Y-115292190D01*
X107465952Y-115292190D01*
X108418333Y-115720761D02*
X108561190Y-115768380D01*
X108799285Y-115768380D01*
X108894523Y-115720761D01*
X108942142Y-115673142D01*
X108989761Y-115577904D01*
X108989761Y-115482666D01*
X108942142Y-115387428D01*
X108894523Y-115339809D01*
X108799285Y-115292190D01*
X108608809Y-115244571D01*
X108513571Y-115196952D01*
X108465952Y-115149333D01*
X108418333Y-115054095D01*
X108418333Y-114958857D01*
X108465952Y-114863619D01*
X108513571Y-114816000D01*
X108608809Y-114768380D01*
X108846904Y-114768380D01*
X108989761Y-114816000D01*
X109275476Y-114768380D02*
X109846904Y-114768380D01*
X109561190Y-115768380D02*
X109561190Y-114768380D01*
X107418285Y-127833380D02*
X107418285Y-126833380D01*
X107989714Y-127833380D01*
X107989714Y-126833380D01*
X109037333Y-127738142D02*
X108989714Y-127785761D01*
X108846857Y-127833380D01*
X108751619Y-127833380D01*
X108608761Y-127785761D01*
X108513523Y-127690523D01*
X108465904Y-127595285D01*
X108418285Y-127404809D01*
X108418285Y-127261952D01*
X108465904Y-127071476D01*
X108513523Y-126976238D01*
X108608761Y-126881000D01*
X108751619Y-126833380D01*
X108846857Y-126833380D01*
X108989714Y-126881000D01*
X109037333Y-126928619D01*
X68860095Y-105481380D02*
X68860095Y-104481380D01*
X69288666Y-105481380D02*
X69288666Y-104957571D01*
X69241047Y-104862333D01*
X69145809Y-104814714D01*
X69002952Y-104814714D01*
X68907714Y-104862333D01*
X68860095Y-104909952D01*
X69622000Y-104814714D02*
X70002952Y-104814714D01*
X69764857Y-104481380D02*
X69764857Y-105338523D01*
X69812476Y-105433761D01*
X69907714Y-105481380D01*
X70002952Y-105481380D01*
X70193428Y-104814714D02*
X70574380Y-104814714D01*
X70336285Y-104481380D02*
X70336285Y-105338523D01*
X70383904Y-105433761D01*
X70479142Y-105481380D01*
X70574380Y-105481380D01*
X70907714Y-104814714D02*
X70907714Y-105814714D01*
X70907714Y-104862333D02*
X71002952Y-104814714D01*
X71193428Y-104814714D01*
X71288666Y-104862333D01*
X71336285Y-104909952D01*
X71383904Y-105005190D01*
X71383904Y-105290904D01*
X71336285Y-105386142D01*
X71288666Y-105433761D01*
X71193428Y-105481380D01*
X71002952Y-105481380D01*
X70907714Y-105433761D01*
X71764857Y-105433761D02*
X71860095Y-105481380D01*
X72050571Y-105481380D01*
X72145809Y-105433761D01*
X72193428Y-105338523D01*
X72193428Y-105290904D01*
X72145809Y-105195666D01*
X72050571Y-105148047D01*
X71907714Y-105148047D01*
X71812476Y-105100428D01*
X71764857Y-105005190D01*
X71764857Y-104957571D01*
X71812476Y-104862333D01*
X71907714Y-104814714D01*
X72050571Y-104814714D01*
X72145809Y-104862333D01*
X72622000Y-105386142D02*
X72669619Y-105433761D01*
X72622000Y-105481380D01*
X72574380Y-105433761D01*
X72622000Y-105386142D01*
X72622000Y-105481380D01*
X72622000Y-104862333D02*
X72669619Y-104909952D01*
X72622000Y-104957571D01*
X72574380Y-104909952D01*
X72622000Y-104862333D01*
X72622000Y-104957571D01*
X73812476Y-104433761D02*
X72955333Y-105719476D01*
X74860095Y-104433761D02*
X74002952Y-105719476D01*
X75622000Y-104814714D02*
X75622000Y-105624238D01*
X75574380Y-105719476D01*
X75526761Y-105767095D01*
X75431523Y-105814714D01*
X75288666Y-105814714D01*
X75193428Y-105767095D01*
X75622000Y-105433761D02*
X75526761Y-105481380D01*
X75336285Y-105481380D01*
X75241047Y-105433761D01*
X75193428Y-105386142D01*
X75145809Y-105290904D01*
X75145809Y-105005190D01*
X75193428Y-104909952D01*
X75241047Y-104862333D01*
X75336285Y-104814714D01*
X75526761Y-104814714D01*
X75622000Y-104862333D01*
X76098190Y-105481380D02*
X76098190Y-104814714D01*
X76098190Y-104481380D02*
X76050571Y-104529000D01*
X76098190Y-104576619D01*
X76145809Y-104529000D01*
X76098190Y-104481380D01*
X76098190Y-104576619D01*
X76431523Y-104814714D02*
X76812476Y-104814714D01*
X76574380Y-104481380D02*
X76574380Y-105338523D01*
X76622000Y-105433761D01*
X76717238Y-105481380D01*
X76812476Y-105481380D01*
X77145809Y-105481380D02*
X77145809Y-104481380D01*
X77574380Y-105481380D02*
X77574380Y-104957571D01*
X77526761Y-104862333D01*
X77431523Y-104814714D01*
X77288666Y-104814714D01*
X77193428Y-104862333D01*
X77145809Y-104909952D01*
X78479142Y-104814714D02*
X78479142Y-105481380D01*
X78050571Y-104814714D02*
X78050571Y-105338523D01*
X78098190Y-105433761D01*
X78193428Y-105481380D01*
X78336285Y-105481380D01*
X78431523Y-105433761D01*
X78479142Y-105386142D01*
X78955333Y-105481380D02*
X78955333Y-104481380D01*
X78955333Y-104862333D02*
X79050571Y-104814714D01*
X79241047Y-104814714D01*
X79336285Y-104862333D01*
X79383904Y-104909952D01*
X79431523Y-105005190D01*
X79431523Y-105290904D01*
X79383904Y-105386142D01*
X79336285Y-105433761D01*
X79241047Y-105481380D01*
X79050571Y-105481380D01*
X78955333Y-105433761D01*
X79860095Y-105386142D02*
X79907714Y-105433761D01*
X79860095Y-105481380D01*
X79812476Y-105433761D01*
X79860095Y-105386142D01*
X79860095Y-105481380D01*
X80764857Y-105433761D02*
X80669619Y-105481380D01*
X80479142Y-105481380D01*
X80383904Y-105433761D01*
X80336285Y-105386142D01*
X80288666Y-105290904D01*
X80288666Y-105005190D01*
X80336285Y-104909952D01*
X80383904Y-104862333D01*
X80479142Y-104814714D01*
X80669619Y-104814714D01*
X80764857Y-104862333D01*
X81336285Y-105481380D02*
X81241047Y-105433761D01*
X81193428Y-105386142D01*
X81145809Y-105290904D01*
X81145809Y-105005190D01*
X81193428Y-104909952D01*
X81241047Y-104862333D01*
X81336285Y-104814714D01*
X81479142Y-104814714D01*
X81574380Y-104862333D01*
X81622000Y-104909952D01*
X81669619Y-105005190D01*
X81669619Y-105290904D01*
X81622000Y-105386142D01*
X81574380Y-105433761D01*
X81479142Y-105481380D01*
X81336285Y-105481380D01*
X82098190Y-105481380D02*
X82098190Y-104814714D01*
X82098190Y-104909952D02*
X82145809Y-104862333D01*
X82241047Y-104814714D01*
X82383904Y-104814714D01*
X82479142Y-104862333D01*
X82526761Y-104957571D01*
X82526761Y-105481380D01*
X82526761Y-104957571D02*
X82574380Y-104862333D01*
X82669619Y-104814714D01*
X82812476Y-104814714D01*
X82907714Y-104862333D01*
X82955333Y-104957571D01*
X82955333Y-105481380D01*
X84145809Y-104433761D02*
X83288666Y-105719476D01*
X84907714Y-105481380D02*
X84907714Y-104957571D01*
X84860095Y-104862333D01*
X84764857Y-104814714D01*
X84574380Y-104814714D01*
X84479142Y-104862333D01*
X84907714Y-105433761D02*
X84812476Y-105481380D01*
X84574380Y-105481380D01*
X84479142Y-105433761D01*
X84431523Y-105338523D01*
X84431523Y-105243285D01*
X84479142Y-105148047D01*
X84574380Y-105100428D01*
X84812476Y-105100428D01*
X84907714Y-105052809D01*
X85383904Y-104814714D02*
X85383904Y-105481380D01*
X85383904Y-104909952D02*
X85431523Y-104862333D01*
X85526761Y-104814714D01*
X85669619Y-104814714D01*
X85764857Y-104862333D01*
X85812476Y-104957571D01*
X85812476Y-105481380D01*
X86717238Y-105481380D02*
X86717238Y-104481380D01*
X86717238Y-105433761D02*
X86622000Y-105481380D01*
X86431523Y-105481380D01*
X86336285Y-105433761D01*
X86288666Y-105386142D01*
X86241047Y-105290904D01*
X86241047Y-105005190D01*
X86288666Y-104909952D01*
X86336285Y-104862333D01*
X86431523Y-104814714D01*
X86622000Y-104814714D01*
X86717238Y-104862333D01*
X87193428Y-105481380D02*
X87193428Y-104814714D01*
X87193428Y-105005190D02*
X87241047Y-104909952D01*
X87288666Y-104862333D01*
X87383904Y-104814714D01*
X87479142Y-104814714D01*
X88193428Y-105433761D02*
X88098190Y-105481380D01*
X87907714Y-105481380D01*
X87812476Y-105433761D01*
X87764857Y-105338523D01*
X87764857Y-104957571D01*
X87812476Y-104862333D01*
X87907714Y-104814714D01*
X88098190Y-104814714D01*
X88193428Y-104862333D01*
X88241047Y-104957571D01*
X88241047Y-105052809D01*
X87764857Y-105148047D01*
X89098190Y-105481380D02*
X89098190Y-104957571D01*
X89050571Y-104862333D01*
X88955333Y-104814714D01*
X88764857Y-104814714D01*
X88669619Y-104862333D01*
X89098190Y-105433761D02*
X89002952Y-105481380D01*
X88764857Y-105481380D01*
X88669619Y-105433761D01*
X88622000Y-105338523D01*
X88622000Y-105243285D01*
X88669619Y-105148047D01*
X88764857Y-105100428D01*
X89002952Y-105100428D01*
X89098190Y-105052809D01*
X89526761Y-105433761D02*
X89622000Y-105481380D01*
X89812476Y-105481380D01*
X89907714Y-105433761D01*
X89955333Y-105338523D01*
X89955333Y-105290904D01*
X89907714Y-105195666D01*
X89812476Y-105148047D01*
X89669619Y-105148047D01*
X89574380Y-105100428D01*
X89526761Y-105005190D01*
X89526761Y-104957571D01*
X89574380Y-104862333D01*
X89669619Y-104814714D01*
X89812476Y-104814714D01*
X89907714Y-104862333D01*
X90383904Y-105481380D02*
X90383904Y-104481380D01*
X90383904Y-104862333D02*
X90479142Y-104814714D01*
X90669619Y-104814714D01*
X90764857Y-104862333D01*
X90812476Y-104909952D01*
X90860095Y-105005190D01*
X90860095Y-105290904D01*
X90812476Y-105386142D01*
X90764857Y-105433761D01*
X90669619Y-105481380D01*
X90479142Y-105481380D01*
X90383904Y-105433761D01*
X91241047Y-104576619D02*
X91288666Y-104529000D01*
X91383904Y-104481380D01*
X91622000Y-104481380D01*
X91717238Y-104529000D01*
X91764857Y-104576619D01*
X91812476Y-104671857D01*
X91812476Y-104767095D01*
X91764857Y-104909952D01*
X91193428Y-105481380D01*
X91812476Y-105481380D01*
X92669619Y-104814714D02*
X92669619Y-105481380D01*
X92431523Y-104433761D02*
X92193428Y-105148047D01*
X92812476Y-105148047D01*
X93145809Y-104576619D02*
X93193428Y-104529000D01*
X93288666Y-104481380D01*
X93526761Y-104481380D01*
X93622000Y-104529000D01*
X93669619Y-104576619D01*
X93717238Y-104671857D01*
X93717238Y-104767095D01*
X93669619Y-104909952D01*
X93098190Y-105481380D01*
X93717238Y-105481380D01*
X94860095Y-104433761D02*
X94002952Y-105719476D01*
X95669619Y-105481380D02*
X95193428Y-105481380D01*
X95193428Y-104481380D01*
X96002952Y-105481380D02*
X96002952Y-104814714D01*
X96002952Y-104481380D02*
X95955333Y-104529000D01*
X96002952Y-104576619D01*
X96050571Y-104529000D01*
X96002952Y-104481380D01*
X96002952Y-104576619D01*
X96479142Y-105481380D02*
X96479142Y-104481380D01*
X96479142Y-104862333D02*
X96574380Y-104814714D01*
X96764857Y-104814714D01*
X96860095Y-104862333D01*
X96907714Y-104909952D01*
X96955333Y-105005190D01*
X96955333Y-105290904D01*
X96907714Y-105386142D01*
X96860095Y-105433761D01*
X96764857Y-105481380D01*
X96574380Y-105481380D01*
X96479142Y-105433761D01*
X97383904Y-105481380D02*
X97383904Y-104814714D01*
X97383904Y-105005190D02*
X97431523Y-104909952D01*
X97479142Y-104862333D01*
X97574380Y-104814714D01*
X97669619Y-104814714D01*
X98383904Y-105433761D02*
X98288666Y-105481380D01*
X98098190Y-105481380D01*
X98002952Y-105433761D01*
X97955333Y-105338523D01*
X97955333Y-104957571D01*
X98002952Y-104862333D01*
X98098190Y-104814714D01*
X98288666Y-104814714D01*
X98383904Y-104862333D01*
X98431523Y-104957571D01*
X98431523Y-105052809D01*
X97955333Y-105148047D01*
X99288666Y-105481380D02*
X99288666Y-104481380D01*
X99288666Y-105433761D02*
X99193428Y-105481380D01*
X99002952Y-105481380D01*
X98907714Y-105433761D01*
X98860095Y-105386142D01*
X98812476Y-105290904D01*
X98812476Y-105005190D01*
X98860095Y-104909952D01*
X98907714Y-104862333D01*
X99002952Y-104814714D01*
X99193428Y-104814714D01*
X99288666Y-104862333D01*
X100193428Y-104814714D02*
X100193428Y-105481380D01*
X99764857Y-104814714D02*
X99764857Y-105338523D01*
X99812476Y-105433761D01*
X99907714Y-105481380D01*
X100050571Y-105481380D01*
X100145809Y-105433761D01*
X100193428Y-105386142D01*
X101098190Y-105433761D02*
X101002952Y-105481380D01*
X100812476Y-105481380D01*
X100717238Y-105433761D01*
X100669619Y-105386142D01*
X100621999Y-105290904D01*
X100621999Y-105005190D01*
X100669619Y-104909952D01*
X100717238Y-104862333D01*
X100812476Y-104814714D01*
X101002952Y-104814714D01*
X101098190Y-104862333D01*
X101383904Y-104814714D02*
X101764857Y-104814714D01*
X101526761Y-104481380D02*
X101526761Y-105338523D01*
X101574380Y-105433761D01*
X101669619Y-105481380D01*
X101764857Y-105481380D01*
X102098190Y-105481380D02*
X102098190Y-104814714D01*
X102098190Y-104481380D02*
X102050571Y-104529000D01*
X102098190Y-104576619D01*
X102145809Y-104529000D01*
X102098190Y-104481380D01*
X102098190Y-104576619D01*
X102717238Y-105481380D02*
X102621999Y-105433761D01*
X102574380Y-105386142D01*
X102526761Y-105290904D01*
X102526761Y-105005190D01*
X102574380Y-104909952D01*
X102621999Y-104862333D01*
X102717238Y-104814714D01*
X102860095Y-104814714D01*
X102955333Y-104862333D01*
X103002952Y-104909952D01*
X103050571Y-105005190D01*
X103050571Y-105290904D01*
X103002952Y-105386142D01*
X102955333Y-105433761D01*
X102860095Y-105481380D01*
X102717238Y-105481380D01*
X103479142Y-104814714D02*
X103479142Y-105481380D01*
X103479142Y-104909952D02*
X103526761Y-104862333D01*
X103621999Y-104814714D01*
X103764857Y-104814714D01*
X103860095Y-104862333D01*
X103907714Y-104957571D01*
X103907714Y-105481380D01*
X104764857Y-105433761D02*
X104669619Y-105481380D01*
X104479142Y-105481380D01*
X104383904Y-105433761D01*
X104336285Y-105338523D01*
X104336285Y-104957571D01*
X104383904Y-104862333D01*
X104479142Y-104814714D01*
X104669619Y-104814714D01*
X104764857Y-104862333D01*
X104812476Y-104957571D01*
X104812476Y-105052809D01*
X104336285Y-105148047D01*
X105241047Y-105481380D02*
X105241047Y-104814714D01*
X105241047Y-105005190D02*
X105288666Y-104909952D01*
X105336285Y-104862333D01*
X105431523Y-104814714D01*
X105526761Y-104814714D01*
X80049619Y-136144095D02*
X80049619Y-136715523D01*
X79049619Y-136429809D02*
X80049619Y-136429809D01*
X80049619Y-136953619D02*
X79049619Y-137620285D01*
X80049619Y-137620285D02*
X79049619Y-136953619D01*
X76509619Y-136612333D02*
X76985809Y-136279000D01*
X76509619Y-136040904D02*
X77509619Y-136040904D01*
X77509619Y-136421857D01*
X77462000Y-136517095D01*
X77414380Y-136564714D01*
X77319142Y-136612333D01*
X77176285Y-136612333D01*
X77081047Y-136564714D01*
X77033428Y-136517095D01*
X76985809Y-136421857D01*
X76985809Y-136040904D01*
X77509619Y-136945666D02*
X76509619Y-137612333D01*
X77509619Y-137612333D02*
X76509619Y-136945666D01*
X69977095Y-136152000D02*
X69881857Y-136104380D01*
X69739000Y-136104380D01*
X69596142Y-136152000D01*
X69500904Y-136247238D01*
X69453285Y-136342476D01*
X69405666Y-136532952D01*
X69405666Y-136675809D01*
X69453285Y-136866285D01*
X69500904Y-136961523D01*
X69596142Y-137056761D01*
X69739000Y-137104380D01*
X69834238Y-137104380D01*
X69977095Y-137056761D01*
X70024714Y-137009142D01*
X70024714Y-136675809D01*
X69834238Y-136675809D01*
X70453285Y-137104380D02*
X70453285Y-136104380D01*
X71024714Y-137104380D01*
X71024714Y-136104380D01*
X71500904Y-137104380D02*
X71500904Y-136104380D01*
X71739000Y-136104380D01*
X71881857Y-136152000D01*
X71977095Y-136247238D01*
X72024714Y-136342476D01*
X72072333Y-136532952D01*
X72072333Y-136675809D01*
X72024714Y-136866285D01*
X71977095Y-136961523D01*
X71881857Y-137056761D01*
X71739000Y-137104380D01*
X71500904Y-137104380D01*
X106037000Y-127381095D02*
X106084619Y-127285857D01*
X106084619Y-127143000D01*
X106037000Y-127000142D01*
X105941761Y-126904904D01*
X105846523Y-126857285D01*
X105656047Y-126809666D01*
X105513190Y-126809666D01*
X105322714Y-126857285D01*
X105227476Y-126904904D01*
X105132238Y-127000142D01*
X105084619Y-127143000D01*
X105084619Y-127238238D01*
X105132238Y-127381095D01*
X105179857Y-127428714D01*
X105513190Y-127428714D01*
X105513190Y-127238238D01*
X105084619Y-127857285D02*
X106084619Y-127857285D01*
X105084619Y-128428714D01*
X106084619Y-128428714D01*
X105084619Y-128904904D02*
X106084619Y-128904904D01*
X106084619Y-129143000D01*
X106037000Y-129285857D01*
X105941761Y-129381095D01*
X105846523Y-129428714D01*
X105656047Y-129476333D01*
X105513190Y-129476333D01*
X105322714Y-129428714D01*
X105227476Y-129381095D01*
X105132238Y-129285857D01*
X105084619Y-129143000D01*
X105084619Y-128904904D01*
D12*
X112585571Y-111359142D02*
X113728428Y-111359142D01*
X112585571Y-124059142D02*
X113728428Y-124059142D01*
X113157000Y-124630571D02*
X113157000Y-123487714D01*
X115764571Y-127138714D02*
X117264571Y-126638714D01*
X115764571Y-126138714D01*
X117264571Y-125638714D02*
X116264571Y-125638714D01*
X115764571Y-125638714D02*
X115836000Y-125710142D01*
X115907428Y-125638714D01*
X115836000Y-125567285D01*
X115764571Y-125638714D01*
X115907428Y-125638714D01*
X116264571Y-124924428D02*
X117264571Y-124924428D01*
X116407428Y-124924428D02*
X116336000Y-124853000D01*
X116264571Y-124710142D01*
X116264571Y-124495857D01*
X116336000Y-124353000D01*
X116478857Y-124281571D01*
X117264571Y-124281571D01*
X115891571Y-101484714D02*
X117391571Y-100984714D01*
X115891571Y-100484714D01*
X117391571Y-99984714D02*
X116391571Y-99984714D01*
X115891571Y-99984714D02*
X115963000Y-100056142D01*
X116034428Y-99984714D01*
X115963000Y-99913285D01*
X115891571Y-99984714D01*
X116034428Y-99984714D01*
X116391571Y-99270428D02*
X117391571Y-99270428D01*
X116534428Y-99270428D02*
X116463000Y-99199000D01*
X116391571Y-99056142D01*
X116391571Y-98841857D01*
X116463000Y-98699000D01*
X116605857Y-98627571D01*
X117391571Y-98627571D01*
X113347571Y-103612142D02*
X114490428Y-103612142D01*
X113919000Y-104183571D02*
X113919000Y-103040714D01*
X113347571Y-106152142D02*
X114490428Y-106152142D01*
D13*
X117363857Y-132826142D02*
X117649571Y-132921380D01*
X117744809Y-133016619D01*
X117840047Y-133207095D01*
X117840047Y-133492809D01*
X117744809Y-133683285D01*
X117649571Y-133778523D01*
X117459095Y-133873761D01*
X116697190Y-133873761D01*
X116697190Y-131873761D01*
X117363857Y-131873761D01*
X117554333Y-131969000D01*
X117649571Y-132064238D01*
X117744809Y-132254714D01*
X117744809Y-132445190D01*
X117649571Y-132635666D01*
X117554333Y-132730904D01*
X117363857Y-132826142D01*
X116697190Y-132826142D01*
X102012809Y-133302333D02*
X102965190Y-133302333D01*
X101822333Y-133873761D02*
X102489000Y-131873761D01*
X103155666Y-133873761D01*
D12*
X73866571Y-73830571D02*
X73152285Y-73830571D01*
X73152285Y-72330571D01*
X74580857Y-73830571D02*
X74438000Y-73759142D01*
X74366571Y-73687714D01*
X74295142Y-73544857D01*
X74295142Y-73116285D01*
X74366571Y-72973428D01*
X74438000Y-72902000D01*
X74580857Y-72830571D01*
X74795142Y-72830571D01*
X74938000Y-72902000D01*
X75009428Y-72973428D01*
X75080857Y-73116285D01*
X75080857Y-73544857D01*
X75009428Y-73687714D01*
X74938000Y-73759142D01*
X74795142Y-73830571D01*
X74580857Y-73830571D01*
X75938000Y-73830571D02*
X75795142Y-73759142D01*
X75723714Y-73687714D01*
X75652285Y-73544857D01*
X75652285Y-73116285D01*
X75723714Y-72973428D01*
X75795142Y-72902000D01*
X75938000Y-72830571D01*
X76152285Y-72830571D01*
X76295142Y-72902000D01*
X76366571Y-72973428D01*
X76438000Y-73116285D01*
X76438000Y-73544857D01*
X76366571Y-73687714D01*
X76295142Y-73759142D01*
X76152285Y-73830571D01*
X75938000Y-73830571D01*
X77080857Y-72830571D02*
X77080857Y-74330571D01*
X77080857Y-72902000D02*
X77223714Y-72830571D01*
X77509428Y-72830571D01*
X77652285Y-72902000D01*
X77723714Y-72973428D01*
X77795142Y-73116285D01*
X77795142Y-73544857D01*
X77723714Y-73687714D01*
X77652285Y-73759142D01*
X77509428Y-73830571D01*
X77223714Y-73830571D01*
X77080857Y-73759142D01*
X71310571Y-73259142D02*
X72453428Y-73259142D01*
X78549571Y-73386142D02*
X79692428Y-73386142D01*
X79121000Y-73957571D02*
X79121000Y-72814714D01*
X69719428Y-102405571D02*
X69005142Y-102405571D01*
X69005142Y-100905571D01*
X70219428Y-102405571D02*
X70219428Y-101405571D01*
X70219428Y-100905571D02*
X70148000Y-100977000D01*
X70219428Y-101048428D01*
X70290857Y-100977000D01*
X70219428Y-100905571D01*
X70219428Y-101048428D01*
X70933714Y-102405571D02*
X70933714Y-100905571D01*
X70933714Y-101477000D02*
X71076571Y-101405571D01*
X71362285Y-101405571D01*
X71505142Y-101477000D01*
X71576571Y-101548428D01*
X71648000Y-101691285D01*
X71648000Y-102119857D01*
X71576571Y-102262714D01*
X71505142Y-102334142D01*
X71362285Y-102405571D01*
X71076571Y-102405571D01*
X70933714Y-102334142D01*
X72290857Y-102405571D02*
X72290857Y-101405571D01*
X72290857Y-101691285D02*
X72362285Y-101548428D01*
X72433714Y-101477000D01*
X72576571Y-101405571D01*
X72719428Y-101405571D01*
X73790857Y-102334142D02*
X73648000Y-102405571D01*
X73362285Y-102405571D01*
X73219428Y-102334142D01*
X73148000Y-102191285D01*
X73148000Y-101619857D01*
X73219428Y-101477000D01*
X73362285Y-101405571D01*
X73648000Y-101405571D01*
X73790857Y-101477000D01*
X73862285Y-101619857D01*
X73862285Y-101762714D01*
X73148000Y-101905571D01*
X75148000Y-102405571D02*
X75148000Y-100905571D01*
X75148000Y-102334142D02*
X75005142Y-102405571D01*
X74719428Y-102405571D01*
X74576571Y-102334142D01*
X74505142Y-102262714D01*
X74433714Y-102119857D01*
X74433714Y-101691285D01*
X74505142Y-101548428D01*
X74576571Y-101477000D01*
X74719428Y-101405571D01*
X75005142Y-101405571D01*
X75148000Y-101477000D01*
X76505142Y-101405571D02*
X76505142Y-102405571D01*
X75862285Y-101405571D02*
X75862285Y-102191285D01*
X75933714Y-102334142D01*
X76076571Y-102405571D01*
X76290857Y-102405571D01*
X76433714Y-102334142D01*
X76505142Y-102262714D01*
X77862285Y-102334142D02*
X77719428Y-102405571D01*
X77433714Y-102405571D01*
X77290857Y-102334142D01*
X77219428Y-102262714D01*
X77148000Y-102119857D01*
X77148000Y-101691285D01*
X77219428Y-101548428D01*
X77290857Y-101477000D01*
X77433714Y-101405571D01*
X77719428Y-101405571D01*
X77862285Y-101477000D01*
X78290857Y-101405571D02*
X78862285Y-101405571D01*
X78505142Y-100905571D02*
X78505142Y-102191285D01*
X78576571Y-102334142D01*
X78719428Y-102405571D01*
X78862285Y-102405571D01*
X79362285Y-102405571D02*
X79362285Y-101405571D01*
X79362285Y-100905571D02*
X79290857Y-100977000D01*
X79362285Y-101048428D01*
X79433714Y-100977000D01*
X79362285Y-100905571D01*
X79362285Y-101048428D01*
X80290857Y-102405571D02*
X80148000Y-102334142D01*
X80076571Y-102262714D01*
X80005142Y-102119857D01*
X80005142Y-101691285D01*
X80076571Y-101548428D01*
X80148000Y-101477000D01*
X80290857Y-101405571D01*
X80505142Y-101405571D01*
X80648000Y-101477000D01*
X80719428Y-101548428D01*
X80790857Y-101691285D01*
X80790857Y-102119857D01*
X80719428Y-102262714D01*
X80648000Y-102334142D01*
X80505142Y-102405571D01*
X80290857Y-102405571D01*
X81433714Y-101405571D02*
X81433714Y-102405571D01*
X81433714Y-101548428D02*
X81505142Y-101477000D01*
X81648000Y-101405571D01*
X81862285Y-101405571D01*
X82005142Y-101477000D01*
X82076571Y-101619857D01*
X82076571Y-102405571D01*
X83362285Y-102334142D02*
X83219428Y-102405571D01*
X82933714Y-102405571D01*
X82790857Y-102334142D01*
X82719428Y-102191285D01*
X82719428Y-101619857D01*
X82790857Y-101477000D01*
X82933714Y-101405571D01*
X83219428Y-101405571D01*
X83362285Y-101477000D01*
X83433714Y-101619857D01*
X83433714Y-101762714D01*
X82719428Y-101905571D01*
X84076571Y-102405571D02*
X84076571Y-101405571D01*
X84076571Y-101691285D02*
X84148000Y-101548428D01*
X84219428Y-101477000D01*
X84362285Y-101405571D01*
X84505142Y-101405571D01*
D11*
X70413714Y-127706380D02*
X70413714Y-126706380D01*
X70651809Y-126706380D01*
X70794666Y-126754000D01*
X70889904Y-126849238D01*
X70937523Y-126944476D01*
X70985142Y-127134952D01*
X70985142Y-127277809D01*
X70937523Y-127468285D01*
X70889904Y-127563523D01*
X70794666Y-127658761D01*
X70651809Y-127706380D01*
X70413714Y-127706380D01*
X71937523Y-127706380D02*
X71366095Y-127706380D01*
X71651809Y-127706380D02*
X71651809Y-126706380D01*
X71556571Y-126849238D01*
X71461333Y-126944476D01*
X71366095Y-126992095D01*
X72270857Y-126706380D02*
X72889904Y-126706380D01*
X72556571Y-127087333D01*
X72699428Y-127087333D01*
X72794666Y-127134952D01*
X72842285Y-127182571D01*
X72889904Y-127277809D01*
X72889904Y-127515904D01*
X72842285Y-127611142D01*
X72794666Y-127658761D01*
X72699428Y-127706380D01*
X72413714Y-127706380D01*
X72318476Y-127658761D01*
X72270857Y-127611142D01*
X73969619Y-126722285D02*
X74969619Y-126722285D01*
X73969619Y-127293714D01*
X74969619Y-127293714D01*
X74064857Y-128341333D02*
X74017238Y-128293714D01*
X73969619Y-128150857D01*
X73969619Y-128055619D01*
X74017238Y-127912761D01*
X74112476Y-127817523D01*
X74207714Y-127769904D01*
X74398190Y-127722285D01*
X74541047Y-127722285D01*
X74731523Y-127769904D01*
X74826761Y-127817523D01*
X74922000Y-127912761D01*
X74969619Y-128055619D01*
X74969619Y-128150857D01*
X74922000Y-128293714D01*
X74874380Y-128341333D01*
X75469952Y-127420666D02*
X75946142Y-127420666D01*
X75374714Y-127706380D02*
X75708047Y-126706380D01*
X76041380Y-127706380D01*
X76946142Y-127706380D02*
X76612809Y-127230190D01*
X76374714Y-127706380D02*
X76374714Y-126706380D01*
X76755666Y-126706380D01*
X76850904Y-126754000D01*
X76898523Y-126801619D01*
X76946142Y-126896857D01*
X76946142Y-127039714D01*
X76898523Y-127134952D01*
X76850904Y-127182571D01*
X76755666Y-127230190D01*
X76374714Y-127230190D01*
X77374714Y-127182571D02*
X77708047Y-127182571D01*
X77850904Y-127706380D02*
X77374714Y-127706380D01*
X77374714Y-126706380D01*
X77850904Y-126706380D01*
X78612809Y-127182571D02*
X78279476Y-127182571D01*
X78279476Y-127706380D02*
X78279476Y-126706380D01*
X78755666Y-126706380D01*
X81977123Y-127062666D02*
X81977123Y-127538856D01*
X81691409Y-126967428D02*
X82691409Y-127300761D01*
X81691409Y-127634094D01*
X81691409Y-128491237D02*
X81691409Y-127919809D01*
X81691409Y-128205523D02*
X82691409Y-128205523D01*
X82548551Y-128110285D01*
X82453313Y-128015047D01*
X82405694Y-127919809D01*
X87184123Y-127062666D02*
X87184123Y-127538856D01*
X86898409Y-126967428D02*
X87898409Y-127300761D01*
X86898409Y-127634094D01*
X87898409Y-127872190D02*
X87898409Y-128491237D01*
X87517456Y-128157904D01*
X87517456Y-128300761D01*
X87469837Y-128395999D01*
X87422218Y-128443618D01*
X87326980Y-128491237D01*
X87088885Y-128491237D01*
X86993647Y-128443618D01*
X86946028Y-128395999D01*
X86898409Y-128300761D01*
X86898409Y-128015047D01*
X86946028Y-127919809D01*
X86993647Y-127872190D01*
X79970333Y-126793714D02*
X79970333Y-127269904D01*
X79684619Y-126698476D02*
X80684619Y-127031809D01*
X79684619Y-127365142D01*
X80684619Y-127888952D02*
X80684619Y-127984190D01*
X80637000Y-128079428D01*
X80589380Y-128127047D01*
X80494142Y-128174666D01*
X80303666Y-128222285D01*
X80065571Y-128222285D01*
X79875095Y-128174666D01*
X79779857Y-128127047D01*
X79732238Y-128079428D01*
X79684619Y-127984190D01*
X79684619Y-127888952D01*
X79732238Y-127793714D01*
X79779857Y-127746095D01*
X79875095Y-127698476D01*
X80065571Y-127650857D01*
X80303666Y-127650857D01*
X80494142Y-127698476D01*
X80589380Y-127746095D01*
X80637000Y-127793714D01*
X80684619Y-127888952D01*
X84644123Y-127062666D02*
X84644123Y-127538856D01*
X84358409Y-126967428D02*
X85358409Y-127300761D01*
X84358409Y-127634094D01*
X85263170Y-127919809D02*
X85310790Y-127967428D01*
X85358409Y-128062666D01*
X85358409Y-128300761D01*
X85310790Y-128395999D01*
X85263170Y-128443618D01*
X85167932Y-128491237D01*
X85072694Y-128491237D01*
X84929837Y-128443618D01*
X84358409Y-127872190D01*
X84358409Y-128491237D01*
X92264123Y-127062666D02*
X92264123Y-127538856D01*
X91978409Y-126967428D02*
X92978409Y-127300761D01*
X91978409Y-127634094D01*
X92978409Y-128443618D02*
X92978409Y-127967428D01*
X92502218Y-127919809D01*
X92549837Y-127967428D01*
X92597456Y-128062666D01*
X92597456Y-128300761D01*
X92549837Y-128395999D01*
X92502218Y-128443618D01*
X92406980Y-128491237D01*
X92168885Y-128491237D01*
X92073647Y-128443618D01*
X92026028Y-128395999D01*
X91978409Y-128300761D01*
X91978409Y-128062666D01*
X92026028Y-127967428D01*
X92073647Y-127919809D01*
X89724123Y-127062666D02*
X89724123Y-127538856D01*
X89438409Y-126967428D02*
X90438409Y-127300761D01*
X89438409Y-127634094D01*
X90105075Y-128395999D02*
X89438409Y-128395999D01*
X90486028Y-128157904D02*
X89771742Y-127919809D01*
X89771742Y-128538856D01*
X94931123Y-127062666D02*
X94931123Y-127538856D01*
X94645409Y-126967428D02*
X95645409Y-127300761D01*
X94645409Y-127634094D01*
X95645409Y-128395999D02*
X95645409Y-128205523D01*
X95597790Y-128110285D01*
X95550170Y-128062666D01*
X95407313Y-127967428D01*
X95216837Y-127919809D01*
X94835885Y-127919809D01*
X94740647Y-127967428D01*
X94693028Y-128015047D01*
X94645409Y-128110285D01*
X94645409Y-128300761D01*
X94693028Y-128395999D01*
X94740647Y-128443618D01*
X94835885Y-128491237D01*
X95073980Y-128491237D01*
X95169218Y-128443618D01*
X95216837Y-128395999D01*
X95264456Y-128300761D01*
X95264456Y-128110285D01*
X95216837Y-128015047D01*
X95169218Y-127967428D01*
X95073980Y-127919809D01*
X97471123Y-127062666D02*
X97471123Y-127538856D01*
X97185409Y-126967428D02*
X98185409Y-127300761D01*
X97185409Y-127634094D01*
X98185409Y-127872190D02*
X98185409Y-128538856D01*
X97185409Y-128110285D01*
X100725409Y-127459475D02*
X100725409Y-126983285D01*
X100249218Y-126935666D01*
X100296837Y-126983285D01*
X100344456Y-127078523D01*
X100344456Y-127316618D01*
X100296837Y-127411856D01*
X100249218Y-127459475D01*
X100153980Y-127507094D01*
X99915885Y-127507094D01*
X99820647Y-127459475D01*
X99773028Y-127411856D01*
X99725409Y-127316618D01*
X99725409Y-127078523D01*
X99773028Y-126983285D01*
X99820647Y-126935666D01*
X100725409Y-127792809D02*
X99725409Y-128126142D01*
X100725409Y-128459475D01*
X101528619Y-127468380D02*
X102004809Y-127135047D01*
X101528619Y-126896952D02*
X102528619Y-126896952D01*
X102528619Y-127277904D01*
X102481000Y-127373142D01*
X102433380Y-127420761D01*
X102338142Y-127468380D01*
X102195285Y-127468380D01*
X102100047Y-127420761D01*
X102052428Y-127373142D01*
X102004809Y-127277904D01*
X102004809Y-126896952D01*
X101576238Y-127849333D02*
X101528619Y-127992190D01*
X101528619Y-128230285D01*
X101576238Y-128325523D01*
X101623857Y-128373142D01*
X101719095Y-128420761D01*
X101814333Y-128420761D01*
X101909571Y-128373142D01*
X101957190Y-128325523D01*
X102004809Y-128230285D01*
X102052428Y-128039809D01*
X102100047Y-127944571D01*
X102147666Y-127896952D01*
X102242904Y-127849333D01*
X102338142Y-127849333D01*
X102433380Y-127896952D01*
X102481000Y-127944571D01*
X102528619Y-128039809D01*
X102528619Y-128277904D01*
X102481000Y-128420761D01*
X102528619Y-128706476D02*
X102528619Y-129277904D01*
X101528619Y-128992190D02*
X102528619Y-128992190D01*
X70540714Y-108275380D02*
X70540714Y-107275380D01*
X70778809Y-107275380D01*
X70921666Y-107323000D01*
X71016904Y-107418238D01*
X71064523Y-107513476D01*
X71112142Y-107703952D01*
X71112142Y-107846809D01*
X71064523Y-108037285D01*
X71016904Y-108132523D01*
X70921666Y-108227761D01*
X70778809Y-108275380D01*
X70540714Y-108275380D01*
X72064523Y-108275380D02*
X71493095Y-108275380D01*
X71778809Y-108275380D02*
X71778809Y-107275380D01*
X71683571Y-107418238D01*
X71588333Y-107513476D01*
X71493095Y-107561095D01*
X72445476Y-107370619D02*
X72493095Y-107323000D01*
X72588333Y-107275380D01*
X72826428Y-107275380D01*
X72921666Y-107323000D01*
X72969285Y-107370619D01*
X73016904Y-107465857D01*
X73016904Y-107561095D01*
X72969285Y-107703952D01*
X72397857Y-108275380D01*
X73016904Y-108275380D01*
X79405409Y-106464856D02*
X80405409Y-106464856D01*
X80405409Y-106702952D01*
X80357790Y-106845809D01*
X80262551Y-106941047D01*
X80167313Y-106988666D01*
X79976837Y-107036285D01*
X79833980Y-107036285D01*
X79643504Y-106988666D01*
X79548266Y-106941047D01*
X79453028Y-106845809D01*
X79405409Y-106702952D01*
X79405409Y-106464856D01*
X79405409Y-107512475D02*
X79405409Y-107702952D01*
X79453028Y-107798190D01*
X79500647Y-107845809D01*
X79643504Y-107941047D01*
X79833980Y-107988666D01*
X80214932Y-107988666D01*
X80310170Y-107941047D01*
X80357790Y-107893428D01*
X80405409Y-107798190D01*
X80405409Y-107607713D01*
X80357790Y-107512475D01*
X80310170Y-107464856D01*
X80214932Y-107417237D01*
X79976837Y-107417237D01*
X79881599Y-107464856D01*
X79833980Y-107512475D01*
X79786361Y-107607713D01*
X79786361Y-107798190D01*
X79833980Y-107893428D01*
X79881599Y-107941047D01*
X79976837Y-107988666D01*
X81945409Y-106464856D02*
X82945409Y-106464856D01*
X82945409Y-106702952D01*
X82897790Y-106845809D01*
X82802551Y-106941047D01*
X82707313Y-106988666D01*
X82516837Y-107036285D01*
X82373980Y-107036285D01*
X82183504Y-106988666D01*
X82088266Y-106941047D01*
X81993028Y-106845809D01*
X81945409Y-106702952D01*
X81945409Y-106464856D01*
X82516837Y-107607713D02*
X82564456Y-107512475D01*
X82612075Y-107464856D01*
X82707313Y-107417237D01*
X82754932Y-107417237D01*
X82850170Y-107464856D01*
X82897790Y-107512475D01*
X82945409Y-107607713D01*
X82945409Y-107798190D01*
X82897790Y-107893428D01*
X82850170Y-107941047D01*
X82754932Y-107988666D01*
X82707313Y-107988666D01*
X82612075Y-107941047D01*
X82564456Y-107893428D01*
X82516837Y-107798190D01*
X82516837Y-107607713D01*
X82469218Y-107512475D01*
X82421599Y-107464856D01*
X82326361Y-107417237D01*
X82135885Y-107417237D01*
X82040647Y-107464856D01*
X81993028Y-107512475D01*
X81945409Y-107607713D01*
X81945409Y-107798190D01*
X81993028Y-107893428D01*
X82040647Y-107941047D01*
X82135885Y-107988666D01*
X82326361Y-107988666D01*
X82421599Y-107941047D01*
X82469218Y-107893428D01*
X82516837Y-107798190D01*
X76382714Y-108275380D02*
X76382714Y-107275380D01*
X76620809Y-107275380D01*
X76763666Y-107323000D01*
X76858904Y-107418238D01*
X76906523Y-107513476D01*
X76954142Y-107703952D01*
X76954142Y-107846809D01*
X76906523Y-108037285D01*
X76858904Y-108132523D01*
X76763666Y-108227761D01*
X76620809Y-108275380D01*
X76382714Y-108275380D01*
X77906523Y-108275380D02*
X77335095Y-108275380D01*
X77620809Y-108275380D02*
X77620809Y-107275380D01*
X77525571Y-107418238D01*
X77430333Y-107513476D01*
X77335095Y-107561095D01*
X78525571Y-107275380D02*
X78620809Y-107275380D01*
X78716047Y-107323000D01*
X78763666Y-107370619D01*
X78811285Y-107465857D01*
X78858904Y-107656333D01*
X78858904Y-107894428D01*
X78811285Y-108084904D01*
X78763666Y-108180142D01*
X78716047Y-108227761D01*
X78620809Y-108275380D01*
X78525571Y-108275380D01*
X78430333Y-108227761D01*
X78382714Y-108180142D01*
X78335095Y-108084904D01*
X78287476Y-107894428D01*
X78287476Y-107656333D01*
X78335095Y-107465857D01*
X78382714Y-107370619D01*
X78430333Y-107323000D01*
X78525571Y-107275380D01*
X73461714Y-108275380D02*
X73461714Y-107275380D01*
X73699809Y-107275380D01*
X73842666Y-107323000D01*
X73937904Y-107418238D01*
X73985523Y-107513476D01*
X74033142Y-107703952D01*
X74033142Y-107846809D01*
X73985523Y-108037285D01*
X73937904Y-108132523D01*
X73842666Y-108227761D01*
X73699809Y-108275380D01*
X73461714Y-108275380D01*
X74985523Y-108275380D02*
X74414095Y-108275380D01*
X74699809Y-108275380D02*
X74699809Y-107275380D01*
X74604571Y-107418238D01*
X74509333Y-107513476D01*
X74414095Y-107561095D01*
X75937904Y-108275380D02*
X75366476Y-108275380D01*
X75652190Y-108275380D02*
X75652190Y-107275380D01*
X75556952Y-107418238D01*
X75461714Y-107513476D01*
X75366476Y-107561095D01*
X87025409Y-106464856D02*
X88025409Y-106464856D01*
X88025409Y-106702952D01*
X87977790Y-106845809D01*
X87882551Y-106941047D01*
X87787313Y-106988666D01*
X87596837Y-107036285D01*
X87453980Y-107036285D01*
X87263504Y-106988666D01*
X87168266Y-106941047D01*
X87073028Y-106845809D01*
X87025409Y-106702952D01*
X87025409Y-106464856D01*
X88025409Y-107893428D02*
X88025409Y-107702952D01*
X87977790Y-107607713D01*
X87930170Y-107560094D01*
X87787313Y-107464856D01*
X87596837Y-107417237D01*
X87215885Y-107417237D01*
X87120647Y-107464856D01*
X87073028Y-107512475D01*
X87025409Y-107607713D01*
X87025409Y-107798190D01*
X87073028Y-107893428D01*
X87120647Y-107941047D01*
X87215885Y-107988666D01*
X87453980Y-107988666D01*
X87549218Y-107941047D01*
X87596837Y-107893428D01*
X87644456Y-107798190D01*
X87644456Y-107607713D01*
X87596837Y-107512475D01*
X87549218Y-107464856D01*
X87453980Y-107417237D01*
X89565409Y-106464856D02*
X90565409Y-106464856D01*
X90565409Y-106702952D01*
X90517790Y-106845809D01*
X90422551Y-106941047D01*
X90327313Y-106988666D01*
X90136837Y-107036285D01*
X89993980Y-107036285D01*
X89803504Y-106988666D01*
X89708266Y-106941047D01*
X89613028Y-106845809D01*
X89565409Y-106702952D01*
X89565409Y-106464856D01*
X90565409Y-107941047D02*
X90565409Y-107464856D01*
X90089218Y-107417237D01*
X90136837Y-107464856D01*
X90184456Y-107560094D01*
X90184456Y-107798190D01*
X90136837Y-107893428D01*
X90089218Y-107941047D01*
X89993980Y-107988666D01*
X89755885Y-107988666D01*
X89660647Y-107941047D01*
X89613028Y-107893428D01*
X89565409Y-107798190D01*
X89565409Y-107560094D01*
X89613028Y-107464856D01*
X89660647Y-107417237D01*
X84358409Y-106464856D02*
X85358409Y-106464856D01*
X85358409Y-106702952D01*
X85310790Y-106845809D01*
X85215551Y-106941047D01*
X85120313Y-106988666D01*
X84929837Y-107036285D01*
X84786980Y-107036285D01*
X84596504Y-106988666D01*
X84501266Y-106941047D01*
X84406028Y-106845809D01*
X84358409Y-106702952D01*
X84358409Y-106464856D01*
X85358409Y-107369618D02*
X85358409Y-108036285D01*
X84358409Y-107607713D01*
X91978409Y-106464856D02*
X92978409Y-106464856D01*
X92978409Y-106702952D01*
X92930790Y-106845809D01*
X92835551Y-106941047D01*
X92740313Y-106988666D01*
X92549837Y-107036285D01*
X92406980Y-107036285D01*
X92216504Y-106988666D01*
X92121266Y-106941047D01*
X92026028Y-106845809D01*
X91978409Y-106702952D01*
X91978409Y-106464856D01*
X92645075Y-107893428D02*
X91978409Y-107893428D01*
X93026028Y-107655332D02*
X92311742Y-107417237D01*
X92311742Y-108036285D01*
X94645409Y-106464856D02*
X95645409Y-106464856D01*
X95645409Y-106702952D01*
X95597790Y-106845809D01*
X95502551Y-106941047D01*
X95407313Y-106988666D01*
X95216837Y-107036285D01*
X95073980Y-107036285D01*
X94883504Y-106988666D01*
X94788266Y-106941047D01*
X94693028Y-106845809D01*
X94645409Y-106702952D01*
X94645409Y-106464856D01*
X95645409Y-107369618D02*
X95645409Y-107988666D01*
X95264456Y-107655332D01*
X95264456Y-107798190D01*
X95216837Y-107893428D01*
X95169218Y-107941047D01*
X95073980Y-107988666D01*
X94835885Y-107988666D01*
X94740647Y-107941047D01*
X94693028Y-107893428D01*
X94645409Y-107798190D01*
X94645409Y-107512475D01*
X94693028Y-107417237D01*
X94740647Y-107369618D01*
X102290619Y-106513380D02*
X102766809Y-106180047D01*
X102290619Y-105941952D02*
X103290619Y-105941952D01*
X103290619Y-106322904D01*
X103243000Y-106418142D01*
X103195380Y-106465761D01*
X103100142Y-106513380D01*
X102957285Y-106513380D01*
X102862047Y-106465761D01*
X102814428Y-106418142D01*
X102766809Y-106322904D01*
X102766809Y-105941952D01*
X102338238Y-106894333D02*
X102290619Y-107037190D01*
X102290619Y-107275285D01*
X102338238Y-107370523D01*
X102385857Y-107418142D01*
X102481095Y-107465761D01*
X102576333Y-107465761D01*
X102671571Y-107418142D01*
X102719190Y-107370523D01*
X102766809Y-107275285D01*
X102814428Y-107084809D01*
X102862047Y-106989571D01*
X102909666Y-106941952D01*
X103004904Y-106894333D01*
X103100142Y-106894333D01*
X103195380Y-106941952D01*
X103243000Y-106989571D01*
X103290619Y-107084809D01*
X103290619Y-107322904D01*
X103243000Y-107465761D01*
X103290619Y-107751476D02*
X103290619Y-108322904D01*
X102290619Y-108037190D02*
X103290619Y-108037190D01*
X99415885Y-107069000D02*
X99320647Y-107021380D01*
X99177790Y-107021380D01*
X99034932Y-107069000D01*
X98939694Y-107164238D01*
X98892075Y-107259476D01*
X98844456Y-107449952D01*
X98844456Y-107592809D01*
X98892075Y-107783285D01*
X98939694Y-107878523D01*
X99034932Y-107973761D01*
X99177790Y-108021380D01*
X99273028Y-108021380D01*
X99415885Y-107973761D01*
X99463504Y-107926142D01*
X99463504Y-107592809D01*
X99273028Y-107592809D01*
X99892075Y-108021380D02*
X99892075Y-107021380D01*
X100463504Y-108021380D01*
X100463504Y-107021380D01*
X100939694Y-108021380D02*
X100939694Y-107021380D01*
X101177790Y-107021380D01*
X101320647Y-107069000D01*
X101415885Y-107164238D01*
X101463504Y-107259476D01*
X101511123Y-107449952D01*
X101511123Y-107592809D01*
X101463504Y-107783285D01*
X101415885Y-107878523D01*
X101320647Y-107973761D01*
X101177790Y-108021380D01*
X100939694Y-108021380D01*
X97185409Y-106464856D02*
X98185409Y-106464856D01*
X98185409Y-106702952D01*
X98137790Y-106845809D01*
X98042551Y-106941047D01*
X97947313Y-106988666D01*
X97756837Y-107036285D01*
X97613980Y-107036285D01*
X97423504Y-106988666D01*
X97328266Y-106941047D01*
X97233028Y-106845809D01*
X97185409Y-106702952D01*
X97185409Y-106464856D01*
X98090170Y-107417237D02*
X98137790Y-107464856D01*
X98185409Y-107560094D01*
X98185409Y-107798190D01*
X98137790Y-107893428D01*
X98090170Y-107941047D01*
X97994932Y-107988666D01*
X97899694Y-107988666D01*
X97756837Y-107941047D01*
X97185409Y-107369618D01*
X97185409Y-107988666D01*
X104805409Y-107036285D02*
X105281599Y-106702952D01*
X104805409Y-106464856D02*
X105805409Y-106464856D01*
X105805409Y-106845809D01*
X105757790Y-106941047D01*
X105710170Y-106988666D01*
X105614932Y-107036285D01*
X105472075Y-107036285D01*
X105376837Y-106988666D01*
X105329218Y-106941047D01*
X105281599Y-106845809D01*
X105281599Y-106464856D01*
X105805409Y-107369618D02*
X104805409Y-108036285D01*
X105805409Y-108036285D02*
X104805409Y-107369618D01*
X108345409Y-106553095D02*
X108345409Y-107124523D01*
X107345409Y-106838809D02*
X108345409Y-106838809D01*
X108345409Y-107362619D02*
X107345409Y-108029285D01*
X108345409Y-108029285D02*
X107345409Y-107362619D01*
D10*
X93495706Y-116727952D02*
G75*
G03X93495706Y-116727952I-683916J0D01*
G01*
D14*
X91297000Y-97857000D02*
G75*
G02X89297000Y-97857000I-1000000J0D01*
G01*
X89297000Y-97857000D02*
X87647000Y-97857000D01*
X87647000Y-97857000D02*
X87647000Y-103057000D01*
X87647000Y-103057000D02*
X92947000Y-103057000D01*
X92947000Y-103057000D02*
X92947000Y-97857000D01*
X92947000Y-97857000D02*
X91297000Y-97857000D01*
X111737790Y-126509952D02*
X111737790Y-108469952D01*
X68297790Y-126509952D02*
X111737790Y-126509952D01*
X68297790Y-108469952D02*
X68297790Y-126509952D01*
X70967790Y-111139952D02*
X70967790Y-108469952D01*
X106527790Y-111139952D02*
X70967790Y-111139952D01*
X106527790Y-111139952D02*
X106527790Y-108469952D01*
X70967790Y-123839952D02*
X70967790Y-126509952D01*
X109067790Y-123839952D02*
X70967790Y-123839952D01*
X109067790Y-123839952D02*
X109067790Y-126509952D01*
X111737790Y-108469952D02*
X109067790Y-108469952D01*
X106527790Y-108469952D02*
X68297790Y-108469952D01*
X109067790Y-111139952D02*
X109067790Y-108469952D01*
X106527790Y-111139952D02*
X109067790Y-111139952D01*
X107222790Y-121740952D02*
X105892790Y-121740952D01*
X107222790Y-120410952D02*
X107222790Y-121740952D01*
X104622790Y-121740952D02*
X102022790Y-121740952D01*
X104622790Y-119140952D02*
X104622790Y-121740952D01*
X107222790Y-119140952D02*
X104622790Y-119140952D01*
X102022790Y-121740952D02*
X102022790Y-114000952D01*
X107222790Y-119140952D02*
X107222790Y-114000952D01*
X107222790Y-114000952D02*
X102022790Y-114000952D01*
X76032790Y-114327952D02*
G75*
G03X70982790Y-114327952I-2525000J0D01*
G01*
X76032790Y-120577952D02*
G75*
G02X70982790Y-120577952I-2525000J0D01*
G01*
X76032790Y-120577952D02*
X76032790Y-114327952D01*
X70982790Y-120577952D02*
X70982790Y-114327952D01*
X70445000Y-85772000D02*
X80685000Y-85772000D01*
X70445000Y-90413000D02*
X80685000Y-90413000D01*
X70445000Y-85772000D02*
X70445000Y-90413000D01*
X80685000Y-85772000D02*
X80685000Y-90413000D01*
X70445000Y-87282000D02*
X80685000Y-87282000D01*
X73715000Y-85772000D02*
X73715000Y-87282000D01*
X77416000Y-85772000D02*
X77416000Y-87282000D01*
X96715000Y-72517000D02*
G75*
G03X96715000Y-72517000I-7120000J0D01*
G01*
X89595000Y-79597000D02*
X89595000Y-65437000D01*
X89555000Y-79597000D02*
X89555000Y-65437000D01*
X89515000Y-79597000D02*
X89515000Y-65437000D01*
X89475000Y-79596000D02*
X89475000Y-65438000D01*
X89435000Y-79596000D02*
X89435000Y-65438000D01*
X89395000Y-79595000D02*
X89395000Y-65439000D01*
X89355000Y-79593000D02*
X89355000Y-65441000D01*
X89315000Y-79592000D02*
X89315000Y-65442000D01*
X89275000Y-79590000D02*
X89275000Y-65444000D01*
X89235000Y-79588000D02*
X89235000Y-65446000D01*
X89195000Y-79586000D02*
X89195000Y-65448000D01*
X89155000Y-79584000D02*
X89155000Y-65450000D01*
X89115000Y-79581000D02*
X89115000Y-65453000D01*
X89075000Y-79578000D02*
X89075000Y-65456000D01*
X89035000Y-79575000D02*
X89035000Y-65459000D01*
X88995000Y-79572000D02*
X88995000Y-65462000D01*
X88955000Y-79569000D02*
X88955000Y-65465000D01*
X88915000Y-79565000D02*
X88915000Y-65469000D01*
X88874000Y-79561000D02*
X88874000Y-65473000D01*
X88834000Y-79557000D02*
X88834000Y-65477000D01*
X88794000Y-79552000D02*
X88794000Y-65482000D01*
X88754000Y-79548000D02*
X88754000Y-65486000D01*
X88714000Y-79543000D02*
X88714000Y-65491000D01*
X88674000Y-79538000D02*
X88674000Y-65496000D01*
X88634000Y-79532000D02*
X88634000Y-65502000D01*
X88594000Y-79527000D02*
X88594000Y-65507000D01*
X88554000Y-79521000D02*
X88554000Y-65513000D01*
X88514000Y-79515000D02*
X88514000Y-65519000D01*
X88474000Y-79509000D02*
X88474000Y-65525000D01*
X88434000Y-79502000D02*
X88434000Y-65532000D01*
X88394000Y-79496000D02*
X88394000Y-65538000D01*
X88354000Y-79489000D02*
X88354000Y-65545000D01*
X88314000Y-79481000D02*
X88314000Y-65553000D01*
X88274000Y-79474000D02*
X88274000Y-65560000D01*
X88234000Y-79466000D02*
X88234000Y-65568000D01*
X88194000Y-79459000D02*
X88194000Y-65575000D01*
X88154000Y-79450000D02*
X88154000Y-65584000D01*
X88114000Y-79442000D02*
X88114000Y-65592000D01*
X88074000Y-79433000D02*
X88074000Y-65601000D01*
X88034000Y-79424000D02*
X88034000Y-65610000D01*
X87994000Y-79415000D02*
X87994000Y-65619000D01*
X87954000Y-79406000D02*
X87954000Y-65628000D01*
X87914000Y-79396000D02*
X87914000Y-65638000D01*
X87874000Y-79387000D02*
X87874000Y-65647000D01*
X87834000Y-79377000D02*
X87834000Y-65657000D01*
X87794000Y-79366000D02*
X87794000Y-65668000D01*
X87754000Y-79356000D02*
X87754000Y-65678000D01*
X87714000Y-79345000D02*
X87714000Y-65689000D01*
X87674000Y-79334000D02*
X87674000Y-65700000D01*
X87634000Y-79322000D02*
X87634000Y-65712000D01*
X87594000Y-79311000D02*
X87594000Y-65723000D01*
X87554000Y-79299000D02*
X87554000Y-65735000D01*
X87514000Y-79287000D02*
X87514000Y-65747000D01*
X87474000Y-79275000D02*
X87474000Y-65759000D01*
X87434000Y-79262000D02*
X87434000Y-65772000D01*
X87394000Y-79249000D02*
X87394000Y-65785000D01*
X87354000Y-79236000D02*
X87354000Y-65798000D01*
X87314000Y-79223000D02*
X87314000Y-65811000D01*
X87274000Y-79209000D02*
X87274000Y-73957000D01*
X87274000Y-71077000D02*
X87274000Y-65825000D01*
X87234000Y-79195000D02*
X87234000Y-73957000D01*
X87234000Y-71077000D02*
X87234000Y-65839000D01*
X87194000Y-79181000D02*
X87194000Y-73957000D01*
X87194000Y-71077000D02*
X87194000Y-65853000D01*
X87154000Y-79166000D02*
X87154000Y-73957000D01*
X87154000Y-71077000D02*
X87154000Y-65868000D01*
X87114000Y-79152000D02*
X87114000Y-73957000D01*
X87114000Y-71077000D02*
X87114000Y-65882000D01*
X87074000Y-79137000D02*
X87074000Y-73957000D01*
X87074000Y-71077000D02*
X87074000Y-65897000D01*
X87034000Y-79121000D02*
X87034000Y-73957000D01*
X87034000Y-71077000D02*
X87034000Y-65913000D01*
X86994000Y-79106000D02*
X86994000Y-73957000D01*
X86994000Y-71077000D02*
X86994000Y-65928000D01*
X86954000Y-79090000D02*
X86954000Y-73957000D01*
X86954000Y-71077000D02*
X86954000Y-65944000D01*
X86914000Y-79074000D02*
X86914000Y-73957000D01*
X86914000Y-71077000D02*
X86914000Y-65960000D01*
X86874000Y-79057000D02*
X86874000Y-73957000D01*
X86874000Y-71077000D02*
X86874000Y-65977000D01*
X86834000Y-79041000D02*
X86834000Y-73957000D01*
X86834000Y-71077000D02*
X86834000Y-65993000D01*
X86794000Y-79024000D02*
X86794000Y-73957000D01*
X86794000Y-71077000D02*
X86794000Y-66010000D01*
X86754000Y-79007000D02*
X86754000Y-73957000D01*
X86754000Y-71077000D02*
X86754000Y-66027000D01*
X86714000Y-78989000D02*
X86714000Y-73957000D01*
X86714000Y-71077000D02*
X86714000Y-66045000D01*
X86674000Y-78971000D02*
X86674000Y-73957000D01*
X86674000Y-71077000D02*
X86674000Y-66063000D01*
X86634000Y-78953000D02*
X86634000Y-73957000D01*
X86634000Y-71077000D02*
X86634000Y-66081000D01*
X86594000Y-78935000D02*
X86594000Y-73957000D01*
X86594000Y-71077000D02*
X86594000Y-66099000D01*
X86554000Y-78916000D02*
X86554000Y-73957000D01*
X86554000Y-71077000D02*
X86554000Y-66118000D01*
X86514000Y-78897000D02*
X86514000Y-73957000D01*
X86514000Y-71077000D02*
X86514000Y-66137000D01*
X86474000Y-78877000D02*
X86474000Y-73957000D01*
X86474000Y-71077000D02*
X86474000Y-66157000D01*
X86434000Y-78858000D02*
X86434000Y-73957000D01*
X86434000Y-71077000D02*
X86434000Y-66176000D01*
X86394000Y-78838000D02*
X86394000Y-73957000D01*
X86394000Y-71077000D02*
X86394000Y-66196000D01*
X86354000Y-78818000D02*
X86354000Y-73957000D01*
X86354000Y-71077000D02*
X86354000Y-66216000D01*
X86314000Y-78797000D02*
X86314000Y-73957000D01*
X86314000Y-71077000D02*
X86314000Y-66237000D01*
X86274000Y-78776000D02*
X86274000Y-73957000D01*
X86274000Y-71077000D02*
X86274000Y-66258000D01*
X86234000Y-78755000D02*
X86234000Y-73957000D01*
X86234000Y-71077000D02*
X86234000Y-66279000D01*
X86194000Y-78733000D02*
X86194000Y-73957000D01*
X86194000Y-71077000D02*
X86194000Y-66301000D01*
X86154000Y-78711000D02*
X86154000Y-73957000D01*
X86154000Y-71077000D02*
X86154000Y-66323000D01*
X86114000Y-78689000D02*
X86114000Y-73957000D01*
X86114000Y-71077000D02*
X86114000Y-66345000D01*
X86074000Y-78667000D02*
X86074000Y-73957000D01*
X86074000Y-71077000D02*
X86074000Y-66367000D01*
X86034000Y-78644000D02*
X86034000Y-73957000D01*
X86034000Y-71077000D02*
X86034000Y-66390000D01*
X85994000Y-78620000D02*
X85994000Y-73957000D01*
X85994000Y-71077000D02*
X85994000Y-66414000D01*
X85954000Y-78597000D02*
X85954000Y-73957000D01*
X85954000Y-71077000D02*
X85954000Y-66437000D01*
X85914000Y-78573000D02*
X85914000Y-73957000D01*
X85914000Y-71077000D02*
X85914000Y-66461000D01*
X85874000Y-78548000D02*
X85874000Y-73957000D01*
X85874000Y-71077000D02*
X85874000Y-66486000D01*
X85834000Y-78524000D02*
X85834000Y-73957000D01*
X85834000Y-71077000D02*
X85834000Y-66510000D01*
X85794000Y-78499000D02*
X85794000Y-73957000D01*
X85794000Y-71077000D02*
X85794000Y-66535000D01*
X85754000Y-78473000D02*
X85754000Y-73957000D01*
X85754000Y-71077000D02*
X85754000Y-66561000D01*
X85714000Y-78447000D02*
X85714000Y-73957000D01*
X85714000Y-71077000D02*
X85714000Y-66587000D01*
X85674000Y-78421000D02*
X85674000Y-73957000D01*
X85674000Y-71077000D02*
X85674000Y-66613000D01*
X85634000Y-78395000D02*
X85634000Y-73957000D01*
X85634000Y-71077000D02*
X85634000Y-66639000D01*
X85594000Y-78368000D02*
X85594000Y-73957000D01*
X85594000Y-71077000D02*
X85594000Y-66666000D01*
X85554000Y-78340000D02*
X85554000Y-73957000D01*
X85554000Y-71077000D02*
X85554000Y-66694000D01*
X85514000Y-78313000D02*
X85514000Y-73957000D01*
X85514000Y-71077000D02*
X85514000Y-66721000D01*
X85474000Y-78284000D02*
X85474000Y-73957000D01*
X85474000Y-71077000D02*
X85474000Y-66750000D01*
X85434000Y-78256000D02*
X85434000Y-73957000D01*
X85434000Y-71077000D02*
X85434000Y-66778000D01*
X85394000Y-78227000D02*
X85394000Y-73957000D01*
X85394000Y-71077000D02*
X85394000Y-66807000D01*
X85354000Y-78197000D02*
X85354000Y-73957000D01*
X85354000Y-71077000D02*
X85354000Y-66837000D01*
X85314000Y-78167000D02*
X85314000Y-73957000D01*
X85314000Y-71077000D02*
X85314000Y-66867000D01*
X85274000Y-78137000D02*
X85274000Y-73957000D01*
X85274000Y-71077000D02*
X85274000Y-66897000D01*
X85234000Y-78106000D02*
X85234000Y-73957000D01*
X85234000Y-71077000D02*
X85234000Y-66928000D01*
X85194000Y-78075000D02*
X85194000Y-73957000D01*
X85194000Y-71077000D02*
X85194000Y-66959000D01*
X85154000Y-78044000D02*
X85154000Y-73957000D01*
X85154000Y-71077000D02*
X85154000Y-66990000D01*
X85114000Y-78011000D02*
X85114000Y-73957000D01*
X85114000Y-71077000D02*
X85114000Y-67023000D01*
X85074000Y-77979000D02*
X85074000Y-73957000D01*
X85074000Y-71077000D02*
X85074000Y-67055000D01*
X85034000Y-77946000D02*
X85034000Y-73957000D01*
X85034000Y-71077000D02*
X85034000Y-67088000D01*
X84994000Y-77912000D02*
X84994000Y-73957000D01*
X84994000Y-71077000D02*
X84994000Y-67122000D01*
X84954000Y-77878000D02*
X84954000Y-73957000D01*
X84954000Y-71077000D02*
X84954000Y-67156000D01*
X84914000Y-77843000D02*
X84914000Y-73957000D01*
X84914000Y-71077000D02*
X84914000Y-67191000D01*
X84874000Y-77808000D02*
X84874000Y-73957000D01*
X84874000Y-71077000D02*
X84874000Y-67226000D01*
X84834000Y-77772000D02*
X84834000Y-73957000D01*
X84834000Y-71077000D02*
X84834000Y-67262000D01*
X84794000Y-77736000D02*
X84794000Y-73957000D01*
X84794000Y-71077000D02*
X84794000Y-67298000D01*
X84754000Y-77699000D02*
X84754000Y-73957000D01*
X84754000Y-71077000D02*
X84754000Y-67335000D01*
X84714000Y-77662000D02*
X84714000Y-73957000D01*
X84714000Y-71077000D02*
X84714000Y-67372000D01*
X84674000Y-77624000D02*
X84674000Y-73957000D01*
X84674000Y-71077000D02*
X84674000Y-67410000D01*
X84634000Y-77586000D02*
X84634000Y-73957000D01*
X84634000Y-71077000D02*
X84634000Y-67448000D01*
X84594000Y-77546000D02*
X84594000Y-73957000D01*
X84594000Y-71077000D02*
X84594000Y-67488000D01*
X84554000Y-77507000D02*
X84554000Y-73957000D01*
X84554000Y-71077000D02*
X84554000Y-67527000D01*
X84514000Y-77466000D02*
X84514000Y-73957000D01*
X84514000Y-71077000D02*
X84514000Y-67568000D01*
X84474000Y-77425000D02*
X84474000Y-73957000D01*
X84474000Y-71077000D02*
X84474000Y-67609000D01*
X84434000Y-77383000D02*
X84434000Y-73957000D01*
X84434000Y-71077000D02*
X84434000Y-67651000D01*
X84394000Y-77341000D02*
X84394000Y-67693000D01*
X84354000Y-77298000D02*
X84354000Y-67736000D01*
X84314000Y-77254000D02*
X84314000Y-67780000D01*
X84274000Y-77210000D02*
X84274000Y-67824000D01*
X84234000Y-77164000D02*
X84234000Y-67870000D01*
X84194000Y-77118000D02*
X84194000Y-67916000D01*
X84154000Y-77071000D02*
X84154000Y-67963000D01*
X84114000Y-77023000D02*
X84114000Y-68011000D01*
X84074000Y-76975000D02*
X84074000Y-68059000D01*
X84034000Y-76925000D02*
X84034000Y-68109000D01*
X83994000Y-76875000D02*
X83994000Y-68159000D01*
X83954000Y-76823000D02*
X83954000Y-68211000D01*
X83914000Y-76771000D02*
X83914000Y-68263000D01*
X83874000Y-76717000D02*
X83874000Y-68317000D01*
X83834000Y-76663000D02*
X83834000Y-68371000D01*
X83794000Y-76607000D02*
X83794000Y-68427000D01*
X83754000Y-76550000D02*
X83754000Y-68484000D01*
X83714000Y-76492000D02*
X83714000Y-68542000D01*
X83674000Y-76433000D02*
X83674000Y-68601000D01*
X83634000Y-76373000D02*
X83634000Y-68661000D01*
X83594000Y-76311000D02*
X83594000Y-68723000D01*
X83554000Y-76247000D02*
X83554000Y-68787000D01*
X83514000Y-76183000D02*
X83514000Y-68851000D01*
X83474000Y-76116000D02*
X83474000Y-68918000D01*
X83434000Y-76048000D02*
X83434000Y-68986000D01*
X83394000Y-75978000D02*
X83394000Y-69056000D01*
X83354000Y-75906000D02*
X83354000Y-69128000D01*
X83314000Y-75832000D02*
X83314000Y-69202000D01*
X83274000Y-75757000D02*
X83274000Y-69277000D01*
X83234000Y-75678000D02*
X83234000Y-69356000D01*
X83194000Y-75597000D02*
X83194000Y-69437000D01*
X83154000Y-75514000D02*
X83154000Y-69520000D01*
X83114000Y-75428000D02*
X83114000Y-69606000D01*
X83074000Y-75338000D02*
X83074000Y-69696000D01*
X83034000Y-75245000D02*
X83034000Y-69789000D01*
X82994000Y-75149000D02*
X82994000Y-69885000D01*
X82954000Y-75047000D02*
X82954000Y-69987000D01*
X82914000Y-74942000D02*
X82914000Y-70092000D01*
X82874000Y-74830000D02*
X82874000Y-70204000D01*
X82834000Y-74713000D02*
X82834000Y-70321000D01*
X82794000Y-74588000D02*
X82794000Y-70446000D01*
X82754000Y-74455000D02*
X82754000Y-70579000D01*
X82714000Y-74311000D02*
X82714000Y-70723000D01*
X82674000Y-74153000D02*
X82674000Y-70881000D01*
X82634000Y-73978000D02*
X82634000Y-71056000D01*
X82594000Y-73779000D02*
X82594000Y-71255000D01*
X82554000Y-73542000D02*
X82554000Y-71492000D01*
X82514000Y-73231000D02*
X82514000Y-71803000D01*
X97214543Y-76512000D02*
X95814543Y-76512000D01*
X96514543Y-77212000D02*
X96514543Y-75812000D01*
X96514543Y-93087000D02*
X96514543Y-91687000D01*
X97214543Y-92387000D02*
X95814543Y-92387000D01*
X82514000Y-89106000D02*
X82514000Y-87678000D01*
X82554000Y-89417000D02*
X82554000Y-87367000D01*
X82594000Y-89654000D02*
X82594000Y-87130000D01*
X82634000Y-89853000D02*
X82634000Y-86931000D01*
X82674000Y-90028000D02*
X82674000Y-86756000D01*
X82714000Y-90186000D02*
X82714000Y-86598000D01*
X82754000Y-90330000D02*
X82754000Y-86454000D01*
X82794000Y-90463000D02*
X82794000Y-86321000D01*
X82834000Y-90588000D02*
X82834000Y-86196000D01*
X82874000Y-90705000D02*
X82874000Y-86079000D01*
X82914000Y-90817000D02*
X82914000Y-85967000D01*
X82954000Y-90922000D02*
X82954000Y-85862000D01*
X82994000Y-91024000D02*
X82994000Y-85760000D01*
X83034000Y-91120000D02*
X83034000Y-85664000D01*
X83074000Y-91213000D02*
X83074000Y-85571000D01*
X83114000Y-91303000D02*
X83114000Y-85481000D01*
X83154000Y-91389000D02*
X83154000Y-85395000D01*
X83194000Y-91472000D02*
X83194000Y-85312000D01*
X83234000Y-91553000D02*
X83234000Y-85231000D01*
X83274000Y-91632000D02*
X83274000Y-85152000D01*
X83314000Y-91707000D02*
X83314000Y-85077000D01*
X83354000Y-91781000D02*
X83354000Y-85003000D01*
X83394000Y-91853000D02*
X83394000Y-84931000D01*
X83434000Y-91923000D02*
X83434000Y-84861000D01*
X83474000Y-91991000D02*
X83474000Y-84793000D01*
X83514000Y-92058000D02*
X83514000Y-84726000D01*
X83554000Y-92122000D02*
X83554000Y-84662000D01*
X83594000Y-92186000D02*
X83594000Y-84598000D01*
X83634000Y-92248000D02*
X83634000Y-84536000D01*
X83674000Y-92308000D02*
X83674000Y-84476000D01*
X83714000Y-92367000D02*
X83714000Y-84417000D01*
X83754000Y-92425000D02*
X83754000Y-84359000D01*
X83794000Y-92482000D02*
X83794000Y-84302000D01*
X83834000Y-92538000D02*
X83834000Y-84246000D01*
X83874000Y-92592000D02*
X83874000Y-84192000D01*
X83914000Y-92646000D02*
X83914000Y-84138000D01*
X83954000Y-92698000D02*
X83954000Y-84086000D01*
X83994000Y-92750000D02*
X83994000Y-84034000D01*
X84034000Y-92800000D02*
X84034000Y-83984000D01*
X84074000Y-92850000D02*
X84074000Y-83934000D01*
X84114000Y-92898000D02*
X84114000Y-83886000D01*
X84154000Y-92946000D02*
X84154000Y-83838000D01*
X84194000Y-92993000D02*
X84194000Y-83791000D01*
X84234000Y-93039000D02*
X84234000Y-83745000D01*
X84274000Y-93085000D02*
X84274000Y-83699000D01*
X84314000Y-93129000D02*
X84314000Y-83655000D01*
X84354000Y-93173000D02*
X84354000Y-83611000D01*
X84394000Y-93216000D02*
X84394000Y-83568000D01*
X84434000Y-86952000D02*
X84434000Y-83526000D01*
X84434000Y-93258000D02*
X84434000Y-89832000D01*
X84474000Y-86952000D02*
X84474000Y-83484000D01*
X84474000Y-93300000D02*
X84474000Y-89832000D01*
X84514000Y-86952000D02*
X84514000Y-83443000D01*
X84514000Y-93341000D02*
X84514000Y-89832000D01*
X84554000Y-86952000D02*
X84554000Y-83402000D01*
X84554000Y-93382000D02*
X84554000Y-89832000D01*
X84594000Y-86952000D02*
X84594000Y-83363000D01*
X84594000Y-93421000D02*
X84594000Y-89832000D01*
X84634000Y-86952000D02*
X84634000Y-83323000D01*
X84634000Y-93461000D02*
X84634000Y-89832000D01*
X84674000Y-86952000D02*
X84674000Y-83285000D01*
X84674000Y-93499000D02*
X84674000Y-89832000D01*
X84714000Y-86952000D02*
X84714000Y-83247000D01*
X84714000Y-93537000D02*
X84714000Y-89832000D01*
X84754000Y-86952000D02*
X84754000Y-83210000D01*
X84754000Y-93574000D02*
X84754000Y-89832000D01*
X84794000Y-86952000D02*
X84794000Y-83173000D01*
X84794000Y-93611000D02*
X84794000Y-89832000D01*
X84834000Y-86952000D02*
X84834000Y-83137000D01*
X84834000Y-93647000D02*
X84834000Y-89832000D01*
X84874000Y-86952000D02*
X84874000Y-83101000D01*
X84874000Y-93683000D02*
X84874000Y-89832000D01*
X84914000Y-86952000D02*
X84914000Y-83066000D01*
X84914000Y-93718000D02*
X84914000Y-89832000D01*
X84954000Y-86952000D02*
X84954000Y-83031000D01*
X84954000Y-93753000D02*
X84954000Y-89832000D01*
X84994000Y-86952000D02*
X84994000Y-82997000D01*
X84994000Y-93787000D02*
X84994000Y-89832000D01*
X85034000Y-86952000D02*
X85034000Y-82963000D01*
X85034000Y-93821000D02*
X85034000Y-89832000D01*
X85074000Y-86952000D02*
X85074000Y-82930000D01*
X85074000Y-93854000D02*
X85074000Y-89832000D01*
X85114000Y-86952000D02*
X85114000Y-82898000D01*
X85114000Y-93886000D02*
X85114000Y-89832000D01*
X85154000Y-86952000D02*
X85154000Y-82865000D01*
X85154000Y-93919000D02*
X85154000Y-89832000D01*
X85194000Y-86952000D02*
X85194000Y-82834000D01*
X85194000Y-93950000D02*
X85194000Y-89832000D01*
X85234000Y-86952000D02*
X85234000Y-82803000D01*
X85234000Y-93981000D02*
X85234000Y-89832000D01*
X85274000Y-86952000D02*
X85274000Y-82772000D01*
X85274000Y-94012000D02*
X85274000Y-89832000D01*
X85314000Y-86952000D02*
X85314000Y-82742000D01*
X85314000Y-94042000D02*
X85314000Y-89832000D01*
X85354000Y-86952000D02*
X85354000Y-82712000D01*
X85354000Y-94072000D02*
X85354000Y-89832000D01*
X85394000Y-86952000D02*
X85394000Y-82682000D01*
X85394000Y-94102000D02*
X85394000Y-89832000D01*
X85434000Y-86952000D02*
X85434000Y-82653000D01*
X85434000Y-94131000D02*
X85434000Y-89832000D01*
X85474000Y-86952000D02*
X85474000Y-82625000D01*
X85474000Y-94159000D02*
X85474000Y-89832000D01*
X85514000Y-86952000D02*
X85514000Y-82596000D01*
X85514000Y-94188000D02*
X85514000Y-89832000D01*
X85554000Y-86952000D02*
X85554000Y-82569000D01*
X85554000Y-94215000D02*
X85554000Y-89832000D01*
X85594000Y-86952000D02*
X85594000Y-82541000D01*
X85594000Y-94243000D02*
X85594000Y-89832000D01*
X85634000Y-86952000D02*
X85634000Y-82514000D01*
X85634000Y-94270000D02*
X85634000Y-89832000D01*
X85674000Y-86952000D02*
X85674000Y-82488000D01*
X85674000Y-94296000D02*
X85674000Y-89832000D01*
X85714000Y-86952000D02*
X85714000Y-82462000D01*
X85714000Y-94322000D02*
X85714000Y-89832000D01*
X85754000Y-86952000D02*
X85754000Y-82436000D01*
X85754000Y-94348000D02*
X85754000Y-89832000D01*
X85794000Y-86952000D02*
X85794000Y-82410000D01*
X85794000Y-94374000D02*
X85794000Y-89832000D01*
X85834000Y-86952000D02*
X85834000Y-82385000D01*
X85834000Y-94399000D02*
X85834000Y-89832000D01*
X85874000Y-86952000D02*
X85874000Y-82361000D01*
X85874000Y-94423000D02*
X85874000Y-89832000D01*
X85914000Y-86952000D02*
X85914000Y-82336000D01*
X85914000Y-94448000D02*
X85914000Y-89832000D01*
X85954000Y-86952000D02*
X85954000Y-82312000D01*
X85954000Y-94472000D02*
X85954000Y-89832000D01*
X85994000Y-86952000D02*
X85994000Y-82289000D01*
X85994000Y-94495000D02*
X85994000Y-89832000D01*
X86034000Y-86952000D02*
X86034000Y-82265000D01*
X86034000Y-94519000D02*
X86034000Y-89832000D01*
X86074000Y-86952000D02*
X86074000Y-82242000D01*
X86074000Y-94542000D02*
X86074000Y-89832000D01*
X86114000Y-86952000D02*
X86114000Y-82220000D01*
X86114000Y-94564000D02*
X86114000Y-89832000D01*
X86154000Y-86952000D02*
X86154000Y-82198000D01*
X86154000Y-94586000D02*
X86154000Y-89832000D01*
X86194000Y-86952000D02*
X86194000Y-82176000D01*
X86194000Y-94608000D02*
X86194000Y-89832000D01*
X86234000Y-86952000D02*
X86234000Y-82154000D01*
X86234000Y-94630000D02*
X86234000Y-89832000D01*
X86274000Y-86952000D02*
X86274000Y-82133000D01*
X86274000Y-94651000D02*
X86274000Y-89832000D01*
X86314000Y-86952000D02*
X86314000Y-82112000D01*
X86314000Y-94672000D02*
X86314000Y-89832000D01*
X86354000Y-86952000D02*
X86354000Y-82091000D01*
X86354000Y-94693000D02*
X86354000Y-89832000D01*
X86394000Y-86952000D02*
X86394000Y-82071000D01*
X86394000Y-94713000D02*
X86394000Y-89832000D01*
X86434000Y-86952000D02*
X86434000Y-82051000D01*
X86434000Y-94733000D02*
X86434000Y-89832000D01*
X86474000Y-86952000D02*
X86474000Y-82032000D01*
X86474000Y-94752000D02*
X86474000Y-89832000D01*
X86514000Y-86952000D02*
X86514000Y-82012000D01*
X86514000Y-94772000D02*
X86514000Y-89832000D01*
X86554000Y-86952000D02*
X86554000Y-81993000D01*
X86554000Y-94791000D02*
X86554000Y-89832000D01*
X86594000Y-86952000D02*
X86594000Y-81974000D01*
X86594000Y-94810000D02*
X86594000Y-89832000D01*
X86634000Y-86952000D02*
X86634000Y-81956000D01*
X86634000Y-94828000D02*
X86634000Y-89832000D01*
X86674000Y-86952000D02*
X86674000Y-81938000D01*
X86674000Y-94846000D02*
X86674000Y-89832000D01*
X86714000Y-86952000D02*
X86714000Y-81920000D01*
X86714000Y-94864000D02*
X86714000Y-89832000D01*
X86754000Y-86952000D02*
X86754000Y-81902000D01*
X86754000Y-94882000D02*
X86754000Y-89832000D01*
X86794000Y-86952000D02*
X86794000Y-81885000D01*
X86794000Y-94899000D02*
X86794000Y-89832000D01*
X86834000Y-86952000D02*
X86834000Y-81868000D01*
X86834000Y-94916000D02*
X86834000Y-89832000D01*
X86874000Y-86952000D02*
X86874000Y-81852000D01*
X86874000Y-94932000D02*
X86874000Y-89832000D01*
X86914000Y-86952000D02*
X86914000Y-81835000D01*
X86914000Y-94949000D02*
X86914000Y-89832000D01*
X86954000Y-86952000D02*
X86954000Y-81819000D01*
X86954000Y-94965000D02*
X86954000Y-89832000D01*
X86994000Y-86952000D02*
X86994000Y-81803000D01*
X86994000Y-94981000D02*
X86994000Y-89832000D01*
X87034000Y-86952000D02*
X87034000Y-81788000D01*
X87034000Y-94996000D02*
X87034000Y-89832000D01*
X87074000Y-86952000D02*
X87074000Y-81772000D01*
X87074000Y-95012000D02*
X87074000Y-89832000D01*
X87114000Y-86952000D02*
X87114000Y-81757000D01*
X87114000Y-95027000D02*
X87114000Y-89832000D01*
X87154000Y-86952000D02*
X87154000Y-81743000D01*
X87154000Y-95041000D02*
X87154000Y-89832000D01*
X87194000Y-86952000D02*
X87194000Y-81728000D01*
X87194000Y-95056000D02*
X87194000Y-89832000D01*
X87234000Y-86952000D02*
X87234000Y-81714000D01*
X87234000Y-95070000D02*
X87234000Y-89832000D01*
X87274000Y-86952000D02*
X87274000Y-81700000D01*
X87274000Y-95084000D02*
X87274000Y-89832000D01*
X87314000Y-95098000D02*
X87314000Y-81686000D01*
X87354000Y-95111000D02*
X87354000Y-81673000D01*
X87394000Y-95124000D02*
X87394000Y-81660000D01*
X87434000Y-95137000D02*
X87434000Y-81647000D01*
X87474000Y-95150000D02*
X87474000Y-81634000D01*
X87514000Y-95162000D02*
X87514000Y-81622000D01*
X87554000Y-95174000D02*
X87554000Y-81610000D01*
X87594000Y-95186000D02*
X87594000Y-81598000D01*
X87634000Y-95197000D02*
X87634000Y-81587000D01*
X87674000Y-95209000D02*
X87674000Y-81575000D01*
X87714000Y-95220000D02*
X87714000Y-81564000D01*
X87754000Y-95231000D02*
X87754000Y-81553000D01*
X87794000Y-95241000D02*
X87794000Y-81543000D01*
X87834000Y-95252000D02*
X87834000Y-81532000D01*
X87874000Y-95262000D02*
X87874000Y-81522000D01*
X87914000Y-95271000D02*
X87914000Y-81513000D01*
X87954000Y-95281000D02*
X87954000Y-81503000D01*
X87994000Y-95290000D02*
X87994000Y-81494000D01*
X88034000Y-95299000D02*
X88034000Y-81485000D01*
X88074000Y-95308000D02*
X88074000Y-81476000D01*
X88114000Y-95317000D02*
X88114000Y-81467000D01*
X88154000Y-95325000D02*
X88154000Y-81459000D01*
X88194000Y-95334000D02*
X88194000Y-81450000D01*
X88234000Y-95341000D02*
X88234000Y-81443000D01*
X88274000Y-95349000D02*
X88274000Y-81435000D01*
X88314000Y-95356000D02*
X88314000Y-81428000D01*
X88354000Y-95364000D02*
X88354000Y-81420000D01*
X88394000Y-95371000D02*
X88394000Y-81413000D01*
X88434000Y-95377000D02*
X88434000Y-81407000D01*
X88474000Y-95384000D02*
X88474000Y-81400000D01*
X88514000Y-95390000D02*
X88514000Y-81394000D01*
X88554000Y-95396000D02*
X88554000Y-81388000D01*
X88594000Y-95402000D02*
X88594000Y-81382000D01*
X88634000Y-95407000D02*
X88634000Y-81377000D01*
X88674000Y-95413000D02*
X88674000Y-81371000D01*
X88714000Y-95418000D02*
X88714000Y-81366000D01*
X88754000Y-95423000D02*
X88754000Y-81361000D01*
X88794000Y-95427000D02*
X88794000Y-81357000D01*
X88834000Y-95432000D02*
X88834000Y-81352000D01*
X88874000Y-95436000D02*
X88874000Y-81348000D01*
X88915000Y-95440000D02*
X88915000Y-81344000D01*
X88955000Y-95444000D02*
X88955000Y-81340000D01*
X88995000Y-95447000D02*
X88995000Y-81337000D01*
X89035000Y-95450000D02*
X89035000Y-81334000D01*
X89075000Y-95453000D02*
X89075000Y-81331000D01*
X89115000Y-95456000D02*
X89115000Y-81328000D01*
X89155000Y-95459000D02*
X89155000Y-81325000D01*
X89195000Y-95461000D02*
X89195000Y-81323000D01*
X89235000Y-95463000D02*
X89235000Y-81321000D01*
X89275000Y-95465000D02*
X89275000Y-81319000D01*
X89315000Y-95467000D02*
X89315000Y-81317000D01*
X89355000Y-95468000D02*
X89355000Y-81316000D01*
X89395000Y-95470000D02*
X89395000Y-81314000D01*
X89435000Y-95471000D02*
X89435000Y-81313000D01*
X89475000Y-95471000D02*
X89475000Y-81313000D01*
X89515000Y-95472000D02*
X89515000Y-81312000D01*
X89555000Y-95472000D02*
X89555000Y-81312000D01*
X89595000Y-95472000D02*
X89595000Y-81312000D01*
X96715000Y-88392000D02*
G75*
G03X96715000Y-88392000I-7120000J0D01*
G01*
X99076000Y-129537500D02*
X94576000Y-129537500D01*
X100326000Y-133537500D02*
X100326000Y-132037500D01*
X94576000Y-136037500D02*
X99076000Y-136037500D01*
X93326000Y-132037500D02*
X93326000Y-133537500D01*
X108185000Y-132037500D02*
X108185000Y-133537500D01*
X109435000Y-136037500D02*
X113935000Y-136037500D01*
X115185000Y-133537500D02*
X115185000Y-132037500D01*
X113935000Y-129537500D02*
X109435000Y-129537500D01*
X110236000Y-67861000D02*
X110236000Y-69041000D01*
X110236000Y-95461000D02*
X110236000Y-94281000D01*
X106916000Y-69041000D02*
X106916000Y-94281000D01*
X113556000Y-69041000D02*
X106916000Y-69041000D01*
X113556000Y-94281000D02*
X113556000Y-69041000D01*
X106916000Y-94281000D02*
X113556000Y-94281000D01*
X98661000Y-94281000D02*
X105301000Y-94281000D01*
X105301000Y-94281000D02*
X105301000Y-69041000D01*
X105301000Y-69041000D02*
X98661000Y-69041000D01*
X98661000Y-69041000D02*
X98661000Y-94281000D01*
X101981000Y-95461000D02*
X101981000Y-94281000D01*
X101981000Y-67861000D02*
X101981000Y-69041000D01*
X77558000Y-83543000D02*
X77558000Y-81303000D01*
X77558000Y-81303000D02*
X73318000Y-81303000D01*
X73318000Y-81303000D02*
X73318000Y-83543000D01*
X73318000Y-83543000D02*
X77558000Y-83543000D01*
X78208000Y-82423000D02*
X77558000Y-82423000D01*
X72668000Y-82423000D02*
X73318000Y-82423000D01*
X76838000Y-83543000D02*
X76838000Y-81303000D01*
X76718000Y-83543000D02*
X76718000Y-81303000D01*
X76958000Y-83543000D02*
X76958000Y-81303000D01*
X78038000Y-75759000D02*
X72838000Y-75759000D01*
X78038000Y-75819000D02*
X78038000Y-75759000D01*
X72838000Y-78419000D02*
X72838000Y-75759000D01*
X78038000Y-75819000D02*
X75438000Y-75819000D01*
X75438000Y-75819000D02*
X75438000Y-78419000D01*
X75438000Y-78419000D02*
X72838000Y-78419000D01*
X78038000Y-77089000D02*
X78038000Y-78419000D01*
X78038000Y-78419000D02*
X76708000Y-78419000D01*
X117662000Y-107375000D02*
X117662000Y-102175000D01*
X117602000Y-107375000D02*
X117662000Y-107375000D01*
X115002000Y-102175000D02*
X117662000Y-102175000D01*
X117602000Y-107375000D02*
X117602000Y-104775000D01*
X117602000Y-104775000D02*
X115002000Y-104775000D01*
X115002000Y-104775000D02*
X115002000Y-102175000D01*
X116332000Y-107375000D02*
X115002000Y-107375000D01*
X115002000Y-107375000D02*
X115002000Y-106045000D01*
X83054500Y-96445000D02*
X82754500Y-96445000D01*
X83054500Y-97865000D02*
X82754500Y-97865000D01*
X75314500Y-93524000D02*
X75614500Y-93524000D01*
X75314500Y-94944000D02*
X75614500Y-94944000D01*
X93549790Y-122517952D02*
X93249790Y-122517952D01*
X93549790Y-121097952D02*
X93249790Y-121097952D01*
X80471000Y-71003000D02*
X80471000Y-61643000D01*
X80471000Y-61643000D02*
X70151000Y-61643000D01*
X70151000Y-61643000D02*
X70151000Y-71003000D01*
X80471000Y-71003000D02*
X78901000Y-71003000D01*
X70151000Y-71003000D02*
X71721000Y-71003000D01*
X76801000Y-71003000D02*
X73821000Y-71003000D01*
X80471000Y-64923000D02*
X70151000Y-64923000D01*
X77551000Y-72323000D02*
X77851000Y-71723000D01*
X77851000Y-71723000D02*
X78151000Y-72323000D01*
X78151000Y-72323000D02*
X77551000Y-72323000D01*
X112208000Y-120442000D02*
X112208000Y-119842000D01*
X112808000Y-120142000D02*
X112208000Y-120442000D01*
X112208000Y-119842000D02*
X112808000Y-120142000D01*
X119608000Y-122762000D02*
X119608000Y-112442000D01*
X113528000Y-119092000D02*
X113528000Y-116112000D01*
X113528000Y-112442000D02*
X113528000Y-114012000D01*
X113528000Y-122762000D02*
X113528000Y-121192000D01*
X122888000Y-112442000D02*
X113528000Y-112442000D01*
X122888000Y-122762000D02*
X122888000Y-112442000D01*
X113528000Y-122762000D02*
X122888000Y-122762000D01*
X112828000Y-126596000D02*
X112828000Y-126896000D01*
X114248000Y-126596000D02*
X114248000Y-126896000D01*
X104469000Y-128755000D02*
X104469000Y-129055000D01*
X103049000Y-128755000D02*
X103049000Y-129055000D01*
X69348000Y-75647000D02*
X69348000Y-78347000D01*
X69348000Y-78347000D02*
X71368000Y-78347000D01*
X71368000Y-78347000D02*
X71368000Y-75647000D01*
X81482000Y-76531500D02*
X81482000Y-76831500D01*
X80062000Y-76531500D02*
X80062000Y-76831500D01*
X109924500Y-104095000D02*
X109924500Y-106795000D01*
X109924500Y-106795000D02*
X111944500Y-106795000D01*
X111944500Y-106795000D02*
X111944500Y-104095000D01*
X111644500Y-101042500D02*
X111644500Y-101342500D01*
X110224500Y-101042500D02*
X110224500Y-101342500D01*
X83953185Y-133795827D02*
G75*
G03X89301000Y-134259830I2787815J1080827D01*
G01*
X83953185Y-131634173D02*
G75*
G02X89301000Y-131170170I2787815J-1080827D01*
G01*
X84486521Y-133795429D02*
G75*
G03X88995684Y-133795000I2254479J1080429D01*
G01*
X84486521Y-131634571D02*
G75*
G02X88995684Y-131635000I2254479J-1080429D01*
G01*
X89301000Y-134260000D02*
X89301000Y-133795000D01*
X89301000Y-131635000D02*
X89301000Y-131170000D01*
X102505000Y-104073000D02*
G75*
G02X104505000Y-104073000I1000000J0D01*
G01*
X104505000Y-104073000D02*
X106155000Y-104073000D01*
X106155000Y-104073000D02*
X106155000Y-98873000D01*
X106155000Y-98873000D02*
X100855000Y-98873000D01*
X100855000Y-98873000D02*
X100855000Y-104073000D01*
X100855000Y-104073000D02*
X102505000Y-104073000D01*
X70612000Y-135950000D02*
X70612000Y-133290000D01*
X70612000Y-135950000D02*
X83372000Y-135950000D01*
X83372000Y-135950000D02*
X83372000Y-133290000D01*
X70612000Y-133290000D02*
X83372000Y-133290000D01*
X68012000Y-133290000D02*
X69342000Y-133290000D01*
X68012000Y-134620000D02*
X68012000Y-133290000D01*
X75642500Y-131647000D02*
X75942500Y-131647000D01*
X75642500Y-130227000D02*
X75942500Y-130227000D01*
X80468500Y-130354000D02*
X80768500Y-130354000D01*
X80468500Y-131774000D02*
X80768500Y-131774000D01*
X73085000Y-132140000D02*
X73085000Y-129480000D01*
X70485000Y-132140000D02*
X73085000Y-132140000D01*
X70485000Y-129480000D02*
X73085000Y-129480000D01*
X70485000Y-132140000D02*
X70485000Y-129480000D01*
X69215000Y-132140000D02*
X67885000Y-132140000D01*
X67885000Y-132140000D02*
X67885000Y-130810000D01*
X73339000Y-99247000D02*
X73339000Y-96587000D01*
X70739000Y-99247000D02*
X73339000Y-99247000D01*
X70739000Y-96587000D02*
X73339000Y-96587000D01*
X70739000Y-99247000D02*
X70739000Y-96587000D01*
X69469000Y-99247000D02*
X68139000Y-99247000D01*
X68139000Y-99247000D02*
X68139000Y-97917000D01*
X91302770Y-112690840D02*
X91514902Y-112902972D01*
X90298678Y-113694932D02*
X90510810Y-113907064D01*
X78711790Y-123025952D02*
X79011790Y-123025952D01*
X78711790Y-121605952D02*
X79011790Y-121605952D01*
D15*
X90064314Y-117489952D02*
X89905215Y-117330853D01*
X84937790Y-122616476D02*
X84707980Y-122386666D01*
X79811266Y-117489952D02*
X80041076Y-117719762D01*
X84937790Y-112363428D02*
X85167600Y-112593238D01*
X90064314Y-117489952D02*
X89834504Y-117719762D01*
X84937790Y-112363428D02*
X84707980Y-112593238D01*
X79811266Y-117489952D02*
X80041076Y-117260142D01*
X84937790Y-122616476D02*
X85167600Y-122386666D01*
X89905215Y-117330853D02*
X90912842Y-116323226D01*
X96718380Y-102774476D02*
X95718380Y-102774476D01*
X95718380Y-102393523D01*
X95766000Y-102298285D01*
X95813619Y-102250666D01*
X95908857Y-102203047D01*
X96051714Y-102203047D01*
X96146952Y-102250666D01*
X96194571Y-102298285D01*
X96242190Y-102393523D01*
X96242190Y-102774476D01*
X96623142Y-101203047D02*
X96670761Y-101250666D01*
X96718380Y-101393523D01*
X96718380Y-101488761D01*
X96670761Y-101631619D01*
X96575523Y-101726857D01*
X96480285Y-101774476D01*
X96289809Y-101822095D01*
X96146952Y-101822095D01*
X95956476Y-101774476D01*
X95861238Y-101726857D01*
X95766000Y-101631619D01*
X95718380Y-101488761D01*
X95718380Y-101393523D01*
X95766000Y-101250666D01*
X95813619Y-101203047D01*
X96146952Y-100631619D02*
X96099333Y-100726857D01*
X96051714Y-100774476D01*
X95956476Y-100822095D01*
X95908857Y-100822095D01*
X95813619Y-100774476D01*
X95766000Y-100726857D01*
X95718380Y-100631619D01*
X95718380Y-100441142D01*
X95766000Y-100345904D01*
X95813619Y-100298285D01*
X95908857Y-100250666D01*
X95956476Y-100250666D01*
X96051714Y-100298285D01*
X96099333Y-100345904D01*
X96146952Y-100441142D01*
X96146952Y-100631619D01*
X96194571Y-100726857D01*
X96242190Y-100774476D01*
X96337428Y-100822095D01*
X96527904Y-100822095D01*
X96623142Y-100774476D01*
X96670761Y-100726857D01*
X96718380Y-100631619D01*
X96718380Y-100441142D01*
X96670761Y-100345904D01*
X96623142Y-100298285D01*
X96527904Y-100250666D01*
X96337428Y-100250666D01*
X96242190Y-100298285D01*
X96194571Y-100345904D01*
X96146952Y-100441142D01*
X96718380Y-99298285D02*
X96718380Y-99869714D01*
X96718380Y-99584000D02*
X95718380Y-99584000D01*
X95861238Y-99679238D01*
X95956476Y-99774476D01*
X96004095Y-99869714D01*
X95718380Y-98964952D02*
X95718380Y-98298285D01*
X96718380Y-98726857D01*
X103322619Y-113609380D02*
X103322619Y-112609380D01*
X103751190Y-113561761D02*
X103894047Y-113609380D01*
X104132142Y-113609380D01*
X104227380Y-113561761D01*
X104275000Y-113514142D01*
X104322619Y-113418904D01*
X104322619Y-113323666D01*
X104275000Y-113228428D01*
X104227380Y-113180809D01*
X104132142Y-113133190D01*
X103941666Y-113085571D01*
X103846428Y-113037952D01*
X103798809Y-112990333D01*
X103751190Y-112895095D01*
X103751190Y-112799857D01*
X103798809Y-112704619D01*
X103846428Y-112657000D01*
X103941666Y-112609380D01*
X104179761Y-112609380D01*
X104322619Y-112657000D01*
X104751190Y-113609380D02*
X104751190Y-112609380D01*
X105132142Y-112609380D01*
X105227380Y-112657000D01*
X105275000Y-112704619D01*
X105322619Y-112799857D01*
X105322619Y-112942714D01*
X105275000Y-113037952D01*
X105227380Y-113085571D01*
X105132142Y-113133190D01*
X104751190Y-113133190D01*
X106275000Y-113609380D02*
X105703571Y-113609380D01*
X105989285Y-113609380D02*
X105989285Y-112609380D01*
X105894047Y-112752238D01*
X105798809Y-112847476D01*
X105703571Y-112895095D01*
X72604666Y-91892380D02*
X72604666Y-90892380D01*
X73652285Y-91892380D02*
X73318952Y-91416190D01*
X73080857Y-91892380D02*
X73080857Y-90892380D01*
X73461809Y-90892380D01*
X73557047Y-90940000D01*
X73604666Y-90987619D01*
X73652285Y-91082857D01*
X73652285Y-91225714D01*
X73604666Y-91320952D01*
X73557047Y-91368571D01*
X73461809Y-91416190D01*
X73080857Y-91416190D01*
X74414190Y-91368571D02*
X74080857Y-91368571D01*
X74080857Y-91892380D02*
X74080857Y-90892380D01*
X74557047Y-90892380D01*
X74842761Y-90892380D02*
X75461809Y-90892380D01*
X75128476Y-91273333D01*
X75271333Y-91273333D01*
X75366571Y-91320952D01*
X75414190Y-91368571D01*
X75461809Y-91463809D01*
X75461809Y-91701904D01*
X75414190Y-91797142D01*
X75366571Y-91844761D01*
X75271333Y-91892380D01*
X74985619Y-91892380D01*
X74890380Y-91844761D01*
X74842761Y-91797142D01*
X75842761Y-90987619D02*
X75890380Y-90940000D01*
X75985619Y-90892380D01*
X76223714Y-90892380D01*
X76318952Y-90940000D01*
X76366571Y-90987619D01*
X76414190Y-91082857D01*
X76414190Y-91178095D01*
X76366571Y-91320952D01*
X75795142Y-91892380D01*
X76414190Y-91892380D01*
X77033238Y-90892380D02*
X77128476Y-90892380D01*
X77223714Y-90940000D01*
X77271333Y-90987619D01*
X77318952Y-91082857D01*
X77366571Y-91273333D01*
X77366571Y-91511428D01*
X77318952Y-91701904D01*
X77271333Y-91797142D01*
X77223714Y-91844761D01*
X77128476Y-91892380D01*
X77033238Y-91892380D01*
X76938000Y-91844761D01*
X76890380Y-91797142D01*
X76842761Y-91701904D01*
X76795142Y-91511428D01*
X76795142Y-91273333D01*
X76842761Y-91082857D01*
X76890380Y-90987619D01*
X76938000Y-90940000D01*
X77033238Y-90892380D01*
X78271333Y-90892380D02*
X77795142Y-90892380D01*
X77747523Y-91368571D01*
X77795142Y-91320952D01*
X77890380Y-91273333D01*
X78128476Y-91273333D01*
X78223714Y-91320952D01*
X78271333Y-91368571D01*
X78318952Y-91463809D01*
X78318952Y-91701904D01*
X78271333Y-91797142D01*
X78223714Y-91844761D01*
X78128476Y-91892380D01*
X77890380Y-91892380D01*
X77795142Y-91844761D01*
X77747523Y-91797142D01*
X82383333Y-68302142D02*
X82335714Y-68349761D01*
X82192857Y-68397380D01*
X82097619Y-68397380D01*
X81954761Y-68349761D01*
X81859523Y-68254523D01*
X81811904Y-68159285D01*
X81764285Y-67968809D01*
X81764285Y-67825952D01*
X81811904Y-67635476D01*
X81859523Y-67540238D01*
X81954761Y-67445000D01*
X82097619Y-67397380D01*
X82192857Y-67397380D01*
X82335714Y-67445000D01*
X82383333Y-67492619D01*
X83240476Y-67397380D02*
X83050000Y-67397380D01*
X82954761Y-67445000D01*
X82907142Y-67492619D01*
X82811904Y-67635476D01*
X82764285Y-67825952D01*
X82764285Y-68206904D01*
X82811904Y-68302142D01*
X82859523Y-68349761D01*
X82954761Y-68397380D01*
X83145238Y-68397380D01*
X83240476Y-68349761D01*
X83288095Y-68302142D01*
X83335714Y-68206904D01*
X83335714Y-67968809D01*
X83288095Y-67873571D01*
X83240476Y-67825952D01*
X83145238Y-67778333D01*
X82954761Y-67778333D01*
X82859523Y-67825952D01*
X82811904Y-67873571D01*
X82764285Y-67968809D01*
X82256333Y-84685142D02*
X82208714Y-84732761D01*
X82065857Y-84780380D01*
X81970619Y-84780380D01*
X81827761Y-84732761D01*
X81732523Y-84637523D01*
X81684904Y-84542285D01*
X81637285Y-84351809D01*
X81637285Y-84208952D01*
X81684904Y-84018476D01*
X81732523Y-83923238D01*
X81827761Y-83828000D01*
X81970619Y-83780380D01*
X82065857Y-83780380D01*
X82208714Y-83828000D01*
X82256333Y-83875619D01*
X82589666Y-83780380D02*
X83256333Y-83780380D01*
X82827761Y-84780380D01*
X106368380Y-81827666D02*
X105892190Y-82161000D01*
X106368380Y-82399095D02*
X105368380Y-82399095D01*
X105368380Y-82018142D01*
X105416000Y-81922904D01*
X105463619Y-81875285D01*
X105558857Y-81827666D01*
X105701714Y-81827666D01*
X105796952Y-81875285D01*
X105844571Y-81922904D01*
X105892190Y-82018142D01*
X105892190Y-82399095D01*
X106368380Y-80875285D02*
X106368380Y-81446714D01*
X106368380Y-81161000D02*
X105368380Y-81161000D01*
X105511238Y-81256238D01*
X105606476Y-81351476D01*
X105654095Y-81446714D01*
X98113380Y-81827666D02*
X97637190Y-82161000D01*
X98113380Y-82399095D02*
X97113380Y-82399095D01*
X97113380Y-82018142D01*
X97161000Y-81922904D01*
X97208619Y-81875285D01*
X97303857Y-81827666D01*
X97446714Y-81827666D01*
X97541952Y-81875285D01*
X97589571Y-81922904D01*
X97637190Y-82018142D01*
X97637190Y-82399095D01*
X97208619Y-81446714D02*
X97161000Y-81399095D01*
X97113380Y-81303857D01*
X97113380Y-81065761D01*
X97161000Y-80970523D01*
X97208619Y-80922904D01*
X97303857Y-80875285D01*
X97399095Y-80875285D01*
X97541952Y-80922904D01*
X98113380Y-81494333D01*
X98113380Y-80875285D01*
X73422142Y-84970880D02*
X72850714Y-84970880D01*
X73136428Y-84970880D02*
X73136428Y-83970880D01*
X73041190Y-84113738D01*
X72945952Y-84208976D01*
X72850714Y-84256595D01*
X73850714Y-84970880D02*
X73850714Y-83970880D01*
X74422142Y-84970880D01*
X74422142Y-83970880D01*
X75326904Y-84304214D02*
X75326904Y-84970880D01*
X75088809Y-83923261D02*
X74850714Y-84637547D01*
X75469761Y-84637547D01*
X76374523Y-84970880D02*
X75803095Y-84970880D01*
X76088809Y-84970880D02*
X76088809Y-83970880D01*
X75993571Y-84113738D01*
X75898333Y-84208976D01*
X75803095Y-84256595D01*
X77231666Y-84304214D02*
X77231666Y-84970880D01*
X76993571Y-83923261D02*
X76755476Y-84637547D01*
X77374523Y-84637547D01*
X77898333Y-84399452D02*
X77803095Y-84351833D01*
X77755476Y-84304214D01*
X77707857Y-84208976D01*
X77707857Y-84161357D01*
X77755476Y-84066119D01*
X77803095Y-84018500D01*
X77898333Y-83970880D01*
X78088809Y-83970880D01*
X78184047Y-84018500D01*
X78231666Y-84066119D01*
X78279285Y-84161357D01*
X78279285Y-84208976D01*
X78231666Y-84304214D01*
X78184047Y-84351833D01*
X78088809Y-84399452D01*
X77898333Y-84399452D01*
X77803095Y-84447071D01*
X77755476Y-84494690D01*
X77707857Y-84589928D01*
X77707857Y-84780404D01*
X77755476Y-84875642D01*
X77803095Y-84923261D01*
X77898333Y-84970880D01*
X78088809Y-84970880D01*
X78184047Y-84923261D01*
X78231666Y-84875642D01*
X78279285Y-84780404D01*
X78279285Y-84589928D01*
X78231666Y-84494690D01*
X78184047Y-84447071D01*
X78088809Y-84399452D01*
X78986095Y-84675380D02*
X78986095Y-83675380D01*
X79557523Y-84675380D02*
X79128952Y-84103952D01*
X79557523Y-83675380D02*
X78986095Y-84246809D01*
X82785452Y-95757380D02*
X82214023Y-95757380D01*
X82499738Y-95757380D02*
X82499738Y-94757380D01*
X82404500Y-94900238D01*
X82309261Y-94995476D01*
X82214023Y-95043095D01*
X83214023Y-95757380D02*
X83214023Y-94757380D01*
X83309261Y-95376428D02*
X83594976Y-95757380D01*
X83594976Y-95090714D02*
X83214023Y-95471666D01*
X74869261Y-96536380D02*
X74297833Y-96536380D01*
X74583547Y-96536380D02*
X74583547Y-95536380D01*
X74488309Y-95679238D01*
X74393071Y-95774476D01*
X74297833Y-95822095D01*
X75488309Y-95536380D02*
X75583547Y-95536380D01*
X75678785Y-95584000D01*
X75726404Y-95631619D01*
X75774023Y-95726857D01*
X75821642Y-95917333D01*
X75821642Y-96155428D01*
X75774023Y-96345904D01*
X75726404Y-96441142D01*
X75678785Y-96488761D01*
X75583547Y-96536380D01*
X75488309Y-96536380D01*
X75393071Y-96488761D01*
X75345452Y-96441142D01*
X75297833Y-96345904D01*
X75250214Y-96155428D01*
X75250214Y-95917333D01*
X75297833Y-95726857D01*
X75345452Y-95631619D01*
X75393071Y-95584000D01*
X75488309Y-95536380D01*
X76250214Y-96536380D02*
X76250214Y-95536380D01*
X76345452Y-96155428D02*
X76631166Y-96536380D01*
X76631166Y-95869714D02*
X76250214Y-96250666D01*
X96178761Y-122372380D02*
X95607333Y-122372380D01*
X95893047Y-122372380D02*
X95893047Y-121372380D01*
X95797809Y-121515238D01*
X95702571Y-121610476D01*
X95607333Y-121658095D01*
X96797809Y-121372380D02*
X96893047Y-121372380D01*
X96988285Y-121420000D01*
X97035904Y-121467619D01*
X97083523Y-121562857D01*
X97131142Y-121753333D01*
X97131142Y-121991428D01*
X97083523Y-122181904D01*
X97035904Y-122277142D01*
X96988285Y-122324761D01*
X96893047Y-122372380D01*
X96797809Y-122372380D01*
X96702571Y-122324761D01*
X96654952Y-122277142D01*
X96607333Y-122181904D01*
X96559714Y-121991428D01*
X96559714Y-121753333D01*
X96607333Y-121562857D01*
X96654952Y-121467619D01*
X96702571Y-121420000D01*
X96797809Y-121372380D01*
X97559714Y-122372380D02*
X97559714Y-121372380D01*
X97654952Y-121991428D02*
X97940666Y-122372380D01*
X97940666Y-121705714D02*
X97559714Y-122086666D01*
X111460380Y-116935333D02*
X112174666Y-116935333D01*
X112317523Y-116982952D01*
X112412761Y-117078190D01*
X112460380Y-117221047D01*
X112460380Y-117316285D01*
X111460380Y-116030571D02*
X111460380Y-116221047D01*
X111508000Y-116316285D01*
X111555619Y-116363904D01*
X111698476Y-116459142D01*
X111888952Y-116506761D01*
X112269904Y-116506761D01*
X112365142Y-116459142D01*
X112412761Y-116411523D01*
X112460380Y-116316285D01*
X112460380Y-116125809D01*
X112412761Y-116030571D01*
X112365142Y-115982952D01*
X112269904Y-115935333D01*
X112031809Y-115935333D01*
X111936571Y-115982952D01*
X111888952Y-116030571D01*
X111841333Y-116125809D01*
X111841333Y-116316285D01*
X111888952Y-116411523D01*
X111936571Y-116459142D01*
X112031809Y-116506761D01*
X112339380Y-128103238D02*
X112339380Y-128674666D01*
X112339380Y-128388952D02*
X111339380Y-128388952D01*
X111482238Y-128484190D01*
X111577476Y-128579428D01*
X111625095Y-128674666D01*
X111339380Y-127484190D02*
X111339380Y-127388952D01*
X111387000Y-127293714D01*
X111434619Y-127246095D01*
X111529857Y-127198476D01*
X111720333Y-127150857D01*
X111958428Y-127150857D01*
X112148904Y-127198476D01*
X112244142Y-127246095D01*
X112291761Y-127293714D01*
X112339380Y-127388952D01*
X112339380Y-127484190D01*
X112291761Y-127579428D01*
X112244142Y-127627047D01*
X112148904Y-127674666D01*
X111958428Y-127722285D01*
X111720333Y-127722285D01*
X111529857Y-127674666D01*
X111434619Y-127627047D01*
X111387000Y-127579428D01*
X111339380Y-127484190D01*
X112339380Y-126722285D02*
X111339380Y-126722285D01*
X111958428Y-126627047D02*
X112339380Y-126341333D01*
X111672714Y-126341333D02*
X112053666Y-126722285D01*
X105544952Y-130881380D02*
X104973523Y-130881380D01*
X105259238Y-130881380D02*
X105259238Y-129881380D01*
X105164000Y-130024238D01*
X105068761Y-130119476D01*
X104973523Y-130167095D01*
X105973523Y-130881380D02*
X105973523Y-129881380D01*
X106068761Y-130500428D02*
X106354476Y-130881380D01*
X106354476Y-130214714D02*
X105973523Y-130595666D01*
X79374380Y-76800547D02*
X79374380Y-77371976D01*
X79374380Y-77086261D02*
X78374380Y-77086261D01*
X78517238Y-77181500D01*
X78612476Y-77276738D01*
X78660095Y-77371976D01*
X79374380Y-76371976D02*
X78374380Y-76371976D01*
X78993428Y-76276738D02*
X79374380Y-75991023D01*
X78707714Y-75991023D02*
X79088666Y-76371976D01*
X109536880Y-101787738D02*
X109536880Y-102359166D01*
X109536880Y-102073452D02*
X108536880Y-102073452D01*
X108679738Y-102168690D01*
X108774976Y-102263928D01*
X108822595Y-102359166D01*
X108536880Y-101168690D02*
X108536880Y-101073452D01*
X108584500Y-100978214D01*
X108632119Y-100930595D01*
X108727357Y-100882976D01*
X108917833Y-100835357D01*
X109155928Y-100835357D01*
X109346404Y-100882976D01*
X109441642Y-100930595D01*
X109489261Y-100978214D01*
X109536880Y-101073452D01*
X109536880Y-101168690D01*
X109489261Y-101263928D01*
X109441642Y-101311547D01*
X109346404Y-101359166D01*
X109155928Y-101406785D01*
X108917833Y-101406785D01*
X108727357Y-101359166D01*
X108632119Y-101311547D01*
X108584500Y-101263928D01*
X108536880Y-101168690D01*
X109536880Y-100406785D02*
X108536880Y-100406785D01*
X109155928Y-100311547D02*
X109536880Y-100025833D01*
X108870214Y-100025833D02*
X109251166Y-100406785D01*
X86002904Y-137127380D02*
X86002904Y-136127380D01*
X86241000Y-136127380D01*
X86383857Y-136175000D01*
X86479095Y-136270238D01*
X86526714Y-136365476D01*
X86574333Y-136555952D01*
X86574333Y-136698809D01*
X86526714Y-136889285D01*
X86479095Y-136984523D01*
X86383857Y-137079761D01*
X86241000Y-137127380D01*
X86002904Y-137127380D01*
X87526714Y-137127380D02*
X86955285Y-137127380D01*
X87241000Y-137127380D02*
X87241000Y-136127380D01*
X87145761Y-136270238D01*
X87050523Y-136365476D01*
X86955285Y-136413095D01*
X98552095Y-97877380D02*
X98552095Y-98686904D01*
X98599714Y-98782142D01*
X98647333Y-98829761D01*
X98742571Y-98877380D01*
X98933047Y-98877380D01*
X99028285Y-98829761D01*
X99075904Y-98782142D01*
X99123523Y-98686904D01*
X99123523Y-97877380D01*
X99552095Y-97972619D02*
X99599714Y-97925000D01*
X99694952Y-97877380D01*
X99933047Y-97877380D01*
X100028285Y-97925000D01*
X100075904Y-97972619D01*
X100123523Y-98067857D01*
X100123523Y-98163095D01*
X100075904Y-98305952D01*
X99504476Y-98877380D01*
X100123523Y-98877380D01*
X73977809Y-133294380D02*
X73977809Y-132294380D01*
X74358761Y-132294380D01*
X74454000Y-132342000D01*
X74501619Y-132389619D01*
X74549238Y-132484857D01*
X74549238Y-132627714D01*
X74501619Y-132722952D01*
X74454000Y-132770571D01*
X74358761Y-132818190D01*
X73977809Y-132818190D01*
X74739714Y-133389619D02*
X75501619Y-133389619D01*
X75692095Y-133008666D02*
X76168285Y-133008666D01*
X75596857Y-133294380D02*
X75930190Y-132294380D01*
X76263523Y-133294380D01*
X76454000Y-132294380D02*
X76787333Y-133294380D01*
X77120666Y-132294380D01*
X78025428Y-133294380D02*
X77692095Y-132818190D01*
X77454000Y-133294380D02*
X77454000Y-132294380D01*
X77834952Y-132294380D01*
X77930190Y-132342000D01*
X77977809Y-132389619D01*
X78025428Y-132484857D01*
X78025428Y-132627714D01*
X77977809Y-132722952D01*
X77930190Y-132770571D01*
X77834952Y-132818190D01*
X77454000Y-132818190D01*
X78977809Y-133294380D02*
X78406380Y-133294380D01*
X78692095Y-133294380D02*
X78692095Y-132294380D01*
X78596857Y-132437238D01*
X78501619Y-132532476D01*
X78406380Y-132580095D01*
X75858761Y-129865380D02*
X75287333Y-129865380D01*
X75573047Y-129865380D02*
X75573047Y-128865380D01*
X75477809Y-129008238D01*
X75382571Y-129103476D01*
X75287333Y-129151095D01*
X76477809Y-128865380D02*
X76573047Y-128865380D01*
X76668285Y-128913000D01*
X76715904Y-128960619D01*
X76763523Y-129055857D01*
X76811142Y-129246333D01*
X76811142Y-129484428D01*
X76763523Y-129674904D01*
X76715904Y-129770142D01*
X76668285Y-129817761D01*
X76573047Y-129865380D01*
X76477809Y-129865380D01*
X76382571Y-129817761D01*
X76334952Y-129770142D01*
X76287333Y-129674904D01*
X76239714Y-129484428D01*
X76239714Y-129246333D01*
X76287333Y-129055857D01*
X76334952Y-128960619D01*
X76382571Y-128913000D01*
X76477809Y-128865380D01*
X77239714Y-129865380D02*
X77239714Y-128865380D01*
X77334952Y-129484428D02*
X77620666Y-129865380D01*
X77620666Y-129198714D02*
X77239714Y-129579666D01*
X80398952Y-129865380D02*
X79827523Y-129865380D01*
X80113238Y-129865380D02*
X80113238Y-128865380D01*
X80018000Y-129008238D01*
X79922761Y-129103476D01*
X79827523Y-129151095D01*
X80827523Y-129865380D02*
X80827523Y-128865380D01*
X80922761Y-129484428D02*
X81208476Y-129865380D01*
X81208476Y-129198714D02*
X80827523Y-129579666D01*
X91725832Y-112431595D02*
X91321771Y-112027534D01*
X91523801Y-112229564D02*
X92230908Y-111522458D01*
X92062549Y-111556129D01*
X91927862Y-111556129D01*
X91826847Y-111522458D01*
X92870671Y-112162221D02*
X92938015Y-112229564D01*
X92971687Y-112330580D01*
X92971687Y-112397923D01*
X92938015Y-112498938D01*
X92837000Y-112667297D01*
X92668641Y-112835656D01*
X92500282Y-112936671D01*
X92399267Y-112970343D01*
X92331923Y-112970343D01*
X92230908Y-112936671D01*
X92163564Y-112869328D01*
X92129893Y-112768312D01*
X92129893Y-112700969D01*
X92163564Y-112599954D01*
X92264580Y-112431595D01*
X92432938Y-112263236D01*
X92601297Y-112162221D01*
X92702312Y-112128549D01*
X92769656Y-112128549D01*
X92870671Y-112162221D01*
X93544106Y-112835656D02*
X93611450Y-112903000D01*
X93645122Y-113004015D01*
X93645122Y-113071358D01*
X93611450Y-113172374D01*
X93510435Y-113340732D01*
X93342076Y-113509091D01*
X93173717Y-113610106D01*
X93072702Y-113643778D01*
X93005358Y-113643778D01*
X92904343Y-113610106D01*
X92836999Y-113542763D01*
X92803328Y-113441748D01*
X92803328Y-113374404D01*
X92837000Y-113273389D01*
X92938015Y-113105030D01*
X93106374Y-112936671D01*
X93274732Y-112835656D01*
X93375748Y-112801984D01*
X93443091Y-112801984D01*
X93544106Y-112835656D01*
X93847152Y-113610106D02*
X93375748Y-114081511D01*
X93779809Y-113677450D02*
X93847152Y-113677450D01*
X93948167Y-113711122D01*
X94049183Y-113812137D01*
X94082854Y-113913152D01*
X94049183Y-114014167D01*
X93678793Y-114384557D01*
X77239952Y-121102380D02*
X76668523Y-121102380D01*
X76954238Y-121102380D02*
X76954238Y-120102380D01*
X76859000Y-120245238D01*
X76763761Y-120340476D01*
X76668523Y-120388095D01*
X77859000Y-120102380D02*
X77954238Y-120102380D01*
X78049476Y-120150000D01*
X78097095Y-120197619D01*
X78144714Y-120292857D01*
X78192333Y-120483333D01*
X78192333Y-120721428D01*
X78144714Y-120911904D01*
X78097095Y-121007142D01*
X78049476Y-121054761D01*
X77954238Y-121102380D01*
X77859000Y-121102380D01*
X77763761Y-121054761D01*
X77716142Y-121007142D01*
X77668523Y-120911904D01*
X77620904Y-120721428D01*
X77620904Y-120483333D01*
X77668523Y-120292857D01*
X77716142Y-120197619D01*
X77763761Y-120150000D01*
X77859000Y-120102380D01*
X78811380Y-120102380D02*
X78906619Y-120102380D01*
X79001857Y-120150000D01*
X79049476Y-120197619D01*
X79097095Y-120292857D01*
X79144714Y-120483333D01*
X79144714Y-120721428D01*
X79097095Y-120911904D01*
X79049476Y-121007142D01*
X79001857Y-121054761D01*
X78906619Y-121102380D01*
X78811380Y-121102380D01*
X78716142Y-121054761D01*
X78668523Y-121007142D01*
X78620904Y-120911904D01*
X78573285Y-120721428D01*
X78573285Y-120483333D01*
X78620904Y-120292857D01*
X78668523Y-120197619D01*
X78716142Y-120150000D01*
X78811380Y-120102380D01*
X79573285Y-120435714D02*
X79573285Y-121102380D01*
X79573285Y-120530952D02*
X79620904Y-120483333D01*
X79716142Y-120435714D01*
X79859000Y-120435714D01*
X79954238Y-120483333D01*
X80001857Y-120578571D01*
X80001857Y-121102380D01*
X88289812Y-121919470D02*
X88862232Y-122491890D01*
X88963247Y-122525562D01*
X89030591Y-122525562D01*
X89131606Y-122491890D01*
X89266293Y-122357203D01*
X89299965Y-122256188D01*
X89299965Y-122188844D01*
X89266293Y-122087829D01*
X88693873Y-121515409D01*
X90108087Y-121515409D02*
X89704026Y-121919470D01*
X89906056Y-121717440D02*
X89198950Y-121010333D01*
X89232621Y-121178692D01*
X89232621Y-121313379D01*
X89198950Y-121414394D01*
M02*
